<svg xmlns="http://www.w3.org/2000/svg" width="30" height="30" viewBox="0 0 30 30"><path d="M15 4C7.82 4 2 9.82 2 17a12.94 12.94 0 0 0 3.141 8.459L2 28.6 3.4 30l3.141-3.141C8.815 28.813 11.767 30 15 30s6.185-1.188 8.459-3.141L26.6 30l1.4-1.4-3.141-3.141A12.934 12.934 0 0 0 28 17c0-7.18-5.82-13-13-13zm0 24C8.925 28 4 23.075 4 17S8.925 6 15 6s11 4.925 11 11-4.925 11-11 11zm-1-12H7v2h9V8h-2v8zM24 0a5.978 5.978 0 0 0-4.242 1.758l8.484 8.484A6 6 0 0 0 24 0zm3.865 7.037l-4.901-4.902a4.005 4.005 0 0 1 4.901 4.902zM6 0a6 6 0 0 0-4.242 10.242l8.484-8.484A5.978 5.978 0 0 0 6 0zM2 6a4.005 4.005 0 0 1 5.036-3.865L2.135 7.037A4.024 4.024 0 0 1 2 6z"/></svg>