<svg xmlns="http://www.w3.org/2000/svg" width="30" height="30" viewBox="0 0 30 30"><path d="M30 24c-3-2-6-5-6-7v-5c0-3.534-2.042-6.584-5.006-8.057A3.997 3.997 0 0 0 15 0a3.997 3.997 0 0 0-3.994 3.943C8.042 5.416 6 8.466 6 12v5c0 2-3 5-6 7h10.115A4.84 4.84 0 0 0 10 25a5 5 0 1 0 10 0 4.84 4.84 0 0 0-.115-1H30zM15 2c.813 0 1.511.488 1.823 1.186a8.975 8.975 0 0 0-3.646 0A1.998 1.998 0 0 1 15 2zM8 17v-5c0-3.859 3.14-7 7-7 3.859 0 7 3.141 7 7v5c0 1.739 1.157 3.509 2.536 5H5.464C6.843 20.509 8 18.739 8 17zm10 8a3.001 3.001 0 0 1-6 0 2.9 2.9 0 0 1 .183-1h5.633c.115.313.184.646.184 1z"/></svg>