<svg xmlns="http://www.w3.org/2000/svg" width="30" height="30" viewBox="0 0 30 30"><path d="M13 22a2 2 0 1 0 4 0 2 2 0 0 0-4 0zM25 2H5C2.8 2 1 3.8 1 6v6c0 2.2 1.8 4 4 4h1v12h18V16h1c2.2 0 4-1.8 4-4V6c0-2.2-1.8-4-4-4zm-3 24H8v-8.742C9.803 18.328 12.262 19 15 19s5.197-.672 7-1.742V26zm0-11.179C20.663 16.032 18.1 17 15 17s-5.663-.968-7-2.179v-3.643c.482-.436 1.129-.838 1.897-1.178h10.205c.769.34 1.415.742 1.897 1.179v3.642zM27 12c0 1.103-.896 2-2 2h-1v-4h1V8H5v2h1v4H5c-1.104 0-2-.897-2-2V6c0-1.103.896-2 2-2h20c1.104 0 2 .897 2 2v6z"/></svg>