<svg xmlns="http://www.w3.org/2000/svg" width="30" height="30" viewBox="0 0 30 30"><path d="M15 0C6.716 0 0 6.716 0 15s6.716 15 15 15 15-6.716 15-15S23.284 0 15 0zm8.607 20.406l1.723-.88-.91-1.781-1.737.888C22.242 17.507 22 16.282 22 15s.242-2.507.683-3.633l1.737.888.91-1.781-1.723-.88a10.06 10.06 0 0 1 1.921-2.199C27.076 9.535 28 12.156 28 15s-.924 5.465-2.472 7.605a10.063 10.063 0 0 1-1.921-2.199zM4.472 7.395a10.063 10.063 0 0 1 1.921 2.199l-1.723.88.91 1.781 1.737-.888C7.758 12.493 8 13.718 8 15s-.242 2.507-.683 3.633l-1.737-.888-.91 1.781 1.723.88a10.06 10.06 0 0 1-1.921 2.199C2.924 20.465 2 17.844 2 15s.924-5.465 2.472-7.605zM15 28a12.954 12.954 0 0 1-9.252-3.873 12.068 12.068 0 0 0 2.427-2.811l1.839.938.91-1.781-1.83-.935C9.67 18.138 10 16.61 10 15s-.33-3.138-.906-4.539l1.83-.935-.91-1.781-1.839.939a12.068 12.068 0 0 0-2.427-2.811C8.105 3.483 11.379 2 15 2s6.895 1.483 9.252 3.873a12.068 12.068 0 0 0-2.427 2.811l-1.839-.938-.91 1.781 1.83.935C20.33 11.862 20 13.39 20 15s.33 3.138.906 4.539l-1.83.935.91 1.781 1.839-.938a12.068 12.068 0 0 0 2.427 2.811A12.958 12.958 0 0 1 15 28z"/></svg>