<svg xmlns="http://www.w3.org/2000/svg" width="30" height="30" viewBox="0 0 30 30"><path d="M15 0C6.716 0 0 6.716 0 15s6.716 15 15 15 15-6.716 15-15S23.284 0 15 0zm7.063 16h5.887a12.917 12.917 0 0 1-2.421 6.605A9.951 9.951 0 0 1 22.063 16zm0-2a9.96 9.96 0 0 1 3.466-6.605A12.92 12.92 0 0 1 27.95 14h-5.887zm2.189-8.127A11.931 11.931 0 0 0 20.062 14H16V2.051a12.95 12.95 0 0 1 8.252 3.822zM14 2.051V14H9.938a11.935 11.935 0 0 0-4.19-8.127A12.95 12.95 0 0 1 14 2.051zM4.472 22.605A12.9 12.9 0 0 1 2.051 16h5.887a9.96 9.96 0 0 1-3.466 6.605zM2.051 14a12.917 12.917 0 0 1 2.421-6.605A9.96 9.96 0 0 1 7.938 14H2.051zm3.697 10.127A11.931 11.931 0 0 0 9.938 16H14v11.949a12.95 12.95 0 0 1-8.252-3.822zM16 27.949V16h4.062a11.935 11.935 0 0 0 4.19 8.127A12.95 12.95 0 0 1 16 27.949z"/></svg>