<svg xmlns="http://www.w3.org/2000/svg" width="30" height="30" viewBox="0 0 30 30"><path d="M25 1H5C2.8 1 1 2.8 1 5v14c0 2.2 1.8 4 4 4h2v6l10-6h8c2.2 0 4-1.8 4-4V5c0-2.2-1.8-4-4-4zm2 18a2 2 0 0 1-2 2h-8.555L9 25.468V21H5a2 2 0 0 1-2-2V5a2 2 0 0 1 2-2h20a2 2 0 0 1 2 2v14zm-9.844-9.328L15 5l-2.156 4.672L8 10.594l3.531 3.281L10.344 19 15 16.438 19.656 19l-1.188-5.125L22 10.594l-4.844-.922zm-.459 5.417L15 14.154l-1.697.935.438-1.891-1.484-1.379 1.971-.375L15 9.772l.771 1.672 1.971.375-1.483 1.379.438 1.891z"/></svg>