<svg xmlns="http://www.w3.org/2000/svg" width="30" height="30" viewBox="0 0 30 30"><path d="M24.955 12.097C24.501 7.551 20.666 4 16 4c-3.568 0-6.642 2.081-8.097 5.091A4.981 4.981 0 0 0 7 9a5 5 0 0 0-5 5c0 .472.086.919.208 1.352A6 6 0 0 0 6 26h18c3.314 0 6-3.134 6-7 0-3.486-2.187-6.369-5.045-6.903zM24 24H6c-2.206 0-4-1.794-4-4 0-1.709 1.016-2.875 2.488-3.928C4.281 15.563 4 14.578 4 14c0-1.654 1.346-3 3-3 .734 0 1.469.203 2.041.332C10.188 8.406 12.359 6 16 6c3.625 0 7.031 2.625 7.113 7.787C27.516 14.078 28 17.672 28 19c0 2.757-1.795 5-4 5z"/></svg>