<svg height="30" viewBox="0 0 30 30" width="30" xmlns="http://www.w3.org/2000/svg"><path d="m22 11c-2.393 0-4.534.66-6 1.7v-6.7c0-2.762-3.582-5-8-5s-8 2.238-8 5v16c0 2.762 3.582 5 8 5 2.512 0 4.751-.725 6.218-1.857.828 2.21 3.994 3.857 7.782 3.857 4.418 0 8-2.238 8-5v-8c0-2.762-3.582-5-8-5zm-14-8c3.434 0 6 1.584 6 3s-2.566 3-6 3-6-1.584-6-3 2.566-3 6-3zm-6 6.3c1.466 1.04 3.607 1.7 6 1.7s4.534-.66 6-1.7v.7c0 1.416-2.566 3-6 3s-6-1.584-6-3zm0 4c1.466 1.04 3.607 1.7 6 1.7s4.534-.66 6-1.7v.7c0 1.416-2.566 3-6 3s-6-1.584-6-3zm0 4c1.466 1.04 3.607 1.7 6 1.7s4.534-.66 6-1.7v.7c0 1.416-2.566 3-6 3s-6-1.584-6-3zm6 7.7c-3.434 0-6-1.584-6-3v-.7c1.466 1.04 3.607 1.7 6 1.7s4.534-.66 6-1.7v.7c0 1.416-2.566 3-6 3zm20-1c0 1.416-2.566 3-6 3s-6-1.584-6-3v-.7c1.466 1.04 3.607 1.7 6 1.7s4.534-.66 6-1.7zm0-4c0 1.416-2.566 3-6 3s-6-1.584-6-3v-.7c1.466 1.04 3.607 1.7 6 1.7s4.534-.66 6-1.7zm-6-1c-3.434 0-6-1.584-6-3s2.566-3 6-3 6 1.584 6 3-2.566 3-6 3z"/></svg>