<?xml version="1.0" encoding="utf-8"?>
<!-- Generator: Adobe Illustrator 22.0.1, SVG Export Plug-In . SVG Version: 6.00 Build 0)  -->
<svg version="1.1" id="Layer_1" xmlns="http://www.w3.org/2000/svg" xmlns:xlink="http://www.w3.org/1999/xlink" x="0px" y="0px"
	 viewBox="0 0 181.3 116.4" style="enable-background:new 0 0 181.3 116.4;" xml:space="preserve">
<title>Artboard 25</title>
<g>
	<path d="M57.2,11.7C57.2,5.3,52,0,45.5,0H11.7C5.3,0,0,5.3,0,11.7s5.3,11.7,11.7,11.7h33.8C52,23.5,57.2,18.2,57.2,11.7z"/>
	<path d="M123.8,0H88c-6.5,0-11.7,5.3-11.7,11.7S81.5,23.5,88,23.5h35.4c19.2,0,34.7,15.5,34.7,34.7s-15.5,34.7-34.7,34.7H88
		c-6.5,0-11.7,5.2-11.7,11.7s5.2,11.7,11.7,11.7c0,0,0,0,0,0h35.8c32.1-0.4,57.9-26.8,57.4-58.9C180.9,25.9,155.4,0.4,123.8,0z"/>
	<path d="M128.3,58.2c0-6.5-5.3-11.7-11.7-11.7H49.7c-6.5,0-11.7,5.3-11.7,11.7s5.3,11.7,11.7,11.7h66.8
		C123,69.9,128.3,64.7,128.3,58.2z"/>
</g>
</svg>
