<svg xmlns="http://www.w3.org/2000/svg" width="30" height="30" viewBox="0 0 30 30"><path d="M15 0C6.716 0 0 6.716 0 15s6.716 15 15 15 15-6.716 15-15S23.284 0 15 0zm11.575 9.104l-6.499 2.709a5.988 5.988 0 0 0-1.889-1.889l2.709-6.499a13.029 13.029 0 0 1 5.679 5.679zM19 15a4 4 0 1 1-8 0 4 4 0 0 1 8 0zM2 15C2 7.82 7.82 2 15 2c1.423 0 2.788.236 4.069.659l-2.708 6.502A6.042 6.042 0 0 0 15 9a6 6 0 0 0-6 6c0 .469.06.923.161 1.361l-6.502 2.708A12.945 12.945 0 0 1 2 15zm1.425 5.896l6.499-2.709a5.988 5.988 0 0 0 1.889 1.889l-2.709 6.499a13.029 13.029 0 0 1-5.679-5.679zM15 28c-1.423 0-2.788-.236-4.069-.659l2.708-6.502c.438.101.892.161 1.361.161a6 6 0 0 0 6-6c0-.469-.06-.923-.161-1.361l6.502-2.708C27.764 12.212 28 13.577 28 15c0 7.18-5.82 13-13 13zm0-15a2 2 0 1 0 .001 4.001A2 2 0 0 0 15 13z"/></svg>