<svg xmlns="http://www.w3.org/2000/svg" width="30" height="30" viewBox="0 0 30 30"><path d="M24 1c-2.21 0-4 1.79-4 4v12l2 1v8a3 3 0 1 0 6 0V5c0-2.21-1.79-4-4-4zm2 25a1 1 0 0 1-2 0v-9.236l-2-1V5c0-1.103.897-2 2-2s2 .897 2 2v21zM10 6L8 1 6 6 3 1 2 12c0 1.479 1.208 2.769 3 3.461V26a3 3 0 1 0 6 0V15.461c1.792-.692 3-1.981 3-3.461L13 1l-3 5zm-1 8.09V26a1 1 0 0 1-2 0V14.09c-2-.637-3.031-1.465-2.997-2.029l.435-4.778 1.922 3.204L8 6.385l1.641 4.102 1.922-3.204.435 4.778c.033.564-.998 1.392-2.998 2.029z"/></svg>