<svg xmlns="http://www.w3.org/2000/svg" width="30" height="30" viewBox="0 0 30 30"><path d="M27.5 2.5C26.25 1.25 20.359 1 19 1 9 1 1 9 1 19c0 1.359.313 7.313 1.5 8.5S9.641 29 11 29c10 0 18-8 18-18 0-1.359-.25-7.25-1.5-8.5zM11 27c-2.1 0-6.044-.42-7.069-.931C3.42 25.044 3 21.1 3 19c0-8.822 7.178-16 16-16 2.498 0 6.152.422 7.074.926.504.922.926 4.576.926 7.074 0 8.822-7.178 16-16 16zm8.6-18L18 10.6 16.4 9 15 10.4l1.6 1.6-1.6 1.6-1.6-1.6-1.4 1.4 1.6 1.6-1.6 1.6-1.6-1.6L9 16.4l1.6 1.6L9 19.6l1.4 1.4 1.6-1.6 1.6 1.6 1.4-1.4-1.6-1.6 1.6-1.6 1.6 1.6 1.4-1.4-1.6-1.6 1.6-1.6 1.6 1.6 1.4-1.4-1.6-1.6 1.6-1.6L19.6 9z"/></svg>