<svg xmlns="http://www.w3.org/2000/svg" width="30" height="30" viewBox="0 0 30 30"><path d="M29 9h-6.343C23.911 8.024 25 6.696 25 5a4 4 0 0 0-4-4c-3.859 0-5.828 5.516-6 6-.172-.484-2.141-6-6-6a4 4 0 0 0-4 4c0 1.696 1.089 3.024 2.343 4H1v8h2v12h24V17h2V9zm-10 6h-8v-4h8v4zm0 2v10h-8V17h8zm2-14c1.103 0 2 .897 2 2 0 1.362-1.637 2.85-4.393 4h-2.195c.635-2.109 2.354-6 4.588-6zM7 5c0-1.103.897-2 2-2 2.234 0 3.953 3.891 4.588 6h-2.195C8.637 7.85 7 6.362 7 5zm-4 6h6v4H3v-4zm2 6h4v10H5V17zm20 10h-4V17h4v10zm2-12h-6v-4h6v4z"/></svg>