<svg xmlns="http://www.w3.org/2000/svg" width="30" height="30" viewBox="0 0 30 30"><path d="M15 0C6.716 0 0 6.716 0 15s6.716 15 15 15 15-6.716 15-15S23.284 0 15 0zm-1 6.967a19.477 19.477 0 0 1-3.455-.483C11.479 4.258 12.731 2.752 14 2.22v4.747zm0 1.999V14H9.025c.077-2.085.386-3.978.856-5.612 1.301.316 2.681.514 4.119.578zM14 16v5.034a21.492 21.492 0 0 0-4.118.577c-.471-1.633-.779-3.526-.857-5.611H14zm0 7.033v4.747c-1.269-.532-2.521-2.038-3.455-4.265A19.57 19.57 0 0 1 14 23.033zm2 0a19.57 19.57 0 0 1 3.455.482c-.935 2.227-2.187 3.732-3.455 4.265v-4.747zm0-1.999V16h4.975c-.077 2.085-.386 3.978-.856 5.611A21.593 21.593 0 0 0 16 21.034zM16 14V8.966a21.413 21.413 0 0 0 4.118-.578c.471 1.634.779 3.527.856 5.612H16zm0-7.033V2.22c1.269.533 2.521 2.039 3.455 4.264A19.477 19.477 0 0 1 16 6.967zm3.709-4.074a12.983 12.983 0 0 1 3.66 2.166c-.623.329-1.296.62-2.007.873-.47-1.157-1.026-2.18-1.653-3.039zM8.638 5.932a15.252 15.252 0 0 1-2.007-.873 12.983 12.983 0 0 1 3.66-2.166c-.627.859-1.183 1.882-1.653 3.039zm-.665 1.895c-.539 1.854-.868 3.949-.946 6.173H2.051a12.928 12.928 0 0 1 3.102-7.472c.86.501 1.804.938 2.82 1.299zM7.027 16c.078 2.224.406 4.318.945 6.173-1.016.361-1.96.798-2.82 1.299A12.927 12.927 0 0 1 2.051 16h4.976zm1.611 8.068c.471 1.156 1.026 2.18 1.653 3.039a13.006 13.006 0 0 1-3.66-2.166c.623-.329 1.296-.62 2.007-.873zm12.724 0c.711.253 1.384.544 2.007.873a13.006 13.006 0 0 1-3.66 2.166c.627-.859 1.183-1.882 1.653-3.039zm.665-1.895c.539-1.854.867-3.949.945-6.173h4.977a12.928 12.928 0 0 1-3.102 7.472 16.728 16.728 0 0 0-2.82-1.299zM22.973 14c-.078-2.224-.406-4.319-.945-6.173a16.728 16.728 0 0 0 2.82-1.299A12.925 12.925 0 0 1 27.95 14h-4.977z"/></svg>