<svg xmlns="http://www.w3.org/2000/svg" width="30" height="30" viewBox="0 0 30 30"><path d="M29.183 10.148a14.986 14.986 0 0 0-1.148-2.555A3.965 3.965 0 0 0 29 5a4 4 0 0 0-4-4 3.97 3.97 0 0 0-2.595.966A14.864 14.864 0 0 0 19.851.818L20 0H10l.148.817c-.892.306-1.746.689-2.553 1.149A3.97 3.97 0 0 0 5 1a4 4 0 0 0-4 4c0 .992.366 1.896.966 2.594-.46.809-.843 1.662-1.148 2.555L0 10v10l.817-.148c.306.893.688 1.746 1.148 2.555A3.965 3.965 0 0 0 1 25a4 4 0 0 0 4 4 3.97 3.97 0 0 0 2.595-.966c.808.46 1.661.843 2.554 1.148L10 30h10l-.148-.817a14.941 14.941 0 0 0 2.554-1.148A3.97 3.97 0 0 0 25 29a4 4 0 0 0 4-4c0-.992-.366-1.896-.966-2.594.46-.809.843-1.662 1.148-2.555L30 20V10l-.817.148zM12.396 28l1.272-7h2.662l1.272 7h-5.206zm5.576-9h-5.943a4.984 4.984 0 0 1-1.028-1.028v-5.944a5.023 5.023 0 0 1 1.027-1.027h5.945c.391.291.736.637 1.027 1.027v5.944A5.008 5.008 0 0 1 17.972 19zM2 17.604v-5.207l7 1.272v2.662l-7 1.273zM17.604 2l-1.272 7H13.67l-1.272-7h5.206zM21 16.331v-2.662l7-1.272v5.207l-7-1.273zM25 3a2 2 0 0 1 2 2c0 .283-.069.547-.177.791a15.039 15.039 0 0 0-2.614-2.614A1.96 1.96 0 0 1 25 3zm2.165 7.516l-6.056 1.101a7.004 7.004 0 0 0-2.726-2.726l1.101-6.055a12.977 12.977 0 0 1 7.681 7.68zM3 5a2 2 0 0 1 2-2c.283 0 .547.07.791.177a15.004 15.004 0 0 0-2.614 2.614A1.944 1.944 0 0 1 3 5zm7.516-2.164l1.101 6.055a7.004 7.004 0 0 0-2.726 2.726l-6.056-1.101a12.972 12.972 0 0 1 7.681-7.68zM5 27a2 2 0 0 1-2-2c0-.283.069-.547.177-.791a15.039 15.039 0 0 0 2.614 2.614A1.96 1.96 0 0 1 5 27zm-2.164-7.516l6.055-1.101a7.004 7.004 0 0 0 2.726 2.726l-1.101 6.055a12.97 12.97 0 0 1-7.68-7.68zM27 25a2 2 0 0 1-2 2 1.96 1.96 0 0 1-.791-.177 15.039 15.039 0 0 0 2.614-2.614c.108.244.177.508.177.791zm-7.516 2.164l-1.101-6.055a7.004 7.004 0 0 0 2.726-2.726l6.055 1.101a12.97 12.97 0 0 1-7.68 7.68z"/></svg>