<svg xmlns="http://www.w3.org/2000/svg" width="30" height="30" viewBox="0 0 30 30"><path d="M26.6 2L21 7.6V6A6 6 0 0 0 9 6v8c0 1.555.597 2.967 1.566 4.032l-1.414 1.415A7.964 7.964 0 0 1 7 14v-4H5v4c0 2.66 1.053 5.063 2.746 6.854L2 26.6 3.4 28 28 3.4 26.6 2zM19 9.6l-7.008 7.008A3.971 3.971 0 0 1 11 14V6c0-2.205 1.794-4 4-4s4 1.795 4 4v3.6zm4 1.629V14a8 8 0 0 1-10.402 7.632l-1.548 1.547a9.94 9.94 0 0 0 2.95.771V28H7v2h16v-2h-7v-4.051c5.053-.502 9-4.764 9-9.949v-4h-.771L23 11.229zm-6.462 6.461l-2.262 2.262c.238.028.479.048.724.048a6 6 0 0 0 6-6v-.771l-2.31 2.31a4.015 4.015 0 0 1-2.152 2.151z"/></svg>