<svg xmlns="http://www.w3.org/2000/svg" width="30" height="30" viewBox="0 0 30 30"><path d="M28.551 17.528l-.515-1.921-6.83 1.831L16.995 15l4.211-2.438 6.83 1.831.515-1.922-4.909-1.316L29 8.062 28 6.33l-5.358 3.094 1.315-4.909L22.036 4l-1.83 6.83L16 13.266V9l5-5-1.406-1.406L16 6.188V0h-2v6.188l-3.594-3.594L9 4l5 5v4.266L9.794 10.83 7.964 4l-1.921.515 1.315 4.909L2 6.33 1 8.062l5.358 3.093-4.909 1.316.515 1.922 6.83-1.831L13.005 15l-4.211 2.438-6.83-1.831-.515 1.921 4.909 1.316L1 21.938l1 1.731 5.358-3.094-1.315 4.909L7.964 26l1.83-6.831L14 16.733V21l-5 5 1.406 1.406L14 23.813V30h2v-6.187l3.594 3.593L21 26l-5-5v-4.267l4.206 2.436L22.036 26l1.921-.516-1.315-4.909L28 23.669l1-1.731-5.358-3.094z"/></svg>