<svg xmlns="http://www.w3.org/2000/svg" width="30" height="30" viewBox="0 0 30 30"><path d="M15 0C6.716 0 0 6.715 0 15s6.716 15 15 15 15-6.715 15-15S23.284 0 15 0zm12.017 10.044l-4.998 1.624L16 7.236V2.051a12.998 12.998 0 0 1 11.017 7.993zM18.529 20H11.47l-2.137-6.845L15 8.983l5.666 4.172L18.529 20zM14 2.051v5.186l-6.019 4.432-4.998-1.624A12.997 12.997 0 0 1 14 2.051zM2 15c0-1.053.139-2.071.375-3.052l4.993 1.623 2.234 7.156-3.025 4.164A12.957 12.957 0 0 1 2 15zm6.197 11.063L11.149 22h7.701l2.951 4.063C19.821 27.283 17.497 28 15 28s-4.821-.717-6.803-1.937zm15.226-1.171l-3.025-4.163 2.234-7.158 4.993-1.621c.236.979.375 1.997.375 3.05 0 3.964-1.779 7.508-4.577 9.892z"/></svg>