<svg xmlns="http://www.w3.org/2000/svg" width="30" height="30" viewBox="0 0 30 30"><path d="M29 11L25 1H5L1 11a5.98 5.98 0 0 0 2 4.463V29h14v-8h4v8h6V15.463A5.98 5.98 0 0 0 29 11zM6.354 3h17.293l3.338 8.348A4.005 4.005 0 0 1 23 15c-.98 0-1.928-.364-2.664-1.025L19 12.776l-1.336 1.198C16.928 14.636 15.98 15 15 15s-1.928-.364-2.664-1.025L11 12.776l-1.336 1.198A3.983 3.983 0 0 1 7 15a4.004 4.004 0 0 1-3.984-3.652L6.354 3zM25 27h-2v-8h-8v8H5V16.651A5.97 5.97 0 0 0 7 17a5.968 5.968 0 0 0 4-1.537 5.97 5.97 0 0 0 8 0A5.97 5.97 0 0 0 23 17a5.97 5.97 0 0 0 2-.349V27z"/></svg>