<svg height="30" viewBox="0 0 30 30" width="30" xmlns="http://www.w3.org/2000/svg"><path d="m16 4.051v-4.051h-2v4.051c.33-.03.663-.051 1-.051s.67.021 1 .051zm-5.606.97-2.028-3.511-1.732 1 2.027 3.511a10.899 10.899 0 0 1 1.733-1zm12.971-2.511-1.731-.999-2.026 3.511c.609.281 1.189.614 1.732.998zm-17.345 6.15-3.51-2.026-1 1.732 3.512 2.027c.281-.61.614-1.189.998-1.733zm8.98-2.66c-4.971 0-9 4.029-9 9s4.029 9 9 9 9-4.029 9-9-4.029-9-9-9zm0 16a7 7 0 1 1 0-14 7 7 0 0 1 0 14zm13.49-13.634-1-1.731-3.51 2.026c.384.543.717 1.123.998 1.732zm-8.884 16.613 2.027 3.511 1.732-1-2.026-3.511a10.81 10.81 0 0 1 -1.733 1zm4.374-3.639 3.51 2.026 1-1.732-3.512-2.027c-.281.61-.614 1.189-.998 1.733zm1.969-7.34c.03.33.051.662.051 1s-.021.67-.051 1h4.051v-2zm-11.949 11.949v4.051h2v-4.051c-.33.03-.663.051-1 .051s-.67-.021-1-.051zm-7.366 1.541 1.732 1.001 2.028-3.512a10.97 10.97 0 0 1 -1.733-.999zm-2.634-12.49c0-.338.021-.67.05-1h-4.05v2h4.05c-.029-.33-.05-.662-.05-1zm-2.49 6.634 1 1.732 3.51-2.026a11.016 11.016 0 0 1 -.999-1.733z"/></svg>