<svg xmlns="http://www.w3.org/2000/svg" width="30" height="30" viewBox="0 0 30 30"><path d="M26 4H4a4 4 0 0 1-4 4v14a4 4 0 0 1 4 4h22a4 4 0 0 1 4-4V8a4 4 0 0 1-4-4zm2 16.343A6.03 6.03 0 0 0 24.343 24H5.657A6.028 6.028 0 0 0 2 20.343V9.657A6.028 6.028 0 0 0 5.657 6h18.686A6.028 6.028 0 0 0 28 9.657v10.686zm-12.844-7.671L13 8l-2.156 4.672L6 13.594l3.531 3.281L8.344 22 13 19.438 17.656 22l-1.188-5.125L20 13.594l-4.844-.922zm-.459 5.417L13 17.154l-1.697.935.438-1.891-1.484-1.379 1.971-.375.772-1.672.771 1.672 1.971.375-1.484 1.379.439 1.891zM22 22h2V8h-2v14z"/></svg>