<svg xmlns="http://www.w3.org/2000/svg" width="30" height="30" viewBox="0 0 30 30"><path d="M5.009 14.525l3.743 4.674C10.465 17.826 12.635 17 15 17s4.535.826 6.248 2.199l3.743-4.674C22.256 12.324 18.786 11 15 11s-7.256 1.324-9.991 3.525zm15.823 1.995C19.056 15.531 17.042 15 15 15s-4.056.531-5.832 1.52l-1.264-1.578C10.044 13.666 12.463 13 15 13s4.956.666 7.096 1.941l-1.264 1.579zm-10.83 4.24L15 27l4.998-6.24C18.629 19.66 16.893 19 15 19s-3.629.66-4.998 1.76zM15 23.801l-1.977-2.469C13.651 21.113 14.315 21 15 21s1.349.113 1.977.332L15 23.801zM15 3A23.893 23.893 0 0 0 0 8.271l3.752 4.685C6.833 10.483 10.741 9 15 9s8.167 1.483 11.248 3.956L30 8.271A23.893 23.893 0 0 0 15 3zm10.875 7.223C22.651 8.133 18.858 7 15 7S7.349 8.133 4.125 10.223L2.865 8.65C6.462 6.256 10.619 5 15 5s8.538 1.256 12.135 3.65l-1.26 1.573z"/></svg>