<svg xmlns="http://www.w3.org/2000/svg" width="30" height="30" viewBox="0 0 30 30"><path d="M26.6 2l-4.514 4.514c-.828-1.068-1.869-1.963-3.092-2.57C18.963 1.762 17.189 0 15 0s-3.963 1.762-3.994 3.943C8.042 5.416 6 8.466 6 12v5c0 2-3 5-6 7h4.6L2 26.6 3.4 28 28 3.4 26.6 2zM15 2c.813 0 1.511.488 1.823 1.186a8.975 8.975 0 0 0-3.646 0A1.998 1.998 0 0 1 15 2zM6.6 22H5.464C6.843 20.509 8 18.739 8 17v-5c0-3.859 3.141-7 7-7 2.338 0 4.4 1.161 5.672 2.928L6.6 22zM30 24c-3-2-6-5-6-7v-5c0-.552-.066-1.086-.161-1.61L22 12.229V17c0 1.739 1.157 3.509 2.536 5H12.229l-2.137 2.137c-.053.28-.092.566-.092.863 0 2.762 2.238 5 5 5s5-2.238 5-5a4.84 4.84 0 0 0-.115-1H30zm-15 4c-1.656 0-3-1.344-3-3 0-.354.069-.688.184-1h5.633c.114.313.183.646.183 1 0 1.656-1.344 3-3 3z" fill="#fff"/></svg>