<svg height="30" viewBox="0 0 30 30" width="30" xmlns="http://www.w3.org/2000/svg"><path d="m20.834 16.542-2.959 2.896-7.313-7.313 2.896-2.959-6.687-8.166-4.396 4.396c-1.047 1.157-1.375 2.417-1.375 3.604 0 9.047 10.906 20 20 20 1.188 0 2.447-.328 3.604-1.375l4.396-4.396zm2.355 9.669c-.574.517-1.293.789-2.189.789-7.906 0-18-10.094-18-18 0-.896.272-1.615.857-2.262l2.765-2.763 4.153 5.072-3.026 3.093 10.11 10.11 3.093-3.026 5.071 4.152zm-5.789-12.211 5.6-5.6v4.6h2v-8h-8v2h4.6l-5.6 5.6z" fill="#fff"/></svg>