<svg xmlns="http://www.w3.org/2000/svg" width="30" height="30" viewBox="0 0 30 30"><path d="M15 1C7.268 1 1 7.268 1 15s6.268 14 14 14 14-6.268 14-14S22.732 1 15 1zm7.752 4.848L15 13.6 7.249 5.848C9.34 4.075 12.043 3 15 3s5.66 1.075 7.752 2.848zM3 15c0-2.957 1.075-5.66 2.848-7.752L13.6 15l-7.751 7.752A11.944 11.944 0 0 1 3 15zm4.249 9.152L15 16.4l7.752 7.752C20.66 25.926 17.957 27 15 27s-5.66-1.074-7.751-2.848zm16.903-1.4L16.4 15l7.752-7.752C25.926 9.34 27 12.043 27 15s-1.074 5.66-2.848 7.752z" fill="#fff"/></svg>