<svg xmlns="http://www.w3.org/2000/svg" width="30" height="30" viewBox="0 0 30 30"><path d="M22 11c-2.393 0-4.534.66-6 1.7V6c0-2.762-3.582-5-8-5S0 3.238 0 6v16c0 2.762 3.582 5 8 5 2.512 0 4.751-.725 6.218-1.857C15.046 27.353 18.212 29 22 29c4.418 0 8-2.238 8-5v-8c0-2.762-3.582-5-8-5zM8 3c3.434 0 6 1.584 6 3s-2.566 3-6 3-6-1.584-6-3 2.566-3 6-3zM2 9.3C3.466 10.34 5.607 11 8 11s4.534-.66 6-1.7v.7c0 1.416-2.566 3-6 3s-6-1.584-6-3v-.7zm0 4C3.466 14.34 5.607 15 8 15s4.534-.66 6-1.7v.7c0 1.416-2.566 3-6 3s-6-1.584-6-3v-.7zm0 4C3.466 18.34 5.607 19 8 19s4.534-.66 6-1.7v.7c0 1.416-2.566 3-6 3s-6-1.584-6-3v-.7zM8 25c-3.434 0-6-1.584-6-3v-.7C3.466 22.34 5.607 23 8 23s4.534-.66 6-1.7v.7c0 1.416-2.566 3-6 3zm20-1c0 1.416-2.566 3-6 3s-6-1.584-6-3v-.7c1.466 1.04 3.607 1.7 6 1.7s4.534-.66 6-1.7v.7zm0-4c0 1.416-2.566 3-6 3s-6-1.584-6-3v-.7c1.466 1.04 3.607 1.7 6 1.7s4.534-.66 6-1.7v.7zm-6-1c-3.434 0-6-1.584-6-3s2.566-3 6-3 6 1.584 6 3-2.566 3-6 3z" fill="#fff"/></svg>