<svg xmlns="http://www.w3.org/2000/svg" width="30" height="30" viewBox="0 0 30 30"><path d="M24.907 11.293c.055-.425.093-.854.093-1.293 0-5.522-4.478-10-10-10S5 4.478 5 10c0 .439.038.868.093 1.293C2.055 13.009 0 16.262 0 20c0 5.522 4.478 10 10 10a9.94 9.94 0 0 0 5-1.349A9.94 9.94 0 0 0 20 30c5.522 0 10-4.478 10-10 0-3.738-2.055-6.991-5.093-8.707zM7 10a8 8 0 0 1 16 0c0 .152-.015.301-.022.451A10 10 0 0 0 20 10a9.94 9.94 0 0 0-5 1.349A9.94 9.94 0 0 0 10 10a10 10 0 0 0-2.978.451C7.015 10.301 7 10.152 7 10zm11 10a7.982 7.982 0 0 1-3 6.239A7.982 7.982 0 0 1 12 20c0-.152.015-.301.022-.451.941.293 1.941.451 2.978.451s2.037-.158 2.978-.451c.007.15.022.299.022.451zm-3-2a7.972 7.972 0 0 1-2.615-.446A8.006 8.006 0 0 1 15 13.761a8.006 8.006 0 0 1 2.615 3.793A7.972 7.972 0 0 1 15 18zm-4.419-1.334a8.012 8.012 0 0 1-3.196-4.22 7.946 7.946 0 0 1 5.824.229 9.997 9.997 0 0 0-2.628 3.991zm6.21-3.991a7.946 7.946 0 0 1 5.824-.229 8.017 8.017 0 0 1-3.196 4.22 9.997 9.997 0 0 0-2.628-3.991zM10 28a8 8 0 0 1-8-8 7.99 7.99 0 0 1 3.581-6.666 10.026 10.026 0 0 0 4.512 5.373c-.055.425-.093.854-.093 1.293a9.961 9.961 0 0 0 3.209 7.325A7.946 7.946 0 0 1 10 28zm10 0a7.946 7.946 0 0 1-3.209-.675A9.961 9.961 0 0 0 20 20c0-.439-.038-.868-.093-1.293a10.026 10.026 0 0 0 4.512-5.373A7.99 7.99 0 0 1 28 20a8 8 0 0 1-8 8z" fill="#fff"/></svg>