<svg xmlns="http://www.w3.org/2000/svg" width="30" height="30" viewBox="0 0 30 30"><path d="M18 4.361V3a3 3 0 1 0-6 0v1.361C6.27 5.718 2 10.854 2 17c0 7.18 5.82 13 13 13s13-5.82 13-13c0-6.146-4.27-11.282-10-12.639zM14 3a1 1 0 0 1 2 0v1.051C15.669 4.025 15.338 4 15 4s-.669.025-1 .051V3zm2 24.949V26h-2v1.949A10.992 10.992 0 0 1 4.051 18H6v-2H4.051A10.992 10.992 0 0 1 14 6.051V8h2V6.051A10.993 10.993 0 0 1 25.949 16H24v2h1.949A10.992 10.992 0 0 1 16 27.949zM8 24l10-4 4-10-10 4-4 10zm10.41-10.41l-1.949 4.871-4.871 1.949 1.949-4.871 4.871-1.949z" fill="#fff"/></svg>