<svg xmlns="http://www.w3.org/2000/svg" width="30" height="30" viewBox="0 0 30 30"><path d="M15 1C7.82 1 2 3.238 2 6v18c0 2.762 5.82 5 13 5s13-2.238 13-5V6c0-2.762-5.82-5-13-5zm0 2c6.85 0 10.868 2.128 11 3-.132.864-4.15 3-11 3S4.132 6.872 4 6c.132-.864 4.15-3 11-3zm0 24c-6.85 0-10.868-2.128-11-3v-6.344C6.301 19.063 10.361 20 15 20s8.699-.938 11-2.344V24c-.132.864-4.15 3-11 3zm0-9c-6.85 0-10.868-2.128-11-3V8.656C6.301 10.063 10.361 11 15 11s8.699-.938 11-2.344V15c-.132.864-4.15 3-11 3z" fill="#fff"/></svg>