<svg xmlns="http://www.w3.org/2000/svg" width="30" height="30" viewBox="0 0 30 30"><path d="M5 1a4 4 0 1 0 0 8 4 4 0 0 0 0-8zm0 6a2 2 0 1 1 .001-4.001A2 2 0 0 1 5 7zm10-6a4 4 0 1 0 0 8 4 4 0 0 0 0-8zm0 6a2 2 0 1 1 .001-4.001A2 2 0 0 1 15 7zm10 2a4 4 0 1 0 0-8 4 4 0 0 0 0 8zm0-6a2 2 0 1 1-.001 4.001A2 2 0 0 1 25 3zM5 11a4 4 0 1 0 0 8 4 4 0 0 0 0-8zm0 6a2 2 0 1 1 .001-4.001A2 2 0 0 1 5 17zm10-6a4 4 0 1 0 0 8 4 4 0 0 0 0-8zm0 6a2 2 0 1 1 .001-4.001A2 2 0 0 1 15 17zm10-6a4 4 0 1 0 0 8 4 4 0 0 0 0-8zm0 6a2 2 0 1 1 .001-4.001A2 2 0 0 1 25 17zM5 21a4 4 0 1 0 0 8 4 4 0 0 0 0-8zm0 6a2 2 0 1 1 .001-4.001A2 2 0 0 1 5 27zm10-6a4 4 0 1 0 0 8 4 4 0 0 0 0-8zm0 6a2 2 0 1 1 .001-4.001A2 2 0 0 1 15 27zm10-6a4 4 0 1 0 0 8 4 4 0 0 0 0-8zm0 6a2 2 0 1 1 .001-4.001A2 2 0 0 1 25 27z" fill="#fff"/></svg>