<svg xmlns="http://www.w3.org/2000/svg" width="30" height="30" viewBox="0 0 30 30"><path d="M24 1c-1.141 0-2.55.45-3.55 1.45L6 16.9 5 25l8.1-1L27.55 9.551C28.604 8.495 29 7.063 29 6a5 5 0 0 0-5-5zm-3.336 4.064L22.1 6.5 10.5 18.1l-1.436-1.436 11.6-11.6zM7.299 22.701l.55-4.453 3.902 3.903-4.452.55zm6.037-1.765L11.9 19.5 23.5 7.9l1.436 1.436-11.6 11.6zM26.311 7.91L22.09 3.689C22.705 3.198 23.478 3 24 3c1.654 0 3 1.346 3 3 0 .523-.198 1.295-.689 1.91zM25 27H3V5h12.072l2-2H1v26h26V12.928l-2 2V27z" fill="#fff"/></svg>