<svg xmlns="http://www.w3.org/2000/svg" width="30" height="30" viewBox="0 0 30 30"><path d="M15 8a7 7 0 1 0 0 14 7 7 0 0 0 0-14zm0 12c-2.762 0-5-2.238-5-5s2.238-5 5-5 5 2.238 5 5-2.238 5-5 5zm15-5c0-2.245-1.488-4.121-3.525-4.754.993-1.887.719-4.266-.868-5.854-1.587-1.587-3.966-1.861-5.854-.869C19.12 1.488 17.244 0 15 0s-4.12 1.488-4.753 3.523c-1.888-.992-4.267-.717-5.853.87-1.587 1.587-1.862 3.966-.869 5.853C1.488 10.879 0 12.755 0 15c0 2.243 1.488 4.12 3.523 4.753-.992 1.887-.717 4.267.869 5.853 1.587 1.587 3.967 1.861 5.854.869C10.879 28.511 12.756 30 15 30s4.121-1.489 4.754-3.525c1.887.992 4.267.718 5.854-.869 1.586-1.586 1.861-3.966.869-5.853C28.512 19.12 30 17.244 30 15zm-4.119 2.844l-2.297.714 1.121 2.128a2.976 2.976 0 0 1-.514 3.508c-.968.968-2.488 1.104-3.508.513l-2.127-1.118-.713 2.295C17.449 27.149 16.307 28 15 28s-2.449-.851-2.844-2.117l-.713-2.295-2.127 1.118c-1.02.591-2.54.455-3.508-.513a2.976 2.976 0 0 1-.514-3.508l1.121-2.128-2.297-.714C2.852 17.45 2 16.308 2 15s.852-2.45 2.119-2.844l2.297-.714-1.121-2.128a2.974 2.974 0 0 1 .514-3.507c.968-.968 2.488-1.104 3.508-.513l2.127 1.118.713-2.295C12.551 2.851 13.693 2 15 2s2.449.851 2.844 2.117l.713 2.295 2.127-1.118c1.02-.591 2.54-.455 3.508.513a2.976 2.976 0 0 1 .514 3.508l-1.121 2.128 2.297.714C27.148 12.55 28 13.692 28 15s-.852 2.45-2.119 2.844z" fill="#fff"/></svg>