<svg xmlns="http://www.w3.org/2000/svg" width="30" height="30" viewBox="0 0 30 30"><path d="M15.774 20.109A6.97 6.97 0 0 0 18 15a7 7 0 1 0-14 0 6.97 6.97 0 0 0 2.226 5.109C2.546 21.887 0 25.639 0 30h22c0-4.361-2.547-8.113-6.226-9.891zM6 15a5 5 0 1 1 10 0 5 5 0 0 1-10 0zM2.224 28a9.03 9.03 0 0 1 6.026-6.563c.844.362 1.773.563 2.75.563s1.906-.201 2.75-.563A9.03 9.03 0 0 1 19.775 28H2.224zM19 2a5 5 0 0 1 5 5c0 2.604-2 4.719-4.543 4.954.229.63.391 1.29.473 1.977a6.963 6.963 0 0 0 1.82-.493 9.03 9.03 0 0 1 6.025 6.563H19.26c.732.6 1.393 1.268 1.969 2H30c0-4.361-2.547-8.113-6.227-9.891A6.97 6.97 0 0 0 26 7a7 7 0 0 0-7-7c-3.55 0-6.475 2.645-6.931 6.069a8.9 8.9 0 0 1 1.977.473C14.281 3.998 16.396 2 19 2z" fill="#fff"/></svg>