<svg xmlns="http://www.w3.org/2000/svg" width="30" height="30" viewBox="0 0 30 30"><path d="M30 22a5.98 5.98 0 0 0-2-4.463V14c0-7.18-5.82-13-13-13S2 6.82 2 14v3.537A5.98 5.98 0 0 0 0 22a5.996 5.996 0 0 0 5.769 5.988A2.98 2.98 0 0 0 8 29a3 3 0 0 0 3-3v-8a3 3 0 0 0-3-3 2.98 2.98 0 0 0-2.231 1.012A5.924 5.924 0 0 0 4 16.349V14C4 7.925 8.925 3 15 3s11 4.925 11 11v2.349a5.988 5.988 0 0 0-1.77-.337A2.976 2.976 0 0 0 22 15c-1.656 0-3 1.344-3 3v8c0 1.656 1.344 3 3 3 .891 0 1.682-.396 2.23-1.012A5.996 5.996 0 0 0 30 22zM2 22a3.99 3.99 0 0 1 3-3.858v7.717C3.278 25.412 2 23.861 2 22zm5-4c0-.551.449-1 1-1s1 .449 1 1v8c0 .551-.449 1-1 1s-1-.449-1-1v-8zm16 8c0 .551-.449 1-1 1s-1-.449-1-1v-8c0-.551.449-1 1-1s1 .449 1 1v8zm2-.142v-7.717c1.723.446 3 1.997 3 3.858s-1.277 3.413-3 3.859z" fill="#fff"/></svg>