<svg xmlns="http://www.w3.org/2000/svg" width="30" height="30" viewBox="0 0 30 30"><path d="M2 12c0-3.309 2.691-6 6-6h8c3.309 0 6 2.691 6 6s-2.691 6-6 6h-6c0 .736.223 1.41.574 2H16a8 8 0 0 0 0-16H8a8 8 0 0 0-8 8 7.992 7.992 0 0 0 4.051 6.951A9.955 9.955 0 0 1 4 18c0-.488.046-.967.115-1.436A5.986 5.986 0 0 1 2 12zm23.953-.949c.031.312.047.629.047.949 0 .489-.047.965-.117 1.434A5.987 5.987 0 0 1 28 18c0 3.309-2.691 6-6 6h-8c-3.309 0-6-2.691-6-6s2.691-6 6-6h6c0-.731-.199-1.413-.545-2H14a8 8 0 0 0 0 16h8a8 8 0 0 0 8-8 7.992 7.992 0 0 0-4.047-6.949z" fill="#fff"/></svg>