<svg xmlns="http://www.w3.org/2000/svg" width="30" height="30" viewBox="0 0 30 30"><path d="M15 16c2.762 0 5-2.238 5-5a5 5 0 1 0-10 0 5 5 0 0 0 5 5zm0-8a3.001 3.001 0 0 1 0 6 3 3 0 0 1 0-6zm0 18c2.333-1.75 11-7.461 11-15 0-6.075-4.925-11-11-11S4 4.925 4 11c0 7.539 8.667 13.25 11 15zm0-24c4.963 0 9 4.037 9 9 0 5.574-6.076 10.365-9 12.52-2.924-2.155-9-6.946-9-12.52 0-4.963 4.038-9 9-9zm12 18h-2.441a25.861 25.861 0 0 1-1.705 2h2.507l1.2 6H3.439l1.2-6h2.507a25.861 25.861 0 0 1-1.705-2H3L1 30h28l-2-10z" fill="#fff"/></svg>