<svg xmlns="http://www.w3.org/2000/svg" width="30" height="30" viewBox="0 0 30 30"><path d="M20.269 7.512L23 0H7l2.731 7.512C6.895 9.276 5 12.413 5 16c0 5.146 5.031 12.594 6 14h8c.969-1.406 6-8.854 6-14 0-3.587-1.895-6.724-4.731-8.488zM9.855 2h10.289L18.46 6.628C17.381 6.229 16.219 6 15 6s-2.381.229-3.461.628L9.855 2zM15 18a2 2 0 1 1 .001-4.001A2 2 0 0 1 15 18zm2.936 10H16v-8.142A3.99 3.99 0 0 0 19 16a4 4 0 0 0-8 0 3.99 3.99 0 0 0 3 3.858V28h-1.936C9.518 24.138 7 19.197 7 16c0-4.411 3.589-8 8-8s8 3.589 8 8c0 3.197-2.518 8.138-5.064 12z" fill="#fff"/></svg>