<svg xmlns="http://www.w3.org/2000/svg" width="30" height="30" viewBox="0 0 30 30"><path d="M9 17a6 6 0 0 0 6 6c8.416 0 13.833-19.25 14-20-.75.167-20 5.584-20 14zM25.988 6.013C23.958 11.769 19.648 21 15 21c-2.205 0-4-1.795-4-4 0-4.646 9.227-8.955 14.988-10.987zm.742 8.473c.174.812.27 1.652.27 2.514v6a2 2 0 0 1-2 2H5a2 2 0 0 1-2-2v-6C3 10.383 8.383 5 15 5c.862 0 1.702.096 2.514.27a51.38 51.38 0 0 1 2.684-1.262A13.932 13.932 0 0 0 15 3C7.268 3 1 9.268 1 17v6c0 2.2 1.8 4 4 4h20c2.2 0 4-1.8 4-4v-6c0-1.838-.363-3.589-1.008-5.197a50.553 50.553 0 0 1-1.262 2.683z" fill="#fff"/></svg>