<svg xmlns="http://www.w3.org/2000/svg" width="30" height="30" viewBox="0 0 30 30"><path d="M11 26a7 7 0 1 0 0-14 7 7 0 0 0 0 14zm0-2c-1.631 0-3.064-.792-3.978-2h7.955c-.913 1.208-2.346 2-3.977 2zm0-10c1.631 0 3.064.792 3.978 2H7.022c.914-1.208 2.347-2 3.978-2zm-4.899 4H15.9a5.062 5.062 0 0 1-.001 2H6.101a4.988 4.988 0 0 1 0-2zM9.147 8l15.484-4.548c.358.337.838.548 1.369.548a2 2 0 0 0 0-4c-.938 0-1.719.647-1.936 1.519L2 8H0v22h30V8H9.147zM28 28H2V10h26v18zm-4-12a2 2 0 1 0-.001-4.001A2 2 0 0 0 24 16zm0 6a2 2 0 1 0-.001-4.001A2 2 0 0 0 24 22z" fill="#fff"/></svg>