<svg xmlns="http://www.w3.org/2000/svg" width="30" height="30" viewBox="0 0 30 30"><path d="M22 0H8C3.6 0 0 3.6 0 8v14c0 4.4 3.6 8 8 8h14c4.4 0 8-3.6 8-8V8c0-4.4-3.6-8-8-8zm6 22c0 3.309-2.691 6-6 6H8c-3.309 0-6-2.691-6-6V8c0-3.309 2.691-6 6-6h14c3.309 0 6 2.691 6 6v14zM9 4a5 5 0 1 0 0 10A5 5 0 0 0 9 4zm0 8a3 3 0 1 1 0-6 3 3 0 0 1 0 6zm12-8a5 5 0 1 0 0 10 5 5 0 0 0 0-10zm0 8a3 3 0 1 1 0-6 3 3 0 0 1 0 6zM9 16c-2.762 0-5 2.238-5 5s2.238 5 5 5 5-2.238 5-5-2.238-5-5-5zm0 8a3 3 0 1 1 0-6 3 3 0 0 1 0 6zm12-8c-2.762 0-5 2.238-5 5s2.238 5 5 5 5-2.238 5-5-2.238-5-5-5zm0 8a3 3 0 1 1 0-6 3 3 0 0 1 0 6z" fill="#fff"/></svg>