<svg xmlns="http://www.w3.org/2000/svg" width="30" height="30" viewBox="0 0 30 30"><path d="M14 30h2v-2.051a12.924 12.924 0 0 0 4.608-1.234l1.025 1.775 1.731-1-1.021-1.768a13.083 13.083 0 0 0 3.378-3.377l1.768 1.02.999-1.731-1.775-1.024a12.895 12.895 0 0 0 1.235-4.609H30v-2h-2.051a12.904 12.904 0 0 0-1.235-4.608l1.776-1.025-1-1.732-1.768 1.021a13.095 13.095 0 0 0-3.377-3.377l1.021-1.768-1.732-1-1.025 1.775A12.875 12.875 0 0 0 16 2.051V0h-2v2.051a12.924 12.924 0 0 0-4.608 1.234L8.366 1.51l-1.732 1 1.021 1.768a13.095 13.095 0 0 0-3.378 3.376L2.51 6.634 1.509 8.365l1.777 1.026A12.895 12.895 0 0 0 2.051 14H0v2h2.051a12.904 12.904 0 0 0 1.235 4.608L1.51 21.634l1 1.732 1.768-1.021a13.095 13.095 0 0 0 3.377 3.377L6.634 27.49l1.732 1 1.025-1.775a12.909 12.909 0 0 0 4.608 1.234V30zm1-4c-1.647 0-3.204-.372-4.606-1.021l3.544-6.139c.34.094.692.16 1.062.16a3.99 3.99 0 0 0 3.858-3h7.091C25.443 21.605 20.737 26 15 26zm0-13a2 2 0 1 1-.001 4.001A2 2 0 0 1 15 13zm10.949 1h-7.091A3.99 3.99 0 0 0 15 11c-.37 0-.722.066-1.063.16l-3.544-6.139A10.94 10.94 0 0 1 15 4c5.737 0 10.443 4.395 10.949 10zM4 15c0-3.712 1.844-6.988 4.66-8.98l3.539 6.129a3.988 3.988 0 0 0 0 5.703L8.66 23.98C5.844 21.988 4 18.712 4 15z" fill="#fff"/></svg>