<svg xmlns="http://www.w3.org/2000/svg" width="30" height="30" viewBox="0 0 30 30"><path d="M30 18v-6h-4.425a10.9 10.9 0 0 0-.974-2.36l3.126-3.126-4.242-4.243-3.127 3.126A10.928 10.928 0 0 0 18 4.425V0h-6v4.425c-.83.235-1.621.561-2.358.973L6.515 2.271 2.272 6.514 5.398 9.64A10.897 10.897 0 0 0 4.425 12H0v6h4.425c.235.83.561 1.621.973 2.358l-3.126 3.126 4.243 4.242 3.125-3.125c.738.413 1.53.738 2.36.974V30h6v-4.425a10.92 10.92 0 0 0 2.36-.974l3.125 3.125 4.243-4.242-3.126-3.126c.412-.737.737-1.528.973-2.358H30zm-5.1 5.484l-1.415 1.414-2.874-2.873A8.965 8.965 0 0 1 16 23.941V28h-2v-4.059a8.965 8.965 0 0 1-4.611-1.916l-2.874 2.873L5.1 23.484l2.875-2.875A8.941 8.941 0 0 1 6.059 16H2v-2h4.059a8.954 8.954 0 0 1 1.917-4.611L5.101 6.514 6.515 5.1 9.39 7.975A8.957 8.957 0 0 1 14 6.059V2h2v4.059a8.94 8.94 0 0 1 4.61 1.916L23.485 5.1l1.414 1.414-2.875 2.875A8.954 8.954 0 0 1 23.941 14H28v2h-4.059a8.95 8.95 0 0 1-1.916 4.609l2.875 2.875zM15 10a5 5 0 1 0 0 10 5 5 0 0 0 0-10zm0 8a3 3 0 1 1 0-6 3 3 0 0 1 0 6z" fill="#fff"/></svg>