<svg xmlns="http://www.w3.org/2000/svg" width="30" height="30" viewBox="0 0 30 30"><path d="M24 19c-1.602 0-3.01.767-3.926 1.938l-9.268-4.635c.114-.418.194-.849.194-1.303s-.08-.885-.193-1.303l9.268-4.634C20.99 10.233 22.398 11 24 11a5 5 0 1 0-5-5c0 .454.08.885.193 1.303l-9.268 4.634C9.01 10.767 7.602 10 6 10a5 5 0 1 0 0 10c1.602 0 3.01-.767 3.926-1.938l9.268 4.635A4.922 4.922 0 0 0 19 24c0 2.762 2.238 5 5 5s5-2.238 5-5-2.238-5-5-5zm0-16a3 3 0 1 1 0 6 3 3 0 0 1 0-6zM6 18a3.001 3.001 0 0 1 0-6 3 3 0 0 1 0 6zm18 9a3.001 3.001 0 0 1 0-6 3.001 3.001 0 0 1 0 6z" fill="#fff"/></svg>