<svg xmlns="http://www.w3.org/2000/svg" width="30" height="30" viewBox="0 0 30 30"><path d="M20.594 18.406L24.188 22H18a2.13 2.13 0 0 1-.341-.034 5.986 5.986 0 0 1-.997 1.786c.421.151.867.248 1.338.248h6.188l-3.594 3.594L22 29l6-6-6-6-1.406 1.406zM24.188 8l-3.594 3.594L22 13l6-6-6-6-1.406 1.406L24.188 6H18c-2.2 0-4 1.8-4 4v10c0 1.103-.897 2-2 2H2v2h10c2.2 0 4-1.8 4-4V10c0-1.103.896-2 2-2h6.188zm-11.848.034a5.98 5.98 0 0 1 .993-1.787A3.94 3.94 0 0 0 12 6H2v2h10c.116 0 .229.016.34.034z" fill="#fff"/></svg>