<svg xmlns="http://www.w3.org/2000/svg" width="30" height="30" viewBox="0 0 30 30"><path d="M15 0a2 2 0 1 0 .001 4.001A2 2 0 0 0 15 0zm0 26a2 2 0 0 0 0 4 2 2 0 0 0 0-4zm5.5-1.474a2 2 0 1 0 2 3.463 2 2 0 0 0-2-3.463zm6.758-4.758a2 2 0 1 0-1.999 3.463 2 2 0 0 0 1.999-3.463zM27.999 13a2 2 0 1 0 .003 4.001A2 2 0 0 0 27.999 13zm-.741-2.768a2 2 0 1 0-2-3.464 2 2 0 0 0 2 3.464zM22.5 2.01a2 2 0 1 0-2 3.463 2 2 0 0 0 2-3.463zm-13 22.516a1.999 1.999 0 1 0-2 3.462 1.999 1.999 0 0 0 2-3.462zm-6.758-4.758a2 2 0 1 0 2 3.464 2 2 0 0 0-2-3.464zM4 15a2 2 0 1 0-4.001.001A2 2 0 0 0 4 15zm.742-8.231a1.999 1.999 0 1 0-2.002 3.46 1.999 1.999 0 0 0 2.002-3.46zM7.5 2.01a2 2 0 1 0 2 3.463 2 2 0 0 0-2-3.463z" fill="#fff"/></svg>