<svg xmlns="http://www.w3.org/2000/svg" width="30" height="30" viewBox="0 0 30 30"><path d="M16 4.051V0h-2v4.051c.33-.03.663-.051 1-.051s.67.021 1 .051zm-5.606.97L8.366 1.51l-1.732 1 2.027 3.511a10.899 10.899 0 0 1 1.733-1zM23.365 2.51l-1.731-.999-2.026 3.511c.609.281 1.189.614 1.732.998l2.025-3.51zM6.02 8.66L2.51 6.634l-1 1.732 3.512 2.027c.281-.61.614-1.189.998-1.733zM15 6c-4.971 0-9 4.029-9 9s4.029 9 9 9 9-4.029 9-9-4.029-9-9-9zm0 16a7 7 0 1 1 0-14 7 7 0 0 1 0 14zM28.49 8.366l-1-1.731-3.51 2.026c.384.543.717 1.123.998 1.732l3.512-2.027zm-8.884 16.613l2.027 3.511 1.732-1-2.026-3.511a10.81 10.81 0 0 1-1.733 1zm4.374-3.639l3.51 2.026 1-1.732-3.512-2.027c-.281.61-.614 1.189-.998 1.733zM25.949 14c.03.33.051.662.051 1s-.021.67-.051 1H30v-2h-4.051zM14 25.949V30h2v-4.051c-.33.03-.663.051-1 .051s-.67-.021-1-.051zM6.634 27.49l1.732 1.001 2.028-3.512a10.97 10.97 0 0 1-1.733-.999l-2.027 3.51zM4 15c0-.338.021-.67.05-1H0v2h4.05c-.029-.33-.05-.662-.05-1zm-2.49 6.634l1 1.732 3.51-2.026a11.016 11.016 0 0 1-.999-1.733L1.51 21.634z" fill="#fff"/></svg>