<svg xmlns="http://www.w3.org/2000/svg" width="30" height="30" viewBox="0 0 30 30"><path d="M15 0C6.716 0 0 6.716 0 15s6.716 15 15 15 15-6.716 15-15S23.284 0 15 0zm7.605 4.472C20.771 6.626 18.05 8 15 8S9.229 6.626 7.395 4.472C9.535 2.924 12.156 2 15 2s5.465.924 7.605 2.472zM7.395 25.528C9.229 23.374 11.95 22 15 22s5.771 1.374 7.605 3.528C20.465 27.076 17.844 28 15 28s-5.465-.924-7.605-2.472zm16.732-1.276C21.928 21.66 18.666 20 15 20s-6.928 1.66-9.127 4.252C3.483 21.895 2 18.621 2 15s1.483-6.895 3.873-9.252C8.072 8.34 11.334 10 15 10s6.928-1.66 9.127-4.252C26.517 8.105 28 11.379 28 15s-1.483 6.895-3.873 9.252z" fill="#fff"/></svg>