<svg xmlns="http://www.w3.org/2000/svg" width="30" height="30" viewBox="0 0 30 30"><path d="M16 2.051V1h-2v1.051C6.185 2.567 0 9.054 0 17c0-2.209 2.238-4 5-4s5 1.791 5 4c0-1.935 1.718-3.549 4-3.919V25a4 4 0 0 0 8 0v-2h-2v2a2 2 0 0 1-4 0V13.081c2.282.37 4 1.984 4 3.919 0-2.209 2.238-4 5-4s5 1.791 5 4c0-7.946-6.185-14.433-14-14.949zM25 11c-1.957 0-3.729.691-5 1.805C18.729 11.691 16.957 11 15 11s-3.729.691-5 1.805C8.729 11.691 6.957 11 5 11a8.11 8.11 0 0 0-1.613.161C5.529 6.917 9.93 4 15 4s9.471 2.917 11.613 7.161A8.11 8.11 0 0 0 25 11z" fill="#fff"/></svg>