<svg xmlns="http://www.w3.org/2000/svg" width="30" height="30" viewBox="0 0 30 30"><path d="M26.6 2l-4.215 4.214C19.976 4.883 17.337 4 15 4 8.641 4 0 10.469 0 15c0 2.455 2.542 5.469 5.878 7.723L2 26.6 3.4 28 28 3.4 26.6 2zM10.837 17.764A4.977 4.977 0 0 1 10 15a5 5 0 0 1 7.764-4.164l-6.927 6.928zm8.357-8.359A6.952 6.952 0 0 0 15 8a7 7 0 0 0-7 7c0 1.576.526 3.025 1.405 4.195L7.299 21.3C4.272 19.313 2 16.676 2 15c0-2.975 7.149-9 13-9 1.94 0 4.021.667 5.938 1.662l-1.744 1.743zM15 20c-.24 0-.47-.038-.701-.07l-1.655 1.655A6.968 6.968 0 0 0 15 22a7 7 0 0 0 7-7c0-.828-.151-1.619-.415-2.357l-1.655 1.656c.032.231.07.461.07.701a5 5 0 0 1-5 5zM25.746 8.481l-1.411 1.412C26.506 11.657 28 13.644 28 15c0 2.975-7.149 9-13 9-1.293 0-2.647-.306-3.976-.797l-1.513 1.514C11.364 25.508 13.266 26 15 26c6.359 0 15-6.469 15-11 0-2.037-1.753-4.462-4.254-6.519z" fill="#fff"/></svg>