<svg xmlns="http://www.w3.org/2000/svg" width="30" height="30" viewBox="0 0 30 30"><path d="M0 9v12h6l8 7V2L6 9H0zm5 10H2v-8h3v8zm2-8.217l5-4.376v17.186l-5-4.376v-8.434zM22 15a6.992 6.992 0 0 0-4.008-6.321l-1.162 1.679C18.684 11.088 20 12.886 20 15s-1.316 3.912-3.17 4.643l1.162 1.679A6.995 6.995 0 0 0 22 15zm.57-12.935l-1.14 1.646C25.352 5.949 28 10.162 28 15s-2.648 9.051-6.569 11.289l1.14 1.646C27.01 25.33 30 20.52 30 15S27.01 4.67 22.57 2.065zM26 15c0-4.156-2.307-7.772-5.709-9.643l-1.147 1.658C22.027 8.516 24 11.524 24 15s-1.973 6.484-4.856 7.984l1.147 1.658A10.993 10.993 0 0 0 26 15z" fill="#fff"/></svg>