<svg xmlns="http://www.w3.org/2000/svg" width="30" height="30" viewBox="0 0 30 30"><path d="M8 18a7 7 0 1 0 14 0 7 7 0 0 0-14 0zm7 5a5 5 0 0 1-4.9-4.007 4.986 4.986 0 0 0 2.4-.663c.748.433 1.607.67 2.5.67s1.752-.237 2.5-.67c.72.416 1.543.646 2.4.663A5 5 0 0 1 15 23zm4.896-6.014a2.984 2.984 0 0 1-2.396-1.332 2.993 2.993 0 0 1-5 0 2.986 2.986 0 0 1-2.397 1.332 5 5 0 1 1 9.793 0zM2 1v28h26V1H2zm24 26H4V11.389C6.817 10.584 10.533 10 15 10s8.184.584 11 1.389V27zm0-17.701C22.895 8.484 19.104 8 15 8s-7.895.484-11 1.299V3h22v6.299zM12 5H6v2h6V5z" fill="#fff"/></svg>