<svg viewBox="0 0 116.25 144.25" xmlns="http://www.w3.org/2000/svg"><g fill="#f1f1f1"><path d="m64.25 1.47-58.75 33.92a11 11 0 0 0 -5.5 9.53v67.84a11 11 0 0 0 5.5 9.53l35.5 20.49a11 11 0 0 0 11 0l12.25-7.07a11 11 0 0 1 11 0l12.25 7.07a11 11 0 0 0 11 0l12.25-7.07a11 11 0 0 0 5.5-9.53v-94.68a11 11 0 0 0 -5.5-9.53l-35.5-20.5a11 11 0 0 0 -11 0zm28.75 117.64-23.25-13.42v-26.85l-23.25 13.42v26.85l-23.25-13.42v-53.69l23.25-13.43 23.25-13.43 23.25 13.43z"/><path d="m69.75 78.84v-26.85l-23.25 13.43z"/></g></svg>