<svg viewBox="0 0 139.29 130.82" xmlns="http://www.w3.org/2000/svg"><path d="m133.81 22-35.3-20.52a11 11 0 0 0 -11 0l-17.76 10.23h-.21l-17.74-10.24a11 11 0 0 0 -11 0l-35.32 20.53a11 11 0 0 0 -5.48 9.47v67.86a11 11 0 0 0 5.5 9.53l35.5 20.49a11 11 0 0 0 11 0l12.65-7.35a10 10 0 0 1 10 0l12.65 7.3a11 11 0 0 0 11 0l35.5-20.5a11 11 0 0 0 5.5-9.53v-67.8a11 11 0 0 0 -5.49-9.47zm-17.81 70.25-23.1 13.37-23.15-13.37-23.25 13.43-23.25-13.43v-53.69l23.23-13.41v53.68l23.27-13.42 23.25 13.42v-53.57l23 13.3z" fill="#f1f1f1"/></svg>