<?xml version="1.0" encoding="utf-8"?>
<!-- Generator: Adobe Illustrator 22.0.1, SVG Export Plug-In . SVG Version: 6.00 Build 0)  -->
<svg version="1.1" id="Layer_1" xmlns="http://www.w3.org/2000/svg" xmlns:xlink="http://www.w3.org/1999/xlink" x="0px" y="0px"
	 viewBox="0 0 850 624" style="enable-background:new 0 0 850 624;" xml:space="preserve">
<style type="text/css">
	.st0{fill:#FFFFFF;}
	.st1{fill:none;stroke:#E02975;stroke-width:3.406;}
	.st2{fill:#E02975;fill-opacity:0.5022;}
	.st3{fill:none;stroke:#E02975;stroke-width:3;}
	.st4{enable-background:new    ;}
	.st5{fill:#E02975;}
	.st6{font-family:'RobotoMono-Regular';}
	.st7{font-size:26px;}
	.st8{fill:#B4B9C2;}
</style>
<g>
	<g transform="translate(390.210177 88.640948)">
		<path class="st0" d="M53,0.3L76.5,24v66.4c0,2.5-2,4.5-4.5,4.5H5.7c-2.5,0-4.5-2-4.5-4.5V4.8c0-2.5,2-4.5,4.5-4.5L53,0.3z"/>
		<path class="st1" d="M52.3,2H5.7C4.2,2,2.9,3.3,2.9,4.8v85.6c0,1.5,1.3,2.8,2.8,2.8H72c1.5,0,2.8-1.3,2.8-2.8V24.7L52.3,2z"/>
		<g transform="matrix(-1 0 0 -1 128.941402 24.321294)">
			<path class="st2" d="M76.2,24V4.8c0-2.5-2-4.5-4.5-4.5h-19"/>
			<path class="st3" d="M74.7,20.4V4.8c0-1.7-1.3-3-3-3H56.3L74.7,20.4z"/>
		</g>
		<g class="st4">
			<path class="st5" d="M28.5,79.9c0-0.3,0-0.5-0.1-0.7s-0.2-0.4-0.4-0.6s-0.5-0.4-0.8-0.5s-0.8-0.3-1.3-0.4
				c-0.6-0.2-1.2-0.4-1.8-0.6s-1.1-0.6-1.5-0.9s-0.8-0.8-1-1.2s-0.4-1-0.4-1.6c0-0.6,0.1-1.1,0.4-1.6s0.6-0.9,1.1-1.2s1-0.6,1.6-0.8
				s1.3-0.3,2-0.3c0.7,0,1.4,0.1,2,0.3s1.1,0.5,1.6,0.9s0.8,0.8,1,1.4s0.4,1.1,0.4,1.8h-2.7c0-0.3-0.1-0.6-0.2-0.9s-0.3-0.5-0.4-0.7
				s-0.4-0.3-0.7-0.4s-0.6-0.2-1-0.2c-0.4,0-0.7,0-1,0.1s-0.5,0.2-0.7,0.4s-0.3,0.3-0.4,0.6s-0.2,0.5-0.2,0.7c0,0.3,0.1,0.5,0.2,0.7
				s0.3,0.4,0.6,0.6s0.6,0.3,0.9,0.5s0.8,0.3,1.2,0.4c0.7,0.2,1.2,0.4,1.8,0.7s1,0.6,1.4,1s0.7,0.8,0.9,1.3s0.3,1,0.3,1.6
				c0,0.6-0.1,1.2-0.4,1.7s-0.6,0.9-1,1.2s-1,0.6-1.6,0.8s-1.3,0.3-2,0.3c-0.4,0-0.9,0-1.3-0.1s-0.9-0.2-1.3-0.4s-0.8-0.4-1.1-0.6
				s-0.7-0.5-0.9-0.9s-0.5-0.7-0.6-1.2s-0.2-0.9-0.2-1.4h2.7c0,0.4,0.1,0.8,0.2,1.1s0.3,0.6,0.6,0.8s0.5,0.3,0.9,0.4
				s0.7,0.1,1.1,0.1c0.4,0,0.7,0,1-0.1s0.5-0.2,0.7-0.4s0.3-0.3,0.4-0.5S28.5,80.2,28.5,79.9z"/>
			<path class="st5" d="M37.8,79.7l2.7-10.2h3l-4.3,14.2h-2.8l-4.3-14.2h3L37.8,79.7z"/>
			<path class="st5" d="M54.9,82c-0.2,0.2-0.4,0.4-0.7,0.7c-0.3,0.2-0.7,0.4-1.1,0.6s-0.9,0.3-1.4,0.4c-0.5,0.1-1.1,0.2-1.7,0.2
				c-0.8,0-1.5-0.1-2.2-0.4c-0.7-0.3-1.2-0.7-1.7-1.2c-0.5-0.5-0.8-1.2-1.1-2c-0.2-0.8-0.4-1.7-0.4-2.7v-1.9c0-1,0.1-1.9,0.4-2.7
				s0.6-1.5,1.1-2c0.5-0.5,1-1,1.6-1.2c0.6-0.3,1.3-0.4,2-0.4c0.8,0,1.5,0.1,2.1,0.3s1.1,0.5,1.5,0.9s0.7,0.8,1,1.4
				c0.2,0.5,0.4,1.2,0.5,1.8h-2.7c-0.1-0.7-0.3-1.3-0.7-1.6c-0.3-0.4-0.9-0.6-1.6-0.6c-0.4,0-0.7,0.1-1,0.3
				c-0.3,0.2-0.6,0.4-0.8,0.8c-0.2,0.3-0.4,0.8-0.5,1.3c-0.1,0.5-0.2,1.1-0.2,1.8v2c0,1.3,0.2,2.3,0.7,3.1c0.4,0.7,1.1,1.1,2,1.1
				c0.2,0,0.4,0,0.6,0c0.2,0,0.4-0.1,0.6-0.1c0.2-0.1,0.3-0.1,0.5-0.2c0.1-0.1,0.2-0.2,0.3-0.2l0-2.6h-2.4v-2.1h5.1L54.9,82z"/>
		</g>
		<g transform="translate(17.497383 27.138141)">
			<path class="st3" d="M7.4,1.8H33c3.2,0,5.7,2.6,5.7,5.7v18.7c0,3.2-2.6,5.7-5.7,5.7H7.4c-3.2,0-5.7-2.6-5.7-5.7V7.6
				C1.7,4.4,4.3,1.8,7.4,1.8z"/>
			<g>
				<ellipse class="st5" cx="10.8" cy="12.1" rx="3" ry="3"/>
				<path class="st5" d="M13.3,21.9l6.9,6.6l8.6-9.9l9.4,14H2.1L13.3,21.9z"/>
			</g>
		</g>
	</g>
	<g transform="translate(390.210177 443.585476)">
		<path class="st0" d="M53.8,0.7l23.5,23.6v66.4c0,2.5-2,4.5-4.5,4.5H6.6c-2.5,0-4.5-2-4.5-4.5V5.2c0-2.5,2-4.5,4.5-4.5L53.8,0.7z"
			/>
		<path class="st1" d="M53.1,2.4H6.6C5,2.4,3.8,3.7,3.8,5.2v85.6c0,1.5,1.3,2.8,2.8,2.8h66.3c1.5,0,2.8-1.3,2.8-2.8V25.1L53.1,2.4z"
			/>
		<g transform="matrix(-1 0 0 -1 130.696676 25.13069)">
			<path class="st2" d="M77.1,24.4V5.2c0-2.5-2-4.5-4.5-4.5h-19"/>
			<path class="st3" d="M75.6,20.8V5.2c0-1.7-1.3-3-3-3H57.2L75.6,20.8z"/>
		</g>
		<g class="st4">
			<path class="st5" d="M27.8,69.8h2.7l0,9.9c0,0.7-0.1,1.3-0.4,1.9s-0.6,1-1,1.4s-0.9,0.7-1.5,0.9s-1.2,0.3-1.9,0.3
				c-0.7,0-1.4-0.1-2-0.3s-1.1-0.5-1.5-0.8s-0.7-0.8-1-1.4s-0.4-1.2-0.4-1.9h2.8c0,0.8,0.2,1.3,0.5,1.7S25,82,25.7,82
				c0.3,0,0.6-0.1,0.9-0.2s0.5-0.3,0.7-0.5s0.3-0.5,0.4-0.7s0.2-0.6,0.2-0.9V69.8z"/>
			<path class="st5" d="M36,78.8v5.2h-2.7V69.8h4.9c0.8,0,1.5,0.1,2.1,0.3s1.2,0.5,1.6,0.9s0.8,0.9,1,1.4c0.2,0.6,0.4,1.2,0.4,1.9
				c0,0.6-0.1,1.2-0.4,1.8c-0.2,0.5-0.6,1-1,1.4s-1,0.7-1.6,0.9s-1.3,0.3-2.1,0.3H36z M36,76.6h2.1c0.4,0,0.7-0.1,1-0.2
				c0.3-0.1,0.5-0.3,0.7-0.5c0.2-0.2,0.3-0.4,0.4-0.7c0.1-0.3,0.1-0.5,0.1-0.8c0-0.3,0-0.6-0.1-0.9c-0.1-0.3-0.2-0.5-0.4-0.8
				c-0.2-0.2-0.4-0.4-0.7-0.5c-0.3-0.1-0.6-0.2-1-0.2H36V76.6z"/>
			<path class="st5" d="M54.9,82.4c-0.2,0.2-0.4,0.4-0.7,0.7c-0.3,0.2-0.7,0.4-1.1,0.6s-0.9,0.3-1.4,0.4c-0.5,0.1-1.1,0.2-1.7,0.2
				c-0.8,0-1.5-0.1-2.2-0.4c-0.7-0.3-1.2-0.7-1.7-1.2c-0.5-0.5-0.8-1.2-1.1-2c-0.2-0.8-0.4-1.7-0.4-2.7V76c0-1,0.1-1.9,0.4-2.7
				s0.6-1.5,1.1-2c0.5-0.5,1-1,1.6-1.2c0.6-0.3,1.3-0.4,2-0.4c0.8,0,1.5,0.1,2.1,0.3s1.1,0.5,1.5,0.9s0.7,0.8,1,1.4
				c0.2,0.5,0.4,1.2,0.5,1.8h-2.7c-0.1-0.7-0.3-1.3-0.7-1.6c-0.3-0.4-0.9-0.6-1.6-0.6c-0.4,0-0.7,0.1-1,0.3
				c-0.3,0.2-0.6,0.4-0.8,0.8c-0.2,0.3-0.4,0.8-0.5,1.3c-0.1,0.5-0.2,1.1-0.2,1.8v2c0,1.3,0.2,2.3,0.7,3.1c0.4,0.7,1.1,1.1,2,1.1
				c0.2,0,0.4,0,0.6,0c0.2,0,0.4-0.1,0.6-0.1c0.2-0.1,0.3-0.1,0.5-0.2c0.1-0.1,0.2-0.2,0.3-0.2l0-2.6h-2.4v-2.1h5.1L54.9,82.4z"/>
		</g>
		<g transform="translate(18.375019 27.542838)">
			<path class="st3" d="M7.4,1.8H33c3.2,0,5.7,2.6,5.7,5.7v18.7c0,3.2-2.6,5.7-5.7,5.7H7.4c-3.2,0-5.7-2.6-5.7-5.7V7.6
				C1.7,4.4,4.3,1.8,7.4,1.8z"/>
			<g>
				<ellipse class="st5" cx="10.8" cy="12.1" rx="3" ry="3"/>
				<path class="st5" d="M13.3,21.9l6.9,6.6l8.6-9.9l9.4,14H2.1L13.3,21.9z"/>
			</g>
		</g>
	</g>
	<g transform="translate(545.024889 349.129748)">
		<g transform="translate(.783038 .128738)">
			<path class="st0" d="M51.8,0l23.5,23.6v66.4c0,2.5-2,4.5-4.5,4.5H4.5c-2.5,0-4.5-2-4.5-4.5V4.5C0,2,2,0,4.5,0L51.8,0z"/>
			<path class="st1" d="M51,1.7H4.5C3,1.7,1.7,3,1.7,4.5v85.6c0,1.5,1.3,2.8,2.8,2.8h66.3c1.5,0,2.8-1.3,2.8-2.8V24.4L51,1.7z"/>
			<path class="st5" d="M16.3,43.7L31.2,38v4.4L26.1,44l-4.3,1.5v0.1l4.3,1.5l5.1,1.6v4.4l-14.9-5.7L16.3,43.7z M38.2,33.6h3.5
				l-5.5,27.4h-3.5L38.2,33.6z M58.7,47.4l-14.9,5.7v-4.4l5.1-1.6l4.3-1.5v-0.1L49,44l-5.1-1.6V38l14.9,5.7V47.4z"/>
			<g transform="matrix(-1 0 0 -1 126.529254 23.648674)">
				<path class="st2" d="M75,23.6V4.5C75,2,73,0,70.5,0h-19"/>
				<path class="st3" d="M73.5,20V4.5c0-1.7-1.3-3-3-3H55.1L73.5,20z"/>
			</g>
			<text transform="matrix(1 0 0 1 7.1583 83.5737)" class="st5 st6 st7">HTML</text>
		</g>
		<path class="st0" d="M52.5,0.1l23.5,23.6v66.4c0,2.5-2,4.5-4.5,4.5H5.3c-2.5,0-4.5-2-4.5-4.5V4.6c0-2.5,2-4.5,4.5-4.5L52.5,0.1z"
			/>
		<path class="st1" d="M51.8,1.8H5.3c-1.5,0-2.8,1.3-2.8,2.8v85.6c0,1.5,1.3,2.8,2.8,2.8h66.3c1.5,0,2.8-1.3,2.8-2.8V24.5L51.8,1.8z
			"/>
		<path class="st5" d="M17.1,43.9L32,38.2v4.4l-5.1,1.6l-4.3,1.5v0.1l4.3,1.5l5.1,1.6v4.4l-14.9-5.7V43.9z M39,33.8h3.5l-5.5,27.4
			h-3.5L39,33.8z M59.5,47.5l-14.9,5.7v-4.4l5.1-1.6l4.3-1.5v-0.1l-4.3-1.5l-5.1-1.6v-4.4l14.9,5.7L59.5,47.5z"/>
		<g transform="matrix(-1 0 0 -1 128.09533 23.906148)">
			<path class="st2" d="M75.8,23.8V4.6c0-2.5-2-4.5-4.5-4.5h-19"/>
			<path class="st3" d="M74.3,20.1V4.6c0-1.7-1.3-3-3-3H55.9L74.3,20.1z"/>
		</g>
		<g class="st4">
			<path class="st5" d="M25.8,83.4h-2.7v-6.2h-4v6.2h-2.7V69.2h2.7v5.8h4v-5.8h2.7V83.4z"/>
			<path class="st5" d="M38.9,71.5h-4.4v12h-2.8v-12h-4.3v-2.2h11.5V71.5z"/>
			<path class="st5" d="M43.8,69.2l1.3,5.3l1.5-5.3h3.4v14.2h-2.5v-4.2l0.1-6.7l-1.9,6.2h-1.4l-1.7-5.9l0.1,6.4v4.2h-2.5V69.2H43.8z
				"/>
			<path class="st5" d="M55.4,81.2H62v2.2h-9.4V69.2h2.8V81.2z"/>
		</g>
	</g>
	<g transform="translate(235.395465 166.91805)">
		<path class="st0" d="M52.2,0.2l23.5,23.6v66.4c0,2.5-2,4.5-4.5,4.5H5c-2.5,0-4.5-2-4.5-4.5V4.7c0-2.5,2-4.5,4.5-4.5L52.2,0.2z"/>
		<path class="st1" d="M51.5,1.9H5c-1.5,0-2.8,1.3-2.8,2.8v85.6c0,1.5,1.3,2.8,2.8,2.8h66.3c1.5,0,2.8-1.3,2.8-2.8V24.6L51.5,1.9z"
			/>
		<g transform="matrix(-1 0 0 -1 127.43838 24.095346)">
			<path class="st2" d="M75.5,23.9V4.7c0-2.5-2-4.5-4.5-4.5H52"/>
			<path class="st3" d="M74,20.2V4.7c0-1.7-1.3-3-3-3H55.6L74,20.2z"/>
		</g>
		<g>
			<g class="st4">
				<path class="st5" d="M32,79.1c0,0.7-0.2,1.4-0.5,1.9s-0.6,1.1-1.1,1.5s-1,0.7-1.6,0.9s-1.3,0.3-2,0.3c-0.8,0-1.6-0.2-2.2-0.5
					S23.4,82.5,23,82s-0.8-1.2-1-2s-0.4-1.6-0.4-2.6v-1.9c0-0.9,0.1-1.8,0.4-2.6s0.6-1.5,1.1-2s1-1,1.7-1.3s1.4-0.5,2.2-0.5
					c0.8,0,1.5,0.1,2.1,0.3s1.1,0.5,1.6,0.9s0.8,0.9,1,1.5s0.4,1.3,0.5,2h-2.7c0-0.4-0.1-0.8-0.2-1.1s-0.2-0.6-0.4-0.8
					s-0.4-0.4-0.7-0.5s-0.6-0.2-1-0.2c-0.4,0-0.8,0.1-1.1,0.3s-0.6,0.4-0.8,0.8s-0.4,0.8-0.5,1.3s-0.1,1.1-0.1,1.7v1.9
					c0,1.4,0.2,2.4,0.6,3.1s1,1,1.9,1c0.7,0,1.3-0.2,1.7-0.6s0.6-1,0.7-1.9H32z"/>
				<path class="st5" d="M41.5,79.8c0-0.3,0-0.5-0.1-0.7s-0.2-0.4-0.4-0.6s-0.5-0.4-0.8-0.5s-0.8-0.3-1.3-0.4
					c-0.6-0.2-1.2-0.4-1.8-0.6S36,76.3,35.5,76s-0.8-0.8-1-1.2s-0.4-1-0.4-1.6c0-0.6,0.1-1.1,0.4-1.6s0.6-0.9,1.1-1.2s1-0.6,1.6-0.8
					s1.3-0.3,2-0.3c0.7,0,1.4,0.1,2,0.3s1.1,0.5,1.6,0.9s0.8,0.8,1,1.4s0.4,1.1,0.4,1.8h-2.7c0-0.3-0.1-0.6-0.2-0.9
					s-0.3-0.5-0.4-0.7s-0.4-0.3-0.7-0.4s-0.6-0.2-1-0.2c-0.4,0-0.7,0-1,0.1s-0.5,0.2-0.7,0.4s-0.3,0.3-0.4,0.6s-0.2,0.5-0.2,0.7
					c0,0.3,0.1,0.5,0.2,0.7s0.3,0.4,0.6,0.6s0.6,0.3,0.9,0.5s0.8,0.3,1.2,0.4c0.7,0.2,1.2,0.4,1.8,0.7s1,0.6,1.4,1s0.7,0.8,0.9,1.3
					s0.3,1,0.3,1.6c0,0.6-0.1,1.2-0.4,1.7s-0.6,0.9-1,1.2s-1,0.6-1.6,0.8s-1.3,0.3-2,0.3c-0.4,0-0.9,0-1.3-0.1s-0.9-0.2-1.3-0.4
					s-0.8-0.4-1.1-0.6s-0.7-0.5-0.9-0.9s-0.5-0.7-0.6-1.2s-0.2-0.9-0.2-1.4h2.7c0,0.4,0.1,0.8,0.2,1.1s0.3,0.6,0.6,0.8
					s0.5,0.3,0.9,0.4s0.7,0.1,1.1,0.1c0.4,0,0.7,0,1-0.1s0.5-0.2,0.7-0.4s0.3-0.3,0.4-0.5S41.5,80.1,41.5,79.8z"/>
				<path class="st5" d="M53.5,79.8c0-0.3,0-0.5-0.1-0.7s-0.2-0.4-0.4-0.6s-0.5-0.4-0.8-0.5s-0.8-0.3-1.3-0.4
					c-0.6-0.2-1.2-0.4-1.8-0.6S48,76.3,47.5,76s-0.8-0.8-1-1.2s-0.4-1-0.4-1.6c0-0.6,0.1-1.1,0.4-1.6s0.6-0.9,1.1-1.2s1-0.6,1.6-0.8
					s1.3-0.3,2-0.3c0.7,0,1.4,0.1,2,0.3s1.1,0.5,1.6,0.9s0.8,0.8,1,1.4s0.4,1.1,0.4,1.8h-2.7c0-0.3-0.1-0.6-0.2-0.9
					s-0.3-0.5-0.4-0.7s-0.4-0.3-0.7-0.4s-0.6-0.2-1-0.2c-0.4,0-0.7,0-1,0.1s-0.5,0.2-0.7,0.4s-0.3,0.3-0.4,0.6s-0.2,0.5-0.2,0.7
					c0,0.3,0.1,0.5,0.2,0.7s0.3,0.4,0.6,0.6s0.6,0.3,0.9,0.5s0.8,0.3,1.2,0.4c0.7,0.2,1.2,0.4,1.8,0.7s1,0.6,1.4,1s0.7,0.8,0.9,1.3
					s0.3,1,0.3,1.6c0,0.6-0.1,1.2-0.4,1.7s-0.6,0.9-1,1.2s-1,0.6-1.6,0.8s-1.3,0.3-2,0.3c-0.4,0-0.9,0-1.3-0.1s-0.9-0.2-1.3-0.4
					s-0.8-0.4-1.1-0.6s-0.7-0.5-0.9-0.9s-0.5-0.7-0.6-1.2s-0.2-0.9-0.2-1.4h2.7c0,0.4,0.1,0.8,0.2,1.1s0.3,0.6,0.6,0.8
					s0.5,0.3,0.9,0.4s0.7,0.1,1.1,0.1c0.4,0,0.7,0,1-0.1s0.5-0.2,0.7-0.4s0.3-0.3,0.4-0.5S53.5,80.1,53.5,79.8z"/>
			</g>
			<path class="st5" d="M33.4,55v2.8h-2.2c-0.7,0-1.4-0.1-1.9-0.2c-0.5-0.2-0.9-0.4-1.3-0.8c-0.3-0.4-0.6-0.8-0.8-1.4
				S27,54.1,27,53.2c0-0.5,0-1,0-1.5c0-0.4,0.1-0.8,0.1-1.2c0-0.4,0.1-0.8,0.1-1.2s0-0.8,0-1.3c0-0.5-0.2-1.1-0.6-1.5
				s-1.1-0.7-2.1-0.8v-3.2c1,0,1.7-0.3,2.1-0.8s0.6-1,0.6-1.5c0-0.5,0-0.9,0-1.3s-0.1-0.8-0.1-1.2s-0.1-0.8-0.1-1.2s0-0.9,0-1.5
				c0-1.7,0.3-2.9,1-3.6c0.7-0.7,1.7-1,3.2-1h2.2v2.8h-0.5c-0.6,0-1,0.1-1.2,0.4s-0.3,0.8-0.3,1.6c0,0.8,0,1.6,0.1,2.4
				s0.1,1.6,0.1,2.6c0,1.3-0.2,2.2-0.6,2.7c-0.4,0.5-1.1,0.9-1.9,1.1v0.1c0.8,0.2,1.5,0.6,1.9,1.1s0.6,1.4,0.6,2.7
				c0,0.9,0,1.8-0.1,2.6s-0.1,1.6-0.1,2.4c0,0.8,0.1,1.4,0.3,1.6c0.2,0.2,0.6,0.4,1.2,0.4L33.4,55z M43.8,55c0.6,0,1-0.1,1.2-0.4
				s0.3-0.8,0.3-1.6c0-0.8,0-1.6-0.1-2.4s-0.1-1.6-0.1-2.6c0-1.3,0.2-2.2,0.6-2.7s1.1-0.9,1.9-1.1v-0.1c-0.8-0.2-1.5-0.6-1.9-1.1
				c-0.4-0.5-0.6-1.4-0.6-2.7c0-0.9,0-1.8,0.1-2.6s0.1-1.6,0.1-2.4c0-0.8-0.1-1.4-0.3-1.6s-0.6-0.4-1.2-0.4h-0.5v-2.8h2.2
				c1.5,0,2.5,0.3,3.2,1s1,1.9,1,3.6c0,0.5,0,1,0,1.5s-0.1,0.8-0.1,1.2s-0.1,0.8-0.1,1.2s0,0.8,0,1.3c0,0.5,0.2,1.1,0.6,1.5
				c0.4,0.5,1.1,0.7,2.1,0.8v3.2c-1,0-1.7,0.3-2.1,0.8c-0.4,0.5-0.6,1-0.6,1.5c0,0.5,0,0.9,0,1.3c0,0.4,0.1,0.8,0.1,1.2
				s0.1,0.8,0.1,1.2c0,0.4,0,0.9,0,1.5c0,0.9-0.1,1.6-0.2,2.2s-0.4,1.1-0.8,1.4c-0.3,0.4-0.8,0.6-1.3,0.8s-1.1,0.2-1.9,0.2h-2.2V55
				L43.8,55z"/>
		</g>
	</g>
	<g transform="translate(390.210177 266.069045)">
		<g transform="translate(.775147 .614864)">
			<path class="st0" d="M51.8,0l23.5,23.6v66.4c0,2.5-2,4.5-4.5,4.5H4.5c-2.5,0-4.5-2-4.5-4.5V4.5C0,2,2,0,4.5,0L51.8,0z"/>
			<path class="st1" d="M51,1.7H4.5C3,1.7,1.7,3,1.7,4.5v85.6c0,1.5,1.3,2.8,2.8,2.8h66.3c1.5,0,2.8-1.3,2.8-2.8V24.4L51,1.7z"/>
			<path class="st5" d="M16.3,43.7L31.2,38v4.4L26.1,44l-4.3,1.5v0.1l4.3,1.5l5.1,1.6v4.4l-14.9-5.7L16.3,43.7z M38.2,33.6h3.5
				l-5.5,27.4h-3.5L38.2,33.6z M58.7,47.4l-14.9,5.7v-4.4l5.1-1.6l4.3-1.5v-0.1L49,44l-5.1-1.6V38l14.9,5.7V47.4z"/>
			<g transform="matrix(-1 0 0 -1 126.529254 23.648674)">
				<path class="st2" d="M75,23.6V4.5C75,2,73,0,70.5,0h-19"/>
				<path class="st3" d="M73.5,20V4.5c0-1.7-1.3-3-3-3H55.1L73.5,20z"/>
			</g>
			<text transform="matrix(1 0 0 1 7.1583 83.5737)" class="st5 st6 st7">HTML</text>
		</g>
		<path class="st0" d="M52.5,0.6l23.5,23.6v66.4c0,2.5-2,4.5-4.5,4.5H5.3c-2.5,0-4.5-2-4.5-4.5V5.1c0-2.5,2-4.5,4.5-4.5L52.5,0.6z"
			/>
		<path class="st1" d="M51.8,2.3H5.3c-1.5,0-2.8,1.3-2.8,2.8v85.6c0,1.5,1.3,2.8,2.8,2.8h66.3c1.5,0,2.8-1.3,2.8-2.8V25L51.8,2.3z"
			/>
		<g transform="matrix(-1 0 0 -1 128.079548 24.878402)">
			<path class="st2" d="M75.8,24.3V5.1c0-2.5-2-4.5-4.5-4.5h-19"/>
			<path class="st3" d="M74.3,20.6V5.1c0-1.7-1.3-3-3-3H55.9L74.3,20.6z"/>
		</g>
		<g>
			<g class="st4">
				<path class="st5" d="M15.1,80l2.7-10.2h3l-4.3,14.2h-2.8L9.4,69.7h3L15.1,80z"/>
				<path class="st5" d="M23,69.7h8.2v2.2h-2.8v9.8h2.8v2.2H23v-2.2h2.7v-9.8H23V69.7z"/>
				<path class="st5" d="M34.4,83.9V69.7H38c0.9,0,1.8,0.2,2.6,0.5c0.8,0.3,1.4,0.8,2,1.3c0.5,0.6,1,1.3,1.3,2.1
					c0.3,0.8,0.4,1.7,0.4,2.6v1.2c0,1-0.1,1.8-0.4,2.6c-0.3,0.8-0.7,1.5-1.2,2.1c-0.5,0.6-1.2,1-1.9,1.3c-0.7,0.3-1.6,0.5-2.5,0.5
					H34.4z M37.1,71.9v9.8h1.1c0.5,0,1-0.1,1.4-0.3c0.4-0.2,0.8-0.5,1-0.8s0.5-0.8,0.6-1.4c0.2-0.5,0.2-1.1,0.2-1.8v-1.2
					c0-0.6-0.1-1.2-0.2-1.7s-0.4-1-0.7-1.4c-0.3-0.4-0.6-0.7-1.1-0.9c-0.4-0.2-0.9-0.3-1.5-0.3H37.1z"/>
				<path class="st5" d="M55.2,77.7h-5.8v4h6.8v2.2h-9.6V69.7h9.6v2.2h-6.8v3.6h5.8V77.7z"/>
				<path class="st5" d="M68.3,77.9c0,0.9-0.1,1.8-0.4,2.5c-0.2,0.8-0.6,1.4-1,2c-0.5,0.6-1,1-1.7,1.3s-1.4,0.5-2.2,0.5
					s-1.5-0.2-2.2-0.5c-0.6-0.3-1.2-0.7-1.6-1.3c-0.4-0.6-0.8-1.2-1-2c-0.2-0.8-0.3-1.6-0.3-2.5v-2.1c0-0.9,0.1-1.8,0.3-2.5
					c0.2-0.8,0.6-1.4,1-2c0.4-0.6,1-1,1.6-1.3s1.4-0.5,2.2-0.5c0.8,0,1.6,0.2,2.2,0.5s1.2,0.7,1.7,1.3c0.5,0.6,0.8,1.2,1,2
					c0.2,0.8,0.4,1.6,0.4,2.5V77.9z M65.6,75.8c0-0.6,0-1.1-0.1-1.6c-0.1-0.5-0.2-0.9-0.4-1.3c-0.2-0.4-0.5-0.6-0.8-0.8
					c-0.3-0.2-0.7-0.3-1.1-0.3c-0.4,0-0.8,0.1-1.1,0.3c-0.3,0.2-0.5,0.5-0.7,0.8c-0.2,0.4-0.3,0.8-0.4,1.3s-0.1,1-0.1,1.6v2.1
					c0,0.6,0,1.1,0.1,1.6s0.2,0.9,0.4,1.3c0.2,0.4,0.4,0.6,0.7,0.8c0.3,0.2,0.7,0.3,1.1,0.3c0.4,0,0.8-0.1,1.1-0.3
					c0.3-0.2,0.6-0.5,0.8-0.8c0.2-0.4,0.3-0.8,0.4-1.3s0.1-1,0.1-1.6V75.8z"/>
			</g>
			<path class="st5" d="M46.5,34.2h6.3v22.1c0,1.7-1.4,3.2-3.2,3.2H24.4c-1.7,0-3.2-1.4-3.2-3.2V37.4c0-1.7,1.4-3.2,3.2-3.2H26
				l3.2,6.3h4.7l-3.2-6.3h3.2l3.2,6.3h4.7l-3.2-6.3h3.2l3.2,6.3h4.7L46.5,34.2z M33.9,45.3v9.5l7.4-4.7L33.9,45.3z"/>
		</g>
	</g>
	<g transform="translate(538.066925 166.91805)">
		<g transform="translate(7.622768 .759383)">
			<path class="st0" d="M51.8,0l23.5,23.6v66.4c0,2.5-2,4.5-4.5,4.5H4.5c-2.5,0-4.5-2-4.5-4.5V4.5C0,2,2,0,4.5,0L51.8,0z"/>
			<path class="st1" d="M51,1.7H4.5C3,1.7,1.7,3,1.7,4.5v85.6c0,1.5,1.3,2.8,2.8,2.8h66.3c1.5,0,2.8-1.3,2.8-2.8V24.4L51,1.7z"/>
			<path class="st5" d="M16.3,43.7L31.2,38v4.4L26.1,44l-4.3,1.5v0.1l4.3,1.5l5.1,1.6v4.4l-14.9-5.7L16.3,43.7z M38.2,33.6h3.5
				l-5.5,27.4h-3.5L38.2,33.6z M58.7,47.4l-14.9,5.7v-4.4l5.1-1.6l4.3-1.5v-0.1L49,44l-5.1-1.6V38l14.9,5.7V47.4z"/>
			<g transform="matrix(-1 0 0 -1 126.529254 23.648674)">
				<path class="st2" d="M75,23.6V4.5C75,2,73,0,70.5,0h-19"/>
				<path class="st3" d="M73.5,20V4.5c0-1.7-1.3-3-3-3H55.1L73.5,20z"/>
			</g>
			<text transform="matrix(1 0 0 1 7.1583 83.5737)" class="st5 st6 st7">HTML</text>
		</g>
		<g transform="translate(.790929 .759383)">
			<path class="st0" d="M58.6,0l23.5,23.6v66.4c0,2.5-2,4.5-4.5,4.5H11.3c-2.5,0-4.5-2-4.5-4.5V4.5C6.8,2,8.8,0,11.3,0L58.6,0z"/>
			<path class="st1" d="M57.9,1.7H11.3C9.8,1.7,8.5,3,8.5,4.5v85.6c0,1.5,1.3,2.8,2.8,2.8h66.3c1.5,0,2.8-1.3,2.8-2.8V24.4L57.9,1.7
				z"/>
			<path class="st5" d="M3.8,28.4H71c2.1,0,3.8,1.7,3.8,3.8v17.8c0,2.1-1.7,3.8-3.8,3.8H3.8C1.7,53.7,0,52,0,49.9V32.1
				C0,30.1,1.7,28.4,3.8,28.4z"/>
			<g transform="matrix(-1 0 0 -1 140.192932 23.648674)">
				<path class="st2" d="M81.9,23.6V4.5c0-2.5-2-4.5-4.5-4.5h-19"/>
				<path class="st3" d="M80.4,20V4.5c0-1.7-1.3-3-3-3H61.9L80.4,20z"/>
			</g>
		</g>
		<g class="st4">
			<path class="st0" d="M22.1,35.1h2.7l0,9.9c0,0.7-0.1,1.3-0.4,1.9c-0.2,0.6-0.6,1-1,1.4c-0.4,0.4-0.9,0.7-1.5,0.9
				c-0.6,0.2-1.2,0.3-1.9,0.3c-0.7,0-1.4-0.1-2-0.3s-1.1-0.5-1.5-0.8s-0.7-0.8-1-1.4s-0.4-1.2-0.4-1.9h2.8c0,0.8,0.2,1.3,0.5,1.7
				s0.8,0.5,1.5,0.5c0.3,0,0.6-0.1,0.9-0.2c0.3-0.1,0.5-0.3,0.7-0.5c0.2-0.2,0.3-0.5,0.4-0.7c0.1-0.3,0.2-0.6,0.2-0.9V35.1z"/>
			<path class="st0" d="M34.8,45.6c0-0.3,0-0.5-0.1-0.7s-0.2-0.4-0.4-0.6c-0.2-0.2-0.5-0.4-0.8-0.5s-0.8-0.3-1.3-0.4
				c-0.6-0.2-1.2-0.4-1.8-0.6c-0.6-0.3-1.1-0.6-1.5-0.9s-0.8-0.8-1-1.2c-0.3-0.5-0.4-1-0.4-1.6c0-0.6,0.1-1.1,0.4-1.6
				s0.6-0.9,1.1-1.2s1-0.6,1.6-0.8c0.6-0.2,1.3-0.3,2-0.3c0.7,0,1.4,0.1,2,0.3s1.1,0.5,1.6,0.9c0.4,0.4,0.8,0.8,1,1.4
				c0.2,0.5,0.4,1.1,0.4,1.8h-2.7c0-0.3-0.1-0.6-0.2-0.9c-0.1-0.3-0.2-0.5-0.4-0.7c-0.2-0.2-0.4-0.3-0.7-0.4c-0.3-0.1-0.6-0.2-1-0.2
				c-0.4,0-0.7,0-1,0.1s-0.5,0.2-0.7,0.4s-0.3,0.3-0.4,0.6c-0.1,0.2-0.2,0.5-0.2,0.7c0,0.3,0.1,0.5,0.2,0.7c0.1,0.2,0.3,0.4,0.6,0.6
				s0.6,0.3,0.9,0.5s0.8,0.3,1.2,0.4c0.7,0.2,1.2,0.4,1.8,0.7s1,0.6,1.4,1c0.4,0.4,0.7,0.8,0.9,1.3c0.2,0.5,0.3,1,0.3,1.6
				c0,0.6-0.1,1.2-0.4,1.7c-0.2,0.5-0.6,0.9-1,1.2c-0.4,0.3-1,0.6-1.6,0.8c-0.6,0.2-1.3,0.3-2,0.3c-0.4,0-0.9,0-1.3-0.1
				c-0.4-0.1-0.9-0.2-1.3-0.4c-0.4-0.2-0.8-0.4-1.1-0.6s-0.7-0.5-0.9-0.9c-0.3-0.3-0.5-0.7-0.6-1.2S27,45.5,27,44.9h2.7
				c0,0.4,0.1,0.8,0.2,1.1s0.3,0.6,0.6,0.8s0.5,0.3,0.9,0.4s0.7,0.1,1.1,0.1c0.4,0,0.7,0,1-0.1s0.5-0.2,0.7-0.4s0.3-0.3,0.4-0.5
				C34.7,46.1,34.8,45.9,34.8,45.6z"/>
			<path class="st0" d="M49.3,43.3c0,0.9-0.1,1.8-0.4,2.5c-0.2,0.8-0.6,1.4-1,2c-0.5,0.6-1,1-1.7,1.3s-1.4,0.5-2.2,0.5
				s-1.5-0.2-2.2-0.5c-0.6-0.3-1.2-0.7-1.6-1.3c-0.4-0.6-0.8-1.2-1-2c-0.2-0.8-0.3-1.6-0.3-2.5v-2.1c0-0.9,0.1-1.8,0.3-2.5
				c0.2-0.8,0.6-1.4,1-2c0.4-0.6,1-1,1.6-1.3s1.4-0.5,2.2-0.5c0.8,0,1.6,0.2,2.2,0.5s1.2,0.7,1.7,1.3c0.5,0.6,0.8,1.2,1,2
				c0.2,0.8,0.4,1.6,0.4,2.5V43.3z M46.5,41.2c0-0.6,0-1.1-0.1-1.6c-0.1-0.5-0.2-0.9-0.4-1.3c-0.2-0.4-0.5-0.6-0.8-0.8
				c-0.3-0.2-0.7-0.3-1.1-0.3c-0.4,0-0.8,0.1-1.1,0.3c-0.3,0.2-0.5,0.5-0.7,0.8c-0.2,0.4-0.3,0.8-0.4,1.3s-0.1,1-0.1,1.6v2.1
				c0,0.6,0,1.1,0.1,1.6s0.2,0.9,0.4,1.3c0.2,0.4,0.4,0.6,0.7,0.8c0.3,0.2,0.7,0.3,1.1,0.3c0.4,0,0.8-0.1,1.1-0.3
				c0.3-0.2,0.6-0.5,0.8-0.8c0.2-0.4,0.3-0.8,0.4-1.3s0.1-1,0.1-1.6V41.2z"/>
			<path class="st0" d="M60.8,49.3H58l-4-9.2v9.2h-2.8V35.1h2.8l3.9,9.1l0-9.1h2.8V49.3z"/>
		</g>
	</g>
	<g transform="translate(223.4375 348.260002)">
		<g transform="translate(12.028891 .475606)">
			<path class="st0" d="M51.8,0l23.5,23.6v66.4c0,2.5-2,4.5-4.5,4.5H4.5c-2.5,0-4.5-2-4.5-4.5V4.5C0,2,2,0,4.5,0L51.8,0z"/>
			<path class="st1" d="M51,1.7H4.5C3,1.7,1.7,3,1.7,4.5v85.6c0,1.5,1.3,2.8,2.8,2.8h66.3c1.5,0,2.8-1.3,2.8-2.8V24.4L51,1.7z"/>
			<path class="st5" d="M16.3,43.7L31.2,38v4.4L26.1,44l-4.3,1.5v0.1l4.3,1.5l5.1,1.6v4.4l-14.9-5.7L16.3,43.7z M38.2,33.6h3.5
				l-5.5,27.4h-3.5L38.2,33.6z M58.7,47.4l-14.9,5.7v-4.4l5.1-1.6l4.3-1.5v-0.1L49,44l-5.1-1.6V38l14.9,5.7V47.4z"/>
			<g transform="matrix(-1 0 0 -1 126.529254 23.648674)">
				<path class="st2" d="M75,23.6V4.5C75,2,73,0,70.5,0h-19"/>
				<path class="st3" d="M73.5,20V4.5c0-1.7-1.3-3-3-3H55.1L73.5,20z"/>
			</g>
			<text transform="matrix(1 0 0 1 7.1583 83.5736)" class="st5 st6 st7">HTML</text>
		</g>
		<g transform="translate(5.197052 .475606)">
			<path class="st0" d="M58.6,0l23.5,23.6v66.4c0,2.5-2,4.5-4.5,4.5H11.3c-2.5,0-4.5-2-4.5-4.5V4.5C6.8,2,8.8,0,11.3,0L58.6,0z"/>
			<path class="st1" d="M57.9,1.7H11.3C9.8,1.7,8.5,3,8.5,4.5v85.6c0,1.5,1.3,2.8,2.8,2.8h66.3c1.5,0,2.8-1.3,2.8-2.8V24.4L57.9,1.7
				z"/>
			<path class="st5" d="M3.8,28.4H71c2.1,0,3.8,1.7,3.8,3.8v17.8c0,2.1-1.7,3.8-3.8,3.8H3.8C1.7,53.7,0,52,0,49.9V32.1
				C0,30.1,1.7,28.4,3.8,28.4z"/>
			<g transform="matrix(-1 0 0 -1 140.192932 23.648674)">
				<path class="st2" d="M81.9,23.6V4.5c0-2.5-2-4.5-4.5-4.5h-19"/>
				<path class="st3" d="M80.4,20V4.5c0-1.7-1.3-3-3-3H61.9L80.4,20z"/>
			</g>
		</g>
		<g class="st4">
			<path class="st0" d="M38.5,35h2.7l0,9.9c0,0.7-0.1,1.3-0.4,1.8s-0.6,1-1,1.4c-0.4,0.4-0.9,0.7-1.5,0.9c-0.6,0.2-1.2,0.3-1.9,0.3
				c-0.7,0-1.4-0.1-2-0.3c-0.6-0.2-1.1-0.5-1.5-0.8s-0.7-0.8-1-1.4s-0.4-1.2-0.4-1.9h2.8c0,0.8,0.2,1.3,0.5,1.7s0.8,0.5,1.5,0.5
				c0.3,0,0.6-0.1,0.9-0.2c0.3-0.1,0.5-0.3,0.7-0.5c0.2-0.2,0.3-0.5,0.4-0.7c0.1-0.3,0.2-0.6,0.2-0.9V35z"/>
			<path class="st0" d="M51.2,45.5c0-0.3,0-0.5-0.1-0.7c-0.1-0.2-0.2-0.4-0.4-0.6c-0.2-0.2-0.5-0.4-0.8-0.5
				c-0.3-0.2-0.8-0.3-1.3-0.4c-0.6-0.2-1.2-0.4-1.8-0.6s-1.1-0.6-1.5-0.9c-0.4-0.4-0.8-0.8-1-1.2c-0.3-0.5-0.4-1-0.4-1.6
				c0-0.6,0.1-1.1,0.4-1.6s0.6-0.9,1.1-1.2c0.4-0.3,1-0.6,1.6-0.8s1.3-0.3,2-0.3c0.7,0,1.4,0.1,2,0.3s1.1,0.5,1.6,0.9
				c0.4,0.4,0.8,0.8,1,1.4c0.2,0.5,0.4,1.1,0.4,1.8h-2.7c0-0.3-0.1-0.6-0.2-0.9c-0.1-0.3-0.3-0.5-0.4-0.7c-0.2-0.2-0.4-0.3-0.7-0.4
				s-0.6-0.2-1-0.2c-0.4,0-0.7,0-1,0.1s-0.5,0.2-0.7,0.4c-0.2,0.2-0.3,0.3-0.4,0.6c-0.1,0.2-0.2,0.5-0.2,0.7c0,0.3,0.1,0.5,0.2,0.7
				s0.3,0.4,0.6,0.6c0.3,0.2,0.6,0.3,0.9,0.5c0.4,0.1,0.8,0.3,1.2,0.4c0.7,0.2,1.2,0.4,1.8,0.7s1,0.6,1.4,1c0.4,0.4,0.7,0.8,0.9,1.3
				s0.3,1,0.3,1.6c0,0.6-0.1,1.2-0.4,1.7c-0.3,0.5-0.6,0.9-1,1.2c-0.4,0.3-1,0.6-1.6,0.8c-0.6,0.2-1.3,0.3-2,0.3
				c-0.4,0-0.9,0-1.3-0.1c-0.4-0.1-0.9-0.2-1.3-0.4c-0.4-0.2-0.8-0.4-1.1-0.6s-0.7-0.6-0.9-0.9c-0.3-0.3-0.5-0.7-0.6-1.2
				s-0.2-0.9-0.2-1.4h2.7c0,0.4,0.1,0.8,0.2,1.1c0.1,0.3,0.3,0.6,0.6,0.8s0.5,0.3,0.9,0.4c0.3,0.1,0.7,0.1,1.1,0.1
				c0.4,0,0.7,0,1-0.1c0.3-0.1,0.5-0.2,0.7-0.4c0.2-0.2,0.3-0.3,0.4-0.5C51.1,46,51.2,45.7,51.2,45.5z"/>
		</g>
	</g>
	<g>
		<path class="st8" d="M439.8,222.6h-12.2l1.7-9.6l-12.2,16.5h12.2l-1.7,9.6L439.8,222.6z"/>
		<path class="st8" d="M281.5,301.8h-12.2l1.7-9.6l-12.2,16.5h12.2l-1.7,9.6L281.5,301.8z"/>
		<path class="st8" d="M439.8,403.5h-12.2l1.7-9.6l-12.2,16.5h12.2l-1.7,9.6L439.8,403.5z"/>
		<path class="st8" d="M591.1,301.8h-12.2l1.7-9.6l-12.2,16.5h12.2l-1.7,9.6L591.1,301.8z"/>
	</g>
</g>
</svg>
