<svg height="180" viewBox="0 0 476 180" width="476" xmlns="http://www.w3.org/2000/svg"><g fill="none" fill-rule="evenodd"><path d="m98.4870466 0 44.7668394 45v130.505629c0 2.482173-2.011387 4.494371-4.503966 4.494371h-134.24595382c-2.48747184 0-4.50396618-2.021484-4.50396618-4.494371v-171.01125793c0-2.4821726 2.01138673-4.49437107 4.50396618-4.49437107z" fill="#fff" fill-rule="evenodd"/><path d="m97.7790484 1.70299995h-93.27508222c-1.55078842 0-2.80096623 1.24849244-2.80096623 2.79137112v171.01125793c0 1.535283 1.25697542 2.791371 2.80096623 2.791371h134.24595382c1.550788 0 2.800966-1.248492 2.800966-2.791371v-129.8028131z" stroke="#21262d" stroke-width="3.406"/><g transform="matrix(-1 0 0 -1 240.76684 45)"><path d="m142.766839 45v-40.49997128c0-2.48529723-2.010506-4.50002872-4.497383-4.50002872h-40.269456" fill="#21262d" fill-opacity=".502208" fill-rule="evenodd"/><path d="m141.063839 40.8734445v-36.37341578c0-1.54620962-1.2495-2.79702872-2.794383-2.79702872h-36.173105z" stroke="#21262d" stroke-width="3.406"/></g><text fill="#21262d" font-family="RobotoMono-Regular, Roboto Mono" font-size="26"><tspan x="49.596191" y="150">JPG</tspan></text><g transform="translate(31 51)"><rect height="60.043508" rx="5.714286" stroke="#21262d" stroke-width="3" width="73.125035" x="1.937482" y="2.139717"/><g fill="#21262d"><ellipse cx="20.475" cy="22.952381" rx="5.75" ry="5.714286"/><path d="m25.2416667 41.6056022 13.0666666 12.5445377 16.3333334-18.8168066 17.9666666 26.6571427h-68.59999997z"/></g></g><g transform="translate(215.742224 21)"><path d="m78.7896326 0 35.8134694 35.9999979v104.4044971c0 1.985738-1.620066 3.595496-3.587254 3.595496h-107.4285943c-1.98118551 0-3.5872537-1.617187-3.5872537-3.595496v-136.80899835c0-1.98573797 1.62006548-3.59549665 3.5872537-3.59549665z" fill="#fff" fill-rule="evenodd"/><path d="m78.2232341 1.36239988h-74.6359804c-1.21971069 0-2.22485382 1.00474476-2.22485382 2.23309677v136.80899835c0 1.229575.9997944 2.233097 2.22485382 2.233097h107.4285943c1.219711 0 2.224854-1.004745 2.224854-2.233097v-103.8422444z" stroke="#21262d" stroke-width="2.7248"/><path d="m24.7999985 66.559996 22.6559987-8.6399995v6.7199996l-7.7759996 2.3999999-6.5279996 2.2079999v.192l6.5279996 2.2079998 7.7759996 2.3999999v6.7199996l-22.6559987-8.6399995zm33.407998-15.3599991h5.2799997l-8.4479995 41.7599976h-5.2799997zm31.1999982 20.9279988-22.6559987 8.6399995v-6.7199996l7.7759996-2.3999999 6.5279996-2.2079998v-.192l-6.5279996-2.2079999-7.7759996-2.3999999v-6.7199996l22.6559987 8.6399995z" fill="#21262d"/><g transform="matrix(-1 0 0 -1 192.61346 35.999998)"><path d="m114.213465 35.9999979v-32.39997514c0-1.98823767-1.608405-3.60002276-3.597907-3.60002276h-32.2155627" fill="#21262d" fill-opacity=".502208" fill-rule="evenodd"/><path d="m113.013465 33.0922666v-29.49224384c0-1.32662032-1.072271-2.40002283-2.397907-2.40002283h-29.329115z" stroke="#21262d" stroke-width="2.4"/></g><text fill="#21262d" font-family="RobotoMono-Regular, Roboto Mono" font-size="20.799999"><tspan x="33.435936" y="120.399994">HTML</tspan></text></g><g transform="translate(215.742224 21)"><path d="m78.7896326 0 35.8134694 35.9999979v104.4044971c0 1.985738-1.620066 3.595496-3.587254 3.595496h-107.4285943c-1.98118551 0-3.5872537-1.617187-3.5872537-3.595496v-136.80899835c0-1.98573797 1.62006548-3.59549665 3.5872537-3.59549665z" fill="#fff" fill-rule="evenodd"/><path d="m78.0816344 1.703h-74.4943807c-1.03163265 0-1.8842537.85228312-1.8842537 1.89249665v136.80899835c0 1.04175.84758686 1.892496 1.8842537 1.892496h107.4285943c1.031633 0 1.884254-.852283 1.884254-1.892496v-103.7016812z" stroke="#21262d" stroke-width="3.406"/><path d="m24.7999985 66.559996 22.6559987-8.6399995v6.7199996l-7.7759996 2.3999999-6.5279996 2.2079999v.192l6.5279996 2.2079998 7.7759996 2.3999999v6.7199996l-22.6559987-8.6399995zm33.407998-15.3599991h5.2799997l-8.4479995 41.7599976h-5.2799997zm31.1999982 20.9279988-22.6559987 8.6399995v-6.7199996l7.7759996-2.3999999 6.5279996-2.2079998v-.192l-6.5279996-2.2079999-7.7759996-2.3999999v-6.7199996l22.6559987 8.6399995z" fill="#21262d"/><g transform="matrix(-1 0 0 -1 192.61346 35.999998)"><path d="m114.213465 35.9999979v-32.39997514c0-1.98823767-1.608405-3.60002276-3.597907-3.60002276h-32.2155627" fill="#21262d" fill-opacity=".502208" fill-rule="evenodd"/><path d="m112.510465 31.8734423v-28.27341954c0-1.04893979-.847189-1.89702276-1.894907-1.89702276h-28.1192121z" stroke="#21262d" stroke-width="3.406"/></g><text fill="#21262d" font-family="RobotoMono-Regular, Roboto Mono" font-size="20.799999"><tspan x="33.435936" y="120.399994">HTML</tspan></text></g><g transform="translate(389.346875 36)"><path d="m59.0922245 0 26.860102 26.9999984v78.3033726c0 1.489304-1.2150491 2.696623-2.6904403 2.696623h-80.57144593c-1.48588913 0-2.69044027-1.212891-2.69044027-2.696623v-102.60674852c0-1.48930347 1.21504911-2.69662248 2.69044027-2.69662248z" fill="#fff" fill-rule="evenodd"/><path d="m58.6674256 1.02179991h-55.97698533c-.91478301 0-1.66864036.75355857-1.66864036 1.67482257v102.60674852c0 .922181.7498458 1.674823 1.66864036 1.674823h80.57144593c.914783 0 1.6686404-.753559 1.6686404-1.674823v-77.8816831z" stroke="#21262d" stroke-width="2.0436"/><path d="m18.5999989 49.919997 16.991999-6.4799996v5.0399997l-5.8319997 1.7999999-4.8959997 1.6559999v.144l4.8959997 1.6559999 5.8319997 1.7999999v5.0399997l-16.991999-6.4799996zm25.0559985-11.5199993h3.9599998l-6.3359997 31.3199981h-3.9599997zm23.3999986 15.6959991-16.991999 6.4799996v-5.0399997l5.8319997-1.7999999 4.8959997-1.6559999v-.144l-4.8959997-1.6559999-5.8319997-1.7999999v-5.0399997l16.991999 6.4799996z" fill="#21262d"/><g transform="matrix(-1 0 0 -1 144.460096 26.999998)"><path d="m85.6600985 26.9999984v-24.31242513c0-1.48430573-1.2063038-2.68757327-2.69843-2.68757327h-24.161672" fill="#c5c5c5" fill-opacity=".502208" fill-rule="evenodd"/><path d="m84.7600986 24.8191999v-22.13162663c0-.98715784-.8032736-1.78757332-1.7984301-1.78757332h-21.9968362z" stroke="#21262d" stroke-width="1.8"/></g><text fill="#21262d" font-family="RobotoMono-Regular, Roboto Mono" font-size="15.599999"><tspan x="25.076952" y="89.799996">HTML</tspan></text></g><g transform="translate(381.546875 36)"><path d="m66.892224 0 26.860102 26.9999984v78.3033726c0 1.489304-1.2150491 2.696623-2.6904403 2.696623h-80.5714459c-1.48588912 0-2.69044026-1.212891-2.69044026-2.696623v-102.60674852c0-1.48930347 1.2150491-2.69662248 2.69044026-2.69662248z" fill="#fff" fill-rule="evenodd"/><path d="m66.1842258 1.703h-55.693786c-.53862702 0-.98744026.44863536-.98744026.99362248v102.60674852c0 .546531.44543077.993623.98744026.993623h80.5714459c.5386271 0 .9874403-.448636.9874403-.993623v-77.6005567z" stroke="#21262d" stroke-width="3.406"/><rect fill="#21262d" height="28.9205" rx="2.259414" width="85.417766" y="32.399998"/><g transform="matrix(-1 0 0 -1 160.060094 26.999998)"><path d="m93.4600981 26.9999984v-24.31242513c0-1.48430573-1.2063039-2.68757327-2.6984301-2.68757327h-24.161672" fill="#21262d" fill-opacity=".502208" fill-rule="evenodd"/><path d="m91.7570981 22.8734429v-20.18586963c0-.54303118-.4431188-.98457327-.9954301-.98457327h-20.0653214z" stroke="#21262d" stroke-width="3.406"/></g></g><text fill="#fff" font-family="RobotoMono-Regular, Roboto Mono" font-size="15.599999"><tspan x="405.423827" y="89.199998">JSON</tspan></text></g></svg>