<?xml version="1.0" encoding="utf-8"?>
<!-- Generator: Adobe Illustrator 22.0.1, SVG Export Plug-In . SVG Version: 6.00 Build 0)  -->
<svg version="1.1" id="Layer_1" xmlns="http://www.w3.org/2000/svg" xmlns:xlink="http://www.w3.org/1999/xlink" x="0px" y="0px"
	 viewBox="0 0 850 624" style="enable-background:new 0 0 850 624;" xml:space="preserve">
<style type="text/css">
	.st0{fill:#4DBC00;}
	.st1{fill:#FFFFFF;}
	.st2{fill:none;stroke:#E02975;stroke-width:3.406;}
	.st3{fill:#E02975;fill-opacity:0.502;}
	.st4{fill:none;stroke:#E02975;stroke-width:3;}
	.st5{enable-background:new    ;}
	.st6{fill:#E02975;}
	.st7{opacity:0.46;}
	.st8{fill:none;stroke:#22272D;stroke-width:3.406;}
	.st9{fill:#22272D;fill-opacity:0.502;}
	.st10{fill:none;stroke:#22272D;stroke-width:3;}
	.st11{fill:#22272D;}
	.st12{fill:none;stroke:#B3B3B3;stroke-width:11;stroke-linecap:round;stroke-linejoin:round;stroke-dasharray:1,26;}
</style>
<title>cdn-illo-performance</title>
<desc>Created with Sketch.</desc>
<g id="cdn-illo-performance">
	<circle id="Oval" class="st0" cx="290" cy="428" r="28"/>
	<g id="Group-5" transform="translate(218.295330, 172.442109)">
		<g id="Rectangle-36">
			<g>
				<path id="path-1" class="st1" d="M106.6,0.5l47,47.2v137.2c0,2.5-2,4.5-4.5,4.5H7.7c-2.5,0-4.5-2-4.5-4.5V5c0-2.5,2-4.5,4.5-4.5
					H106.6z"/>
			</g>
			<path class="st2" d="M105.8,2.2H7.7C6.1,2.2,4.9,3.4,4.9,5v180c0,1.5,1.3,2.8,2.8,2.8H149c1.5,0,2.8-1.2,2.8-2.8V48.4L105.8,2.2z
				"/>
		</g>
		<g id="Path-50-Copy" transform="translate(129.540774, 24.100713) scale(-1, -1) translate(-129.540774, -24.100713)">
			<g>
				<path id="path-2" class="st3" d="M153,47.7V5c0-2.5-2-4.5-4.5-4.5H106"/>
			</g>
			<path class="st4" d="M151.5,44.1V5c0-1.6-1.3-3-3-3h-38.9L151.5,44.1z"/>
		</g>
		<g class="st5">
			<path class="st6" d="M64.6,144.7h2.7l0,9.9c0,0.7-0.1,1.3-0.4,1.9s-0.6,1-1,1.4s-0.9,0.7-1.5,0.9s-1.2,0.3-1.9,0.3
				c-0.7,0-1.4-0.1-2-0.3s-1.1-0.5-1.5-0.8s-0.7-0.8-1-1.4s-0.4-1.2-0.4-1.9h2.8c0,0.8,0.2,1.3,0.5,1.7s0.8,0.5,1.5,0.5
				c0.3,0,0.6-0.1,0.9-0.2s0.5-0.3,0.7-0.5s0.3-0.5,0.4-0.7s0.2-0.6,0.2-0.9V144.7z"/>
			<path class="st6" d="M72.8,153.7v5.2H70v-14.2h4.9c0.8,0,1.5,0.1,2.1,0.3s1.2,0.5,1.6,0.9s0.8,0.9,1,1.4s0.4,1.2,0.4,1.9
				c0,0.6-0.1,1.2-0.4,1.8s-0.6,1-1,1.4s-1,0.7-1.6,0.9s-1.3,0.3-2.1,0.3H72.8z M72.8,151.5h2.1c0.4,0,0.7-0.1,1-0.2
				s0.5-0.3,0.7-0.5s0.3-0.4,0.4-0.7s0.1-0.5,0.1-0.8c0-0.3,0-0.6-0.1-0.9s-0.2-0.5-0.4-0.8s-0.4-0.4-0.7-0.5s-0.6-0.2-1-0.2h-2.1
				V151.5z"/>
			<path class="st6" d="M91.6,157.3c-0.2,0.2-0.4,0.4-0.7,0.7s-0.7,0.4-1.1,0.6s-0.9,0.3-1.4,0.4s-1.1,0.2-1.7,0.2
				c-0.8,0-1.5-0.1-2.2-0.4s-1.2-0.7-1.7-1.2s-0.8-1.2-1.1-2s-0.4-1.7-0.4-2.7v-1.9c0-1,0.1-1.9,0.4-2.7s0.6-1.5,1.1-2s1-1,1.6-1.2
				s1.3-0.4,2-0.4c0.8,0,1.5,0.1,2.1,0.3s1.1,0.5,1.5,0.9s0.7,0.8,1,1.4s0.4,1.2,0.5,1.8H89c-0.1-0.7-0.3-1.3-0.7-1.6
				s-0.9-0.6-1.6-0.6c-0.4,0-0.7,0.1-1,0.3s-0.6,0.4-0.8,0.8s-0.4,0.8-0.5,1.3s-0.2,1.1-0.2,1.8v2c0,1.3,0.2,2.3,0.7,3.1
				s1.1,1.1,2,1.1c0.2,0,0.4,0,0.6,0s0.4-0.1,0.6-0.1s0.3-0.1,0.5-0.2s0.2-0.2,0.3-0.2l0-2.6h-2.4v-2.1h5.1L91.6,157.3z"/>
		</g>
		<g id="Group" transform="translate(35.706201, 54.019968)">
			<path id="Background" class="st4" d="M7.7,2.2h65.5c3.2,0,5.7,2.6,5.7,5.7v51.8c0,3.2-2.6,5.7-5.7,5.7H7.7
				c-3.2,0-5.7-2.6-5.7-5.7V7.9C2,4.7,4.5,2.2,7.7,2.2z"/>
			<ellipse id="Path" class="st6" cx="21.5" cy="24.1" rx="6" ry="6"/>
			<polygon id="Path_1_" class="st6" points="26.5,43.7 40.2,56.8 57.4,37.1 76.2,65.1 4.2,65.1 			"/>
		</g>
	</g>
	<g id="Group-5_1_" transform="translate(477.074627, 171.442109)" class="st7">
		<g id="Rectangle-36_1_">
			<g>
				<path id="path-3" class="st1" d="M107.6,1.5l47,47.2v137.2c0,2.5-2,4.5-4.5,4.5H8.7c-2.5,0-4.5-2-4.5-4.5V6c0-2.5,2-4.5,4.5-4.5
					H107.6z"/>
			</g>
			<path class="st8" d="M106.8,3.2H8.7C7.1,3.2,5.9,4.4,5.9,6v180c0,1.5,1.3,2.8,2.8,2.8H150c1.5,0,2.8-1.2,2.8-2.8V49.4L106.8,3.2z
				"/>
		</g>
		<g id="Path-50-Copy_1_" transform="translate(130.540774, 25.100713) scale(-1, -1) translate(-130.540774, -25.100713)">
			<g>
				<path id="path-4" class="st9" d="M154,48.7V6c0-2.5-2-4.5-4.5-4.5H107"/>
			</g>
			<path class="st10" d="M152.5,45.1V6c0-1.6-1.3-3-3-3h-38.9L152.5,45.1z"/>
		</g>
		<g class="st5">
			<path class="st11" d="M65.6,145.7h2.7l0,9.9c0,0.7-0.1,1.3-0.4,1.9c-0.2,0.6-0.6,1-1,1.4c-0.4,0.4-0.9,0.7-1.5,0.9
				c-0.6,0.2-1.2,0.3-1.9,0.3c-0.7,0-1.4-0.1-2-0.3s-1.1-0.5-1.5-0.8s-0.7-0.8-1-1.4s-0.4-1.2-0.4-1.9h2.8c0,0.8,0.2,1.3,0.5,1.7
				s0.8,0.5,1.5,0.5c0.3,0,0.6-0.1,0.9-0.2c0.3-0.1,0.5-0.3,0.7-0.5c0.2-0.2,0.3-0.5,0.4-0.7c0.1-0.3,0.2-0.6,0.2-0.9V145.7z"/>
			<path class="st11" d="M73.8,154.7v5.2H71v-14.2h4.9c0.8,0,1.5,0.1,2.1,0.3s1.2,0.5,1.6,0.9s0.8,0.9,1,1.4
				c0.2,0.6,0.4,1.2,0.4,1.9c0,0.6-0.1,1.2-0.4,1.8c-0.2,0.5-0.6,1-1,1.4s-1,0.7-1.6,0.9s-1.3,0.3-2.1,0.3H73.8z M73.8,152.5h2.1
				c0.4,0,0.7-0.1,1-0.2c0.3-0.1,0.5-0.3,0.7-0.5c0.2-0.2,0.3-0.4,0.4-0.7c0.1-0.3,0.1-0.5,0.1-0.8c0-0.3,0-0.6-0.1-0.9
				c-0.1-0.3-0.2-0.5-0.4-0.8c-0.2-0.2-0.4-0.4-0.7-0.5c-0.3-0.1-0.6-0.2-1-0.2h-2.1V152.5z"/>
			<path class="st11" d="M92.6,158.3c-0.2,0.2-0.4,0.4-0.7,0.7c-0.3,0.2-0.7,0.4-1.1,0.6s-0.9,0.3-1.4,0.4c-0.5,0.1-1.1,0.2-1.7,0.2
				c-0.8,0-1.5-0.1-2.2-0.4c-0.7-0.3-1.2-0.7-1.7-1.2c-0.5-0.5-0.8-1.2-1.1-2c-0.2-0.8-0.4-1.7-0.4-2.7v-1.9c0-1,0.1-1.9,0.4-2.7
				s0.6-1.5,1.1-2c0.5-0.5,1-1,1.6-1.2c0.6-0.3,1.3-0.4,2-0.4c0.8,0,1.5,0.1,2.1,0.3s1.1,0.5,1.5,0.9s0.7,0.8,1,1.4
				c0.2,0.5,0.4,1.2,0.5,1.8H90c-0.1-0.7-0.3-1.3-0.7-1.6c-0.3-0.4-0.9-0.6-1.6-0.6c-0.4,0-0.7,0.1-1,0.3c-0.3,0.2-0.6,0.4-0.8,0.8
				c-0.2,0.3-0.4,0.8-0.5,1.3c-0.1,0.5-0.2,1.1-0.2,1.8v2c0,1.3,0.2,2.3,0.7,3.1c0.4,0.7,1.1,1.1,2,1.1c0.2,0,0.4,0,0.6,0
				c0.2,0,0.4-0.1,0.6-0.1c0.2-0.1,0.3-0.1,0.5-0.2c0.1-0.1,0.2-0.2,0.3-0.2l0-2.6h-2.4v-2.1h5.1L92.6,158.3z"/>
		</g>
		<g id="Group_1_" transform="translate(36.706201, 55.019968)">
			<path id="Background_1_" class="st10" d="M7.7,2.2h65.5c3.2,0,5.7,2.6,5.7,5.7v51.8c0,3.2-2.6,5.7-5.7,5.7H7.7
				c-3.2,0-5.7-2.6-5.7-5.7V7.9C2,4.7,4.5,2.2,7.7,2.2z"/>
			<ellipse id="Path_2_" class="st11" cx="21.5" cy="24.1" rx="6" ry="6"/>
			<polygon id="Path_3_" class="st11" points="26.5,43.7 40.2,56.8 57.4,37.1 76.2,65.1 4.2,65.1 			"/>
		</g>
	</g>
	<path id="Line-Copy" class="st12" d="M526.9,437.1h54.9"/>
	<polygon id="Shape" class="st1" points="286.1,443.6 273.4,432.3 275.5,429.9 285.3,438.6 301.3,412.5 304,414.1 	"/>
</g>
</svg>
