<svg height="624" viewBox="0 0 850 624" width="850" xmlns="http://www.w3.org/2000/svg"><g fill="none" fill-rule="evenodd"><g fill-rule="nonzero"><path d="m19.4247214 0c-10.33509442 0-18.71375121 8.37865678-18.71375121 18.7137512 0 12.8257246 14.81448591 29.1339081 18.71375121 32.323752 3.897564-3.1898439 18.7137512-19.4980274 18.7137512-32.323752 0-10.33509442-8.3786568-18.7137512-18.7137512-18.7137512zm0 46.3726754c-5.1803066-5.306199-15.31125099-17.9464873-15.31125099-27.6589242 0-8.441603 6.86964789-15.31125098 15.31125099-15.31125098 8.4433043 0 15.311251 6.86964798 15.311251 15.31125098 0 9.7124369-10.1309444 22.3527252-15.311251 27.6589242zm0-36.1651748c-4.6983423.0004698-8.5067203 3.8096096-8.5062506 8.5079518.0004698 4.6983423 3.8096096 8.5067204 8.5079518 8.5062506 4.6983423-.0004698 8.5067204-3.8096096 8.5062506-8.5079518-.0004698-4.6983423-3.8096096-8.5067203-8.5079518-8.5062506zm0 13.6100009c-1.8233944.0000001-3.5082803-.9727693-4.4199775-2.5518751-.9116973-1.5791059-.9116973-3.5246445 0-5.1037504.9116972-1.5791059 2.5965831-2.5518752 4.4199775-2.5518751 2.8187235 0 5.1037503 2.2850268 5.1037503 5.1037503s-2.2850268 5.1037503-5.1037503 5.1037503z" fill="#e02975" transform="translate(273.672597 207.402274)"/><path d="m33.7318176 25.7560379c2.9284985-2.8085396 4.5830004-6.6912239 4.5803167-10.7488083 0-8.24954859-6.6862666-14.93581518-14.9358152-14.93581518s-14.93581517 6.68626659-14.93581517 14.93581518c-.00268372 4.0575844 1.65181817 7.9402687 4.58031667 10.7488083-7.63054203 3.8069734-12.87799177 11.6764884-12.87799177 20.7823571h46.46698057c0-9.1058687-5.2474497-16.9753837-12.8779918-20.7823571zm-21.9722436-10.7488083c0-6.41575119 5.2009939-11.61674514 11.6167451-11.61674514s11.6167452 5.20099395 11.6167452 11.61674514c0 6.4157512-5.200994 11.6167451-11.6167452 11.6167451s-11.6167451-5.2009939-11.6167451-11.6167451zm4.3197696 13.0256904c2.227606 1.2535838 4.7408654 1.9114782 7.2969755 1.9101248 2.5556055.0015173 5.0683699-.6563971 7.295316-1.9101248 6.3858907 2.5241527 11.1719897 8.2429104 12.3436214 15.1864049h-39.27621528c1.16997219-6.945154 5.95441165-12.6622522 12.34030238-15.1864049z" fill="#21262d" transform="translate(268.34032 317.267403)"/><path d="m33.7318176 25.7560379c2.9284985-2.8085396 4.5830004-6.6912239 4.5803167-10.7488083 0-8.24954859-6.6862666-14.93581518-14.9358152-14.93581518s-14.93581517 6.68626659-14.93581517 14.93581518c-.00268372 4.0575844 1.65181817 7.9402687 4.58031667 10.7488083-7.63054203 3.8069734-12.87799177 11.6764884-12.87799177 20.7823571h46.46698057c0-9.1058687-5.2474497-16.9753837-12.8779918-20.7823571zm-21.9722436-10.7488083c0-6.41575119 5.2009939-11.61674514 11.6167451-11.61674514s11.6167452 5.20099395 11.6167452 11.61674514c0 6.4157512-5.200994 11.6167451-11.6167452 11.6167451s-11.6167451-5.2009939-11.6167451-11.6167451zm4.3197696 13.0256904c2.227606 1.2535838 4.7408654 1.9114782 7.2969755 1.9101248 2.5556055.0015173 5.0683699-.6563971 7.295316-1.9101248 6.3858907 2.5241527 11.1719897 8.2429104 12.3436214 15.1864049h-39.27621528c1.16997219-6.945154 5.95441165-12.6622522 12.34030238-15.1864049z" fill="#21262d" transform="translate(506.52823 317.267403)"/><path d="m33.7318176 25.7560379c2.9284985-2.8085396 4.5830004-6.6912239 4.5803167-10.7488083 0-8.24954859-6.6862666-14.93581518-14.9358152-14.93581518s-14.93581517 6.68626659-14.93581517 14.93581518c-.00268372 4.0575844 1.65181817 7.9402687 4.58031667 10.7488083-7.63054203 3.8069734-12.87799177 11.6764884-12.87799177 20.7823571h46.46698057c0-9.1058687-5.2474497-16.9753837-12.8779918-20.7823571zm-21.9722436-10.7488083c0-6.41575119 5.2009939-11.61674514 11.6167451-11.61674514s11.6167452 5.20099395 11.6167452 11.61674514c0 6.4157512-5.200994 11.6167451-11.6167452 11.6167451s-11.6167451-5.2009939-11.6167451-11.6167451zm4.3197696 13.0256904c2.227606 1.2535838 4.7408654 1.9114782 7.2969755 1.9101248 2.5556055.0015173 5.0683699-.6563971 7.295316-1.9101248 6.3858907 2.5241527 11.1719897 8.2429104 12.3436214 15.1864049h-39.27621528c1.16997219-6.945154 5.95441165-12.6622522 12.34030238-15.1864049z" fill="#21262d" transform="translate(621.20193 437.553086)"/><path d="m33.7318176 25.7560379c2.9284985-2.8085396 4.5830004-6.6912239 4.5803167-10.7488083 0-8.24954859-6.6862666-14.93581518-14.9358152-14.93581518s-14.93581517 6.68626659-14.93581517 14.93581518c-.00268372 4.0575844 1.65181817 7.9402687 4.58031667 10.7488083-7.63054203 3.8069734-12.87799177 11.6764884-12.87799177 20.7823571h46.46698057c0-9.1058687-5.2474497-16.9753837-12.8779918-20.7823571zm-21.9722436-10.7488083c0-6.41575119 5.2009939-11.61674514 11.6167451-11.61674514s11.6167452 5.20099395 11.6167452 11.61674514c0 6.4157512-5.200994 11.6167451-11.6167452 11.6167451s-11.6167451-5.2009939-11.6167451-11.6167451zm4.3197696 13.0256904c2.227606 1.2535838 4.7408654 1.9114782 7.2969755 1.9101248 2.5556055.0015173 5.0683699-.6563971 7.295316-1.9101248 6.3858907 2.5241527 11.1719897 8.2429104 12.3436214 15.1864049h-39.27621528c1.16997219-6.945154 5.95441165-12.6622522 12.34030238-15.1864049z" fill="#21262d" transform="translate(268.34032 92.115601)"/><path d="m33.7318176 25.7560379c2.9284985-2.8085396 4.5830004-6.6912239 4.5803167-10.7488083 0-8.24954859-6.6862666-14.93581518-14.9358152-14.93581518s-14.93581517 6.68626659-14.93581517 14.93581518c-.00268372 4.0575844 1.65181817 7.9402687 4.58031667 10.7488083-7.63054203 3.8069734-12.87799177 11.6764884-12.87799177 20.7823571h46.46698057c0-9.1058687-5.2474497-16.9753837-12.8779918-20.7823571zm-21.9722436-10.7488083c0-6.41575119 5.2009939-11.61674514 11.6167451-11.61674514s11.6167452 5.20099395 11.6167452 11.61674514c0 6.4157512-5.200994 11.6167451-11.6167452 11.6167451s-11.6167451-5.2009939-11.6167451-11.6167451zm4.3197696 13.0256904c2.227606 1.2535838 4.7408654 1.9114782 7.2969755 1.9101248 2.5556055.0015173 5.0683699-.6563971 7.295316-1.9101248 6.3858907 2.5241527 11.1719897 8.2429104 12.3436214 15.1864049h-39.27621528c1.16997219-6.945154 5.95441165-12.6622522 12.34030238-15.1864049z" fill="#21262d" transform="translate(390.982679 209.306659)"/><path d="m33.7318176 25.7560379c2.9284985-2.8085396 4.5830004-6.6912239 4.5803167-10.7488083 0-8.24954859-6.6862666-14.93581518-14.9358152-14.93581518s-14.93581517 6.68626659-14.93581517 14.93581518c-.00268372 4.0575844 1.65181817 7.9402687 4.58031667 10.7488083-7.63054203 3.8069734-12.87799177 11.6764884-12.87799177 20.7823571h46.46698057c0-9.1058687-5.2474497-16.9753837-12.8779918-20.7823571zm-21.9722436-10.7488083c0-6.41575119 5.2009939-11.61674514 11.6167451-11.61674514s11.6167452 5.20099395 11.6167452 11.61674514c0 6.4157512-5.200994 11.6167451-11.6167452 11.6167451s-11.6167451-5.2009939-11.6167451-11.6167451zm4.3197696 13.0256904c2.227606 1.2535838 4.7408654 1.9114782 7.2969755 1.9101248 2.5556055.0015173 5.0683699-.6563971 7.295316-1.9101248 6.3858907 2.5241527 11.1719897 8.2429104 12.3436214 15.1864049h-39.27621528c1.16997219-6.945154 5.95441165-12.6622522 12.34030238-15.1864049z" fill="#21262d" transform="translate(151.791992 209.306659)"/></g><path d="m293 269.276915v36.564182" stroke="#b4b9c2" stroke-dasharray="2 8" stroke-linecap="round" stroke-width="4"/><path d="m369.297574 232h-43.063966" stroke="#b4b9c2" stroke-dasharray="2 8" stroke-linecap="round" stroke-width="4"/><path d="m261.128537 232h-43.063966" stroke="#b4b9c2" stroke-dasharray="2 8" stroke-linecap="round" stroke-width="4"/><path d="m293 154.859117v36.564182" stroke="#b4b9c2" stroke-dasharray="2 8" stroke-linecap="round" stroke-width="4"/><path d="m19.4247214 0c-10.33509442 0-18.71375121 8.37865678-18.71375121 18.7137512 0 12.8257246 14.81448591 29.1339081 18.71375121 32.323752 3.897564-3.1898439 18.7137512-19.4980274 18.7137512-32.323752 0-10.33509442-8.3786568-18.7137512-18.7137512-18.7137512zm0 46.3726754c-5.1803066-5.306199-15.31125099-17.9464873-15.31125099-27.6589242 0-8.441603 6.86964789-15.31125098 15.31125099-15.31125098 8.4433043 0 15.311251 6.86964798 15.311251 15.31125098 0 9.7124369-10.1309444 22.3527252-15.311251 27.6589242zm0-36.1651748c-4.6983423.0004698-8.5067203 3.8096096-8.5062506 8.5079518.0004698 4.6983423 3.8096096 8.5067204 8.5079518 8.5062506 4.6983423-.0004698 8.5067204-3.8096096 8.5062506-8.5079518-.0004698-4.6983423-3.8096096-8.5067203-8.5079518-8.5062506zm0 13.6100009c-1.8233944.0000001-3.5082803-.9727693-4.4199775-2.5518751-.9116973-1.5791059-.9116973-3.5246445 0-5.1037504.9116972-1.5791059 2.5965831-2.5518752 4.4199775-2.5518751 2.8187235 0 5.1037503 2.2850268 5.1037503 5.1037503s-2.2850268 5.1037503-5.1037503 5.1037503z" fill="#e02975" fill-rule="nonzero" transform="translate(511.860506 207.402274)"/><path d="m530 269.276915v36.564182" stroke="#b4b9c2" stroke-dasharray="2 8" stroke-linecap="round" stroke-width="4"/><path d="m607.485483 232h-43.063966" stroke="#b4b9c2" stroke-dasharray="2 8" stroke-linecap="round" stroke-width="4"/><path d="m499.316447 232h-43.063967" stroke="#b4b9c2" stroke-dasharray="2 8" stroke-linecap="round" stroke-width="4"/><path d="m530 154.859117v36.564182" stroke="#b4b9c2" stroke-dasharray="2 8" stroke-linecap="round" stroke-width="4"/><path d="m19.4247214 0c-10.33509442 0-18.71375121 8.37865678-18.71375121 18.7137512 0 12.8257246 14.81448591 29.1339081 18.71375121 32.323752 3.897564-3.1898439 18.7137512-19.4980274 18.7137512-32.323752 0-10.33509442-8.3786568-18.7137512-18.7137512-18.7137512zm0 46.3726754c-5.1803066-5.306199-15.31125099-17.9464873-15.31125099-27.6589242 0-8.441603 6.86964789-15.31125098 15.31125099-15.31125098 8.4433043 0 15.311251 6.86964798 15.311251 15.31125098 0 9.7124369-10.1309444 22.3527252-15.311251 27.6589242zm0-36.1651748c-4.6983423.0004698-8.5067203 3.8096096-8.5062506 8.5079518.0004698 4.6983423 3.8096096 8.5067204 8.5079518 8.5062506 4.6983423-.0004698 8.5067204-3.8096096 8.5062506-8.5079518-.0004698-4.6983423-3.8096096-8.5067203-8.5079518-8.5062506zm0 13.6100009c-1.8233944.0000001-3.5082803-.9727693-4.4199775-2.5518751-.9116973-1.5791059-.9116973-3.5246445 0-5.1037504.9116972-1.5791059 2.5965831-2.5518752 4.4199775-2.5518751 2.8187235 0 5.1037503 2.2850268 5.1037503 5.1037503s-2.2850268 5.1037503-5.1037503 5.1037503z" fill="#e02975" fill-rule="nonzero" transform="translate(511.860506 435.648702)"/><path d="m530 497.523343v36.564181" stroke="#b4b9c2" stroke-dasharray="2 8" stroke-linecap="round" stroke-width="4"/><path d="m607.485483 461h-43.063966" stroke="#b4b9c2" stroke-dasharray="2 8" stroke-linecap="round" stroke-width="4"/><path d="m499.316447 461h-43.063967" stroke="#b4b9c2" stroke-dasharray="2 8" stroke-linecap="round" stroke-width="4"/><path d="m530 383.105545v36.564181" stroke="#b4b9c2" stroke-dasharray="2 8" stroke-linecap="round" stroke-width="4"/></g></svg>