<svg width="850" height="624" viewBox="0 0 850 624" version="1.1" xmlns="http://www.w3.org/2000/svg" xmlns:xlink="http://www.w3.org/1999/xlink"><title>cdn-illo-performance</title><desc>Created with Sketch.</desc><defs><path d="M106.553996,0.480248248 L153.550154,47.7211772 L153.550154,184.947759 C153.550154,187.430944 151.537947,189.443964 149.049348,189.443964 L7.66325543,189.443964 C5.17752934,189.443964 3.16245019,187.433894 3.16245019,184.947759 L3.16245019,4.97645358 C3.16245019,2.49326794 5.17465648,0.480248248 7.66325543,0.480248248 L106.553996,0.480248248 Z" id="path-1"/><path d="M153.038853,47.7211772 L153.038853,4.96714995 C153.038853,2.48910257 151.019487,0.480248248 148.543313,0.480248248 L106.042695,0.480248248" id="path-2"/><path d="M107.553996,1.48024825 L154.550154,48.7211772 L154.550154,185.947759 C154.550154,188.430944 152.537947,190.443964 150.049348,190.443964 L8.66325543,190.443964 C6.17752934,190.443964 4.16245019,188.433894 4.16245019,185.947759 L4.16245019,5.97645358 C4.16245019,3.49326794 6.17465648,1.48024825 8.66325543,1.48024825 L107.553996,1.48024825 Z" id="path-3"/><path d="M154.038853,48.7211772 L154.038853,5.96714995 C154.038853,3.48910257 152.019487,1.48024825 149.543313,1.48024825 L107.042695,1.48024825" id="path-4"/></defs><g id="cdn-illo-performance" stroke="none" stroke-width="1" fill="none" fill-rule="evenodd"><circle id="Oval" fill="#4DBC00" cx="290" cy="428" r="28"/><g id="Group-5" transform="translate(218.295330, 172.442109)"><g id="Rectangle-36"><use fill="#FFF" fill-rule="evenodd" xlink:href="#path-1"/><path stroke="#E02975" stroke-width="3.406" d="M105.845998,2.1832482 L7.66325543,2.1832482 C6.11596796,2.1832482 4.86545014,3.43303899 4.86545014,4.97645358 L4.86545014,184.947759 C4.86545014,186.491772 6.11648763,187.740964 7.66325543,187.740964 L149.049348,187.740964 C150.596636,187.740964 151.847154,186.491173 151.847154,184.947759 L151.847154,48.4239931 L105.845998,2.1832482 Z"/></g><g id="Path-50-Copy" transform="translate(129.540774, 24.100713) scale(-1, -1) translate(-129.540774, -24.100713)"><use fill-opacity=".502" fill="#E02975" fill-rule="evenodd" xlink:href="#path-2"/><path stroke="#E02975" stroke-width="3" d="M151.538853,44.0865129 L151.538853,4.96714995 C151.538853,3.32080782 150.194341,1.98024825 148.543313,1.98024825 L109.650755,1.98024825 L151.538853,44.0865129 Z"/></g><text id="JPG" font-family="RobotoMono-Bold, Roboto Mono" font-size="20" font-weight="bold" fill="#E02975"><tspan x="56.583" y="158.927">JPG</tspan></text><g id="Group" transform="translate(35.706201, 54.019968)"><rect id="Background" stroke="#E02975" stroke-width="3" x="1.959" y="2.172" width="76.916" height="63.183" rx="5.714"/><ellipse id="Path" fill="#E02975" cx="21.495" cy="24.095" rx="6.036" ry="5.999"/><polygon id="Path" fill="#E02975" points="26.4986618 43.6774955 40.2160278 56.8467314 57.3627354 37.0928775 76.2241137 65.0775038 4.207942 65.0775038"/></g></g><g id="Group-5" opacity=".46" transform="translate(477.074627, 171.442109)"><g id="Rectangle-36"><use fill="#FFF" fill-rule="evenodd" xlink:href="#path-3"/><path stroke="#22272D" stroke-width="3.406" d="M106.845998,3.1832482 L8.66325543,3.1832482 C7.11596796,3.1832482 5.86545014,4.43303899 5.86545014,5.97645358 L5.86545014,185.947759 C5.86545014,187.491772 7.11648763,188.740964 8.66325543,188.740964 L150.049348,188.740964 C151.596636,188.740964 152.847154,187.491173 152.847154,185.947759 L152.847154,49.4239931 L106.845998,3.1832482 Z"/></g><g id="Path-50-Copy" transform="translate(130.540774, 25.100713) scale(-1, -1) translate(-130.540774, -25.100713)"><use fill-opacity=".502" fill="#22272D" fill-rule="evenodd" xlink:href="#path-4"/><path stroke="#22272D" stroke-width="3" d="M152.538853,45.0865129 L152.538853,5.96714995 C152.538853,4.32080782 151.194341,2.98024825 149.543313,2.98024825 L110.650755,2.98024825 L152.538853,45.0865129 Z"/></g><text id="JPG" font-family="RobotoMono-Bold, Roboto Mono" font-size="20" font-weight="bold" fill="#22272D"><tspan x="57.583" y="159.927">JPG</tspan></text><g id="Group" transform="translate(36.706201, 55.019968)"><rect id="Background" stroke="#22272D" stroke-width="3" x="1.959" y="2.172" width="76.916" height="63.183" rx="5.714"/><ellipse id="Path" fill="#22272D" cx="21.495" cy="24.095" rx="6.036" ry="5.999"/><polygon id="Path" fill="#22272D" points="26.4986618 43.6774955 40.2160278 56.8467314 57.3627354 37.0928775 76.2241137 65.0775038 4.207942 65.0775038"/></g></g><path d="M526.889648,437.082031 L581.759681,437.082031" id="Line-Copy" stroke="#B3B3B3" stroke-width="11" stroke-linecap="round" stroke-linejoin="round" stroke-dasharray="1,26"/><polygon id="Shape" fill="#FFF" fill-rule="nonzero" points="286.069243 443.570477 273.402833 432.347077 275.487179 429.942062 285.267571 438.600114 301.301 412.465624 304.026683 414.068967"/></g></svg>