<svg height="624" viewBox="0 0 850 624" width="850" xmlns="http://www.w3.org/2000/svg"><g fill="none" fill-rule="evenodd"><g transform="translate(390.210177 88.640948)"><path d="m52.963586.33631039 23.5261418 23.64867371v66.4471601c0 2.4846523-2.0136559 4.498861-4.4978302 4.498861h-66.28799324c-2.48408299 0-4.49783013-2.0195074-4.49783013-4.498861v-85.59697277c0-2.48465235 2.01365587-4.49886104 4.49783013-4.49886104z" fill="#fff" fill-rule="evenodd"/><path d="m52.2555878 2.03931034h-46.55168344c-1.54350911 0-2.79483018 1.25162542-2.79483018 2.79586109v85.59697277c0 1.5410399 1.25351383 2.7958611 2.79483018 2.7958611h66.28799324c1.5435091 0 2.7948302-1.2516254 2.7948302-2.7958611v-65.7443442z" stroke="#e02975" stroke-width="3.406"/><g transform="matrix(-1 0 0 -1 128.941402 24.321294)"><path d="m76.233772 23.9849841v-19.14487477c0-2.48737947-2.0058256-4.50379894-4.4943443-4.50379894h-19.0317974" fill="#e02975" fill-opacity=".502208" fill-rule="evenodd"/><path d="m74.733772 20.3503198v-15.51021047c0-1.66218831-1.3374854-3.00379894-2.9943443-3.00379894h-15.4237376z" stroke="#e02975" stroke-width="3"/></g><text fill="#e02975" font-family="RobotoMono-Bold, Roboto Mono" font-size="20" font-weight="bold"><tspan x="19.827057" y="83.649453">SVG</tspan></text><g transform="translate(17.497383 27.138141)"><rect height="30.131008" rx="5.714286" stroke="#e02975" stroke-width="3" width="37.005692" x="1.729908" y="1.836188"/><g fill="#e02975"><ellipse cx="10.760147" cy="12.062075" rx="3.021775" ry="3.003006"/><path d="m13.2651542 21.8648291 6.8668741 6.5924818 8.5835927-9.8887227 9.441952 14.0090238h-36.05108929z"/></g></g></g><g transform="translate(390.210177 443.585476)"><path d="m53.8412224.74100803 23.5261418 23.64867367v66.4471601c0 2.4846524-2.0136559 4.4988611-4.4978302 4.4988611h-66.28799323c-2.48408298 0-4.49783013-2.0195074-4.49783013-4.4988611v-85.59697273c0-2.48465234 2.01365588-4.49886104 4.49783013-4.49886104z" fill="#fff" fill-rule="evenodd"/><path d="m53.1332242 2.44400798h-46.55168343c-1.54350911 0-2.79483018 1.25162542-2.79483018 2.79586109v85.59697273c0 1.54104 1.25351384 2.7958611 2.79483018 2.7958611h66.28799323c1.5435091 0 2.7948302-1.2516254 2.7948302-2.7958611v-65.7443441z" stroke="#e02975" stroke-width="3.406"/><g transform="matrix(-1 0 0 -1 130.696676 25.13069)"><path d="m77.1114085 24.3896817v-19.14487473c0-2.48737947-2.0058257-4.50379894-4.4943444-4.50379894h-19.0317974" fill="#e02975" fill-opacity=".502208" fill-rule="evenodd"/><path d="m75.6114085 20.7550175v-15.51021053c0-1.6621883-1.3374855-3.00379894-2.9943444-3.00379894h-15.4237376z" stroke="#e02975" stroke-width="3"/></g><text fill="#e02975" font-family="RobotoMono-Bold, Roboto Mono" font-size="20" font-weight="bold"><tspan x="19.834948" y="84.054151">JPG</tspan></text><g transform="translate(18.375019 27.542838)"><rect height="30.131008" rx="5.714286" stroke="#e02975" stroke-width="3" width="37.005692" x="1.729908" y="1.836188"/><g fill="#e02975"><ellipse cx="10.760147" cy="12.062075" rx="3.021775" ry="3.003006"/><path d="m13.2651542 21.8648291 6.8668741 6.5924818 8.5835927-9.8887227 9.441952 14.0090238h-36.05108929z"/></g></g></g><g transform="translate(545.024889 349.129748)"><g transform="translate(.783038 .128738)"><path d="m51.7575118 0 23.5261417 23.6486737v66.4471601c0 2.4846524-2.0136559 4.4988611-4.4978301 4.4988611h-66.28799327c-2.48408299 0-4.49783013-2.0195075-4.49783013-4.4988611v-85.59697276c0-2.48465235 2.01365587-4.49886104 4.49783013-4.49886104z" fill="#fff" fill-rule="evenodd"/><path d="m51.0495136 1.70299995h-46.55168347c-1.54350911 0-2.79483018 1.25162542-2.79483018 2.79586109v85.59697276c0 1.5410399 1.25351383 2.7958611 2.79483018 2.7958611h66.28799327c1.5435091 0 2.7948302-1.2516254 2.7948302-2.7958611v-65.7443442z" stroke="#e02975" stroke-width="3.406"/><path d="m16.2913086 43.7237701 14.8828986-5.6756817v4.4144191l-5.1081135 1.5765782-4.2882928 1.450452v.1261263l4.2882928 1.4504519 5.1081135 1.5765783v4.4144191l-14.8828986-5.6756817zm21.9459692-10.0901008h3.4684721l-5.5495554 27.4324615h-3.4684722zm20.4955172 13.7477623-14.8828987 5.6756817v-4.4144191l5.1081135-1.5765783 4.2882929-1.4504519v-.1261263l-4.2882929-1.450452-5.1081135-1.5765782v-4.4144191l14.8828987 5.6756817z" fill="#e02975"/><g transform="matrix(-1 0 0 -1 126.529254 23.648674)"><path d="m75.0276978 23.6486737v-19.14487476c0-2.48737947-2.0058256-4.50379894-4.4943444-4.50379894h-19.0317973" fill="#e02975" fill-opacity=".502208" fill-rule="evenodd"/><path d="m73.5276978 20.0140094v-15.51021046c0-1.66218831-1.3374854-3.00379894-2.9943444-3.00379894h-15.4237375z" stroke="#e02975" stroke-width="3"/></g><text fill="#e02975" font-family="RobotoMono-Regular, Roboto Mono" font-size="26"><tspan x="7.158326" y="83.573652">HTML</tspan></text></g><path d="m52.5405495.12873754 23.5261417 23.64867376v66.4471601c0 2.4846523-2.0136559 4.498861-4.4978301 4.498861h-66.28799327c-2.48408299 0-4.49783013-2.0195074-4.49783013-4.498861v-85.59697282c0-2.48465234 2.01365587-4.49886104 4.49783013-4.49886104z" fill="#fff" fill-rule="evenodd"/><path d="m51.8325513 1.83173749h-46.55168347c-1.54350911 0-2.79483018 1.25162542-2.79483018 2.79586109v85.59697282c0 1.5410399 1.25351383 2.795861 2.79483018 2.795861h66.28799327c1.5435091 0 2.7948302-1.2516254 2.7948302-2.795861v-65.7443442z" stroke="#e02975" stroke-width="3.406"/><path d="m17.0743463 43.8525076 14.8828986-5.6756817v4.4144191l-5.1081135 1.5765783-4.2882928 1.4504519v.1261263l4.2882928 1.450452 5.1081135 1.5765782v4.4144191l-14.8828986-5.6756817zm21.9459692-10.0901008h3.4684721l-5.5495554 27.4324615h-3.4684722zm20.4955172 13.7477623-14.8828987 5.6756817v-4.4144191l5.1081135-1.5765782 4.2882929-1.450452v-.1261263l-4.2882929-1.4504519-5.1081135-1.5765783v-4.4144191l14.8828987 5.6756817z" fill="#e02975"/><g transform="matrix(-1 0 0 -1 128.09533 23.906148)"><path d="m75.8107355 23.7774113v-19.14487482c0-2.48737947-2.0058256-4.50379894-4.4943444-4.50379894h-19.0317973" fill="#e02975" fill-opacity=".502208" fill-rule="evenodd"/><path d="m74.3107355 20.142747v-15.51021052c0-1.6621883-1.3374854-3.00379894-2.9943444-3.00379894h-15.4237375z" stroke="#e02975" stroke-width="3"/></g><text fill="#e02975" font-family="RobotoMono-Bold, Roboto Mono" font-size="20" font-weight="bold"><tspan x="15.142536" y="83.44188">HTML</tspan></text></g><g transform="translate(235.395465 166.91805)"><path d="m52.2120751.22333626 23.5261418 23.64867374v66.4471601c0 2.4846523-2.0136559 4.498861-4.4978302 4.498861h-66.28799322c-2.48408299 0-4.49783013-2.0195074-4.49783013-4.498861v-85.59697281c0-2.48465234 2.01365587-4.49886103 4.49783013-4.49886103z" fill="#fff" fill-rule="evenodd"/><path d="m51.5040769 1.92633621h-46.55168342c-1.54350911 0-2.79483018 1.25162541-2.79483018 2.79586108v85.59697281c0 1.5410399 1.25351383 2.7958611 2.79483018 2.7958611h66.28799322c1.5435091 0 2.7948302-1.2516255 2.7948302-2.7958611v-65.7443442z" stroke="#e02975" stroke-width="3.406"/><g transform="matrix(-1 0 0 -1 127.43838 24.095346)"><path d="m75.4822612 23.87201v-19.14487481c0-2.48737947-2.0058257-4.50379893-4.4943444-4.50379893h-19.0317974" fill="#e02975" fill-opacity=".502208" fill-rule="evenodd"/><path d="m73.9822612 20.2373457v-15.51021051c0-1.6621883-1.3374855-3.00379893-2.9943444-3.00379893h-15.4237376z" stroke="#e02975" stroke-width="3"/></g><g fill="#e02975"><text font-family="RobotoMono-Bold, Roboto Mono" font-size="20" font-weight="bold"><tspan x="20.815038" y="83.536479">CSS</tspan></text><path d="m33.3945382 54.9831541v2.8378408h-2.2072095c-.7357402 0-1.36111-.0788281-1.8761282-.2364867-.5150181-.1576587-.9459452-.4151639-1.2927941-.7725234-.346849-.3573595-.599099-.8303282-.7567576-1.4189204s-.2364867-1.3138109-.2364867-2.175678c0-.5465498.0157656-1.030029.0472973-1.450452.0315317-.4204229.0683182-.8198188.1103605-1.1981994.0420423-.3783807.0788288-.7620109.1103605-1.1509022.0315317-.3888912.0472973-.8250735.0472973-1.3085599 0-.5465499-.1996979-1.0510499-.5990997-1.5135151-.3994018-.4624653-1.1035997-.7147153-2.1126149-.7567576v-3.1531565c1.0090152-.0420423 1.7132131-.2942923 2.1126149-.7567575.3994018-.4624653.5990997-.9669653.5990997-1.5135152 0-.4834864-.0157656-.9196687-.0472973-1.3085599s-.0683182-.7725214-.1103605-1.1509021-.0788288-.7777765-.1103605-1.1981995-.0472973-.9039021-.0472973-1.450452c0-1.7237341.3310781-2.9219216.9932443-3.5945984.6621662-.6726767 1.718463-1.0090101 3.1689223-1.0090101h2.2072095v2.8378409h-.504505c-.5885922 0-.987988.1208698-1.1981995.362613s-.3153157.7725192-.3153157 1.592344c0 .7988037.0210209 1.5870849.0630632 2.3648674s.0630631 1.6291262.0630631 2.5540567c0 1.261269-.2102083 2.1599096-.6306313 2.6959488-.420423.5360393-1.051048.8986487-1.8918939 1.087839v.1261263c.8408459.1891903 1.4714709.5517997 1.8918939 1.087839s.6306313 1.4346799.6306313 2.6959488c0 .9249305-.0210208 1.7762743-.0630631 2.5540568-.0420423.7777824-.0630632 1.5660637-.0630632 2.3648673 0 .8198248.1051042 1.3506008.3153157 1.5923441.2102115.2417432.6096073.362613 1.1981995.362613zm10.4054164 0c.5885922 0 .987988-.1208698 1.1981995-.362613.2102115-.2417433.3153157-.7725193.3153157-1.5923441 0-.7988036-.0210209-1.5870849-.0630632-2.3648673-.0420423-.7777825-.0630631-1.6291263-.0630631-2.5540568 0-1.2612689.2102083-2.1599095.6306313-2.6959488s1.051048-.8986487 1.8918939-1.087839v-.1261263c-.8408459-.1891903-1.4714709-.5517997-1.8918939-1.087839-.420423-.5360392-.6306313-1.4346798-.6306313-2.6959488 0-.9249305.0210208-1.7762742.0630631-2.5540567s.0630632-1.5660637.0630632-2.3648674c0-.8198248-.1051042-1.3506008-.3153157-1.592344s-.6096073-.362613-1.1981995-.362613h-.504505v-2.8378409h2.2072095c1.4504593 0 2.5067561.3363334 3.1689223 1.0090101.6621662.6726768.9932443 1.8708643.9932443 3.5945984 0 .5465499-.0157656 1.030029-.0472973 1.450452-.0315318.420423-.0683182.8198188-.1103605 1.1981995s-.0788288.7620109-.1103605 1.1509021-.0472973.8250735-.0472973 1.3085599c0 .5465499.1996979 1.0510499.5990997 1.5135152.3994018.4624652 1.1035997.7147152 2.1126149.7567575v3.1531565c-1.0090152.0420423-1.7132131.2942923-2.1126149.7567576-.3994018.4624652-.5990997.9669652-.5990997 1.5135151 0 .4834864.0157656.9196687.0472973 1.3085599.0315317.3888913.0683182.7725215.1103605 1.1509022.0420423.3783806.0788287.7777765.1103605 1.1981994.0315317.420423.0472973.9039022.0472973 1.450452 0 .8618671-.0788281 1.5870858-.2364867 2.175678s-.4099086 1.0615609-.7567576 1.4189204c-.3468489.3573595-.7830312.6148647-1.3085599.7725234-.5255287.1576586-1.1456433.2364867-1.8603624.2364867h-2.2072095v-2.8378408z"/></g></g><g transform="translate(390.210177 266.069045)"><g transform="translate(.775147 .614864)"><path d="m51.7575118 0 23.5261417 23.6486737v66.4471601c0 2.4846524-2.0136559 4.4988611-4.4978301 4.4988611h-66.28799327c-2.48408299 0-4.49783013-2.0195075-4.49783013-4.4988611v-85.59697276c0-2.48465235 2.01365587-4.49886104 4.49783013-4.49886104z" fill="#fff" fill-rule="evenodd"/><path d="m51.0495136 1.70299995h-46.55168347c-1.54350911 0-2.79483018 1.25162542-2.79483018 2.79586109v85.59697276c0 1.5410399 1.25351383 2.7958611 2.79483018 2.7958611h66.28799327c1.5435091 0 2.7948302-1.2516254 2.7948302-2.7958611v-65.7443442z" stroke="#e02975" stroke-width="3.406"/><path d="m16.2913086 43.7237701 14.8828986-5.6756817v4.4144191l-5.1081135 1.5765782-4.2882928 1.450452v.1261263l4.2882928 1.4504519 5.1081135 1.5765783v4.4144191l-14.8828986-5.6756817zm21.9459692-10.0901008h3.4684721l-5.5495554 27.4324615h-3.4684722zm20.4955172 13.7477623-14.8828987 5.6756817v-4.4144191l5.1081135-1.5765783 4.2882929-1.4504519v-.1261263l-4.2882929-1.450452-5.1081135-1.5765782v-4.4144191l14.8828987 5.6756817z" fill="#e02975"/><g transform="matrix(-1 0 0 -1 126.529254 23.648674)"><path d="m75.0276978 23.6486737v-19.14487476c0-2.48737947-2.0058256-4.50379894-4.4943444-4.50379894h-19.0317973" fill="#e02975" fill-opacity=".502208" fill-rule="evenodd"/><path d="m73.5276978 20.0140094v-15.51021046c0-1.66218831-1.3374854-3.00379894-2.9943444-3.00379894h-15.4237375z" stroke="#e02975" stroke-width="3"/></g><text fill="#e02975" font-family="RobotoMono-Regular, Roboto Mono" font-size="26"><tspan x="7.158326" y="83.573652">HTML</tspan></text></g><path d="m52.5326587.61486424 23.5261417 23.64867376v66.4471601c0 2.4846523-2.0136559 4.498861-4.4978302 4.498861h-66.28799321c-2.48408299 0-4.49783013-2.0195074-4.49783013-4.498861v-85.59697283c0-2.48465234 2.01365587-4.49886103 4.49783013-4.49886103z" fill="#fff" fill-rule="evenodd"/><path d="m51.8246604 2.31786419h-46.55168341c-1.54350911 0-2.79483018 1.25162541-2.79483018 2.79586108v85.59697283c0 1.5410399 1.25351384 2.795861 2.79483018 2.795861h66.28799321c1.5435092 0 2.7948302-1.2516254 2.7948302-2.795861v-65.7443442z" stroke="#e02975" stroke-width="3.406"/><g transform="matrix(-1 0 0 -1 128.079548 24.878402)"><path d="m75.8028447 24.263538v-19.14487482c0-2.48737947-2.0058256-4.50379894-4.4943444-4.50379894h-19.0317974" fill="#e02975" fill-opacity=".502208" fill-rule="evenodd"/><path d="m74.3028447 20.6288737v-15.51021052c0-1.66218831-1.3374855-3.00379894-2.9943444-3.00379894h-15.4237375z" stroke="#e02975" stroke-width="3"/></g><g fill="#e02975"><text font-family="RobotoMono-Bold, Roboto Mono" font-size="20" font-weight="bold"><tspan x="9.133668" y="83.928007">VIDEO</tspan></text><path d="m46.495916 34.2485335h6.306313v22.0720955c0 1.7342361-1.4189204 3.1531565-3.1531565 3.1531565h-25.2252519c-1.7342361 0-3.1531565-1.4189204-3.1531565-3.1531565v-18.918939c0-1.7342361 1.4189204-3.1531565 3.1531565-3.1531565h1.5765782l3.1531565 6.306313h4.7297348l-3.1531565-6.306313h3.1531565l3.1531565 6.306313h4.7297347l-3.1531565-6.306313h3.1531565l3.1531565 6.306313h4.7297347zm-12.6126259 11.0360478v9.4594694l7.4324403-4.7297347z"/></g></g><g transform="translate(538.066925 166.91805)"><g transform="translate(7.622768 .759383)"><path d="m51.7575118 0 23.5261417 23.6486737v66.4471601c0 2.4846524-2.0136559 4.4988611-4.4978301 4.4988611h-66.28799327c-2.48408299 0-4.49783013-2.0195075-4.49783013-4.4988611v-85.59697276c0-2.48465235 2.01365587-4.49886104 4.49783013-4.49886104z" fill="#fff" fill-rule="evenodd"/><path d="m51.0495136 1.70299995h-46.55168347c-1.54350911 0-2.79483018 1.25162542-2.79483018 2.79586109v85.59697276c0 1.5410399 1.25351383 2.7958611 2.79483018 2.7958611h66.28799327c1.5435091 0 2.7948302-1.2516254 2.7948302-2.7958611v-65.7443442z" stroke="#e02975" stroke-width="3.406"/><path d="m16.2913086 43.7237701 14.8828986-5.6756817v4.4144191l-5.1081135 1.5765782-4.2882928 1.450452v.1261263l4.2882928 1.4504519 5.1081135 1.5765783v4.4144191l-14.8828986-5.6756817zm21.9459692-10.0901008h3.4684721l-5.5495554 27.4324615h-3.4684722zm20.4955172 13.7477623-14.8828987 5.6756817v-4.4144191l5.1081135-1.5765783 4.2882929-1.4504519v-.1261263l-4.2882929-1.450452-5.1081135-1.5765782v-4.4144191l14.8828987 5.6756817z" fill="#e02975"/><g transform="matrix(-1 0 0 -1 126.529254 23.648674)"><path d="m75.0276978 23.6486737v-19.14487476c0-2.48737947-2.0058256-4.50379894-4.4943444-4.50379894h-19.0317973" fill="#e02975" fill-opacity=".502208" fill-rule="evenodd"/><path d="m73.5276978 20.0140094v-15.51021046c0-1.66218831-1.3374854-3.00379894-2.9943444-3.00379894h-15.4237375z" stroke="#e02975" stroke-width="3"/></g><text fill="#e02975" font-family="RobotoMono-Regular, Roboto Mono" font-size="26"><tspan x="7.158326" y="83.573652">HTML</tspan></text></g><g transform="translate(.790929 .759383)"><path d="m58.5893509 0 23.5261417 23.6486737v66.4471601c0 2.4846524-2.0136559 4.4988611-4.4978301 4.4988611h-66.2879933c-2.48408298 0-4.49783013-2.0195075-4.49783013-4.4988611v-85.59697276c0-2.48465235 2.01365587-4.49886104 4.49783013-4.49886104z" fill="#fff" fill-rule="evenodd"/><path d="m57.8813526 1.70299995h-46.5516834c-1.54350911 0-2.79483018 1.25162542-2.79483018 2.79586109v85.59697276c0 1.5410399 1.25351384 2.7958611 2.79483018 2.7958611h66.2879933c1.5435091 0 2.7948301-1.2516254 2.7948301-2.7958611v-65.7443442z" stroke="#e02975" stroke-width="3.406"/><rect fill="#e02975" height="25.330797" rx="3.76569" width="74.815444" y="28.378409"/><g transform="matrix(-1 0 0 -1 140.192932 23.648674)"><path d="m81.8595369 23.6486737v-19.14487476c0-2.48737947-2.0058256-4.50379894-4.4943444-4.50379894h-19.0317973" fill="#e02975" fill-opacity=".502208" fill-rule="evenodd"/><path d="m80.3595369 20.0140094v-15.51021046c0-1.66218831-1.3374855-3.00379894-2.9943444-3.00379894h-15.4237375z" stroke="#e02975" stroke-width="3"/></g></g><text fill="#fff" font-family="RobotoMono-Bold, Roboto Mono" font-size="20" font-weight="bold"><tspan x="14.099374" y="49.346149">JSON</tspan></text></g><g transform="translate(223.4375 348.260002)"><g transform="translate(12.028891 .475606)"><path d="m51.7575118 0 23.5261417 23.6486737v66.4471601c0 2.4846524-2.0136559 4.4988611-4.4978301 4.4988611h-66.28799327c-2.48408299 0-4.49783013-2.0195075-4.49783013-4.4988611v-85.59697276c0-2.48465235 2.01365587-4.49886104 4.49783013-4.49886104z" fill="#fff" fill-rule="evenodd"/><path d="m51.0495136 1.70299995h-46.55168347c-1.54350911 0-2.79483018 1.25162542-2.79483018 2.79586109v85.59697276c0 1.5410399 1.25351383 2.7958611 2.79483018 2.7958611h66.28799327c1.5435091 0 2.7948302-1.2516254 2.7948302-2.7958611v-65.7443442z" stroke="#e02975" stroke-width="3.406"/><path d="m16.2913086 43.7237701 14.8828986-5.6756817v4.4144191l-5.1081135 1.5765782-4.2882928 1.450452v.1261263l4.2882928 1.4504519 5.1081135 1.5765783v4.4144191l-14.8828986-5.6756817zm21.9459692-10.0901008h3.4684721l-5.5495554 27.4324615h-3.4684722zm20.4955172 13.7477623-14.8828987 5.6756817v-4.4144191l5.1081135-1.5765783 4.2882929-1.4504519v-.1261263l-4.2882929-1.450452-5.1081135-1.5765782v-4.4144191l14.8828987 5.6756817z" fill="#e02975"/><g transform="matrix(-1 0 0 -1 126.529254 23.648674)"><path d="m75.0276978 23.6486737v-19.14487476c0-2.48737947-2.0058256-4.50379894-4.4943444-4.50379894h-19.0317973" fill="#e02975" fill-opacity=".502208" fill-rule="evenodd"/><path d="m73.5276978 20.0140094v-15.51021046c0-1.66218831-1.3374854-3.00379894-2.9943444-3.00379894h-15.4237375z" stroke="#e02975" stroke-width="3"/></g><text fill="#e02975" font-family="RobotoMono-Regular, Roboto Mono" font-size="26"><tspan x="7.158326" y="83.573652">HTML</tspan></text></g><g transform="translate(5.197052 .475606)"><path d="m58.5893509 0 23.5261417 23.6486737v66.4471601c0 2.4846524-2.0136559 4.4988611-4.4978301 4.4988611h-66.2879933c-2.48408298 0-4.49783013-2.0195075-4.49783013-4.4988611v-85.59697276c0-2.48465235 2.01365587-4.49886104 4.49783013-4.49886104z" fill="#fff" fill-rule="evenodd"/><path d="m57.8813526 1.70299995h-46.5516834c-1.54350911 0-2.79483018 1.25162542-2.79483018 2.79586109v85.59697276c0 1.5410399 1.25351384 2.7958611 2.79483018 2.7958611h66.2879933c1.5435091 0 2.7948301-1.2516254 2.7948301-2.7958611v-65.7443442z" stroke="#e02975" stroke-width="3.406"/><rect fill="#e02975" height="25.330797" rx="3.76569" width="74.815444" y="28.378409"/><g transform="matrix(-1 0 0 -1 140.192932 23.648674)"><path d="m81.8595369 23.6486737v-19.14487476c0-2.48737947-2.0058256-4.50379894-4.4943444-4.50379894h-19.0317973" fill="#e02975" fill-opacity=".502208" fill-rule="evenodd"/><path d="m80.3595369 20.0140094v-15.51021046c0-1.66218831-1.3374855-3.00379894-2.9943444-3.00379894h-15.4237375z" stroke="#e02975" stroke-width="3"/></g></g><text fill="#fff" font-family="RobotoMono-Bold, Roboto Mono" font-size="20" font-weight="bold"><tspan x="30.507451" y="49.192625">JS</tspan></text></g><g fill="#b4b9c2" fill-rule="nonzero"><path d="m22.613385 9.56720133h-12.1764381l1.7394912-9.56720133-12.1764381 16.5251659h12.1764381l-1.7394912 9.5672014z" transform="translate(417.17229 213.014565)"/><path d="m22.613385 9.56720133h-12.1764381l1.7394912-9.56720133-12.1764381 16.5251659h12.1764381l-1.7394912 9.5672014z" transform="translate(258.878595 292.249746)"/><path d="m22.613385 9.56720133h-12.1764381l1.7394912-9.56720133-12.1764381 16.5251659h12.1764381l-1.7394912 9.5672014z" transform="translate(417.17229 393.921645)"/><path d="m22.613385 9.56720133h-12.1764381l1.7394912-9.56720133-12.1764381 16.5251659h12.1764381l-1.7394912 9.5672014z" transform="translate(568.50802 292.249746)"/></g></g></svg>