<svg width="496" height="180" viewBox="0 0 496 180" version="1.1" xmlns="http://www.w3.org/2000/svg" xmlns:xlink="http://www.w3.org/1999/xlink"><title>Group 2</title><desc>Created with Sketch.</desc><defs><path d="M78.7896326,4.31785671e-15 L114.603102,35.9999979 L114.603102,140.404495 C114.603102,142.390233 112.983036,143.999991 111.015848,143.999991 L3.5872537,143.999991 C1.60606819,143.999991 0,142.382804 0,140.404495 L0,3.59549665 C0,1.60975868 1.62006548,0 3.5872537,0 L78.7896326,0 Z" id="path-1"/><path d="M114.213465,35.9999979 L114.213465,3.60002276 C114.213465,1.61178509 112.60506,1.93917618e-16 110.615558,4.33782205e-16 L78.3999953,4.31785671e-15" id="path-2"/><path d="M98.4870466,5.39732121e-15 L143.253886,45 L143.253886,175.505629 C143.253886,177.987802 141.242499,180 138.74992,180 L4.50396618,180 C2.01649434,180 0,177.978516 0,175.505629 L0,4.49437107 C0,2.01219847 2.01138673,0 4.50396618,0 L98.4870466,0 Z" id="path-3"/><path d="M142.766839,45 L142.766839,4.50002872 C142.766839,2.01473149 140.756333,2.42397037e-16 138.269456,5.42227789e-16 L98,5.39732121e-15" id="path-4"/><path d="M98.4870466,5.39732121e-15 L143.253886,45 L143.253886,175.505629 C143.253886,177.987802 141.242499,180 138.74992,180 L4.50396618,180 C2.01649434,180 0,177.978516 0,175.505629 L0,4.49437107 C0,2.01219847 2.01138673,0 4.50396618,0 L98.4870466,0 Z" id="path-5"/><path d="M142.766839,45 L142.766839,4.50002872 C142.766839,2.01473149 140.756333,2.42397037e-16 138.269456,5.42227789e-16 L98,5.39732121e-15" id="path-6"/><path d="M59.0922245,3.23839253e-15 L85.9523265,26.9999984 L85.9523265,105.303371 C85.9523265,106.792675 84.7372774,107.999994 83.2618862,107.999994 L2.69044027,107.999994 C1.20455114,107.999994 0,106.787103 0,105.303371 L0,2.69662248 C0,1.20731901 1.21504911,0 2.69044027,0 L59.0922245,0 Z" id="path-7"/><path d="M85.6600985,26.9999984 L85.6600985,2.68757327 C85.6600985,1.20326754 84.4537947,1.45438213e-16 82.9616685,3.25336654e-16 L58.7999965,3.23839253e-15" id="path-8"/><path d="M66.892224,3.23839253e-15 L93.752326,26.9999984 L93.752326,105.303371 C93.752326,106.792675 92.5372769,107.999994 91.0618857,107.999994 L10.4904398,107.999994 C9.00455068,107.999994 7.79999954,106.787103 7.79999954,105.303371 L7.79999954,2.69662248 C7.79999954,1.20731901 9.01504864,0 10.4904398,0 L66.892224,0 Z" id="path-9"/><path d="M93.4600981,26.9999984 L93.4600981,2.68757327 C93.4600981,1.20326754 92.2537942,1.45438213e-16 90.761668,3.25336654e-16 L66.599996,3.23839253e-15" id="path-10"/></defs><g id="Page-1" stroke="none" stroke-width="1" fill="none" fill-rule="evenodd"><g id="Group-2"><g id="Group-3-Copy-2" transform="translate(165.625000, 21.000000)"><g id="Rectangle-36"><use fill="#FFF" fill-rule="evenodd" xlink:href="#path-1"/><path stroke="#21262d" stroke-width="3.406" d="M78.0816344,1.703 L3.5872537,1.703 C2.55562105,1.703 1.703,2.55528312 1.703,3.59549665 L1.703,140.404495 C1.703,141.446245 2.55058686,142.296991 3.5872537,142.296991 L111.015848,142.296991 C112.047481,142.296991 112.900102,141.444708 112.900102,140.404495 L112.900102,36.7028138 L78.0816344,1.703 Z"/></g><g id="Path-50-Copy" transform="translate(96.306730, 17.999999) scale(-1, -1) translate(-96.306730, -17.999999)"><use fill-opacity=".502" fill="#21262d" fill-rule="evenodd" xlink:href="#path-2"/><path stroke="#21262d" stroke-width="3.406" d="M112.510465,31.8734423 L112.510465,3.60002276 C112.510465,2.55108297 111.663276,1.703 110.615558,1.703 L82.4963459,1.703 L112.510465,31.8734423 Z"/></g><text id="CSS" font-family="RobotoMono-Regular, Roboto Mono" font-size="20.8" font-weight="normal" fill="#21262d"><tspan x="39.677" y="120.4">CSS</tspan></text></g><path d="M215.768997,104.359995 L215.768997,108.679995 L212.408997,108.679995 C211.288992,108.679995 210.337001,108.559996 209.552997,108.319995 C208.768994,108.079994 208.113,107.687998 207.584997,107.143995 C207.056995,106.599992 206.672999,105.879999 206.432998,104.983995 C206.192996,104.087991 206.072998,102.984002 206.072998,101.671995 C206.072998,100.839991 206.096997,100.103998 206.144998,99.4639953 C206.192998,98.8239922 206.248997,98.2159983 206.312998,97.6399954 C206.376998,97.0639926 206.432997,96.4799985 206.480998,95.8879955 C206.528998,95.2959926 206.552998,94.6319993 206.552998,93.8959957 C206.552998,93.0639915 206.249001,92.2959993 205.640998,91.5919958 C205.032995,90.8879923 203.961005,90.5039962 202.424998,90.4399959 L202.424998,85.6399961 C203.961005,85.5759958 205.032995,85.1919997 205.640998,84.4879962 C206.249001,83.7839927 206.552998,83.0160005 206.552998,82.1839964 C206.552998,81.4479927 206.528998,80.7839994 206.480998,80.1919965 C206.432997,79.5999935 206.376998,79.0159994 206.312998,78.4399966 C206.248997,77.8639937 206.192998,77.2559998 206.144998,76.6159967 C206.096997,75.9759935 206.072998,75.2400009 206.072998,74.4079968 C206.072998,71.7839839 206.576993,69.9600022 207.584997,68.9359971 C208.593002,67.9119921 210.200986,67.3999972 212.408997,67.3999972 L215.768997,67.3999972 L215.768997,71.719997 L215.000997,71.719997 C214.104993,71.719997 213.496999,71.9039951 213.176997,72.2719969 C212.856996,72.6399988 212.696997,73.4479906 212.696997,74.6959968 C212.696997,75.9120028 212.728997,77.1119907 212.792997,78.2959966 C212.856998,79.4800024 212.888997,80.7759894 212.888997,82.1839964 C212.888997,84.1040058 212.569,85.4719921 211.928997,86.2879961 C211.288994,87.1040001 210.329004,87.6559946 209.048997,87.943996 L209.048997,88.135996 C210.329004,88.4239974 211.288994,88.9759919 211.928997,89.7919959 C212.569,90.6079999 212.888997,91.9759862 212.888997,93.8959957 C212.888997,95.3040026 212.856998,96.5999896 212.792997,97.7839954 C212.728997,98.9680013 212.696997,100.167989 212.696997,101.383995 C212.696997,102.632001 212.856996,103.439993 213.176997,103.807995 C213.496999,104.175997 214.104993,104.359995 215.000997,104.359995 L215.768997,104.359995 Z M231.608996,104.359995 C232.505,104.359995 233.112994,104.175997 233.432996,103.807995 C233.752998,103.439993 233.912996,102.632001 233.912996,101.383995 C233.912996,100.167989 233.880996,98.9680013 233.816996,97.7839954 C233.752996,96.5999896 233.720996,95.3040026 233.720996,93.8959957 C233.720996,91.9759862 234.040993,90.6079999 234.680996,89.7919959 C235.320999,88.9759919 236.280989,88.4239974 237.560996,88.135996 L237.560996,87.943996 C236.280989,87.6559946 235.320999,87.1040001 234.680996,86.2879961 C234.040993,85.4719921 233.720996,84.1040058 233.720996,82.1839964 C233.720996,80.7759894 233.752996,79.4800024 233.816996,78.2959966 C233.880996,77.1119907 233.912996,75.9120028 233.912996,74.6959968 C233.912996,73.4479906 233.752998,72.6399988 233.432996,72.2719969 C233.112994,71.9039951 232.505,71.719997 231.608996,71.719997 L230.840996,71.719997 L230.840996,67.3999972 L234.200996,67.3999972 C236.409007,67.3999972 238.016991,67.9119921 239.024996,68.9359971 C240.033001,69.9600022 240.536996,71.7839839 240.536996,74.4079968 C240.536996,75.2400009 240.512996,75.9759935 240.464996,76.6159967 C240.416995,77.2559998 240.360996,77.8639937 240.296996,78.4399966 C240.232995,79.0159994 240.176996,79.5999935 240.128996,80.1919965 C240.080995,80.7839994 240.056996,81.4479927 240.056996,82.1839964 C240.056996,83.0160005 240.360993,83.7839927 240.968996,84.4879962 C241.576999,85.1919997 242.648988,85.5759958 244.184995,85.6399961 L244.184995,90.4399959 C242.648988,90.5039962 241.576999,90.8879923 240.968996,91.5919958 C240.360993,92.2959993 240.056996,93.0639915 240.056996,93.8959957 C240.056996,94.6319993 240.080995,95.2959926 240.128996,95.8879955 C240.176996,96.4799985 240.232995,97.0639926 240.296996,97.6399954 C240.360996,98.2159983 240.416995,98.8239922 240.464996,99.4639953 C240.512996,100.103998 240.536996,100.839991 240.536996,101.671995 C240.536996,102.984002 240.416997,104.087991 240.176996,104.983995 C239.936994,105.879999 239.552998,106.599992 239.024996,107.143995 C238.496993,107.687998 237.833,108.079994 237.032996,108.319995 C236.232992,108.559996 235.289001,108.679995 234.200996,108.679995 L230.840996,108.679995 L230.840996,104.359995 L231.608996,104.359995 Z" id="{-}" fill="#21262d"/><g id="Group-3-Copy-4" transform="translate(352.125000, 0.000000)"><g id="Rectangle-36"><use fill="#FFF" fill-rule="evenodd" xlink:href="#path-3"/><path stroke="#21262d" stroke-width="3.406" d="M97.7790484,1.70299995 L4.50396618,1.70299995 C2.95317776,1.70299995 1.70299995,2.95149239 1.70299995,4.49437107 L1.70299995,175.505629 C1.70299995,177.040912 2.95997537,178.297 4.50396618,178.297 L138.74992,178.297 C140.300708,178.297 141.550886,177.048508 141.550886,175.505629 L141.550886,45.7028159 L97.7790484,1.70299995 Z"/></g><path d="M31,83.2 L59.32,72.4 L59.32,80.8 L49.6,83.8 L41.44,86.56 L41.44,86.8 L49.6,89.56 L59.32,92.56 L59.32,100.96 L31,90.16 L31,83.2 Z M72.76,64 L79.36,64 L68.8,116.2 L62.2,116.2 L72.76,64 Z M111.76,90.16 L83.44,100.96 L83.44,92.56 L93.16,89.56 L101.32,86.8 L101.32,86.56 L93.16,83.8 L83.44,80.8 L83.44,72.4 L111.76,83.2 L111.76,90.16 Z" id="&lt;/&gt;-copy" fill="#21262d"/><g id="Path-50-Copy" transform="translate(120.383420, 22.500000) scale(-1, -1) translate(-120.383420, -22.500000)"><use fill-opacity=".502" fill="#C5C5C5" fill-rule="evenodd" xlink:href="#path-4"/><path stroke="#21262d" stroke-width="3" d="M141.266839,41.3653357 L141.266839,4.50002872 C141.266839,2.84175322 139.926501,1.5 138.269456,1.5 L101.60806,1.5 L141.266839,41.3653357 Z"/></g><text id="HTML" font-family="RobotoMono-Regular, Roboto Mono" font-size="26" font-weight="normal" fill="#21262d"><tspan x="41.795" y="150">HTML</tspan></text></g><g id="Group-3-Copy-5" transform="translate(352.125000, 0.000000)"><g id="Rectangle-36"><use fill="#FFF" fill-rule="evenodd" xlink:href="#path-5"/><path stroke="#21262d" stroke-width="3.406" d="M97.7790484,1.70299995 L4.50396618,1.70299995 C2.95317776,1.70299995 1.70299995,2.95149239 1.70299995,4.49437107 L1.70299995,175.505629 C1.70299995,177.040912 2.95997537,178.297 4.50396618,178.297 L138.74992,178.297 C140.300708,178.297 141.550886,177.048508 141.550886,175.505629 L141.550886,45.7028159 L97.7790484,1.70299995 Z"/></g><g id="Path-50-Copy" transform="translate(120.383420, 22.500000) scale(-1, -1) translate(-120.383420, -22.500000)"><use fill-opacity=".502" fill="#21262d" fill-rule="evenodd" xlink:href="#path-6"/><path stroke="#21262d" stroke-width="3" d="M141.266839,41.3653357 L141.266839,4.50002872 C141.266839,2.84175322 139.926501,1.5 138.269456,1.5 L101.60806,1.5 L141.266839,41.3653357 Z"/></g><text id="VIDEO" font-family="RobotoMono-Regular, Roboto Mono" font-size="26" font-weight="normal" fill="#21262d"><tspan x="33.994" y="150">VIDEO</tspan></text></g><path d="M439.125,64 L451.125,64 L451.125,106 C451.125,109.3 448.425,112 445.125,112 L397.125,112 C393.825,112 391.125,109.3 391.125,106 L391.125,70 C391.125,66.7 393.825,64 397.125,64 L400.125,64 L406.125,76 L415.125,76 L409.125,64 L415.125,64 L421.125,76 L430.125,76 L424.125,64 L430.125,64 L436.125,76 L445.125,76 L439.125,64 Z M415.125,85 L415.125,103 L429.267857,94 L415.125,85 Z" id="Combined-Shape-Copy-2" fill="#21262d"/><g id="Group-3-Copy-8" transform="translate(8.425000, 46.500000)"><g id="Rectangle-36"><use fill="#FFF" fill-rule="evenodd" xlink:href="#path-7"/><path stroke="#21262d" stroke-width="2.044" d="M58.6674256,1.02179991 L2.69044027,1.02179991 C1.77565726,1.02179991 1.02179991,1.77535848 1.02179991,2.69662248 L1.02179991,105.303371 C1.02179991,106.225552 1.77164571,106.978194 2.69044027,106.978194 L83.2618862,106.978194 C84.1766692,106.978194 84.9305266,106.224635 84.9305266,105.303371 L84.9305266,27.4216879 L58.6674256,1.02179991 Z"/></g><path d="M18.5999989,49.919997 L35.5919979,43.4399974 L35.5919979,48.4799971 L29.7599982,50.279997 L24.8639985,51.9359969 L24.8639985,52.0799969 L29.7599982,53.7359968 L35.5919979,55.5359967 L35.5919979,60.5759964 L18.5999989,54.0959968 L18.5999989,49.919997 Z M43.6559974,38.3999977 L47.6159972,38.3999977 L41.2799975,69.7199958 L37.3199978,69.7199958 L43.6559974,38.3999977 Z M67.055996,54.0959968 L50.063997,60.5759964 L50.063997,55.5359967 L55.8959967,53.7359968 L60.7919964,52.0799969 L60.7919964,51.9359969 L55.8959967,50.279997 L50.063997,48.4799971 L50.063997,43.4399974 L67.055996,49.919997 L67.055996,54.0959968 Z" id="&lt;/&gt;-copy" fill="#21262d"/><g id="Path-50-Copy" transform="translate(72.230048, 13.499999) scale(-1, -1) translate(-72.230048, -13.499999)"><use fill-opacity=".502" fill="#21262d" fill-rule="evenodd" xlink:href="#path-8"/><path stroke="#21262d" stroke-width="1.8" d="M84.7600986,24.8191999 L84.7600986,2.68757327 C84.7600986,1.70041543 83.956825,0.899999946 82.9616685,0.899999946 L60.9648323,0.899999946 L84.7600986,24.8191999 Z"/></g><text id="HTML" font-family="RobotoMono-Regular, Roboto Mono" font-size="15.6" font-weight="normal" fill="#21262d"><tspan x="25.077" y="89.8">HTML</tspan></text></g><g id="Group-3-Copy-9" transform="translate(0.625000, 46.500000)"><g id="Rectangle-36"><use fill="#FFF" fill-rule="evenodd" xlink:href="#path-9"/><path stroke="#21262d" stroke-width="3.406" d="M66.1842258,1.703 L10.4904398,1.703 C9.95181278,1.703 9.50299954,2.15163536 9.50299954,2.69662248 L9.50299954,105.303371 C9.50299954,105.849902 9.94843031,106.296994 10.4904398,106.296994 L91.0618857,106.296994 C91.6005128,106.296994 92.049326,105.848358 92.049326,105.303371 L92.049326,27.7028143 L66.1842258,1.703 Z"/></g><rect id="Rectangle-37-Copy" fill="#21262d" x="0" y="32.4" width="85.418" height="28.921" rx="2.259"/><g id="Path-50-Copy" transform="translate(80.030047, 13.499999) scale(-1, -1) translate(-80.030047, -13.499999)"><use fill-opacity=".502" fill="#21262d" fill-rule="evenodd" xlink:href="#path-10"/><path stroke="#21262d" stroke-width="3.406" d="M91.7570981,22.8734429 L91.7570981,2.68757327 C91.7570981,2.14454209 91.3139793,1.703 90.761668,1.703 L70.6963466,1.703 L91.7570981,22.8734429 Z"/></g></g><text id="JS" font-family="RobotoMono-Regular, Roboto Mono" font-size="15.6" font-weight="normal" fill="#FFF"><tspan x="33.863" y="99.7">JS</tspan></text></g></g></svg>