<?xml version="1.0" encoding="utf-8"?>
<!-- Generator: Adobe Illustrator 22.0.1, SVG Export Plug-In . SVG Version: 6.00 Build 0)  -->
<svg version="1.1" id="Layer_1" xmlns="http://www.w3.org/2000/svg" xmlns:xlink="http://www.w3.org/1999/xlink" x="0px" y="0px"
	 viewBox="0 0 496 180" style="enable-background:new 0 0 496 180;" xml:space="preserve">
<style type="text/css">
	.st0{fill:#FFFFFF;}
	.st1{fill:none;stroke:#21262D;stroke-width:3.406;}
	.st2{fill:#21262D;fill-opacity:0.502;}
	.st3{enable-background:new    ;}
	.st4{fill:#21262D;}
	.st5{fill:#C5C5C5;fill-opacity:0.502;}
	.st6{fill:none;stroke:#21262D;stroke-width:3;}
	.st7{font-family:'RobotoMono-Regular';}
	.st8{font-size:26px;}
	.st9{fill:none;stroke:#21262D;stroke-width:2.044;}
	.st10{fill:none;stroke:#21262D;stroke-width:1.8;}
	.st11{font-size:15.6px;}
</style>
<title>Group 2</title>
<desc>Created with Sketch.</desc>
<g id="Page-1">
	<g id="Group-2">
		<g id="Group-3-Copy-2" transform="translate(165.625000, 21.000000)">
			<g id="Rectangle-36">
				<g>
					<path id="path-1" class="st0" d="M78.8,0l35.8,36v104.4c0,2-1.6,3.6-3.6,3.6H3.6c-2,0-3.6-1.6-3.6-3.6V3.6C0,1.6,1.6,0,3.6,0
						H78.8z"/>
				</g>
				<path class="st1" d="M78.1,1.7H3.6c-1,0-1.9,0.9-1.9,1.9v136.8c0,1,0.8,1.9,1.9,1.9H111c1,0,1.9-0.9,1.9-1.9V36.7L78.1,1.7z"/>
			</g>
			<g id="Path-50-Copy" transform="translate(96.306730, 17.999999) scale(-1, -1) translate(-96.306730, -17.999999)">
				<g>
					<path id="path-2" class="st2" d="M114.2,36V3.6c0-2-1.6-3.6-3.6-3.6H78.4"/>
				</g>
				<path class="st1" d="M112.5,31.9V3.6c0-1-0.8-1.9-1.9-1.9H82.5L112.5,31.9z"/>
			</g>
			<g class="st3">
				<path class="st4" d="M49.3,115.8c0,0.7-0.2,1.4-0.5,2s-0.6,1.1-1.1,1.5c-0.5,0.4-1,0.7-1.6,1c-0.6,0.2-1.3,0.3-2.1,0.3
					c-0.9,0-1.6-0.2-2.3-0.5c-0.7-0.3-1.2-0.8-1.7-1.4c-0.5-0.6-0.8-1.3-1.1-2.1c-0.2-0.8-0.4-1.7-0.4-2.7v-2c0-1,0.1-1.9,0.4-2.7
					c0.3-0.8,0.6-1.5,1.1-2.1c0.5-0.6,1-1,1.7-1.4c0.7-0.3,1.4-0.5,2.3-0.5c0.8,0,1.5,0.1,2.2,0.3c0.6,0.2,1.2,0.6,1.6,1
					c0.4,0.4,0.8,0.9,1.1,1.6c0.3,0.6,0.4,1.3,0.5,2.1h-2.8c0-0.4-0.1-0.8-0.2-1.2c-0.1-0.3-0.3-0.6-0.5-0.8
					c-0.2-0.2-0.5-0.4-0.8-0.5c-0.3-0.1-0.7-0.2-1.1-0.2c-0.4,0-0.8,0.1-1.1,0.3s-0.6,0.5-0.8,0.8c-0.2,0.4-0.4,0.8-0.5,1.3
					s-0.2,1.1-0.2,1.8v2c0,1.5,0.2,2.5,0.6,3.2c0.4,0.7,1.1,1,1.9,1c0.7,0,1.3-0.2,1.8-0.6c0.4-0.4,0.7-1,0.7-1.9H49.3z"/>
				<path class="st4" d="M59.2,116.5c0-0.3,0-0.5-0.1-0.7c-0.1-0.2-0.2-0.4-0.5-0.6c-0.2-0.2-0.5-0.4-0.9-0.5s-0.8-0.3-1.3-0.5
					c-0.6-0.2-1.3-0.4-1.8-0.7c-0.6-0.3-1.1-0.6-1.5-1s-0.8-0.8-1.1-1.3s-0.4-1.1-0.4-1.7c0-0.6,0.1-1.2,0.4-1.7
					c0.3-0.5,0.6-0.9,1.1-1.3c0.5-0.4,1-0.6,1.7-0.8s1.3-0.3,2.1-0.3c0.8,0,1.5,0.1,2.1,0.3s1.2,0.5,1.7,0.9
					c0.5,0.4,0.8,0.9,1.1,1.4c0.3,0.6,0.4,1.2,0.4,1.8h-2.8c0-0.3-0.1-0.6-0.2-0.9c-0.1-0.3-0.3-0.5-0.5-0.7
					c-0.2-0.2-0.5-0.4-0.8-0.5c-0.3-0.1-0.7-0.2-1.1-0.2c-0.4,0-0.7,0-1,0.1c-0.3,0.1-0.5,0.2-0.7,0.4s-0.4,0.4-0.5,0.6
					c-0.1,0.2-0.2,0.5-0.2,0.7c0,0.3,0.1,0.5,0.2,0.8c0.1,0.2,0.3,0.4,0.6,0.6c0.3,0.2,0.6,0.3,1,0.5c0.4,0.1,0.8,0.3,1.3,0.4
					c0.7,0.2,1.3,0.4,1.9,0.7c0.6,0.3,1.1,0.6,1.5,1c0.4,0.4,0.7,0.8,1,1.3c0.2,0.5,0.3,1.1,0.3,1.7c0,0.7-0.1,1.2-0.4,1.7
					c-0.3,0.5-0.6,0.9-1.1,1.3c-0.5,0.3-1,0.6-1.6,0.8c-0.6,0.2-1.3,0.3-2.1,0.3c-0.5,0-0.9,0-1.4-0.1c-0.5-0.1-0.9-0.2-1.3-0.4
					c-0.4-0.2-0.8-0.4-1.2-0.7c-0.4-0.3-0.7-0.6-1-0.9c-0.3-0.4-0.5-0.8-0.6-1.2c-0.2-0.4-0.2-0.9-0.2-1.5h2.8
					c0,0.4,0.1,0.8,0.2,1.1c0.1,0.3,0.3,0.6,0.6,0.8s0.6,0.4,0.9,0.4s0.7,0.1,1.2,0.1c0.4,0,0.7,0,1-0.1c0.3-0.1,0.5-0.2,0.7-0.4
					c0.2-0.2,0.4-0.3,0.5-0.6C59.1,117,59.2,116.8,59.2,116.5z"/>
				<path class="st4" d="M71.6,116.5c0-0.3,0-0.5-0.1-0.7c-0.1-0.2-0.2-0.4-0.5-0.6c-0.2-0.2-0.5-0.4-0.9-0.5s-0.8-0.3-1.3-0.5
					c-0.6-0.2-1.3-0.4-1.8-0.7c-0.6-0.3-1.1-0.6-1.5-1c-0.4-0.4-0.8-0.8-1.1-1.3s-0.4-1.1-0.4-1.7c0-0.6,0.1-1.2,0.4-1.7
					s0.6-0.9,1.1-1.3c0.5-0.4,1-0.6,1.7-0.8c0.6-0.2,1.3-0.3,2.1-0.3c0.8,0,1.5,0.1,2.1,0.3c0.6,0.2,1.2,0.5,1.7,0.9
					c0.5,0.4,0.8,0.9,1.1,1.4c0.3,0.6,0.4,1.2,0.4,1.8h-2.8c0-0.3-0.1-0.6-0.2-0.9c-0.1-0.3-0.3-0.5-0.5-0.7
					c-0.2-0.2-0.5-0.4-0.8-0.5c-0.3-0.1-0.7-0.2-1.1-0.2c-0.4,0-0.7,0-1,0.1c-0.3,0.1-0.5,0.2-0.7,0.4s-0.4,0.4-0.5,0.6
					c-0.1,0.2-0.2,0.5-0.2,0.7c0,0.3,0.1,0.5,0.2,0.8c0.1,0.2,0.3,0.4,0.6,0.6c0.3,0.2,0.6,0.3,1,0.5c0.4,0.1,0.8,0.3,1.3,0.4
					c0.7,0.2,1.3,0.4,1.9,0.7c0.6,0.3,1.1,0.6,1.5,1c0.4,0.4,0.7,0.8,1,1.3c0.2,0.5,0.3,1.1,0.3,1.7c0,0.7-0.1,1.2-0.4,1.7
					c-0.3,0.5-0.6,0.9-1.1,1.3c-0.5,0.3-1,0.6-1.6,0.8s-1.3,0.3-2.1,0.3c-0.5,0-0.9,0-1.4-0.1c-0.5-0.1-0.9-0.2-1.3-0.4
					c-0.4-0.2-0.8-0.4-1.2-0.7c-0.4-0.3-0.7-0.6-0.9-0.9c-0.3-0.4-0.5-0.8-0.6-1.2c-0.2-0.4-0.2-0.9-0.2-1.5h2.8
					c0,0.4,0.1,0.8,0.2,1.1c0.1,0.3,0.3,0.6,0.6,0.8s0.6,0.4,0.9,0.4s0.7,0.1,1.2,0.1c0.4,0,0.7,0,1-0.1c0.3-0.1,0.5-0.2,0.7-0.4
					c0.2-0.2,0.4-0.3,0.5-0.6C71.6,117,71.6,116.8,71.6,116.5z"/>
			</g>
		</g>
		<path id="_x7B_-_x7D_" class="st4" d="M215.8,104.4v4.3h-3.4c-1.1,0-2.1-0.1-2.9-0.4c-0.8-0.2-1.4-0.6-2-1.2
			c-0.5-0.5-0.9-1.3-1.2-2.2s-0.4-2-0.4-3.3c0-0.8,0-1.6,0.1-2.2c0-0.6,0.1-1.2,0.2-1.8c0.1-0.6,0.1-1.2,0.2-1.8
			c0-0.6,0.1-1.3,0.1-2c0-0.8-0.3-1.6-0.9-2.3c-0.6-0.7-1.7-1.1-3.2-1.2v-4.8c1.5-0.1,2.6-0.4,3.2-1.2c0.6-0.7,0.9-1.5,0.9-2.3
			c0-0.7,0-1.4-0.1-2c0-0.6-0.1-1.2-0.2-1.8c-0.1-0.6-0.1-1.2-0.2-1.8c0-0.6-0.1-1.4-0.1-2.2c0-2.6,0.5-4.4,1.5-5.5
			c1-1,2.6-1.5,4.8-1.5h3.4v4.3H215c-0.9,0-1.5,0.2-1.8,0.6c-0.3,0.4-0.5,1.2-0.5,2.4c0,1.2,0,2.4,0.1,3.6s0.1,2.5,0.1,3.9
			c0,1.9-0.3,3.3-1,4.1c-0.6,0.8-1.6,1.4-2.9,1.7v0.2c1.3,0.3,2.2,0.8,2.9,1.7c0.6,0.8,1,2.2,1,4.1c0,1.4,0,2.7-0.1,3.9
			s-0.1,2.4-0.1,3.6c0,1.2,0.2,2.1,0.5,2.4c0.3,0.4,0.9,0.6,1.8,0.6H215.8z M231.6,104.4c0.9,0,1.5-0.2,1.8-0.6
			c0.3-0.4,0.5-1.2,0.5-2.4c0-1.2,0-2.4-0.1-3.6c-0.1-1.2-0.1-2.5-0.1-3.9c0-1.9,0.3-3.3,1-4.1c0.6-0.8,1.6-1.4,2.9-1.7v-0.2
			c-1.3-0.3-2.2-0.8-2.9-1.7c-0.6-0.8-1-2.2-1-4.1c0-1.4,0-2.7,0.1-3.9c0.1-1.2,0.1-2.4,0.1-3.6c0-1.2-0.2-2.1-0.5-2.4
			c-0.3-0.4-0.9-0.6-1.8-0.6h-0.8v-4.3h3.4c2.2,0,3.8,0.5,4.8,1.5c1,1,1.5,2.8,1.5,5.5c0,0.8,0,1.6-0.1,2.2c0,0.6-0.1,1.2-0.2,1.8
			s-0.1,1.2-0.2,1.8s-0.1,1.3-0.1,2c0,0.8,0.3,1.6,0.9,2.3c0.6,0.7,1.7,1.1,3.2,1.2v4.8c-1.5,0.1-2.6,0.4-3.2,1.2s-0.9,1.5-0.9,2.3
			c0,0.7,0,1.4,0.1,2s0.1,1.2,0.2,1.8c0.1,0.6,0.1,1.2,0.2,1.8c0,0.6,0.1,1.4,0.1,2.2c0,1.3-0.1,2.4-0.4,3.3
			c-0.2,0.9-0.6,1.6-1.2,2.2c-0.5,0.5-1.2,0.9-2,1.2c-0.8,0.2-1.7,0.4-2.8,0.4h-3.4v-4.3H231.6z"/>
		<g id="Group-3-Copy-4" transform="translate(352.125000, 0.000000)">
			<g id="Rectangle-36_1_">
				<g>
					<path id="path-3" class="st0" d="M98.5,0l44.8,45v130.5c0,2.5-2,4.5-4.5,4.5H4.5C2,180,0,178,0,175.5V4.5C0,2,2,0,4.5,0H98.5z"
						/>
				</g>
				<path class="st1" d="M97.8,1.7H4.5C3,1.7,1.7,3,1.7,4.5v171c0,1.5,1.3,2.8,2.8,2.8h134.2c1.6,0,2.8-1.2,2.8-2.8V45.7L97.8,1.7z"
					/>
			</g>
			<path id="_x3C__x2F__x3E_-copy" class="st4" d="M31,83.2l28.3-10.8v8.4l-9.7,3l-8.2,2.8v0.2l8.2,2.8l9.7,3v8.4L31,90.2V83.2z
				 M72.8,64h6.6l-10.6,52.2h-6.6L72.8,64z M111.8,90.2L83.4,101v-8.4l9.7-3l8.2-2.8v-0.2l-8.2-2.8l-9.7-3v-8.4l28.3,10.8V90.2z"/>
			<g id="Path-50-Copy_1_" transform="translate(120.383420, 22.500000) scale(-1, -1) translate(-120.383420, -22.500000)">
				<g>
					<path id="path-4" class="st5" d="M142.8,45V4.5c0-2.5-2-4.5-4.5-4.5H98"/>
				</g>
				<path class="st6" d="M141.3,41.4V4.5c0-1.7-1.3-3-3-3h-36.7L141.3,41.4z"/>
			</g>
			<text transform="matrix(1 0 0 1 41.795 150)" class="st4 st7 st8">HTML</text>
		</g>
		<g id="Group-3-Copy-5" transform="translate(352.125000, 0.000000)">
			<g id="Rectangle-36_2_">
				<g>
					<path id="path-5" class="st0" d="M98.5,0l44.8,45v130.5c0,2.5-2,4.5-4.5,4.5H4.5C2,180,0,178,0,175.5V4.5C0,2,2,0,4.5,0H98.5z"
						/>
				</g>
				<path class="st1" d="M97.8,1.7H4.5C3,1.7,1.7,3,1.7,4.5v171c0,1.5,1.3,2.8,2.8,2.8h134.2c1.6,0,2.8-1.2,2.8-2.8V45.7L97.8,1.7z"
					/>
			</g>
			<g id="Path-50-Copy_2_" transform="translate(120.383420, 22.500000) scale(-1, -1) translate(-120.383420, -22.500000)">
				<g>
					<path id="path-6" class="st2" d="M142.8,45V4.5c0-2.5-2-4.5-4.5-4.5H98"/>
				</g>
				<path class="st6" d="M141.3,41.4V4.5c0-1.7-1.3-3-3-3h-36.7L141.3,41.4z"/>
			</g>
			<g class="st3">
				<path class="st4" d="M39.8,144.8l3.5-13.3h3.9L41.6,150H38l-5.6-18.5h3.9L39.8,144.8z"/>
				<path class="st4" d="M50,131.5h10.7v2.9h-3.6v12.7h3.6v2.9H50v-2.9h3.5v-12.7H50V131.5z"/>
				<path class="st4" d="M64.8,150v-18.5h4.8c1.2,0,2.3,0.2,3.3,0.6c1,0.4,1.8,1,2.6,1.8c0.7,0.7,1.3,1.6,1.6,2.7
					c0.4,1,0.6,2.2,0.6,3.4v1.5c0,1.2-0.2,2.4-0.6,3.4c-0.4,1-0.9,1.9-1.6,2.7c-0.7,0.7-1.5,1.3-2.5,1.7c-1,0.4-2,0.6-3.2,0.6H64.8z
					 M68.4,134.4v12.7h1.4c0.7,0,1.3-0.1,1.8-0.4c0.5-0.3,1-0.6,1.3-1.1s0.6-1.1,0.8-1.8c0.2-0.7,0.3-1.5,0.3-2.4V140
					c0-0.8-0.1-1.6-0.3-2.3c-0.2-0.7-0.5-1.3-0.9-1.8c-0.4-0.5-0.8-0.9-1.4-1.1c-0.6-0.3-1.2-0.4-1.9-0.4H68.4z"/>
				<path class="st4" d="M91.8,141.9h-7.6v5.2h8.9v2.9H80.7v-18.5h12.4v2.9h-8.8v4.7h7.6V141.9z"/>
				<path class="st4" d="M109,142.1c0,1.2-0.2,2.3-0.5,3.3s-0.8,1.9-1.4,2.6s-1.3,1.3-2.2,1.7c-0.8,0.4-1.8,0.6-2.9,0.6
					s-2-0.2-2.8-0.6c-0.8-0.4-1.5-1-2.1-1.7c-0.6-0.7-1-1.6-1.3-2.6c-0.3-1-0.4-2.1-0.4-3.3v-2.7c0-1.2,0.1-2.3,0.4-3.3
					s0.7-1.9,1.3-2.6c0.6-0.7,1.3-1.3,2.1-1.7c0.8-0.4,1.8-0.6,2.8-0.6c1.1,0,2,0.2,2.9,0.6c0.9,0.4,1.6,1,2.2,1.7
					c0.6,0.7,1,1.6,1.4,2.6s0.5,2.1,0.5,3.3V142.1z M105.3,139.4c0-0.8-0.1-1.4-0.2-2.1c-0.1-0.6-0.3-1.2-0.6-1.6s-0.6-0.8-1-1.1
					c-0.4-0.3-0.9-0.4-1.5-0.4c-0.6,0-1.1,0.1-1.4,0.4c-0.4,0.3-0.7,0.6-0.9,1.1s-0.4,1-0.5,1.6s-0.2,1.3-0.2,2.1v2.7
					c0,0.7,0.1,1.4,0.2,2.1s0.3,1.2,0.5,1.7s0.5,0.8,0.9,1.1s0.9,0.4,1.5,0.4c0.6,0,1.1-0.1,1.5-0.4c0.4-0.3,0.7-0.6,1-1.1
					c0.3-0.5,0.5-1,0.6-1.6s0.2-1.3,0.2-2.1V139.4z"/>
			</g>
		</g>
		<path id="Combined-Shape-Copy-2" class="st4" d="M439.1,64h12v42c0,3.3-2.7,6-6,6h-48c-3.3,0-6-2.7-6-6V70c0-3.3,2.7-6,6-6h3l6,12
			h9l-6-12h6l6,12h9l-6-12h6l6,12h9L439.1,64z M415.1,85v18l14.1-9L415.1,85z"/>
		<g id="Group-3-Copy-8" transform="translate(8.425000, 46.500000)">
			<g id="Rectangle-36_3_">
				<g>
					<path id="path-7" class="st0" d="M59.1,0L86,27v78.3c0,1.5-1.2,2.7-2.7,2.7H2.7c-1.5,0-2.7-1.2-2.7-2.7V2.7C0,1.2,1.2,0,2.7,0
						H59.1z"/>
				</g>
				<path class="st9" d="M58.7,1h-56C1.8,1,1,1.8,1,2.7v102.6c0,0.9,0.7,1.7,1.7,1.7h80.6c0.9,0,1.7-0.8,1.7-1.7V27.4L58.7,1z"/>
			</g>
			<path id="_x3C__x2F__x3E_-copy_1_" class="st4" d="M18.6,49.9l17-6.5v5l-5.8,1.8l-4.9,1.7v0.1l4.9,1.7l5.8,1.8v5l-17-6.5V49.9z
				 M43.7,38.4h4l-6.3,31.3h-4L43.7,38.4z M67.1,54.1l-17,6.5v-5l5.8-1.8l4.9-1.7v-0.1l-4.9-1.7l-5.8-1.8v-5l17,6.5V54.1z"/>
			<g id="Path-50-Copy_3_" transform="translate(72.230048, 13.499999) scale(-1, -1) translate(-72.230048, -13.499999)">
				<g>
					<path id="path-8" class="st2" d="M85.7,27V2.7C85.7,1.2,84.5,0,83,0H58.8"/>
				</g>
				<path class="st10" d="M84.8,24.8V2.7c0-1-0.8-1.8-1.8-1.8H61L84.8,24.8z"/>
			</g>
			<text transform="matrix(1 0 0 1 25.077 89.8)" class="st4 st7 st11">HTML</text>
		</g>
		<g id="Group-3-Copy-9" transform="translate(0.625000, 46.500000)">
			<g id="Rectangle-36_4_">
				<g>
					<path id="path-9" class="st0" d="M66.9,0l26.9,27v78.3c0,1.5-1.2,2.7-2.7,2.7H10.5c-1.5,0-2.7-1.2-2.7-2.7V2.7
						C7.8,1.2,9,0,10.5,0H66.9z"/>
				</g>
				<path class="st1" d="M66.2,1.7H10.5c-0.5,0-1,0.4-1,1v102.6c0,0.5,0.4,1,1,1h80.6c0.5,0,1-0.4,1-1V27.7L66.2,1.7z"/>
			</g>
			<path id="Rectangle-37-Copy" class="st4" d="M2.3,32.4h80.9c1.2,0,2.3,1,2.3,2.3v24.4c0,1.2-1,2.3-2.3,2.3H2.3
				c-1.2,0-2.3-1-2.3-2.3V34.7C0,33.4,1,32.4,2.3,32.4z"/>
			<g id="Path-50-Copy_4_" transform="translate(80.030047, 13.499999) scale(-1, -1) translate(-80.030047, -13.499999)">
				<g>
					<path id="path-10" class="st2" d="M93.5,27V2.7c0-1.5-1.2-2.7-2.7-2.7H66.6"/>
				</g>
				<path class="st1" d="M91.8,22.9V2.7c0-0.5-0.4-1-1-1H70.7L91.8,22.9z"/>
			</g>
		</g>
		<g class="st3">
			<path class="st0" d="M38.1,88.6h2.1l0,7.7c0,0.5-0.1,1-0.3,1.4c-0.2,0.4-0.5,0.8-0.8,1.1s-0.7,0.6-1.2,0.7s-1,0.3-1.5,0.3
				c-0.6,0-1.1-0.1-1.5-0.2c-0.5-0.1-0.8-0.4-1.2-0.6c-0.3-0.3-0.6-0.6-0.8-1.1c-0.2-0.4-0.3-0.9-0.3-1.5h2.1c0,0.6,0.1,1,0.4,1.3
				s0.7,0.4,1.2,0.4c0.2,0,0.5,0,0.7-0.1c0.2-0.1,0.4-0.2,0.5-0.4s0.3-0.4,0.3-0.6c0.1-0.2,0.1-0.5,0.1-0.7V88.6z"/>
			<path class="st0" d="M48,96.8c0-0.2,0-0.4-0.1-0.6c-0.1-0.2-0.2-0.3-0.4-0.5c-0.2-0.1-0.4-0.3-0.6-0.4c-0.3-0.1-0.6-0.2-1-0.3
				c-0.5-0.1-0.9-0.3-1.4-0.5c-0.4-0.2-0.8-0.4-1.2-0.7c-0.3-0.3-0.6-0.6-0.8-1c-0.2-0.4-0.3-0.8-0.3-1.3c0-0.5,0.1-0.9,0.3-1.3
				c0.2-0.4,0.5-0.7,0.8-1c0.4-0.3,0.8-0.5,1.2-0.6c0.5-0.1,1-0.2,1.6-0.2c0.6,0,1.1,0.1,1.6,0.3c0.5,0.2,0.9,0.4,1.2,0.7
				c0.3,0.3,0.6,0.7,0.8,1.1c0.2,0.4,0.3,0.9,0.3,1.4H48c0-0.2-0.1-0.5-0.1-0.7c-0.1-0.2-0.2-0.4-0.4-0.5s-0.3-0.3-0.6-0.4
				c-0.2-0.1-0.5-0.1-0.8-0.1c-0.3,0-0.5,0-0.8,0.1s-0.4,0.2-0.6,0.3c-0.2,0.1-0.3,0.3-0.3,0.4c-0.1,0.2-0.1,0.4-0.1,0.6
				c0,0.2,0.1,0.4,0.2,0.6c0.1,0.2,0.3,0.3,0.5,0.5c0.2,0.1,0.4,0.3,0.7,0.4c0.3,0.1,0.6,0.2,1,0.3c0.5,0.1,1,0.3,1.4,0.5
				c0.4,0.2,0.8,0.5,1.1,0.8c0.3,0.3,0.5,0.6,0.7,1c0.2,0.4,0.3,0.8,0.3,1.2c0,0.5-0.1,0.9-0.3,1.3c-0.2,0.4-0.5,0.7-0.8,1
				c-0.3,0.3-0.8,0.5-1.2,0.6c-0.5,0.1-1,0.2-1.6,0.2c-0.4,0-0.7,0-1-0.1s-0.7-0.2-1-0.3c-0.3-0.1-0.6-0.3-0.9-0.5
				c-0.3-0.2-0.5-0.4-0.7-0.7c-0.2-0.3-0.4-0.6-0.5-0.9s-0.2-0.7-0.2-1.1H44c0,0.3,0.1,0.6,0.2,0.9c0.1,0.2,0.3,0.4,0.4,0.6
				S45,98,45.3,98c0.3,0.1,0.6,0.1,0.9,0.1c0.3,0,0.5,0,0.8-0.1c0.2-0.1,0.4-0.2,0.6-0.3c0.2-0.1,0.3-0.3,0.4-0.4
				C47.9,97.2,48,97,48,96.8z"/>
		</g>
	</g>
</g>
</svg>
