<?xml version="1.0" encoding="utf-8"?>
<!-- Generator: Adobe Illustrator 22.0.1, SVG Export Plug-In . SVG Version: 6.00 Build 0)  -->
<svg version="1.1" id="Layer_1" xmlns="http://www.w3.org/2000/svg" xmlns:xlink="http://www.w3.org/1999/xlink" x="0px" y="0px"
	 viewBox="0 0 476 180" style="enable-background:new 0 0 476 180;" xml:space="preserve">
<style type="text/css">
	.st0{fill:#FFFFFF;}
	.st1{fill:none;stroke:#21262D;stroke-width:3.406;}
	.st2{fill:#21262D;fill-opacity:0.5022;}
	.st3{enable-background:new    ;}
	.st4{fill:#21262D;}
	.st5{fill:none;stroke:#21262D;stroke-width:3;}
	.st6{fill:none;stroke:#21262D;stroke-width:2.7248;}
	.st7{fill:none;stroke:#21262D;stroke-width:2.4;}
	.st8{font-family:'RobotoMono-Regular';}
	.st9{font-size:20.8px;}
	.st10{fill:none;stroke:#21262D;stroke-width:2.0436;}
	.st11{fill:#C5C5C5;fill-opacity:0.5022;}
	.st12{fill:none;stroke:#21262D;stroke-width:1.8;}
	.st13{font-size:15.6px;}
</style>
<g>
	<path class="st0" d="M98.5,0l44.8,45v130.5c0,2.5-2,4.5-4.5,4.5H4.5C2,180,0,178,0,175.5V4.5C0,2,2,0,4.5,0L98.5,0z"/>
	<path class="st1" d="M97.8,1.7H4.5C3,1.7,1.7,3,1.7,4.5v171c0,1.5,1.3,2.8,2.8,2.8h134.2c1.6,0,2.8-1.2,2.8-2.8V45.7L97.8,1.7z"/>
	<g transform="matrix(-1 0 0 -1 240.76684 45)">
		<path class="st2" d="M142.8,45V4.5c0-2.5-2-4.5-4.5-4.5H98"/>
		<path class="st1" d="M141.1,40.9V4.5c0-1.5-1.2-2.8-2.8-2.8h-36.2L141.1,40.9z"/>
	</g>
	<g class="st3">
		<path class="st4" d="M56,131.5h3.6l0,12.8c0,0.9-0.2,1.7-0.5,2.4c-0.3,0.7-0.8,1.3-1.3,1.9s-1.2,0.9-2,1.2s-1.6,0.4-2.5,0.4
			c-0.9,0-1.8-0.1-2.5-0.4s-1.4-0.6-2-1.1c-0.5-0.5-1-1.1-1.3-1.8s-0.5-1.5-0.5-2.5h3.6c0,1,0.2,1.7,0.7,2.2c0.4,0.4,1.1,0.7,2,0.7
			c0.4,0,0.8-0.1,1.1-0.2c0.3-0.2,0.6-0.4,0.9-0.6s0.4-0.6,0.6-1c0.1-0.4,0.2-0.8,0.2-1.2V131.5z"/>
		<path class="st4" d="M66.7,143.2v6.8h-3.6v-18.5h6.3c1,0,1.9,0.1,2.7,0.4c0.8,0.3,1.5,0.7,2.1,1.2c0.6,0.5,1,1.1,1.3,1.9
			s0.5,1.5,0.5,2.4c0,0.8-0.2,1.6-0.5,2.3s-0.7,1.3-1.3,1.8c-0.6,0.5-1.3,0.9-2.1,1.2s-1.7,0.4-2.7,0.4H66.7z M66.7,140.3h2.8
			c0.5,0,0.9-0.1,1.3-0.2s0.7-0.4,0.9-0.6s0.4-0.6,0.6-0.9c0.1-0.3,0.2-0.7,0.2-1.1c0-0.4-0.1-0.8-0.2-1.2s-0.3-0.7-0.6-1
			s-0.6-0.5-0.9-0.7s-0.8-0.2-1.3-0.2h-2.8V140.3z"/>
		<path class="st4" d="M91.2,147.8c-0.2,0.3-0.5,0.6-0.9,0.9s-0.9,0.5-1.4,0.8c-0.5,0.2-1.2,0.4-1.8,0.6s-1.4,0.2-2.2,0.2
			c-1,0-2-0.2-2.8-0.6s-1.6-0.9-2.2-1.6s-1.1-1.6-1.4-2.6c-0.3-1-0.5-2.2-0.5-3.5v-2.5c0-1.3,0.2-2.5,0.5-3.5c0.3-1,0.8-1.9,1.4-2.6
			s1.3-1.3,2.1-1.6s1.7-0.6,2.7-0.6c1,0,1.9,0.1,2.7,0.4s1.4,0.6,2,1.1c0.5,0.5,1,1.1,1.3,1.8s0.5,1.5,0.6,2.4h-3.5
			c-0.1-0.9-0.4-1.7-0.9-2.1c-0.5-0.5-1.2-0.7-2.1-0.7c-0.5,0-0.9,0.1-1.3,0.3c-0.4,0.2-0.7,0.6-1,1s-0.5,1-0.7,1.7
			c-0.2,0.7-0.3,1.4-0.3,2.3v2.5c0,1.7,0.3,3,0.9,4c0.6,0.9,1.4,1.4,2.6,1.4c0.3,0,0.6,0,0.8-0.1s0.5-0.1,0.8-0.2s0.4-0.2,0.6-0.3
			c0.2-0.1,0.3-0.2,0.4-0.3l0-3.4h-3.1v-2.7h6.6L91.2,147.8z"/>
	</g>
	<g transform="translate(31 51)">
		<path class="st5" d="M7.7,2.1h61.7c3.2,0,5.7,2.6,5.7,5.7v48.6c0,3.2-2.6,5.7-5.7,5.7H7.7c-3.2,0-5.7-2.6-5.7-5.7V7.9
			C1.9,4.7,4.5,2.1,7.7,2.1z"/>
		<g>
			<ellipse class="st4" cx="20.5" cy="23" rx="5.8" ry="5.7"/>
			<path class="st4" d="M25.2,41.6l13.1,12.5l16.3-18.8l18,26.7H4L25.2,41.6z"/>
		</g>
	</g>
	<g transform="translate(215.742224 21)">
		<path class="st0" d="M78.8,0l35.8,36v104.4c0,2-1.6,3.6-3.6,3.6H3.6c-2,0-3.6-1.6-3.6-3.6V3.6C0,1.6,1.6,0,3.6,0L78.8,0z"/>
		<path class="st6" d="M78.2,1.4H3.6c-1.2,0-2.2,1-2.2,2.2v136.8c0,1.2,1,2.2,2.2,2.2H111c1.2,0,2.2-1,2.2-2.2V36.6L78.2,1.4z"/>
		<path class="st4" d="M24.8,66.6l22.7-8.6v6.7L39.7,67l-6.5,2.2v0.2l6.5,2.2l7.8,2.4v6.7l-22.7-8.6V66.6z M58.2,51.2h5.3L55,93
			h-5.3L58.2,51.2z M89.4,72.1l-22.7,8.6V74l7.8-2.4l6.5-2.2v-0.2L74.5,67l-7.8-2.4v-6.7l22.7,8.6V72.1z"/>
		<g transform="matrix(-1 0 0 -1 192.61346 35.999998)">
			<path class="st2" d="M114.2,36V3.6c0-2-1.6-3.6-3.6-3.6H78.4"/>
			<path class="st7" d="M113,33.1V3.6c0-1.3-1.1-2.4-2.4-2.4H81.3L113,33.1z"/>
		</g>
		<text transform="matrix(1 0 0 1 33.4359 120.4)" class="st4 st8 st9">HTML</text>
	</g>
	<g transform="translate(215.742224 21)">
		<path class="st0" d="M78.8,0l35.8,36v104.4c0,2-1.6,3.6-3.6,3.6H3.6c-2,0-3.6-1.6-3.6-3.6V3.6C0,1.6,1.6,0,3.6,0L78.8,0z"/>
		<path class="st1" d="M78.1,1.7H3.6c-1,0-1.9,0.9-1.9,1.9v136.8c0,1,0.8,1.9,1.9,1.9H111c1,0,1.9-0.9,1.9-1.9V36.7L78.1,1.7z"/>
		<path class="st4" d="M24.8,66.6l22.7-8.6v6.7L39.7,67l-6.5,2.2v0.2l6.5,2.2l7.8,2.4v6.7l-22.7-8.6V66.6z M58.2,51.2h5.3L55,93
			h-5.3L58.2,51.2z M89.4,72.1l-22.7,8.6V74l7.8-2.4l6.5-2.2v-0.2L74.5,67l-7.8-2.4v-6.7l22.7,8.6V72.1z"/>
		<g transform="matrix(-1 0 0 -1 192.61346 35.999998)">
			<path class="st2" d="M114.2,36V3.6c0-2-1.6-3.6-3.6-3.6H78.4"/>
			<path class="st1" d="M112.5,31.9V3.6c0-1-0.8-1.9-1.9-1.9H82.5L112.5,31.9z"/>
		</g>
		<g class="st3">
			<path class="st4" d="M44.5,120.4h-2.8V114h-4.2v6.4h-2.8v-14.8h2.8v6.1h4.2v-6.1h2.8V120.4z"/>
			<path class="st4" d="M58.1,107.9h-4.6v12.5h-2.9v-12.5h-4.5v-2.3h11.9V107.9z"/>
			<path class="st4" d="M63.2,105.6l1.4,5.6l1.6-5.6h3.5v14.8h-2.6V116l0.1-6.9l-1.9,6.4h-1.4l-1.7-6.1l0.1,6.6v4.4h-2.6v-14.8H63.2
				z"/>
			<path class="st4" d="M75.3,118.1h6.9v2.3h-9.8v-14.8h2.9V118.1z"/>
		</g>
	</g>
	<g transform="translate(389.346875 36)">
		<path class="st0" d="M59.1,0L86,27v78.3c0,1.5-1.2,2.7-2.7,2.7H2.7c-1.5,0-2.7-1.2-2.7-2.7V2.7C0,1.2,1.2,0,2.7,0L59.1,0z"/>
		<path class="st10" d="M58.7,1h-56C1.8,1,1,1.8,1,2.7v102.6c0,0.9,0.7,1.7,1.7,1.7h80.6c0.9,0,1.7-0.8,1.7-1.7V27.4L58.7,1z"/>
		<path class="st4" d="M18.6,49.9l17-6.5v5l-5.8,1.8l-4.9,1.7v0.1l4.9,1.7l5.8,1.8v5l-17-6.5L18.6,49.9z M43.7,38.4h4l-6.3,31.3h-4
			L43.7,38.4z M67.1,54.1l-17,6.5v-5l5.8-1.8l4.9-1.7v-0.1l-4.9-1.7l-5.8-1.8v-5l17,6.5V54.1z"/>
		<g transform="matrix(-1 0 0 -1 144.460096 26.999998)">
			<path class="st11" d="M85.7,27V2.7C85.7,1.2,84.5,0,83,0H58.8"/>
			<path class="st12" d="M84.8,24.8V2.7c0-1-0.8-1.8-1.8-1.8H61L84.8,24.8z"/>
		</g>
		<text transform="matrix(1 0 0 1 25.077 89.8)" class="st4 st8 st13">HTML</text>
	</g>
	<g transform="translate(381.546875 36)">
		<path class="st0" d="M66.9,0l26.9,27v78.3c0,1.5-1.2,2.7-2.7,2.7H10.5c-1.5,0-2.7-1.2-2.7-2.7V2.7C7.8,1.2,9,0,10.5,0L66.9,0z"/>
		<path class="st1" d="M66.2,1.7H10.5c-0.5,0-1,0.4-1,1v102.6c0,0.5,0.4,1,1,1h80.6c0.5,0,1-0.4,1-1V27.7L66.2,1.7z"/>
		<path class="st4" d="M2.3,32.4h80.9c1.2,0,2.3,1,2.3,2.3v24.4c0,1.2-1,2.3-2.3,2.3H2.3c-1.2,0-2.3-1-2.3-2.3V34.7
			C0,33.4,1,32.4,2.3,32.4z"/>
		<g transform="matrix(-1 0 0 -1 160.060094 26.999998)">
			<path class="st2" d="M93.5,27V2.7c0-1.5-1.2-2.7-2.7-2.7H66.6"/>
			<path class="st1" d="M91.8,22.9V2.7c0-0.5-0.4-1-1-1H70.7L91.8,22.9z"/>
		</g>
	</g>
	<g class="st3">
		<path class="st0" d="M411.7,78.1h2.1l0,7.7c0,0.5-0.1,1-0.3,1.4c-0.2,0.4-0.5,0.8-0.8,1.1s-0.7,0.6-1.2,0.7
			c-0.5,0.2-1,0.3-1.5,0.3c-0.6,0-1.1-0.1-1.5-0.2c-0.5-0.1-0.8-0.4-1.2-0.6c-0.3-0.3-0.6-0.6-0.8-1.1c-0.2-0.4-0.3-0.9-0.3-1.5h2.1
			c0,0.6,0.1,1,0.4,1.3s0.7,0.4,1.2,0.4c0.2,0,0.5,0,0.7-0.1s0.4-0.2,0.5-0.4s0.3-0.4,0.3-0.6c0.1-0.2,0.1-0.5,0.1-0.7V78.1z"/>
		<path class="st0" d="M421.5,86.3c0-0.2,0-0.4-0.1-0.6c-0.1-0.2-0.2-0.3-0.4-0.5c-0.2-0.1-0.4-0.3-0.6-0.4c-0.3-0.1-0.6-0.2-1-0.3
			c-0.5-0.1-0.9-0.3-1.4-0.5s-0.8-0.4-1.2-0.7c-0.3-0.3-0.6-0.6-0.8-1c-0.2-0.4-0.3-0.8-0.3-1.3c0-0.5,0.1-0.9,0.3-1.3
			c0.2-0.4,0.5-0.7,0.8-1c0.4-0.3,0.8-0.5,1.2-0.6c0.5-0.1,1-0.2,1.6-0.2c0.6,0,1.1,0.1,1.6,0.3c0.5,0.2,0.9,0.4,1.2,0.7
			c0.3,0.3,0.6,0.7,0.8,1.1c0.2,0.4,0.3,0.9,0.3,1.4h-2.1c0-0.2-0.1-0.5-0.1-0.7c-0.1-0.2-0.2-0.4-0.4-0.5s-0.3-0.3-0.6-0.4
			c-0.2-0.1-0.5-0.1-0.8-0.1c-0.3,0-0.5,0-0.8,0.1s-0.4,0.2-0.6,0.3c-0.2,0.1-0.3,0.3-0.3,0.4c-0.1,0.2-0.1,0.4-0.1,0.6
			c0,0.2,0.1,0.4,0.2,0.6c0.1,0.2,0.3,0.3,0.5,0.5c0.2,0.1,0.4,0.3,0.7,0.4c0.3,0.1,0.6,0.2,1,0.3c0.5,0.1,1,0.3,1.4,0.5
			c0.4,0.2,0.8,0.5,1.1,0.8c0.3,0.3,0.5,0.6,0.7,1s0.3,0.8,0.3,1.2c0,0.5-0.1,0.9-0.3,1.3c-0.2,0.4-0.5,0.7-0.8,1s-0.8,0.5-1.2,0.6
			c-0.5,0.1-1,0.2-1.6,0.2c-0.4,0-0.7,0-1-0.1s-0.7-0.2-1-0.3c-0.3-0.1-0.6-0.3-0.9-0.5c-0.3-0.2-0.5-0.4-0.7-0.7
			c-0.2-0.3-0.4-0.6-0.5-0.9c-0.1-0.3-0.2-0.7-0.2-1.1h2.1c0,0.3,0.1,0.6,0.2,0.9c0.1,0.2,0.3,0.4,0.4,0.6c0.2,0.2,0.4,0.3,0.7,0.3
			c0.3,0.1,0.6,0.1,0.9,0.1c0.3,0,0.5,0,0.8-0.1c0.2-0.1,0.4-0.2,0.6-0.3c0.2-0.1,0.3-0.3,0.4-0.4C421.5,86.7,421.5,86.5,421.5,86.3
			z"/>
		<path class="st0" d="M432.9,84.5c0,0.7-0.1,1.4-0.3,2c-0.2,0.6-0.5,1.1-0.8,1.5s-0.8,0.8-1.3,1c-0.5,0.2-1.1,0.4-1.7,0.4
			c-0.6,0-1.2-0.1-1.7-0.4c-0.5-0.2-0.9-0.6-1.3-1c-0.3-0.4-0.6-0.9-0.8-1.5s-0.3-1.3-0.3-2v-1.6c0-0.7,0.1-1.4,0.3-2
			c0.2-0.6,0.4-1.1,0.8-1.5s0.8-0.8,1.3-1c0.5-0.2,1.1-0.4,1.7-0.4c0.6,0,1.2,0.1,1.7,0.4c0.5,0.2,0.9,0.6,1.3,1s0.6,1,0.8,1.5
			c0.2,0.6,0.3,1.3,0.3,2V84.5z M430.7,82.8c0-0.5,0-0.9-0.1-1.2s-0.2-0.7-0.3-1c-0.2-0.3-0.4-0.5-0.6-0.6c-0.2-0.2-0.5-0.2-0.9-0.2
			c-0.3,0-0.6,0.1-0.9,0.2c-0.2,0.2-0.4,0.4-0.6,0.6c-0.1,0.3-0.2,0.6-0.3,1s-0.1,0.8-0.1,1.2v1.6c0,0.4,0,0.9,0.1,1.2
			s0.2,0.7,0.3,1s0.3,0.5,0.6,0.7c0.2,0.2,0.5,0.2,0.9,0.2c0.3,0,0.6-0.1,0.9-0.2c0.2-0.2,0.4-0.4,0.6-0.7c0.2-0.3,0.3-0.6,0.3-1
			s0.1-0.8,0.1-1.2V82.8z"/>
		<path class="st0" d="M441.8,89.2h-2.1l-3.1-7.2v7.2h-2.2V78.1h2.2l3.1,7.1l0-7.1h2.1V89.2z"/>
	</g>
</g>
</svg>
