<svg id="Layer_1" data-name="Layer 1" xmlns="http://www.w3.org/2000/svg" viewBox="0 0 137.33 125"><defs><style>.cls-1{fill:#3585fa;}.cls-2{fill:#04111d;}</style></defs><title>dadi-onboard-founding-2</title><path class="cls-1" d="M65.35,92.19a1.12,1.12,0,0,1-1.12-1.12V1.8a1.12,1.12,0,1,1,2.23,0V91.07A1.12,1.12,0,0,1,65.35,92.19Z"/><path class="cls-1" d="M59.88,7.69a1.12,1.12,0,0,1-.79-1.91L64.55.33a1.12,1.12,0,1,1,1.58,1.58L60.67,7.36A1.09,1.09,0,0,1,59.88,7.69Z"/><path class="cls-1" d="M77,7.69a1.11,1.11,0,0,1-.79-.33L70.79,1.91A1.12,1.12,0,0,1,72.37.33l5.46,5.45A1.12,1.12,0,0,1,77,7.69Z"/><path class="cls-1" d="M53.5,104.51a1.12,1.12,0,1,1,0-2.23A10.59,10.59,0,0,0,64.08,91.69a1.12,1.12,0,1,1,2.24,0A12.83,12.83,0,0,1,53.5,104.51Z"/><path class="cls-1" d="M71.43,92.19a1.12,1.12,0,0,1-1.12-1.12V1.8a1.12,1.12,0,0,1,2.24,0V91.07A1.12,1.12,0,0,1,71.43,92.19Z"/><path class="cls-1" d="M83.28,104.51A12.83,12.83,0,0,1,70.46,91.69a1.12,1.12,0,1,1,2.23,0,10.6,10.6,0,0,0,10.59,10.59,1.12,1.12,0,1,1,0,2.23Z"/><path class="cls-2" d="M77.43,88.55a1.16,1.16,0,0,1-.71-.25,1.15,1.15,0,0,1-.4-.78,8.28,8.28,0,0,0-16.5-.13,1.06,1.06,0,0,1-.41.77,1.12,1.12,0,0,1-.84.24c-5.09-.67-12.33-2.27-18-6.09a8,8,0,0,1-3.35-8.1c.75-3.94,1.86-9.41,3-15.21,2.42-11.91,5.43-26.74,5.43-28.92v0l.48-13.39a3.07,3.07,0,0,1,4-3.1A62.15,62.15,0,0,0,68.67,16a62.19,62.19,0,0,0,18.48-2.46,3.07,3.07,0,0,1,4,3.1L91.6,30v0c0,2.18,3,17,5.42,28.92,1.18,5.8,2.29,11.27,3,15.21a8,8,0,0,1-3.36,8.1c-5.93,4-13.69,5.62-19.15,6.24ZM68.07,77.63A10.55,10.55,0,0,1,78.4,86.2c8.79-1.15,14.11-3.73,17.06-5.73a5.73,5.73,0,0,0,2.41-5.84c-.75-3.93-1.86-9.4-3-15.19-3.2-15.73-5.46-27-5.48-29.34l-.48-13.43v-.13a.78.78,0,0,0-.31-.71.84.84,0,0,0-.76-.15,64.54,64.54,0,0,1-19.14,2.57,64.65,64.65,0,0,1-19.15-2.57.84.84,0,0,0-1.07.86v.13L48,30.1c0,2.29-2.28,13.61-5.47,29.34-1.18,5.79-2.29,11.26-3,15.19a5.76,5.76,0,0,0,2.42,5.84C46.75,83.78,53,85.32,57.77,86a10.52,10.52,0,0,1,10.3-8.4Z"/></svg>