<svg id="Layer_1" data-name="Layer 1" xmlns="http://www.w3.org/2000/svg" viewBox="0 0 137.33 125"><defs><style>.cls-1{fill:#e0e0e0;}.cls-2{fill:#3585fa;}</style></defs><title>dadi-onboard-founding-4</title><path class="cls-1" d="M39.79,8.08l2.87,8.69c.83,3.92,14.75,7.05,31.8,7.05s31-3.13,31.79-7l2.87-8.69C109.12,3.62,93.6,0,74.46,0S39.79,3.62,39.79,8.08Z"/><path class="cls-2" d="M97.12,24.85A109.15,109.15,0,0,1,74.46,27c-4.33,0-8.56-.21-12.48-.58V47.08a33.39,33.39,0,0,1,28.26,22.6h5.63a4.25,4.25,0,0,0,4.25-4.26V24.08C99.19,24.35,98.19,24.61,97.12,24.85Z"/><path class="cls-2" d="M58.59,110.66a30.26,30.26,0,1,1,11.82-2.38A30.3,30.3,0,0,1,58.59,110.66Zm0-58.52a28.15,28.15,0,1,0,19.9,8.25A27.93,27.93,0,0,0,58.59,52.14Z"/><path class="cls-2" d="M67.35,97.81H49.83a1.12,1.12,0,0,1-1.12-1.12V71.58a1.12,1.12,0,0,1,1.12-1.11H67.35a1.11,1.11,0,0,1,1.11,1.11V96.69A1.12,1.12,0,0,1,67.35,97.81ZM50.94,95.57H66.23V72.7H50.94Z"/><rect class="cls-2" x="49.64" y="88.92" width="17.9" height="2.23"/><rect class="cls-2" x="52.77" y="68.96" width="11.64" height="2.23"/><rect class="cls-2" x="52.58" y="73.89" width="2.23" height="7.97"/><rect class="cls-2" x="55.84" y="73.89" width="2.23" height="7.97"/><rect class="cls-2" x="59.1" y="73.89" width="2.23" height="7.97"/><rect class="cls-2" x="62.36" y="73.89" width="2.23" height="7.97"/><path class="cls-2" d="M82.82,64.62H49.58a5.88,5.88,0,0,1-5.86-5.87V55.14H46v3.61a3.64,3.64,0,0,0,3.63,3.63H82.82Z"/><rect class="cls-2" x="61.94" y="97.23" width="2.23" height="12.01"/><rect class="cls-2" x="53" y="97.23" width="2.23" height="11.9"/></svg>