<svg viewBox="0 0 497.94 116.75" xmlns="http://www.w3.org/2000/svg" xmlns:xlink="http://www.w3.org/1999/xlink"><clipPath id="a"><path d="m0 .35h181.59v116.4h-181.59z"/></clipPath><path d="m300.72 11.57v96.57h-20.72v-6.48c-4.55 5.24-11.31 8.42-20.56 8.42-18.07 0-33-15.86-33-36.42s14.9-36.42 33-36.42c9.24 0 16 3.17 20.56 8.42v-34.09zm-20.72 62.08c0-10.35-6.9-16.83-16.42-16.83s-16.38 6.48-16.38 16.83 6.9 16.83 16.42 16.83 16.38-6.48 16.38-16.83zm102.09-34.49v69h-20.7v-6.48c-4.55 5.24-11.31 8.42-20.56 8.42-18.07 0-33-15.86-33-36.42s14.9-36.42 33-36.42c9.24 0 16 3.17 20.56 8.42v-6.52zm-20.7 34.49c0-10.35-6.9-16.83-16.42-16.83s-16.42 6.48-16.42 16.83 6.9 16.83 16.42 16.83 16.42-6.48 16.42-16.83zm102.06-62.08v96.57h-20.7v-6.48c-4.55 5.24-11.31 8.42-20.56 8.42-18.07 0-33-15.86-33-36.42s14.9-36.42 33-36.42c9.24 0 16 3.17 20.56 8.42v-34.09zm-20.7 62.08c0-10.35-6.9-16.83-16.42-16.83s-16.42 6.48-16.42 16.83 6.9 16.83 16.42 16.83 16.42-6.48 16.42-16.83zm30.36-52.98a12.42 12.42 0 1 1 24.83 0 12.42 12.42 0 1 1 -24.83 0zm2.07 18.49h20.69v69h-20.7z" fill="#21262d"/><g clip-path="url(#a)"><path d="m59.54 61.54-13.7 8.1a11.72 11.72 0 0 0 3.87.65h12.82l-3-8.75" fill="#9a3121"/><path d="m99.47 46.81h-40.13l.2 14.73z" fill="#501c16"/><path d="m116.53 46.81h-17.06l-39.93 14.73 6.46 8.75h50.57a11.74 11.74 0 1 0 0-23.48" fill="#e5462c"/><path d="m59.54 61.54.72 8.75h5.7z" fill="#812a1d"/><path d="m42.3 49.44a11.74 11.74 0 0 0 3.54 20.19l13.7-8.1z" fill="#501c16"/><path d="m59.34 46.81h-9.63a11.69 11.69 0 0 0 -7.41 2.64l17.25 12.1-.2-14.73" fill="#cc3f28"/><path d="m123.86.35h-35.86a11.74 11.74 0 1 0 0 23.48h35.4a34.55 34.55 0 0 1 20.39 6.62l14.21-5.25-34-24.83h-.15" fill="#66221d"/><path d="m142.65 87.42a34.54 34.54 0 0 1 -19.25 5.82h-35.4a11.7 11.7 0 0 0 -4.56.92l16.56 22.59h23.82a58.41 58.41 0 0 0 11.86-1.3l6.93-28m15.39-62.25-14.26 5.26a34.87 34.87 0 0 1 10.16 11.54z" fill="#e5462c"/><path d="m158 25.2-4.1 16.8a34.73 34.73 0 0 1 -11.25 45.45l-6.93 28a58.26 58.26 0 0 0 44.66-68.77z" fill="#b33824"/><path d="m162.74 15.68-4.74 9.52 22.33 21.46a58.11 58.11 0 0 0 -17.63-31" fill="#e5462c"/><path d="m124 .37 34 24.83 4.69-9.52a58 58 0 0 0 -38.69-15.31" fill="#371512"/><path d="m83.48 94.18a11.74 11.74 0 0 0 4.52 22.57h12z" fill="#812a1d"/><path d="m45.49.35h-17.33l-14.6 23.48h31.93a11.74 11.74 0 1 0 0-23.48" fill="#cc3f28"/><path d="m28.16.35h-16.42a11.71 11.71 0 0 0 -8.64 3.8l6.74 19.53a11.83 11.83 0 0 0 1.9.15h1.82z" fill="#501c16"/><path d="m3.1 4.15a11.74 11.74 0 0 0 6.74 19.53z" fill="#9a3121"/></g></svg>