<svg id="Layer_1" data-name="Layer 1" xmlns="http://www.w3.org/2000/svg" viewBox="0 0 137.33 125"><defs><style>.cls-1{fill:#e0e0e0;}.cls-2{fill:#04111d;}.cls-3{fill:#3585fa;}</style></defs><title>dadi-onboard-founding-1</title><path class="cls-1" d="M68.42,35.42a88.45,88.45,0,0,1-9-.44V60.7A4.25,4.25,0,0,0,63.68,65h14.9a4.25,4.25,0,0,0,4.25-4.25V34.2A78.29,78.29,0,0,1,68.42,35.42Z"/><path class="cls-1" d="M82.83,31V29.06H59.43v2.75a86.06,86.06,0,0,0,9,.46A73.08,73.08,0,0,0,82.83,31Z"/><path class="cls-2" d="M68.65,111.64c-15,0-23.53-3.65-28-6.71a8,8,0,0,1-3.35-8.11c.75-3.94,1.86-9.41,3-15.21,2.42-11.91,5.43-26.74,5.43-28.91v0l.48-13.4a3.06,3.06,0,0,1,4-3.09,62.47,62.47,0,0,0,18.48,2.46,62.52,62.52,0,0,0,18.48-2.46A3,3,0,0,1,90,36.7a3.09,3.09,0,0,1,1.15,2.56l.48,13.4v0c0,2.17,3,17,5.42,28.91,1.18,5.8,2.29,11.27,3,15.21a8,8,0,0,1-3.36,8.11c-4.49,3.06-13,6.7-28,6.71h0Zm0-2.24h0a64.33,64.33,0,0,0,17.44-2.16,32.5,32.5,0,0,0,9.34-4.17,5.73,5.73,0,0,0,2.41-5.84c-.75-3.92-1.86-9.39-3-15.18C91.64,66.32,89.38,55,89.36,52.72l-.48-13.44v-.12a.79.79,0,0,0-.31-.72.81.81,0,0,0-.76-.14,64.55,64.55,0,0,1-19.14,2.56A64.67,64.67,0,0,1,49.52,38.3a.81.81,0,0,0-.76.14.84.84,0,0,0-.31.72v.12L48,52.72c0,2.28-2.28,13.6-5.47,29.34-1.18,5.79-2.29,11.26-3,15.18a5.75,5.75,0,0,0,2.42,5.84,32.31,32.31,0,0,0,9.33,4.17,64,64,0,0,0,17.44,2.15Z"/><path class="cls-3" d="M44.89,21.59l2,5.89c.56,2.67,10,4.79,21.58,4.79s21-2.12,21.57-4.79l2-5.89c0-3-10.54-5.49-23.53-5.49S44.89,18.56,44.89,21.59Z"/><path class="cls-3" d="M68.81,23.68a1.12,1.12,0,0,1-1.11-1.12V1.46a1.12,1.12,0,0,1,2.23,0v21.1A1.12,1.12,0,0,1,68.81,23.68Z"/><path class="cls-3" d="M65,6a1.11,1.11,0,0,1-.79-.32,1.13,1.13,0,0,1,0-1.58L68,.33A1.13,1.13,0,0,1,68.81,0a1.11,1.11,0,0,1,.79.33l3.81,3.81a1.11,1.11,0,0,1,0,1.58,1.13,1.13,0,0,1-1.58,0l-3-3-3,3A1.09,1.09,0,0,1,65,6Z"/></svg>