<svg enable-background="new 0 0 181.6 116.4" viewBox="0 0 181.6 116.4" xmlns="http://www.w3.org/2000/svg"><g fill="#fff"><path d="m116.5 69.9c6.5 0 11.7-5.3 11.7-11.7s-5.3-11.7-11.7-11.7h-66.8c-6.5 0-11.7 5.3-11.7 11.7s5.3 11.7 11.7 11.7z"/><path d="m123.9 0h-.5-35.4c-6.5 0-11.7 5.3-11.7 11.7 0 4.5 2.5 8.3 6.1 10.3 1.7.9 3.6 1.4 5.6 1.4h35.4c19.2 0 34.7 15.5 34.7 34.7s-15.5 34.7-34.7 34.7h-35.4c-6.5 0-11.7 5.3-11.7 11.7 0 6.5 5.3 11.7 11.7 11.7h35.4.5c31.9-.2 57.7-26.2 57.7-58.2 0-31.8-25.8-57.7-57.7-58z"/><path d="m45.5 23.5c6.5 0 11.7-5.3 11.7-11.7s-5.2-11.8-11.7-11.8h-33.8c-6.4 0-11.7 5.3-11.7 11.7s5.3 11.7 11.7 11.7z"/></g></svg>