<svg id="Layer_1" data-name="Layer 1" xmlns="http://www.w3.org/2000/svg" viewBox="0 0 137.33 125"><defs><style>.cls-1{fill:#e0e0e0;}.cls-2{fill:#3585fa;}</style></defs><title>dadi-onboard-founding-3</title><path class="cls-1" d="M84.56,0C69.11,0,56,2.36,51.54,5.62A33.37,33.37,0,0,1,78.21,23.67q3.08.15,6.35.15c17,0,31-3.13,31.79-7l2.88-8.69C119.23,3.62,103.71,0,84.56,0Z"/><path class="cls-2" d="M107.23,24.85A109.32,109.32,0,0,1,84.56,27c-1.66,0-3.3,0-4.92-.1a33.4,33.4,0,0,1-7.55,35.58v3a4.25,4.25,0,0,0,4.25,4.26H106a4.26,4.26,0,0,0,4.26-4.26V24.08C109.29,24.35,108.3,24.61,107.23,24.85Z"/><path class="cls-2" d="M48.48,69.23a30.27,30.27,0,1,1,11.83-2.39A30.26,30.26,0,0,1,48.48,69.23Zm0-58.52A28.13,28.13,0,1,0,68.39,19,28,28,0,0,0,48.48,10.71Z"/><path class="cls-2" d="M44.79,56.9H28.59a1.12,1.12,0,0,1-1.12-1.12V17.9a1.12,1.12,0,0,1,1.12-1.12h16.2A1.11,1.11,0,0,1,45.9,17.9V55.78A1.11,1.11,0,0,1,44.79,56.9ZM29.7,54.67h14V19h-14Z"/><path class="cls-2" d="M57.88,42.62h-13a1.12,1.12,0,0,1,0-2.24H56.76V25.1H44.84a1.12,1.12,0,0,1,0-2.24h13A1.12,1.12,0,0,1,59,24V41.5A1.12,1.12,0,0,1,57.88,42.62Z"/><rect class="cls-2" x="47.61" y="26.78" width="7.97" height="2.23"/><rect class="cls-2" x="47.61" y="36.56" width="7.97" height="2.23"/><rect class="cls-2" x="64.15" y="15.75" width="2.23" height="46.51"/><polygon class="cls-2" points="42.98 67.8 40.75 67.8 40.75 56.91 34.05 56.91 34.05 63.8 31.81 63.8 31.81 54.67 42.98 54.67 42.98 67.8"/></svg>