<?xml version="1.0" encoding="utf-8"?>
<!-- Generator: Adobe Illustrator 22.0.1, SVG Export Plug-In . SVG Version: 6.00 Build 0)  -->
<svg version="1.1" id="Layer_1" xmlns="http://www.w3.org/2000/svg" xmlns:xlink="http://www.w3.org/1999/xlink" x="0px" y="0px"
	 viewBox="0 0 358.6 135" style="enable-background:new 0 0 358.6 135;" xml:space="preserve">
<style type="text/css">
	.st0{fill:#04111D;}
</style>
<g>
	<g>
		<path class="st0" d="M201,50v31.2h-6.7v-2.1c-1.5,1.7-3.7,2.7-6.6,2.7c-5.8,0-10.7-5.1-10.7-11.8c0-6.6,4.8-11.8,10.7-11.8
			c3,0,5.2,1,6.6,2.7V50H201z M194.3,70.1c0-3.3-2.2-5.4-5.3-5.4c-3.1,0-5.3,2.1-5.3,5.4c0,3.3,2.2,5.4,5.3,5.4
			C192,75.5,194.3,73.5,194.3,70.1z"/>
		<path class="st0" d="M227.3,58.9v22.3h-6.7v-2.1c-1.5,1.7-3.7,2.7-6.6,2.7c-5.8,0-10.7-5.1-10.7-11.8c0-6.6,4.8-11.8,10.7-11.8
			c3,0,5.2,1,6.6,2.7v-2.1H227.3z M220.6,70.1c0-3.3-2.2-5.4-5.3-5.4s-5.3,2.1-5.3,5.4c0,3.3,2.2,5.4,5.3,5.4S220.6,73.5,220.6,70.1
			z"/>
		<path class="st0" d="M253.6,50v31.2h-6.7v-2.1c-1.5,1.7-3.7,2.7-6.6,2.7c-5.8,0-10.7-5.1-10.7-11.8c0-6.6,4.8-11.8,10.7-11.8
			c3,0,5.2,1,6.6,2.7V50H253.6z M246.9,70.1c0-3.3-2.2-5.4-5.3-5.4s-5.3,2.1-5.3,5.4c0,3.3,2.2,5.4,5.3,5.4S246.9,73.5,246.9,70.1z"
			/>
		<path class="st0" d="M256.7,53c0-2.2,1.8-4,4-4c2.2,0,4,1.8,4,4c0,2.2-1.8,4-4,4C258.6,57,256.7,55.2,256.7,53z M257.4,58.9h6.7
			v22.3h-6.7V58.9z"/>
	</g>
	<g>
		<path class="st0" d="M278.8,62.6c0.8-1.1,1.7-2,2.9-2.7c1.1-0.6,2.4-1,3.9-1c1.1,0,2.2,0.2,3.1,0.5c0.9,0.3,1.7,0.8,2.4,1.5
			c0.7,0.7,1.2,1.6,1.5,2.7c0.4,1.1,0.5,2.3,0.5,3.8v13.8h-3.7V67.4c0-1.8-0.4-3.1-1.3-4c-0.9-0.9-2.1-1.3-3.7-1.3
			c-1.2,0-2.3,0.3-3.3,0.9s-1.8,1.4-2.4,2.3v15.9h-3.7V50.2h3.7V62.6z"/>
		<path class="st0" d="M296.9,70.1c0-1.6,0.2-3,0.7-4.4c0.5-1.4,1.1-2.5,2-3.5s1.9-1.8,3.1-2.4c1.2-0.6,2.6-0.9,4.1-0.9
			c1.6,0,2.9,0.3,4.2,0.9c1.2,0.6,2.3,1.4,3.1,2.4s1.5,2.2,2,3.5c0.5,1.4,0.7,2.8,0.7,4.4v0.4c0,1.6-0.2,3-0.7,4.4
			c-0.5,1.4-1.1,2.5-2,3.5s-1.9,1.8-3.1,2.3c-1.2,0.6-2.6,0.9-4.1,0.9c-1.6,0-2.9-0.3-4.2-0.9c-1.2-0.6-2.3-1.3-3.1-2.3
			s-1.5-2.2-2-3.5c-0.5-1.3-0.7-2.8-0.7-4.4V70.1z M300.6,70.5c0,1.1,0.1,2.1,0.4,3.1c0.3,1,0.6,1.8,1.2,2.6c0.5,0.7,1.2,1.3,2,1.8
			c0.8,0.4,1.7,0.6,2.7,0.6c1,0,1.9-0.2,2.7-0.6c0.8-0.4,1.4-1,1.9-1.8c0.5-0.7,0.9-1.6,1.2-2.6c0.3-1,0.4-2,0.4-3.1v-0.4
			c0-1.1-0.1-2.1-0.4-3.1c-0.3-1-0.7-1.8-1.2-2.6c-0.5-0.7-1.2-1.3-1.9-1.8c-0.8-0.4-1.7-0.7-2.7-0.7c-1,0-1.9,0.2-2.7,0.7
			c-0.8,0.4-1.4,1-1.9,1.8c-0.5,0.7-0.9,1.6-1.2,2.6c-0.3,1-0.4,2-0.4,3.1V70.5z"/>
		<path class="st0" d="M333.8,75.4c0-0.4-0.1-0.8-0.3-1.2c-0.2-0.4-0.5-0.7-0.9-1c-0.4-0.3-1-0.6-1.7-0.8c-0.7-0.2-1.5-0.5-2.6-0.7
			c-1.3-0.3-2.4-0.6-3.4-0.9c-1-0.4-1.9-0.8-2.7-1.3c-0.7-0.5-1.3-1.1-1.7-1.8s-0.6-1.5-0.6-2.4c0-0.9,0.2-1.7,0.6-2.5
			c0.4-0.8,1-1.5,1.8-2c0.8-0.6,1.7-1,2.7-1.4c1-0.3,2.2-0.5,3.5-0.5c1.3,0,2.6,0.2,3.6,0.5c1.1,0.4,2,0.8,2.8,1.5
			c0.8,0.6,1.3,1.3,1.8,2.2c0.4,0.8,0.6,1.7,0.6,2.7h-3.7c0-0.5-0.1-0.9-0.4-1.4c-0.2-0.5-0.6-0.9-1-1.2c-0.4-0.4-1-0.6-1.6-0.9
			s-1.3-0.3-2.1-0.3c-0.8,0-1.5,0.1-2.1,0.3c-0.6,0.2-1.1,0.4-1.5,0.7c-0.4,0.3-0.7,0.6-0.9,1c-0.2,0.4-0.3,0.8-0.3,1.2
			c0,0.4,0.1,0.8,0.2,1.2c0.2,0.3,0.4,0.6,0.8,0.9c0.4,0.3,0.9,0.5,1.6,0.7c0.7,0.2,1.5,0.4,2.5,0.6c1.3,0.3,2.6,0.6,3.6,1
			c1.1,0.4,2,0.8,2.7,1.3c0.7,0.5,1.3,1.1,1.7,1.8c0.4,0.7,0.6,1.5,0.6,2.4c0,1-0.2,1.9-0.7,2.7c-0.4,0.8-1,1.5-1.8,2
			c-0.8,0.6-1.7,1-2.8,1.3c-1.1,0.3-2.3,0.5-3.6,0.5c-1.5,0-2.8-0.2-4-0.6c-1.2-0.4-2.1-0.9-2.9-1.6c-0.8-0.7-1.4-1.4-1.8-2.3
			c-0.4-0.9-0.6-1.8-0.6-2.7h3.7c0.1,0.8,0.3,1.4,0.6,1.9c0.4,0.5,0.8,1,1.3,1.3c0.5,0.3,1.1,0.6,1.8,0.7c0.6,0.1,1.3,0.2,1.9,0.2
			c1.6,0,2.8-0.3,3.7-0.9C333.3,77.2,333.8,76.4,333.8,75.4z"/>
		<path class="st0" d="M349.4,54.1v5.3h8.3v2.9h-8.3v11.9c0,0.9,0.1,1.6,0.3,2.1c0.2,0.6,0.5,1,0.9,1.3c0.4,0.3,0.8,0.6,1.3,0.7
			c0.5,0.1,1,0.2,1.6,0.2c0.4,0,0.8,0,1.3-0.1c0.4,0,0.9-0.1,1.3-0.2c0.4-0.1,0.8-0.1,1.2-0.2c0.4-0.1,0.6-0.1,0.9-0.2l0.5,2.7
			c-0.3,0.2-0.7,0.4-1.1,0.5c-0.4,0.1-0.9,0.3-1.5,0.4c-0.5,0.1-1.1,0.2-1.7,0.2c-0.6,0.1-1.2,0.1-1.8,0.1c-1,0-1.9-0.1-2.7-0.4
			c-0.8-0.3-1.6-0.7-2.2-1.3c-0.6-0.6-1.1-1.4-1.5-2.3c-0.4-1-0.5-2.1-0.5-3.5V62.2h-5.7v-2.9h5.7v-5.3H349.4z"/>
	</g>
</g>
<path class="st0" d="M135,67.5L67.5,0L52.1,15.4L43.7,7l-4,4l8.4,8.4L35.7,31.8l-8.4-8.4l-4,4l8.4,8.4L19.4,48.1L11,39.7l-4,4
	l8.4,8.3L0,67.5L67.5,135l15.4-15.4l8.2,8.2l4-4l-8.2-8.2l12.3-12.3l8.3,8.2l4-4l-8.2-8.2l12.2-12.2l8.3,8.1l3.9-4.1l-8.3-8.1
	L135,67.5z M67.5,8l11.6,11.6L67.7,31L56.1,19.4L67.5,8z M52.1,23.4L67.7,39l15.4-15.4L127,67.5l-11.6,11.6l-15.1-14.7H89.6V44.7
	h-5.7v19.8H51.5V44.7h-5.7v19.8H36L23.5,52.1L52.1,23.4z M67.5,127l-11.1-11.1l11.4-11.5l11.2,11.2L67.5,127z M82.9,111.7L67.7,96.4
	l-15.4,15.5L8,67.5l11.5-11.5l14.2,14.1h12.1v19.8h5.7V70.1h32.5v19.8h5.7V70.1H98l13.4,13L82.9,111.7z"/>
</svg>
