<svg enable-background="new 0 0 193.1 89.6" viewBox="0 0 193.1 89.6" xmlns="http://www.w3.org/2000/svg" xmlns:xlink="http://www.w3.org/1999/xlink"><clipPath id="a"><path d="m41.7 22.3h-5.5c-3 0-5.5 2.5-5.5 5.5s2.5 5.5 5.5 5.5h5.5c3 0 5.5-2.5 5.5-5.5s-2.5-5.5-5.5-5.5"/></clipPath><clipPath id="b"><path d="m47.5 5.5c0-3-2.5-5.5-5.5-5.5h-21.5c-3 0-5.5 2.5-5.5 5.5v16.8h-9.5c-3 0-5.5 2.5-5.5 5.5s2.5 5.5 5.5 5.5h9.5v16.9c0 3 2.5 5.5 5.5 5.5s5.5-2.5 5.5-5.5v-39.2h16c3 0 5.5-2.5 5.5-5.5"/></clipPath><clipPath id="c"><path d="m55.4 35.5v25.6h-5.5v-1.7c-1.2 1.4-3 2.2-5.4 2.2-4.8 0-8.7-4.2-8.7-9.7 0-5.4 4-9.6 8.7-9.6 2.4 0 4.2.8 5.4 2.2v-9zm-5.5 16.5c0-2.7-1.8-4.5-4.3-4.5s-4.3 1.7-4.3 4.5c0 2.7 1.8 4.5 4.3 4.5s4.3-1.8 4.3-4.5zm27.1-9.1v18.3h-5.5v-1.7c-1.2 1.4-3 2.2-5.4 2.2-4.8 0-8.7-4.2-8.7-9.7 0-5.4 4-9.6 8.7-9.6 2.4 0 4.2.8 5.4 2.2v-1.7zm-5.5 9.1c0-2.7-1.8-4.5-4.3-4.5s-4.3 1.7-4.3 4.5c0 2.7 1.8 4.5 4.3 4.5 2.4 0 4.3-1.8 4.3-4.5zm27-16.5v25.6h-5.5v-1.7c-1.2 1.4-3 2.2-5.4 2.2-4.8 0-8.7-4.2-8.7-9.7 0-5.4 4-9.6 8.7-9.6 2.4 0 4.2.8 5.4 2.2v-9zm-5.5 16.5c0-2.7-1.8-4.5-4.3-4.5s-4.3 1.7-4.3 4.5c0 2.7 1.8 4.5 4.3 4.5s4.3-1.8 4.3-4.5zm8.1-14c0-1.8 1.5-3.3 3.3-3.3s3.3 1.5 3.3 3.3-1.5 3.3-3.3 3.3c-1.8-.1-3.3-1.5-3.3-3.3zm.6 23.1h5.5v-18.2h-5.5z"/></clipPath><clipPath id="d"><path d="m22.6 71h3.4v5.2h-3.4v12.9h-5.4v-12.9h-2.4v-5.2h2.4c0-5.1 2.8-8.1 8.8-7.8v5.2c-2.1-.1-3.4.5-3.4 2.6"/></clipPath><clipPath id="e"><path d="m26.9 80c0-5.4 4.2-9.6 9.6-9.6 5.3 0 9.6 4.2 9.6 9.6s-4.2 9.6-9.6 9.6c-5.3 0-9.6-4.2-9.6-9.6zm13.8 0c0-2.6-1.8-4.2-4.2-4.2s-4.2 1.7-4.2 4.2 1.8 4.2 4.2 4.2c2.4.1 4.2-1.6 4.2-4.2z"/></clipPath><clipPath id="f"><path d="m65.4 71v18.1h-5.4v-1.7c-1 1.3-2.8 2.2-5.2 2.2-3.6 0-6.7-2.6-6.7-7.5v-11.1h5.4v10.3c0 2.3 1.4 3.3 3.1 3.3 2 0 3.4-1.2 3.4-3.7v-9.9z"/></clipPath><clipPath id="g"><path d="m85.3 78v11h-5.4v-10.2c0-2.3-1.4-3.3-3.1-3.3-2 0-3.4 1.2-3.4 3.7v9.9h-5.4v-18.1h5.4v1.7c1-1.3 2.8-2.2 5.2-2.2 3.6 0 6.7 2.6 6.7 7.5z"/></clipPath><clipPath id="h"><path d="m107.1 63.8v25.2h-5.4v-1.7c-1.2 1.4-3 2.2-5.4 2.2-4.8 0-8.6-4.2-8.6-9.6s3.9-9.6 8.6-9.6c2.4 0 4.2.8 5.4 2.2v-8.9h5.4zm-5.4 16.2c0-2.7-1.8-4.4-4.3-4.4s-4.3 1.7-4.3 4.4 1.8 4.4 4.3 4.4c2.5.1 4.3-1.6 4.3-4.4z"/></clipPath><clipPath id="i"><path d="m128.7 71v18.1h-5.4v-1.7c-1.2 1.4-3 2.2-5.4 2.2-4.8 0-8.6-4.2-8.6-9.6s3.9-9.6 8.6-9.6c2.4 0 4.2.8 5.4 2.2v-1.6zm-5.4 9c0-2.7-1.8-4.4-4.3-4.4s-4.3 1.7-4.3 4.4 1.8 4.4 4.3 4.4c2.5.1 4.3-1.6 4.3-4.4z"/></clipPath><clipPath id="j"><path d="m139.6 76.2v6.4c0 1.6 1.3 1.7 3.7 1.6v4.9c-7.1.7-9.1-1.4-9.1-6.5v-6.5h-2.9v-5.1h2.9v-3.4l5.4-1.6v5h3.7v5.2z"/></clipPath><clipPath id="k"><path d="m146.3 66.2c0-1.8 1.5-3.3 3.2-3.3s3.3 1.5 3.3 3.3-1.5 3.3-3.3 3.3c-1.7-.1-3.2-1.6-3.2-3.3zm.6 22.9h5.4v-18.1h-5.4z"/></clipPath><clipPath id="l"><path d="m154.4 80c0-5.4 4.2-9.6 9.6-9.6 5.3 0 9.6 4.2 9.6 9.6s-4.2 9.6-9.6 9.6c-5.3 0-9.6-4.2-9.6-9.6m13.7 0c0-2.6-1.8-4.2-4.2-4.2s-4.2 1.7-4.2 4.2 1.8 4.2 4.2 4.2c2.4.1 4.2-1.6 4.2-4.2"/></clipPath><clipPath id="m"><path d="m193.1 78v11h-5.4v-10.2c0-2.3-1.4-3.3-3.1-3.3-2 0-3.4 1.2-3.4 3.7v9.9h-5.4v-18.1h5.4v1.7c1-1.3 2.8-2.2 5.2-2.2 3.6 0 6.7 2.6 6.7 7.5"/></clipPath><path clip-path="url(#a)" d="m25.7 17.3h26.5v21h-26.5z" fill="#f44b00"/><path clip-path="url(#b)" d="m-5-5h57.5v65.7h-57.5z" fill="#f44b00"/><g fill="#04111d"><path clip-path="url(#c)" d="m30.7 29.7h81.9v37h-81.9z"/><path clip-path="url(#d)" d="m9.7 58.2h21.2v35.9h-21.2z"/><path clip-path="url(#e)" d="m21.9 65.5h29.2v29.1h-29.2z"/><path clip-path="url(#f)" d="m43 66h27.4v28.6h-27.4z"/><path clip-path="url(#g)" d="m62.9 65.5h27.4v28.7h-27.4z"/><path clip-path="url(#h)" d="m82.6 58.8h29.5v35.8h-29.5z"/><path clip-path="url(#i)" d="m104.2 65.5h29.5v29.1h-29.5z"/><path clip-path="url(#j)" d="m126.3 61h22.1v33.3h-22.1z"/><path clip-path="url(#k)" d="m141.3 57.9h16.5v36.2h-16.5z"/><path clip-path="url(#l)" d="m149.4 65.5h29.2v29.1h-29.2z"/><path clip-path="url(#m)" d="m170.7 65.5h27.4v28.7h-27.4z"/></g></svg>