<?xml version="1.0" encoding="utf-8"?>
<!-- Generator: Adobe Illustrator 22.0.1, SVG Export Plug-In . SVG Version: 6.00 Build 0)  -->
<svg version="1.1" id="Layer_1" xmlns="http://www.w3.org/2000/svg" xmlns:xlink="http://www.w3.org/1999/xlink" x="0px" y="0px"
	 viewBox="0 0 750.6 484" style="enable-background:new 0 0 750.6 484;" xml:space="preserve">
<style type="text/css">
	.st0{fill:none;stroke:#231F20;stroke-width:2;stroke-linejoin:round;}
	.st1{fill:#FFFFFF;}
	.st2{enable-background:new    ;}
	.st3{fill:none;stroke:#757575;stroke-width:2;stroke-miterlimit:10;}
	.st4{fill:none;stroke:#757575;stroke-width:2;stroke-miterlimit:10;stroke-dasharray:5;}
	.st5{fill:#757575;}

  .st4 {
    animation: dash 30s linear;
    animation-direction: reverse;
    animation-iteration-count: infinite;
    stroke-dasharray: 5;
  }

  @keyframes dash {
    to {
      stroke-dashoffset: 1000;
    }
  }
</style>
<title>explainer-part1</title>
<g id="Layer_2_1_">
	<rect x="168.6" y="295.3" class="st0" width="62.8" height="8"/>
	<polygon class="st0" points="231.4,307.8 231.4,303.3 168.6,303.3 168.6,357.9 231.4,357.9 231.4,355 	"/>
	<line class="st0" x1="172.4" y1="299.3" x2="176.8" y2="299.3"/>
	<line class="st0" x1="179" y1="299.3" x2="183" y2="299.3"/>
	<line class="st0" x1="200" y1="313" x2="226.4" y2="313"/>
	<line class="st0" x1="196.2" y1="317.6" x2="226.4" y2="317.6"/>
	<line class="st0" x1="196.2" y1="322" x2="226.4" y2="322"/>
	<line class="st0" x1="196.2" y1="326.4" x2="226.4" y2="326.4"/>
	<line class="st0" x1="196.2" y1="330.6" x2="226.4" y2="330.6"/>
	<line class="st0" x1="196.2" y1="334.9" x2="226.4" y2="334.9"/>
	<line class="st0" x1="173" y1="349.3" x2="180.4" y2="349.3"/>
	<line class="st0" x1="182.7" y1="349.3" x2="190.1" y2="349.3"/>
	<line class="st0" x1="219.1" y1="349.3" x2="226.4" y2="349.3"/>
	<polygon class="st0" points="173.3,314.3 173.3,338.5 183,326.4 	"/>
	<polygon class="st0" points="192.7,314.3 173.3,314.3 183,326.4 	"/>
	<polygon class="st0" points="173.3,338.5 192.7,338.5 183,326.4 	"/>
	<polygon class="st0" points="183,326.4 192.7,338.5 192.7,314.3 	"/>
	<path class="st0" d="M502.7,289.8c-8.1,0-14.7,6.6-14.7,14.7c0,4.9,2.4,9.4,6.4,12.1c0.3-2.1,1.8-3.9,3.8-4.6
		c-3.3-2.5-3.9-7.1-1.4-10.4c2.5-3.3,7.1-3.9,10.4-1.4c3.3,2.5,3.9,7.1,1.4,10.4c-0.4,0.5-0.9,1-1.4,1.4c2,0.7,3.5,2.5,3.8,4.6
		c6.7-4.6,8.4-13.7,3.9-20.4C512.1,292.2,507.5,289.8,502.7,289.8L502.7,289.8z"/>
	<path class="st0" d="M507.2,312c3.3-2.5,3.9-7.1,1.4-10.4s-7.1-3.9-10.4-1.4s-3.9,7.1-1.4,10.4c0.4,0.5,0.9,1,1.4,1.4
		c-2,0.7-3.4,2.5-3.8,4.6c5,3.4,11.6,3.4,16.5,0C510.6,314.5,509.2,312.7,507.2,312z"/>
	<line class="st0" x1="502.3" y1="319" x2="502.3" y2="333"/>
	<path class="st0" d="M535.2,315.8c-8.1,0-14.7,6.6-14.7,14.7c0,4.9,2.4,9.4,6.4,12.1c0.3-2.1,1.8-3.9,3.8-4.6
		c-3.3-2.5-3.9-7.1-1.4-10.4c2.5-3.3,7.1-3.9,10.4-1.4c3.3,2.5,3.9,7.1,1.4,10.4c-0.4,0.5-0.9,1-1.4,1.4c2,0.7,3.5,2.5,3.8,4.6
		c6.7-4.6,8.4-13.7,3.9-20.4C544.6,318.2,540,315.8,535.2,315.8L535.2,315.8z"/>
	<path class="st0" d="M539.7,338c3.3-2.5,3.9-7.1,1.4-10.4c-2.5-3.3-7.1-3.9-10.4-1.4s-3.9,7.1-1.4,10.4c0.4,0.5,0.9,1,1.4,1.4
		c-2,0.7-3.4,2.5-3.8,4.6c5,3.4,11.6,3.4,16.5,0C543.1,340.5,541.7,338.7,539.7,338z"/>
	<line class="st0" x1="534.8" y1="345" x2="534.8" y2="359"/>
	<path class="st0" d="M567.7,289.8c-8.1,0-14.7,6.6-14.7,14.7c0,4.9,2.4,9.4,6.4,12.1c0.3-2.1,1.8-3.9,3.8-4.6
		c-3.3-2.5-3.9-7.1-1.4-10.4c2.5-3.3,7.1-3.9,10.4-1.4c3.3,2.5,3.9,7.1,1.4,10.4c-0.4,0.5-0.9,1-1.4,1.4c2,0.7,3.5,2.5,3.8,4.6
		c6.7-4.6,8.4-13.7,3.9-20.4C577.1,292.2,572.5,289.8,567.7,289.8L567.7,289.8z"/>
	<path class="st0" d="M572.2,312c3.3-2.5,3.9-7.1,1.4-10.4c-2.5-3.3-7.1-3.9-10.4-1.4s-3.9,7.1-1.4,10.4c0.4,0.5,0.9,1,1.4,1.4
		c-2,0.7-3.4,2.5-3.8,4.6c5,3.4,11.6,3.4,16.5,0C575.6,314.5,574.2,312.7,572.2,312z"/>
	<line class="st0" x1="567.3" y1="319" x2="567.3" y2="333"/>
	<rect x="322.3" y="113.1" class="st0" width="17.9" height="55.9"/>
	<rect x="340.1" y="117.1" class="st0" width="27.2" height="57.9"/>
	<rect x="319.4" y="107.4" class="st0" width="23.6" height="5.8"/>
	<line class="st0" x1="331.2" y1="102.5" x2="331.2" y2="107.4"/>
	<line class="st0" x1="325.6" y1="116.6" x2="330.2" y2="116.6"/>
	<line class="st0" x1="332.3" y1="116.6" x2="336.9" y2="116.6"/>
	<line class="st0" x1="325.6" y1="120.8" x2="330.2" y2="120.8"/>
	<line class="st0" x1="332.3" y1="120.8" x2="336.9" y2="120.8"/>
	<line class="st0" x1="344.7" y1="120.7" x2="349.3" y2="120.7"/>
	<line class="st0" x1="351.3" y1="120.7" x2="356" y2="120.7"/>
	<line class="st0" x1="344.7" y1="125" x2="349.3" y2="125"/>
	<line class="st0" x1="351.3" y1="125" x2="356" y2="125"/>
	<line class="st0" x1="358.3" y1="120.7" x2="362.9" y2="120.7"/>
	<line class="st0" x1="358.3" y1="125" x2="362.9" y2="125"/>
	<line class="st0" x1="344.7" y1="120.7" x2="349.3" y2="120.7"/>
	<line class="st0" x1="351.3" y1="120.7" x2="356" y2="120.7"/>
	<line class="st0" x1="344.7" y1="125" x2="349.3" y2="125"/>
	<line class="st0" x1="351.3" y1="125" x2="356" y2="125"/>
	<line class="st0" x1="358.3" y1="120.7" x2="362.9" y2="120.7"/>
	<line class="st0" x1="358.3" y1="125" x2="362.9" y2="125"/>
	<line class="st0" x1="344.7" y1="129.7" x2="349.3" y2="129.7"/>
	<line class="st0" x1="351.3" y1="129.7" x2="356" y2="129.7"/>
	<line class="st0" x1="344.7" y1="134" x2="349.3" y2="134"/>
	<line class="st0" x1="351.3" y1="134" x2="356" y2="134"/>
	<line class="st0" x1="358.3" y1="129.7" x2="362.9" y2="129.7"/>
	<line class="st0" x1="358.3" y1="134" x2="362.9" y2="134"/>
	<line class="st0" x1="344.7" y1="137.7" x2="349.3" y2="137.7"/>
	<line class="st0" x1="351.3" y1="137.7" x2="356" y2="137.7"/>
	<line class="st0" x1="344.7" y1="142" x2="349.3" y2="142"/>
	<line class="st0" x1="351.3" y1="142" x2="356" y2="142"/>
	<line class="st0" x1="358.3" y1="137.7" x2="362.9" y2="137.7"/>
	<line class="st0" x1="358.3" y1="142" x2="362.9" y2="142"/>
	<line class="st0" x1="344.7" y1="146.7" x2="349.3" y2="146.7"/>
	<line class="st0" x1="351.3" y1="146.7" x2="356" y2="146.7"/>
	<line class="st0" x1="344.7" y1="151" x2="349.3" y2="151"/>
	<line class="st0" x1="351.3" y1="151" x2="356" y2="151"/>
	<line class="st0" x1="358.3" y1="146.7" x2="362.9" y2="146.7"/>
	<line class="st0" x1="358.3" y1="151" x2="362.9" y2="151"/>
	<line class="st0" x1="344.7" y1="154.7" x2="349.3" y2="154.7"/>
	<line class="st0" x1="351.3" y1="154.7" x2="356" y2="154.7"/>
	<line class="st0" x1="344.7" y1="159" x2="349.3" y2="159"/>
	<line class="st0" x1="351.3" y1="159" x2="356" y2="159"/>
	<line class="st0" x1="358.3" y1="154.7" x2="362.9" y2="154.7"/>
	<line class="st0" x1="358.3" y1="159" x2="362.9" y2="159"/>
	<line class="st0" x1="344.7" y1="162.7" x2="349.3" y2="162.7"/>
	<line class="st0" x1="351.3" y1="162.7" x2="356" y2="162.7"/>
	<line class="st0" x1="344.7" y1="167" x2="349.3" y2="167"/>
	<line class="st0" x1="351.3" y1="167" x2="356" y2="167"/>
	<line class="st0" x1="358.3" y1="162.7" x2="362.9" y2="162.7"/>
	<line class="st0" x1="358.3" y1="167" x2="362.9" y2="167"/>
	<line class="st0" x1="344.7" y1="170.7" x2="349.3" y2="170.7"/>
	<line class="st0" x1="351.3" y1="170.7" x2="356" y2="170.7"/>
	<line class="st0" x1="344.7" y1="175" x2="349.3" y2="175"/>
	<line class="st0" x1="351.3" y1="175" x2="356" y2="175"/>
	<line class="st0" x1="358.3" y1="170.7" x2="362.9" y2="170.7"/>
	<line class="st0" x1="358.3" y1="175" x2="362.9" y2="175"/>
	<line class="st0" x1="325.5" y1="125.1" x2="330.1" y2="125.1"/>
	<line class="st0" x1="332.2" y1="125.1" x2="336.8" y2="125.1"/>
	<line class="st0" x1="325.6" y1="129.6" x2="330.2" y2="129.6"/>
	<line class="st0" x1="332.3" y1="129.6" x2="336.9" y2="129.6"/>
	<line class="st0" x1="325.6" y1="133.9" x2="330.2" y2="133.9"/>
	<line class="st0" x1="332.3" y1="133.9" x2="336.9" y2="133.9"/>
	<line class="st0" x1="325.5" y1="138.1" x2="330.1" y2="138.1"/>
	<line class="st0" x1="332.2" y1="138.1" x2="336.8" y2="138.1"/>
	<line class="st0" x1="325.6" y1="142.6" x2="330.2" y2="142.6"/>
	<line class="st0" x1="332.3" y1="142.6" x2="336.9" y2="142.6"/>
	<line class="st0" x1="325.6" y1="146.9" x2="330.2" y2="146.9"/>
	<line class="st0" x1="332.3" y1="146.9" x2="336.9" y2="146.9"/>
	<line class="st0" x1="325.5" y1="151.1" x2="330.1" y2="151.1"/>
	<line class="st0" x1="332.2" y1="151.1" x2="336.8" y2="151.1"/>
	<line class="st0" x1="325.6" y1="155.6" x2="330.2" y2="155.6"/>
	<line class="st0" x1="332.3" y1="155.6" x2="336.9" y2="155.6"/>
	<line class="st0" x1="325.6" y1="159.9" x2="330.2" y2="159.9"/>
	<line class="st0" x1="332.3" y1="159.9" x2="336.9" y2="159.9"/>
	<line class="st0" x1="325.5" y1="164.1" x2="330.1" y2="164.1"/>
	<line class="st0" x1="332.2" y1="164.1" x2="336.8" y2="164.1"/>
	<path class="st1" d="M330.3,165c4-12,11-22,22-23s17,2,24,8s14-7,14-7l21,33l-81,5V165z"/>
	<path class="st0" d="M400.3,185.3h23.8c3.4-5.9,1.4-13.4-4.5-16.8c-1.9-1.1-4-1.7-6.2-1.6h-0.3c4.5-11.7-1.4-24.7-13-29.2
		c-11.4-4.4-24.3,1.1-29,12.4c-10.2-7.6-24.5-5.4-32.1,4.7c-7,9.4-5.8,22.5,2.8,30.5h5"/>
	<path class="st0" d="M350,154.1c-6.1,3.8-9.3,11-8,18.1"/>
	<path class="st1" d="M391.3,130c-1,3-2,10,0,13s15,15,18,17s9-1,13,0s-5-19-5-19L391.3,130z"/>
	<g class="st2">
		<path d="M175,376.7c-0.1,0.5-0.2,1-0.4,1.4s-0.5,0.8-0.8,1.1c-0.3,0.3-0.7,0.6-1.2,0.7s-0.9,0.3-1.5,0.3c-0.5,0-0.9-0.1-1.3-0.2
			s-0.7-0.3-1-0.6c-0.3-0.2-0.6-0.5-0.8-0.8c-0.2-0.3-0.4-0.7-0.5-1c-0.1-0.4-0.2-0.8-0.3-1.2s-0.1-0.8-0.1-1.2v-1.6
			c0-0.4,0-0.8,0.1-1.2s0.2-0.8,0.3-1.2c0.1-0.4,0.3-0.7,0.5-1c0.2-0.3,0.5-0.6,0.8-0.8c0.3-0.2,0.6-0.4,1-0.6
			c0.4-0.1,0.8-0.2,1.3-0.2c0.6,0,1.1,0.1,1.5,0.3c0.4,0.2,0.8,0.4,1.2,0.7c0.3,0.3,0.6,0.7,0.8,1.2s0.3,0.9,0.4,1.5h-1.4
			c0-0.3-0.1-0.7-0.2-1c-0.1-0.3-0.3-0.6-0.5-0.8c-0.2-0.2-0.4-0.4-0.7-0.5c-0.3-0.1-0.6-0.2-1-0.2c-0.3,0-0.6,0.1-0.9,0.2
			c-0.3,0.1-0.5,0.3-0.7,0.5c-0.2,0.2-0.3,0.4-0.5,0.7c-0.1,0.3-0.2,0.5-0.3,0.8s-0.1,0.6-0.2,0.9c0,0.3-0.1,0.6-0.1,0.9v1.6
			c0,0.3,0,0.6,0.1,0.9c0,0.3,0.1,0.6,0.2,0.9s0.2,0.6,0.3,0.8s0.3,0.5,0.5,0.7c0.2,0.2,0.4,0.3,0.7,0.5c0.3,0.1,0.6,0.2,0.9,0.2
			c0.4,0,0.7-0.1,1-0.2c0.3-0.1,0.5-0.3,0.7-0.5c0.2-0.2,0.3-0.5,0.5-0.8c0.1-0.3,0.2-0.6,0.2-1H175z"/>
		<path d="M176.8,375.8c0-0.6,0.1-1.2,0.3-1.7c0.2-0.5,0.4-1,0.8-1.4c0.3-0.4,0.7-0.7,1.2-0.9c0.5-0.2,1-0.3,1.6-0.3
			c0.6,0,1.1,0.1,1.6,0.3s0.9,0.5,1.2,0.9c0.3,0.4,0.6,0.8,0.8,1.4c0.2,0.5,0.3,1.1,0.3,1.7v0.2c0,0.6-0.1,1.2-0.3,1.7
			c-0.2,0.5-0.4,1-0.8,1.4c-0.3,0.4-0.7,0.7-1.2,0.9c-0.5,0.2-1,0.3-1.6,0.3c-0.6,0-1.1-0.1-1.6-0.3s-0.9-0.5-1.2-0.9
			c-0.3-0.4-0.6-0.8-0.8-1.4c-0.2-0.5-0.3-1.1-0.3-1.7V375.8z M178.3,375.9c0,0.4,0,0.8,0.1,1.2c0.1,0.4,0.2,0.7,0.4,1
			c0.2,0.3,0.5,0.5,0.8,0.7c0.3,0.2,0.7,0.2,1.1,0.2c0.4,0,0.7-0.1,1-0.2c0.3-0.2,0.5-0.4,0.8-0.7c0.2-0.3,0.4-0.6,0.4-1
			c0.1-0.4,0.1-0.8,0.1-1.2v-0.2c0-0.4-0.1-0.8-0.2-1.2s-0.3-0.7-0.5-1c-0.2-0.3-0.5-0.5-0.8-0.7c-0.3-0.2-0.6-0.3-1.1-0.3
			c-0.4,0-0.8,0.1-1,0.3s-0.5,0.4-0.7,0.7c-0.2,0.3-0.4,0.6-0.4,1c-0.1,0.4-0.1,0.8-0.1,1.2V375.9z"/>
		<path d="M188.1,371.6l0.1,1.2c0.3-0.4,0.7-0.8,1.1-1c0.4-0.2,0.9-0.4,1.5-0.4c0.4,0,0.8,0.1,1.2,0.2c0.4,0.1,0.7,0.3,0.9,0.6
			c0.3,0.3,0.5,0.6,0.6,1c0.1,0.4,0.2,0.9,0.2,1.5v5.4h-1.4v-5.3c0-0.4,0-0.7-0.1-1c-0.1-0.3-0.2-0.5-0.4-0.6s-0.4-0.3-0.6-0.4
			c-0.2-0.1-0.5-0.1-0.8-0.1c-0.5,0-0.9,0.1-1.3,0.4s-0.7,0.6-0.9,1v6.1h-1.4v-8.5H188.1z"/>
		<path d="M199.9,369.6v2h3.2v1.1h-3.2v4.6c0,0.3,0,0.6,0.1,0.8c0.1,0.2,0.2,0.4,0.3,0.5c0.1,0.1,0.3,0.2,0.5,0.3
			c0.2,0.1,0.4,0.1,0.6,0.1c0.2,0,0.3,0,0.5,0c0.2,0,0.3,0,0.5-0.1c0.2,0,0.3-0.1,0.4-0.1c0.1,0,0.3-0.1,0.3-0.1l0.2,1
			c-0.1,0.1-0.3,0.1-0.4,0.2s-0.4,0.1-0.6,0.1s-0.4,0.1-0.6,0.1s-0.5,0-0.7,0c-0.4,0-0.7-0.1-1.1-0.2c-0.3-0.1-0.6-0.3-0.8-0.5
			c-0.2-0.2-0.4-0.5-0.6-0.9c-0.1-0.4-0.2-0.8-0.2-1.3v-4.6h-2.2v-1.1h2.2v-2H199.9z"/>
		<path d="M209.8,380.2c-0.6,0-1.1-0.1-1.6-0.3c-0.5-0.2-0.9-0.5-1.3-0.9c-0.4-0.4-0.6-0.8-0.8-1.3c-0.2-0.5-0.3-1-0.3-1.6v-0.3
			c0-0.7,0.1-1.3,0.3-1.8s0.5-1,0.9-1.4c0.4-0.4,0.8-0.7,1.2-0.9s0.9-0.3,1.4-0.3c0.6,0,1.1,0.1,1.6,0.3c0.5,0.2,0.8,0.5,1.1,0.9
			c0.3,0.4,0.5,0.8,0.7,1.3s0.2,1.1,0.2,1.6v0.6h-6c0,0.4,0.1,0.7,0.2,1.1s0.3,0.6,0.5,0.9c0.2,0.3,0.5,0.5,0.8,0.6
			c0.3,0.1,0.7,0.2,1.1,0.2c0.5,0,1-0.1,1.4-0.3c0.4-0.2,0.7-0.5,1-0.8l0.9,0.7c-0.1,0.2-0.3,0.4-0.5,0.6s-0.5,0.4-0.7,0.5
			c-0.3,0.2-0.6,0.3-0.9,0.4C210.6,380.2,210.2,380.2,209.8,380.2z M209.6,372.7c-0.3,0-0.6,0.1-0.8,0.2c-0.3,0.1-0.5,0.3-0.7,0.5
			c-0.2,0.2-0.4,0.5-0.5,0.8c-0.1,0.3-0.2,0.6-0.3,1h4.5V375c0-0.3-0.1-0.6-0.2-0.8c-0.1-0.3-0.2-0.5-0.4-0.7
			c-0.2-0.2-0.4-0.4-0.7-0.5C210.3,372.7,210,372.7,209.6,372.7z"/>
		<path d="M216.9,371.6l0.1,1.2c0.3-0.4,0.7-0.8,1.1-1c0.4-0.2,0.9-0.4,1.5-0.4c0.4,0,0.8,0.1,1.2,0.2c0.4,0.1,0.7,0.3,0.9,0.6
			c0.3,0.3,0.5,0.6,0.6,1c0.1,0.4,0.2,0.9,0.2,1.5v5.4h-1.4v-5.3c0-0.4,0-0.7-0.1-1c-0.1-0.3-0.2-0.5-0.4-0.6s-0.4-0.3-0.6-0.4
			c-0.2-0.1-0.5-0.1-0.8-0.1c-0.5,0-0.9,0.1-1.3,0.4s-0.7,0.6-0.9,1v6.1h-1.4v-8.5H216.9z"/>
		<path d="M228.7,369.6v2h3.2v1.1h-3.2v4.6c0,0.3,0,0.6,0.1,0.8s0.2,0.4,0.3,0.5s0.3,0.2,0.5,0.3s0.4,0.1,0.6,0.1c0.2,0,0.3,0,0.5,0
			s0.3,0,0.5-0.1s0.3-0.1,0.4-0.1s0.3-0.1,0.3-0.1l0.2,1c-0.1,0.1-0.3,0.1-0.4,0.2s-0.4,0.1-0.6,0.1s-0.4,0.1-0.6,0.1s-0.5,0-0.7,0
			c-0.4,0-0.7-0.1-1.1-0.2s-0.6-0.3-0.8-0.5s-0.4-0.5-0.6-0.9s-0.2-0.8-0.2-1.3v-4.6H225v-1.1h2.2v-2H228.7z"/>
	</g>
	<g class="st2">
		<path d="M299.2,213.1v-11.4h3.4c0.5,0,0.9,0.1,1.4,0.2c0.4,0.1,0.8,0.3,1.2,0.5c0.3,0.2,0.6,0.6,0.8,0.9c0.2,0.4,0.3,0.8,0.3,1.4
			c0,0.3-0.1,0.6-0.1,0.8c-0.1,0.2-0.2,0.5-0.4,0.7c-0.2,0.2-0.3,0.4-0.6,0.5c-0.2,0.1-0.4,0.3-0.7,0.4c0.3,0.1,0.6,0.2,0.8,0.4
			c0.3,0.2,0.5,0.4,0.7,0.6c0.2,0.2,0.3,0.5,0.4,0.8s0.2,0.6,0.2,0.9c0,0.5-0.1,1-0.3,1.4c-0.2,0.4-0.5,0.7-0.8,1
			c-0.3,0.3-0.8,0.5-1.2,0.6c-0.5,0.1-0.9,0.2-1.4,0.2H299.2z M300.7,206.6h2c0.3,0,0.5,0,0.8-0.1c0.3-0.1,0.5-0.2,0.7-0.4
			s0.4-0.3,0.5-0.6s0.2-0.5,0.2-0.8c0-0.3-0.1-0.6-0.2-0.8c-0.1-0.2-0.3-0.4-0.5-0.6c-0.2-0.1-0.4-0.2-0.7-0.3
			c-0.3-0.1-0.5-0.1-0.8-0.1h-2V206.6z M300.7,207.8v4.1h2.2c0.3,0,0.6-0.1,0.9-0.2c0.3-0.1,0.5-0.2,0.7-0.4
			c0.2-0.2,0.4-0.4,0.5-0.6c0.1-0.2,0.2-0.5,0.2-0.9c0-0.3,0-0.6-0.2-0.9c-0.1-0.2-0.3-0.5-0.5-0.6c-0.2-0.2-0.4-0.3-0.7-0.4
			s-0.6-0.1-0.9-0.2H300.7z"/>
		<path d="M309.1,204.6h4.3v7.2h2.8v1.2h-7.1v-1.2h2.9v-5.9h-2.9V204.6z M311.8,202.4c0-0.2,0.1-0.4,0.2-0.6
			c0.1-0.2,0.4-0.2,0.7-0.2c0.3,0,0.5,0.1,0.6,0.2c0.1,0.2,0.2,0.4,0.2,0.6c0,0.2-0.1,0.4-0.2,0.6c-0.1,0.2-0.4,0.2-0.6,0.2
			c-0.3,0-0.5-0.1-0.7-0.2C311.8,202.8,311.8,202.6,311.8,202.4z"/>
		<path d="M318.2,208.8c0-0.6,0.1-1.2,0.2-1.7c0.2-0.5,0.4-1,0.7-1.4c0.3-0.4,0.6-0.7,1.1-0.9c0.4-0.2,0.9-0.3,1.4-0.3
			c0.5,0,1,0.1,1.4,0.3c0.4,0.2,0.7,0.5,1,0.8l0.1-0.9h1.3v8.3c0,0.6-0.1,1.1-0.3,1.5c-0.2,0.4-0.4,0.8-0.7,1.1
			c-0.3,0.3-0.7,0.5-1.1,0.7s-0.9,0.2-1.5,0.2c-0.2,0-0.5,0-0.8-0.1s-0.6-0.1-0.9-0.2s-0.6-0.3-0.8-0.4c-0.3-0.2-0.5-0.4-0.7-0.7
			l0.8-0.9c0.2,0.2,0.4,0.4,0.5,0.5s0.4,0.3,0.6,0.4c0.2,0.1,0.4,0.2,0.6,0.2c0.2,0,0.4,0.1,0.6,0.1c0.3,0,0.7,0,0.9-0.1
			c0.3-0.1,0.5-0.2,0.7-0.4s0.3-0.4,0.4-0.7c0.1-0.3,0.2-0.6,0.2-1v-0.7c-0.3,0.3-0.6,0.6-1,0.7s-0.8,0.3-1.3,0.3
			c-0.5,0-1-0.1-1.4-0.3c-0.4-0.2-0.8-0.5-1.1-0.9s-0.5-0.8-0.7-1.4s-0.2-1.1-0.2-1.7V208.8z M319.6,208.9c0,0.4,0,0.8,0.1,1.2
			s0.2,0.7,0.4,1c0.2,0.3,0.4,0.5,0.7,0.7c0.3,0.2,0.6,0.2,1,0.2c0.2,0,0.5,0,0.7-0.1c0.2-0.1,0.4-0.1,0.5-0.3
			c0.2-0.1,0.3-0.2,0.4-0.4s0.2-0.3,0.3-0.5v-3.9c-0.1-0.2-0.2-0.3-0.3-0.5s-0.3-0.3-0.4-0.4c-0.2-0.1-0.3-0.2-0.5-0.2
			c-0.2-0.1-0.4-0.1-0.7-0.1c-0.4,0-0.8,0.1-1,0.2s-0.5,0.4-0.7,0.7c-0.2,0.3-0.3,0.6-0.4,1s-0.1,0.8-0.1,1.2V208.9z"/>
		<path d="M341.3,212.1c0.3,0,0.5,0,0.8-0.1c0.2-0.1,0.5-0.2,0.7-0.3c0.2-0.1,0.3-0.3,0.5-0.5s0.2-0.4,0.2-0.7h1.4
			c0,0.4-0.1,0.7-0.3,1.1c-0.2,0.3-0.4,0.6-0.8,0.9c-0.3,0.3-0.7,0.5-1.1,0.6c-0.4,0.2-0.8,0.2-1.3,0.2c-0.6,0-1.2-0.1-1.7-0.3
			c-0.5-0.2-0.9-0.5-1.2-0.9s-0.6-0.8-0.7-1.3c-0.2-0.5-0.2-1-0.2-1.6v-0.3c0-0.6,0.1-1.1,0.2-1.6c0.2-0.5,0.4-1,0.7-1.3
			s0.7-0.7,1.2-0.9c0.5-0.2,1-0.3,1.7-0.3c0.5,0,1,0.1,1.4,0.2c0.4,0.2,0.8,0.4,1.1,0.6s0.5,0.6,0.7,1s0.3,0.8,0.3,1.2h-1.4
			c0-0.3-0.1-0.5-0.2-0.7c-0.1-0.2-0.3-0.4-0.4-0.6c-0.2-0.2-0.4-0.3-0.7-0.4c-0.3-0.1-0.5-0.1-0.8-0.1c-0.4,0-0.8,0.1-1.1,0.3
			s-0.6,0.4-0.7,0.7s-0.3,0.6-0.4,1c-0.1,0.4-0.1,0.7-0.1,1.1v0.3c0,0.4,0,0.7,0.1,1.1c0.1,0.4,0.2,0.7,0.4,1
			c0.2,0.3,0.4,0.5,0.7,0.7S340.8,212.1,341.3,212.1z"/>
		<path d="M346.9,208.8c0-0.6,0.1-1.2,0.3-1.7c0.2-0.5,0.4-1,0.8-1.4c0.3-0.4,0.7-0.7,1.2-0.9c0.5-0.2,1-0.3,1.6-0.3
			c0.6,0,1.1,0.1,1.6,0.3s0.9,0.5,1.2,0.9c0.3,0.4,0.6,0.8,0.8,1.4c0.2,0.5,0.3,1.1,0.3,1.7v0.2c0,0.6-0.1,1.2-0.3,1.7
			c-0.2,0.5-0.4,1-0.8,1.4c-0.3,0.4-0.7,0.7-1.2,0.9c-0.5,0.2-1,0.3-1.6,0.3c-0.6,0-1.1-0.1-1.6-0.3s-0.9-0.5-1.2-0.9
			c-0.3-0.4-0.6-0.8-0.8-1.4c-0.2-0.5-0.3-1.1-0.3-1.7V208.8z M348.3,208.9c0,0.4,0,0.8,0.1,1.2c0.1,0.4,0.2,0.7,0.4,1
			c0.2,0.3,0.5,0.5,0.8,0.7c0.3,0.2,0.7,0.2,1.1,0.2c0.4,0,0.7-0.1,1-0.2c0.3-0.2,0.5-0.4,0.8-0.7c0.2-0.3,0.4-0.6,0.4-1
			c0.1-0.4,0.1-0.8,0.1-1.2v-0.2c0-0.4-0.1-0.8-0.2-1.2s-0.3-0.7-0.5-1c-0.2-0.3-0.5-0.5-0.8-0.7c-0.3-0.2-0.6-0.3-1.1-0.3
			c-0.4,0-0.8,0.1-1,0.3s-0.5,0.4-0.7,0.7c-0.2,0.3-0.4,0.6-0.4,1c-0.1,0.4-0.1,0.8-0.1,1.2V208.9z"/>
		<path d="M362.4,204.5c0.1,0,0.3,0,0.4,0s0.3,0,0.4,0s0.3,0,0.4,0.1s0.2,0.1,0.3,0.1l-0.2,1.4c-0.3-0.1-0.5-0.1-0.8-0.1
			s-0.5,0-0.8,0c-0.7,0-1.2,0.2-1.6,0.5s-0.7,0.7-0.9,1.3v5.4h-1.5v-8.5h1.4l0.1,1.3c0.3-0.5,0.8-0.8,1.2-1.1
			S361.8,204.5,362.4,204.5z"/>
		<path d="M373.6,208.9c0,0.6-0.1,1.2-0.2,1.7s-0.4,1-0.6,1.4s-0.6,0.7-1,0.9s-0.9,0.3-1.4,0.3c-0.5,0-1-0.1-1.4-0.2s-0.7-0.4-1-0.7
			v4.1h-1.4v-11.7h1.3l0.1,0.9c0.3-0.3,0.6-0.6,1-0.8s0.9-0.3,1.4-0.3c0.5,0,1,0.1,1.4,0.3s0.8,0.5,1,0.9s0.5,0.8,0.6,1.4
			s0.2,1.1,0.2,1.7V208.9z M372.1,208.8c0-0.4,0-0.8-0.1-1.2s-0.2-0.7-0.4-1s-0.4-0.5-0.7-0.7s-0.6-0.2-1-0.2
			c-0.5,0-0.9,0.1-1.2,0.3s-0.6,0.5-0.8,0.8v4.1c0.2,0.3,0.4,0.6,0.8,0.8s0.7,0.3,1.2,0.3c0.4,0,0.7-0.1,1-0.3s0.5-0.4,0.7-0.7
			s0.3-0.6,0.4-1s0.1-0.8,0.1-1.2V208.8z"/>
		<path d="M375.7,208.8c0-0.6,0.1-1.2,0.3-1.7s0.4-1,0.8-1.4c0.3-0.4,0.7-0.7,1.2-0.9s1-0.3,1.6-0.3c0.6,0,1.1,0.1,1.6,0.3
			s0.9,0.5,1.2,0.9s0.6,0.8,0.8,1.4s0.3,1.1,0.3,1.7v0.2c0,0.6-0.1,1.2-0.3,1.7s-0.4,1-0.8,1.4s-0.7,0.7-1.2,0.9s-1,0.3-1.6,0.3
			c-0.6,0-1.1-0.1-1.6-0.3s-0.9-0.5-1.2-0.9c-0.3-0.4-0.6-0.8-0.8-1.4s-0.3-1.1-0.3-1.7V208.8z M377.1,208.9c0,0.4,0,0.8,0.1,1.2
			s0.2,0.7,0.4,1s0.5,0.5,0.8,0.7s0.7,0.2,1.1,0.2c0.4,0,0.7-0.1,1-0.2s0.5-0.4,0.8-0.7s0.4-0.6,0.4-1s0.1-0.8,0.1-1.2v-0.2
			c0-0.4-0.1-0.8-0.2-1.2s-0.3-0.7-0.5-1s-0.5-0.5-0.8-0.7s-0.6-0.3-1.1-0.3s-0.8,0.1-1,0.3s-0.5,0.4-0.7,0.7s-0.4,0.6-0.4,1
			s-0.1,0.8-0.1,1.2V208.9z"/>
		<path d="M391.2,204.5c0.1,0,0.3,0,0.4,0s0.3,0,0.4,0s0.3,0,0.4,0.1s0.2,0.1,0.3,0.1l-0.2,1.4c-0.3-0.1-0.5-0.1-0.8-0.1
			s-0.5,0-0.8,0c-0.7,0-1.2,0.2-1.6,0.5s-0.7,0.7-0.9,1.3v5.4h-1.5v-8.5h1.4l0.1,1.3c0.3-0.5,0.8-0.8,1.2-1.1
			S390.6,204.5,391.2,204.5z"/>
		<path d="M400.8,213.1c-0.1-0.1-0.1-0.2-0.1-0.4s-0.1-0.3-0.1-0.5c-0.1,0.1-0.3,0.3-0.5,0.4s-0.4,0.2-0.6,0.3s-0.4,0.2-0.7,0.2
			s-0.5,0.1-0.8,0.1c-0.4,0-0.9-0.1-1.2-0.2s-0.7-0.3-0.9-0.5s-0.4-0.5-0.6-0.8s-0.2-0.6-0.2-1c0-0.5,0.1-0.9,0.3-1.2
			s0.4-0.6,0.8-0.9s0.7-0.4,1.2-0.5s1-0.2,1.6-0.2h1.6v-0.7c0-0.3,0-0.5-0.1-0.7s-0.2-0.4-0.4-0.5s-0.4-0.3-0.6-0.3
			s-0.5-0.1-0.8-0.1c-0.3,0-0.5,0-0.8,0.1s-0.4,0.2-0.6,0.3s-0.3,0.3-0.4,0.4s-0.1,0.3-0.1,0.5h-1.5c0-0.3,0.1-0.6,0.2-0.9
			s0.4-0.6,0.7-0.8s0.6-0.4,1.1-0.6s0.9-0.2,1.4-0.2c0.5,0,0.9,0.1,1.3,0.2s0.8,0.3,1.1,0.5s0.5,0.5,0.7,0.9s0.3,0.8,0.3,1.2v3.9
			c0,0.3,0,0.6,0.1,0.9s0.1,0.6,0.2,0.8v0.1H400.8z M398.3,212c0.3,0,0.5,0,0.8-0.1s0.5-0.2,0.7-0.3s0.4-0.3,0.5-0.4
			s0.3-0.3,0.3-0.5V209h-1.3c-0.8,0-1.5,0.1-2,0.4s-0.7,0.6-0.7,1.2c0,0.2,0,0.4,0.1,0.6s0.2,0.3,0.3,0.5s0.3,0.2,0.5,0.3
			S398,212,398.3,212z"/>
		<path d="M408.3,202.6v2h3.2v1.1h-3.2v4.6c0,0.3,0,0.6,0.1,0.8s0.2,0.4,0.3,0.5s0.3,0.2,0.5,0.3s0.4,0.1,0.6,0.1c0.2,0,0.3,0,0.5,0
			s0.3,0,0.5-0.1s0.3-0.1,0.4-0.1s0.3-0.1,0.3-0.1l0.2,1c-0.1,0.1-0.3,0.1-0.4,0.2s-0.4,0.1-0.6,0.1s-0.4,0.1-0.6,0.1s-0.5,0-0.7,0
			c-0.4,0-0.7-0.1-1.1-0.2s-0.6-0.3-0.8-0.5s-0.4-0.5-0.6-0.9s-0.2-0.8-0.2-1.3v-4.6h-2.2v-1.1h2.2v-2H408.3z"/>
		<path d="M414.7,204.6h4.3v7.2h2.8v1.2h-7.1v-1.2h2.9v-5.9h-2.9V204.6z M417.4,202.4c0-0.2,0.1-0.4,0.2-0.6s0.4-0.2,0.7-0.2
			c0.3,0,0.5,0.1,0.6,0.2s0.2,0.4,0.2,0.6c0,0.2-0.1,0.4-0.2,0.6s-0.4,0.2-0.6,0.2c-0.3,0-0.5-0.1-0.7-0.2S417.4,202.6,417.4,202.4z
			"/>
		<path d="M423.7,208.8c0-0.6,0.1-1.2,0.3-1.7s0.4-1,0.8-1.4s0.7-0.7,1.2-0.9s1-0.3,1.6-0.3c0.6,0,1.1,0.1,1.6,0.3s0.9,0.5,1.2,0.9
			s0.6,0.8,0.8,1.4s0.3,1.1,0.3,1.7v0.2c0,0.6-0.1,1.2-0.3,1.7s-0.4,1-0.8,1.4s-0.7,0.7-1.2,0.9s-1,0.3-1.6,0.3
			c-0.6,0-1.1-0.1-1.6-0.3s-0.9-0.5-1.2-0.9s-0.6-0.8-0.8-1.4s-0.3-1.1-0.3-1.7V208.8z M425.1,208.9c0,0.4,0,0.8,0.1,1.2
			s0.2,0.7,0.4,1s0.5,0.5,0.8,0.7s0.7,0.2,1.1,0.2c0.4,0,0.7-0.1,1-0.2s0.5-0.4,0.8-0.7s0.4-0.6,0.4-1s0.1-0.8,0.1-1.2v-0.2
			c0-0.4-0.1-0.8-0.2-1.2s-0.3-0.7-0.5-1s-0.5-0.5-0.8-0.7s-0.6-0.3-1.1-0.3s-0.8,0.1-1,0.3s-0.5,0.4-0.7,0.7s-0.4,0.6-0.4,1
			s-0.1,0.8-0.1,1.2V208.9z"/>
		<path d="M435,204.6l0.1,1.2c0.3-0.4,0.7-0.8,1.1-1s0.9-0.4,1.5-0.4c0.4,0,0.8,0.1,1.2,0.2s0.7,0.3,0.9,0.6s0.5,0.6,0.6,1
			s0.2,0.9,0.2,1.5v5.4h-1.4v-5.3c0-0.4,0-0.7-0.1-1s-0.2-0.5-0.4-0.6s-0.4-0.3-0.6-0.4s-0.5-0.1-0.8-0.1c-0.5,0-0.9,0.1-1.3,0.4
			s-0.7,0.6-0.9,1v6.1h-1.4v-8.5H435z"/>
		<path d="M448.9,210.8c0-0.2,0-0.3-0.1-0.5s-0.2-0.3-0.3-0.4s-0.4-0.2-0.6-0.3s-0.6-0.2-1-0.3c-0.5-0.1-0.9-0.2-1.3-0.4
			s-0.7-0.3-1-0.5s-0.5-0.4-0.7-0.7s-0.2-0.6-0.2-0.9c0-0.3,0.1-0.7,0.2-1s0.4-0.6,0.7-0.8s0.6-0.4,1-0.5s0.8-0.2,1.3-0.2
			c0.5,0,1,0.1,1.4,0.2s0.8,0.3,1.1,0.6s0.5,0.5,0.7,0.8s0.2,0.7,0.2,1h-1.4c0-0.2,0-0.4-0.1-0.5s-0.2-0.3-0.4-0.5s-0.4-0.2-0.6-0.3
			s-0.5-0.1-0.8-0.1c-0.3,0-0.6,0-0.8,0.1s-0.4,0.2-0.6,0.3s-0.3,0.2-0.3,0.4s-0.1,0.3-0.1,0.5c0,0.2,0,0.3,0.1,0.4s0.2,0.2,0.3,0.4
			s0.4,0.2,0.6,0.3s0.6,0.2,1,0.2c0.5,0.1,1,0.2,1.4,0.4s0.8,0.3,1,0.5s0.5,0.4,0.6,0.7s0.2,0.6,0.2,0.9c0,0.4-0.1,0.7-0.3,1
			s-0.4,0.6-0.7,0.8s-0.7,0.4-1.1,0.5s-0.9,0.2-1.4,0.2c-0.6,0-1.1-0.1-1.5-0.2s-0.8-0.4-1.1-0.6s-0.5-0.5-0.7-0.9s-0.2-0.7-0.2-1
			h1.4c0,0.3,0.1,0.5,0.2,0.8s0.3,0.4,0.5,0.5s0.4,0.2,0.7,0.3s0.5,0.1,0.7,0.1c0.6,0,1.1-0.1,1.4-0.3S448.9,211.2,448.9,210.8z"/>
	</g>
	<g class="st2">
		<path d="M500.6,376.7c-0.1,0.5-0.2,1-0.4,1.4s-0.5,0.8-0.8,1.1s-0.7,0.6-1.2,0.7s-0.9,0.3-1.5,0.3c-0.5,0-0.9-0.1-1.3-0.2
			s-0.7-0.3-1-0.6s-0.6-0.5-0.8-0.8s-0.4-0.7-0.5-1s-0.2-0.8-0.3-1.2s-0.1-0.8-0.1-1.2v-1.6c0-0.4,0-0.8,0.1-1.2s0.2-0.8,0.3-1.2
			s0.3-0.7,0.5-1s0.5-0.6,0.8-0.8s0.6-0.4,1-0.6s0.8-0.2,1.3-0.2c0.6,0,1.1,0.1,1.5,0.3s0.8,0.4,1.2,0.7s0.6,0.7,0.8,1.2
			s0.3,0.9,0.4,1.5h-1.4c0-0.3-0.1-0.7-0.2-1s-0.3-0.6-0.5-0.8s-0.4-0.4-0.7-0.5s-0.6-0.2-1-0.2c-0.3,0-0.6,0.1-0.9,0.2
			s-0.5,0.3-0.7,0.5s-0.3,0.4-0.5,0.7s-0.2,0.5-0.3,0.8s-0.1,0.6-0.2,0.9s-0.1,0.6-0.1,0.9v1.6c0,0.3,0,0.6,0.1,0.9s0.1,0.6,0.2,0.9
			s0.2,0.6,0.3,0.8s0.3,0.5,0.5,0.7s0.4,0.3,0.7,0.5s0.6,0.2,0.9,0.2c0.4,0,0.7-0.1,1-0.2s0.5-0.3,0.7-0.5s0.3-0.5,0.5-0.8
			s0.2-0.6,0.2-1H500.6z"/>
		<path d="M508.3,378.9c-0.3,0.4-0.6,0.7-1.1,1s-0.9,0.3-1.5,0.3c-0.4,0-0.8-0.1-1.2-0.2s-0.7-0.4-0.9-0.6s-0.5-0.7-0.6-1.1
			s-0.2-1-0.2-1.6v-5h1.4v5c0,0.5,0,0.8,0.1,1.1s0.2,0.5,0.3,0.7s0.3,0.3,0.5,0.4s0.5,0.1,0.7,0.1c0.6,0,1.1-0.1,1.4-0.4
			s0.6-0.6,0.8-1v-6.1h1.5v8.5h-1.3L508.3,378.9z"/>
		<path d="M518.1,377.8c0-0.2,0-0.3-0.1-0.5s-0.2-0.3-0.3-0.4s-0.4-0.2-0.6-0.3s-0.6-0.2-1-0.3c-0.5-0.1-0.9-0.2-1.3-0.4
			s-0.7-0.3-1-0.5s-0.5-0.4-0.7-0.7s-0.2-0.6-0.2-0.9c0-0.3,0.1-0.7,0.2-1s0.4-0.6,0.7-0.8s0.6-0.4,1-0.5s0.8-0.2,1.3-0.2
			c0.5,0,1,0.1,1.4,0.2s0.8,0.3,1.1,0.6s0.5,0.5,0.7,0.8s0.2,0.7,0.2,1H518c0-0.2,0-0.4-0.1-0.5s-0.2-0.3-0.4-0.5s-0.4-0.2-0.6-0.3
			s-0.5-0.1-0.8-0.1c-0.3,0-0.6,0-0.8,0.1s-0.4,0.2-0.6,0.3s-0.3,0.2-0.3,0.4s-0.1,0.3-0.1,0.5c0,0.2,0,0.3,0.1,0.4s0.2,0.2,0.3,0.4
			s0.4,0.2,0.6,0.3s0.6,0.2,1,0.2c0.5,0.1,1,0.2,1.4,0.4s0.8,0.3,1,0.5s0.5,0.4,0.6,0.7s0.2,0.6,0.2,0.9c0,0.4-0.1,0.7-0.3,1
			s-0.4,0.6-0.7,0.8s-0.7,0.4-1.1,0.5s-0.9,0.2-1.4,0.2c-0.6,0-1.1-0.1-1.5-0.2s-0.8-0.4-1.1-0.6s-0.5-0.5-0.7-0.9s-0.2-0.7-0.2-1
			h1.4c0,0.3,0.1,0.5,0.2,0.8s0.3,0.4,0.5,0.5s0.4,0.2,0.7,0.3s0.5,0.1,0.7,0.1c0.6,0,1.1-0.1,1.4-0.3S518.1,378.2,518.1,377.8z"/>
		<path d="M525.5,369.6v2h3.2v1.1h-3.2v4.6c0,0.3,0,0.6,0.1,0.8s0.2,0.4,0.3,0.5s0.3,0.2,0.5,0.3s0.4,0.1,0.6,0.1c0.2,0,0.3,0,0.5,0
			s0.3,0,0.5-0.1s0.3-0.1,0.4-0.1s0.3-0.1,0.3-0.1l0.2,1c-0.1,0.1-0.3,0.1-0.4,0.2s-0.4,0.1-0.6,0.1s-0.4,0.1-0.6,0.1s-0.5,0-0.7,0
			c-0.4,0-0.7-0.1-1.1-0.2s-0.6-0.3-0.8-0.5s-0.4-0.5-0.6-0.9s-0.2-0.8-0.2-1.3v-4.6h-2.2v-1.1h2.2v-2H525.5z"/>
		<path d="M531.2,375.8c0-0.6,0.1-1.2,0.3-1.7s0.4-1,0.8-1.4s0.7-0.7,1.2-0.9s1-0.3,1.6-0.3c0.6,0,1.1,0.1,1.6,0.3s0.9,0.5,1.2,0.9
			s0.6,0.8,0.8,1.4s0.3,1.1,0.3,1.7v0.2c0,0.6-0.1,1.2-0.3,1.7s-0.4,1-0.8,1.4s-0.7,0.7-1.2,0.9s-1,0.3-1.6,0.3
			c-0.6,0-1.1-0.1-1.6-0.3s-0.9-0.5-1.2-0.9s-0.6-0.8-0.8-1.4s-0.3-1.1-0.3-1.7V375.8z M532.7,375.9c0,0.4,0,0.8,0.1,1.2
			s0.2,0.7,0.4,1s0.5,0.5,0.8,0.7s0.7,0.2,1.1,0.2c0.4,0,0.7-0.1,1-0.2s0.5-0.4,0.8-0.7s0.4-0.6,0.4-1s0.1-0.8,0.1-1.2v-0.2
			c0-0.4-0.1-0.8-0.2-1.2s-0.3-0.7-0.5-1s-0.5-0.5-0.8-0.7s-0.6-0.3-1.1-0.3s-0.8,0.1-1,0.3s-0.5,0.4-0.7,0.7s-0.4,0.6-0.4,1
			s-0.1,0.8-0.1,1.2V375.9z"/>
		<path d="M541.9,371.6l0,0.8c0.2-0.3,0.4-0.5,0.7-0.7s0.6-0.3,1-0.3c0.8,0,1.3,0.3,1.6,0.9c0.2-0.3,0.4-0.5,0.7-0.7s0.6-0.2,1-0.3
			c0.6,0,1.1,0.2,1.4,0.6s0.5,1,0.5,1.7v6.3h-1.4v-6.3c0-0.7-0.3-1.1-1-1.1c-0.2,0-0.3,0-0.4,0.1s-0.2,0.1-0.3,0.2s-0.1,0.2-0.2,0.3
			s-0.1,0.2-0.1,0.3v6.5H544v-6.3c0-0.3-0.1-0.6-0.2-0.8s-0.4-0.3-0.7-0.3c-0.3,0-0.5,0.1-0.7,0.2s-0.3,0.3-0.4,0.5v6.7h-1.4v-8.5
			H541.9z"/>
		<path d="M554.6,380.2c-0.6,0-1.1-0.1-1.6-0.3c-0.5-0.2-0.9-0.5-1.3-0.9c-0.4-0.4-0.6-0.8-0.8-1.3s-0.3-1-0.3-1.6v-0.3
			c0-0.7,0.1-1.3,0.3-1.8s0.5-1,0.9-1.4c0.4-0.4,0.8-0.7,1.2-0.9s0.9-0.3,1.4-0.3c0.6,0,1.1,0.1,1.6,0.3s0.8,0.5,1.1,0.9
			s0.5,0.8,0.7,1.3s0.2,1.1,0.2,1.6v0.6h-6c0,0.4,0.1,0.7,0.2,1.1s0.3,0.6,0.5,0.9s0.5,0.5,0.8,0.6s0.7,0.2,1.1,0.2
			c0.5,0,1-0.1,1.4-0.3s0.7-0.5,1-0.8l0.9,0.7c-0.1,0.2-0.3,0.4-0.5,0.6s-0.5,0.4-0.7,0.5s-0.6,0.3-0.9,0.4S555,380.2,554.6,380.2z
			 M554.4,372.7c-0.3,0-0.6,0.1-0.8,0.2s-0.5,0.3-0.7,0.5s-0.4,0.5-0.5,0.8c-0.1,0.3-0.2,0.6-0.3,1h4.5V375c0-0.3-0.1-0.6-0.2-0.8
			s-0.2-0.5-0.4-0.7s-0.4-0.4-0.7-0.5S554.8,372.7,554.4,372.7z"/>
		<path d="M566,371.5c0.1,0,0.3,0,0.4,0s0.3,0,0.4,0s0.3,0,0.4,0.1s0.2,0.1,0.3,0.1l-0.2,1.4c-0.3-0.1-0.5-0.1-0.8-0.1s-0.5,0-0.8,0
			c-0.7,0-1.2,0.2-1.6,0.5s-0.7,0.7-0.9,1.3v5.4h-1.5v-8.5h1.4l0.1,1.3c0.3-0.5,0.8-0.8,1.2-1.1S565.4,371.5,566,371.5z"/>
		<path d="M575.7,377.8c0-0.2,0-0.3-0.1-0.5s-0.2-0.3-0.3-0.4s-0.4-0.2-0.6-0.3s-0.6-0.2-1-0.3c-0.5-0.1-0.9-0.2-1.3-0.4
			s-0.7-0.3-1-0.5s-0.5-0.4-0.7-0.7s-0.2-0.6-0.2-0.9c0-0.3,0.1-0.7,0.2-1s0.4-0.6,0.7-0.8s0.6-0.4,1-0.5s0.8-0.2,1.3-0.2
			c0.5,0,1,0.1,1.4,0.2s0.8,0.3,1.1,0.6s0.5,0.5,0.7,0.8s0.2,0.7,0.2,1h-1.4c0-0.2,0-0.4-0.1-0.5s-0.2-0.3-0.4-0.5s-0.4-0.2-0.6-0.3
			s-0.5-0.1-0.8-0.1c-0.3,0-0.6,0-0.8,0.1s-0.4,0.2-0.6,0.3s-0.3,0.2-0.3,0.4s-0.1,0.3-0.1,0.5c0,0.2,0,0.3,0.1,0.4s0.2,0.2,0.3,0.4
			s0.4,0.2,0.6,0.3s0.6,0.2,1,0.2c0.5,0.1,1,0.2,1.4,0.4s0.8,0.3,1,0.5s0.5,0.4,0.6,0.7s0.2,0.6,0.2,0.9c0,0.4-0.1,0.7-0.3,1
			s-0.4,0.6-0.7,0.8s-0.7,0.4-1.1,0.5s-0.9,0.2-1.4,0.2c-0.6,0-1.1-0.1-1.5-0.2s-0.8-0.4-1.1-0.6s-0.5-0.5-0.7-0.9s-0.2-0.7-0.2-1
			h1.4c0,0.3,0.1,0.5,0.2,0.8s0.3,0.4,0.5,0.5s0.4,0.2,0.7,0.3s0.5,0.1,0.7,0.1c0.6,0,1.1-0.1,1.4-0.3S575.7,378.2,575.7,377.8z"/>
	</g>
	<line class="st3" x1="204.5" y1="278" x2="205.5" y2="276.8"/>
	<line class="st4" x1="207.9" y1="273.8" x2="275.1" y2="190.7"/>
	<line class="st3" x1="276.3" y1="189.2" x2="277.3" y2="188"/>
	<line class="st3" x1="469.3" y1="182" x2="470.1" y2="183.3"/>
	<line class="st4" x1="472.1" y1="186.6" x2="521.5" y2="267"/>
	<line class="st3" x1="522.5" y1="268.7" x2="523.3" y2="270"/>
	<polygon class="st5" points="532.9,271 531.3,282.9 520.7,277.4 	"/>
	<polygon class="st5" points="270.6,184.7 282.4,182.6 280.2,194.4 	"/>
	<path class="st0" d="M367.1,187.4L367.1,187.4c0-3.5,2.8-6.3,6.3-6.3s6.3,2.8,6.3,6.3c0,0,0,0,0,0"/>
	<path class="st0" d="M355.6,186.8v-2.4h5.8c0.3-1.3,0.8-2.6,1.5-3.7l-4.2-4.3l4.6-4.7l4.3,4.5c0.8-0.5,1.7-0.8,2.6-1.1v-6.5h6.4
		v6.5c1.1,0.3,2.1,0.8,3.1,1.4l4.6-4.8l4.5,4.7l-4.7,4.8c0.5,0.9,0.9,1.9,1.1,2.9h6.8v2.9"/>
	<path class="st0" d="M367.1,187.4L367.1,187.4"/>
	<path class="st0" d="M421,128.1l-3.5-3.5l-12.2,12.2l3.5,3.5c1.4-1.4,3.8-1.4,5.2,0c1.4,1.4,1.4,3.8,0,5.2l3.5,3.5l3.5-3.5
		c1.4,1.4,3.8,1.4,5.2,0c1.4-1.4,1.4-3.8,0-5.2l3.5-3.5l-3.5-3.5c1.4-1.4,1.4-3.8,0-5.2C424.8,126.6,422.4,126.6,421,128.1z"/>
	<path class="st0" d="M406.5,144.2c-1.4-1.4-3.8-1.4-5.2,0c0,0,0,0,0,0l-3.5-3.5l-3.5,3.5c-1.4-1.4-3.8-1.4-5.2,0
		c-1.4,1.4-1.4,3.8,0,5.2l-3.5,3.5l3.5,3.5c-1.4,1.4-1.4,3.8,0,5.2c1.4,1.4,3.8,1.4,5.2,0l0,0l3.5,3.5l12.2-12.2l-3.5-3.5
		C407.9,148,407.9,145.6,406.5,144.2z"/>
	<line class="st0" x1="420.7" y1="153.8" x2="420.7" y2="160.3"/>
	<line class="st0" x1="417.5" y1="157" x2="424" y2="157"/>
	<line class="st0" x1="404.3" y1="121.3" x2="404.3" y2="127.8"/>
	<line class="st0" x1="401" y1="124.6" x2="407.5" y2="124.6"/>
	<line class="st0" x1="429.7" y1="116.6" x2="429.7" y2="123.1"/>
	<line class="st0" x1="426.5" y1="119.8" x2="433" y2="119.8"/>
	<line class="st0" x1="435.1" y1="141.5" x2="435.1" y2="148"/>
	<line class="st0" x1="431.9" y1="144.7" x2="438.4" y2="144.7"/>
</g>
</svg>
