<svg xmlns="http://www.w3.org/2000/svg" viewBox="0 0 750.62 484"><defs><style>.cls-1,.cls-3,.cls-7{fill:none}.cls-1{stroke:#3b88f6;stroke-miterlimit:10;stroke-dasharray:3 4}.cls-1,.cls-2,.cls-3{stroke-width:2px}.cls-2,.cls-6{fill:#fff}.cls-2,.cls-3,.cls-7{stroke:#231f20;stroke-linejoin:round}.cls-4{font-size:16px;font-family:RobotoMono-Regular,Roboto Mono}.cls-5{fill:#3b87f4}.cls-7{stroke-linecap:round;stroke-width:1.8px}</style></defs><title>explainer-part2</title><g id="Layer_2" data-name="Layer 2"><line class="cls-1" x1="226.05" y1="119" x2="283.05" y2="171"/><polyline class="cls-1" points="374.58 74 464.58 171 374.58 214 373.05 214 283.05 171 373.05 74"/><path class="cls-1" d="M464.58,171l131.14,37.37a3.29,3.29,0,0,1-.21,5L508.58,272l-134-58h-1.53l-134,58-86.94-58.62a3.29,3.29,0,0,1-.21-5L283.05,171"/><line class="cls-1" x1="521.58" y1="119" x2="464.58" y2="171"/><path class="cls-1" d="M374.58,74.39l147,44.61,76.83,91.74a2.81,2.81,0,0,1,.27.55l26.48,123.64L508.58,272l-44-101-90-22.88h-1.53l-90,22.88-44,101L122.46,334.93l26.48-123.64a2.81,2.81,0,0,1,.27-.55L226.05,119l147-44.61"/><path class="cls-2" d="M589.05,159h21a3,3,0,0,1,3,2.89v20.73a3,3,0,0,1-3,2.89h-4.26a3.3,3.3,0,0,0-3,1.93h0a3.29,3.29,0,0,1-6,0h0a3.27,3.27,0,0,0-3-1.93h-4.76a2.94,2.94,0,0,1-3-2.89V161.91A2.94,2.94,0,0,1,589.05,159Z"/><path class="cls-2" d="M592.32,182.18V179.1a4.7,4.7,0,0,1,1.21-3.15,3.12,3.12,0,0,0,.28-3.54,6,6,0,0,1-.68-2.78,6.42,6.42,0,0,1,12.84,0,5.93,5.93,0,0,1-.69,2.78,3.14,3.14,0,0,0,.28,3.54,4.71,4.71,0,0,1,1.22,3.15v3.08"/><circle class="cls-2" cx="599.55" cy="199.02" r="2.67"/><path class="cls-2" d="M498.05,232h21a3,3,0,0,1,3,2.89v20.73a3,3,0,0,1-3,2.89h-6.38l-3.87,8.52-3.88-8.52h-6.87a2.94,2.94,0,0,1-3-2.89V234.91A2.94,2.94,0,0,1,498.05,232Z"/><path class="cls-2" d="M501.32,255.18V252.1a4.87,4.87,0,0,1,3.32-4.56,6.12,6.12,0,0,1-2.51-4.91,6.42,6.42,0,0,1,12.84,0,6.1,6.1,0,0,1-2.52,4.91,4.87,4.87,0,0,1,3.33,4.56v3.08"/><circle class="cls-2" cx="508.55" cy="272.02" r="2.67"/><path class="cls-2" d="M617.05,282h21a3,3,0,0,1,3,2.89v20.73a3,3,0,0,1-3,2.89h-6.38l-3.87,8.52-3.88-8.52h-6.87a2.94,2.94,0,0,1-3-2.89V284.91A2.94,2.94,0,0,1,617.05,282Z"/><path class="cls-2" d="M620.32,305.18V302.1a4.87,4.87,0,0,1,3.32-4.56,6.12,6.12,0,0,1-2.51-4.91,6.42,6.42,0,0,1,12.84,0,6.1,6.1,0,0,1-2.52,4.91,4.87,4.87,0,0,1,3.33,4.56v3.08"/><circle class="cls-2" cx="627.55" cy="322.02" r="2.67"/><path class="cls-2" d="M510.05,79h21a3,3,0,0,1,3,2.89v20.73a3,3,0,0,1-3,2.89h-6.38l-3.87,8.52-3.88-8.52h-6.87a2.94,2.94,0,0,1-3-2.89V81.91A2.94,2.94,0,0,1,510.05,79Z"/><path class="cls-2" d="M513.32,102.18V99.1a4.87,4.87,0,0,1,3.32-4.56,6.12,6.12,0,0,1-2.51-4.91,6.42,6.42,0,0,1,12.84,0,6.1,6.1,0,0,1-2.52,4.91,4.87,4.87,0,0,1,3.33,4.56v3.08"/><circle class="cls-2" cx="520.55" cy="119.02" r="2.67"/><path class="cls-2" d="M363.05,34h21a3,3,0,0,1,3,2.89V57.64a3,3,0,0,1-3,2.89h-6.38l-3.87,8.52-3.88-8.52h-6.87a2.94,2.94,0,0,1-3-2.89V36.91A2.94,2.94,0,0,1,363.05,34Z"/><path class="cls-2" d="M366.32,57.18V54.1a4.87,4.87,0,0,1,3.32-4.56,6.12,6.12,0,0,1-2.51-4.91,6.42,6.42,0,0,1,12.84,0,6.1,6.1,0,0,1-2.52,4.91,4.87,4.87,0,0,1,3.33,4.56v3.08"/><circle class="cls-2" cx="373.55" cy="74.02" r="2.67"/><path class="cls-2" d="M363.05,107h21a3,3,0,0,1,3,2.89v20.73a3,3,0,0,1-3,2.89h-6.38l-3.87,8.52-3.88-8.52h-6.87a2.94,2.94,0,0,1-3-2.89V109.91A2.94,2.94,0,0,1,363.05,107Z"/><path class="cls-2" d="M366.32,130.18V127.1a4.87,4.87,0,0,1,3.32-4.56,6.12,6.12,0,0,1-2.51-4.91,6.42,6.42,0,0,1,12.84,0,6.1,6.1,0,0,1-2.52,4.91,4.87,4.87,0,0,1,3.33,4.56v3.08"/><circle class="cls-2" cx="373.55" cy="147.02" r="2.67"/><rect class="cls-3" x="341.99" y="356.26" width="63" height="8.05"/><polygon class="cls-3" points="404.99 368.77 404.99 364.32 341.99 364.32 341.99 418.87 404.99 418.87 404.99 416.02 404.99 368.77"/><line class="cls-3" x1="345.74" y1="360.29" x2="350.12" y2="360.29"/><line class="cls-3" x1="352.37" y1="360.29" x2="356.37" y2="360.29"/><line class="cls-3" x1="373.41" y1="374.02" x2="399.99" y2="374.02"/><line class="cls-3" x1="369.62" y1="378.64" x2="399.99" y2="378.64"/><line class="cls-3" x1="369.62" y1="383.02" x2="399.99" y2="383.02"/><line class="cls-3" x1="369.62" y1="387.4" x2="399.99" y2="387.4"/><line class="cls-3" x1="369.62" y1="391.59" x2="399.99" y2="391.59"/><line class="cls-3" x1="369.62" y1="395.89" x2="399.99" y2="395.89"/><line class="cls-3" x1="346.37" y1="410.27" x2="353.74" y2="410.27"/><line class="cls-3" x1="356.12" y1="410.27" x2="363.49" y2="410.27"/><line class="cls-3" x1="392.62" y1="410.27" x2="399.99" y2="410.27"/><polygon class="cls-3" points="346.62 375.33 346.62 399.46 356.37 387.39 346.62 375.33"/><polygon class="cls-3" points="366.12 375.33 346.62 375.33 356.37 387.39 366.12 375.33"/><polygon class="cls-3" points="346.62 399.46 366.12 399.46 356.37 387.39 346.62 399.46"/><polygon class="cls-3" points="356.37 387.39 366.12 399.46 366.12 375.33 356.37 387.39"/><text class="cls-4" transform="translate(341.61 441.08)">Content</text><text class="cls-4" transform="translate(307.61 275.08)">Shared network</text><polygon class="cls-5" points="364.7 303.03 371.56 293.17 378.39 303 364.7 303.03"/><line class="cls-1" x1="371.99" y1="339" x2="371.99" y2="308"/><ellipse class="cls-6" cx="370.99" cy="211" rx="37.92" ry="29"/><path class="cls-5" d="M377.64,219.72a3.12,3.12,0,1,0,0-6.23h-17.8a3.12,3.12,0,1,0,0,6.23h17.8Z"/><path class="cls-5" d="M379.62,201.09h-9.57a3.12,3.12,0,0,0-3.12,3.12,3.16,3.16,0,0,0,1.62,2.75,3.2,3.2,0,0,0,1.5.37h9.43a9.25,9.25,0,0,1,0,18.5h-9.43a3.12,3.12,0,1,0,0,6.23h9.57a15.49,15.49,0,0,0,0-31Z"/><path class="cls-5" d="M358.72,207.36a3.14,3.14,0,0,0,0-6.27h-9a3.12,3.12,0,0,0,0,6.24h0Z"/><path class="cls-2" d="M237.58,79h-21a2.94,2.94,0,0,0-3,2.89v20.73a2.94,2.94,0,0,0,3,2.89H223l3.88,8.52,3.87-8.52h6.88a3,3,0,0,0,3-2.89V81.91A3,3,0,0,0,237.58,79Z"/><path class="cls-2" d="M234.31,102.18V99.1A4.86,4.86,0,0,0,231,94.54a6.1,6.1,0,0,0,2.52-4.91,6.42,6.42,0,0,0-12.84,0,6.12,6.12,0,0,0,2.51,4.91,4.86,4.86,0,0,0-3.32,4.56v3.08"/><circle class="cls-2" cx="227.08" cy="119.02" r="2.67"/><path class="cls-2" d="M293.58,131h-21a2.94,2.94,0,0,0-3,2.89v20.73a2.94,2.94,0,0,0,3,2.89H279l3.88,8.52,3.87-8.52h6.88a3,3,0,0,0,3-2.89V133.91A3,3,0,0,0,293.58,131Z"/><path class="cls-2" d="M290.31,154.18V151.1a4.86,4.86,0,0,0-3.33-4.56,6.1,6.1,0,0,0,2.52-4.91,6.42,6.42,0,0,0-12.84,0,6.12,6.12,0,0,0,2.51,4.91,4.86,4.86,0,0,0-3.32,4.56v3.08"/><circle class="cls-2" cx="283.08" cy="171.02" r="2.67"/><path class="cls-2" d="M475.58,131h-21a2.94,2.94,0,0,0-3,2.89v20.73a2.94,2.94,0,0,0,3,2.89H461l3.88,8.52,3.87-8.52h6.88a3,3,0,0,0,3-2.89V133.91A3,3,0,0,0,475.58,131Z"/><path class="cls-2" d="M472.31,154.18V151.1a4.86,4.86,0,0,0-3.33-4.56,6.1,6.1,0,0,0,2.52-4.91,6.42,6.42,0,0,0-12.84,0,6.12,6.12,0,0,0,2.51,4.91,4.86,4.86,0,0,0-3.32,4.56v3.08"/><circle class="cls-2" cx="465.08" cy="171.02" r="2.67"/><path class="cls-2" d="M161.58,170h-21a2.94,2.94,0,0,0-3,2.89v20.73a2.94,2.94,0,0,0,3,2.89h4.25a3.29,3.29,0,0,1,3,1.93h0a3.29,3.29,0,0,0,6,0h0a3.3,3.3,0,0,1,3-1.93h4.76a3,3,0,0,0,3-2.89V172.91A3,3,0,0,0,161.58,170Z"/><path class="cls-2" d="M158.31,193.18V190.1A4.75,4.75,0,0,0,157.1,187a3.12,3.12,0,0,1-.29-3.54,5.93,5.93,0,0,0,.69-2.78,6.42,6.42,0,0,0-12.84,0,6,6,0,0,0,.68,2.78,3.12,3.12,0,0,1-.28,3.54,4.7,4.7,0,0,0-1.21,3.15v3.08"/><circle class="cls-2" cx="151.08" cy="210.02" r="2.67"/><path class="cls-2" d="M249.58,232h-21a2.94,2.94,0,0,0-3,2.89v20.73a2.94,2.94,0,0,0,3,2.89H235l3.88,8.52,3.87-8.52h6.88a3,3,0,0,0,3-2.89V234.91A3,3,0,0,0,249.58,232Z"/><path class="cls-2" d="M246.31,255.18V252.1a4.86,4.86,0,0,0-3.33-4.56,6.1,6.1,0,0,0,2.52-4.91,6.42,6.42,0,0,0-12.84,0,6.12,6.12,0,0,0,2.51,4.91,4.86,4.86,0,0,0-3.32,4.56v3.08"/><circle class="cls-2" cx="239.08" cy="272.02" r="2.67"/><path class="cls-2" d="M133.58,293h-21a2.94,2.94,0,0,0-3,2.89v20.73a2.94,2.94,0,0,0,3,2.89H119l3.88,8.52,3.87-8.52h6.88a3,3,0,0,0,3-2.89V295.91A3,3,0,0,0,133.58,293Z"/><path class="cls-2" d="M130.31,316.18V313.1a4.86,4.86,0,0,0-3.33-4.56,6.1,6.1,0,0,0,2.52-4.91,6.42,6.42,0,0,0-12.84,0,6.12,6.12,0,0,0,2.51,4.91,4.86,4.86,0,0,0-3.32,4.56v3.08"/><circle class="cls-2" cx="123.08" cy="333.02" r="2.67"/><line class="cls-7" x1="125.42" y1="158.17" x2="128.5" y2="161.46"/><line class="cls-7" x1="150.5" y1="158.17" x2="147.42" y2="161.46"/><line class="cls-7" x1="123.26" y1="183.24" x2="127.09" y2="179.65"/><line class="cls-7" x1="137.71" y1="152.53" x2="137.87" y2="158.08"/><line class="cls-7" x1="119.99" y1="170" x2="124.99" y2="170"/><line class="cls-7" x1="545.57" y1="66.17" x2="542.49" y2="69.46"/><line class="cls-7" x1="520.49" y1="66.17" x2="523.57" y2="69.46"/><line class="cls-7" x1="547.73" y1="91.24" x2="543.9" y2="87.65"/><line class="cls-7" x1="533.28" y1="60.53" x2="533.12" y2="66.08"/><line class="cls-7" x1="550.99" y1="78" x2="545.99" y2="78"/><line class="cls-7" x1="533.57" y1="219.17" x2="530.49" y2="222.46"/><line class="cls-7" x1="508.49" y1="219.17" x2="511.57" y2="222.46"/><line class="cls-7" x1="535.73" y1="244.24" x2="531.9" y2="240.65"/><line class="cls-7" x1="521.28" y1="213.53" x2="521.12" y2="219.08"/><line class="cls-7" x1="538.99" y1="231" x2="533.99" y2="231"/></g></svg>