<svg xmlns="http://www.w3.org/2000/svg" viewBox="0 0 750.62 484"><defs><style>.cls-1,.cls-4,.cls-5,.cls-6{fill:none;stroke-width:2px}.cls-1{stroke:#231f20;stroke-linejoin:round}.cls-2{fill:#fff}.cls-3{font-size:16px;font-family:RobotoMono-Regular,Roboto Mono}.cls-4,.cls-5,.cls-6{stroke:#757575;stroke-miterlimit:10}.cls-5{stroke-dasharray:2.92 3.89}.cls-6{stroke-dasharray:2.95 3.93}.cls-7{fill:#757575}

.cls-5,
.cls-6 {
  animation: dash 30s linear;
  animation-direction: reverse;
  animation-iteration-count: infinite;
  stroke-dasharray: 5;
}

@keyframes dash {
  to {
    stroke-dashoffset: 1000;
  }
}
</style></defs><title>explainer-part1</title><g id="Layer_2" data-name="Layer 2"><rect class="cls-1" x="168.65" y="295.26" width="62.78" height="8.05"/><polygon class="cls-1" points="231.43 307.77 231.43 303.32 168.65 303.32 168.65 357.87 231.43 357.87 231.43 355.02 231.43 307.77"/><line class="cls-1" x1="172.39" y1="299.29" x2="176.75" y2="299.29"/><line class="cls-1" x1="178.99" y1="299.29" x2="182.98" y2="299.29"/><line class="cls-1" x1="199.97" y1="313.02" x2="226.45" y2="313.02"/><line class="cls-1" x1="196.18" y1="317.64" x2="226.45" y2="317.64"/><line class="cls-1" x1="196.18" y1="322.02" x2="226.45" y2="322.02"/><line class="cls-1" x1="196.18" y1="326.4" x2="226.45" y2="326.4"/><line class="cls-1" x1="196.18" y1="330.59" x2="226.45" y2="330.59"/><line class="cls-1" x1="196.18" y1="334.89" x2="226.45" y2="334.89"/><line class="cls-1" x1="173.01" y1="349.27" x2="180.36" y2="349.27"/><line class="cls-1" x1="182.73" y1="349.27" x2="190.08" y2="349.27"/><line class="cls-1" x1="219.1" y1="349.27" x2="226.45" y2="349.27"/><polygon class="cls-1" points="173.26 314.33 173.26 338.46 182.98 326.39 173.26 314.33"/><polygon class="cls-1" points="192.69 314.33 173.26 314.33 182.98 326.39 192.69 314.33"/><polygon class="cls-1" points="173.26 338.46 192.69 338.46 182.98 326.39 173.26 338.46"/><polygon class="cls-1" points="182.98 326.39 192.69 338.46 192.69 314.33 182.98 326.39"/><path class="cls-1" d="M502.68,289.8a14.67,14.67,0,0,0-8.28,26.79,5.83,5.83,0,0,1,3.77-4.59,7.42,7.42,0,1,1,9,0,5.79,5.79,0,0,1,3.77,4.59,14.67,14.67,0,0,0-8.27-26.79Z"/><path class="cls-1" d="M507.18,312a7.41,7.41,0,1,0-9,0,5.81,5.81,0,0,0-3.77,4.59,14.65,14.65,0,0,0,16.55,0A5.79,5.79,0,0,0,507.18,312Z"/><line class="cls-1" x1="502.27" y1="319" x2="502.27" y2="333"/><path class="cls-1" d="M535.18,315.8a14.67,14.67,0,0,0-8.28,26.79,5.83,5.83,0,0,1,3.77-4.59,7.42,7.42,0,1,1,9,0,5.79,5.79,0,0,1,3.77,4.59,14.67,14.67,0,0,0-8.27-26.79Z"/><path class="cls-1" d="M539.68,338a7.41,7.41,0,1,0-9,0,5.81,5.81,0,0,0-3.77,4.59,14.65,14.65,0,0,0,16.55,0A5.79,5.79,0,0,0,539.68,338Z"/><line class="cls-1" x1="534.77" y1="345" x2="534.77" y2="359"/><path class="cls-1" d="M567.68,289.8a14.67,14.67,0,0,0-8.28,26.79,5.83,5.83,0,0,1,3.77-4.59,7.42,7.42,0,1,1,9,0,5.79,5.79,0,0,1,3.77,4.59,14.67,14.67,0,0,0-8.27-26.79Z"/><path class="cls-1" d="M572.18,312a7.41,7.41,0,1,0-9,0,5.81,5.81,0,0,0-3.77,4.59,14.65,14.65,0,0,0,16.55,0A5.79,5.79,0,0,0,572.18,312Z"/><line class="cls-1" x1="567.27" y1="319" x2="567.27" y2="333"/><rect class="cls-1" x="322.27" y="113.14" width="17.88" height="55.86"/><rect class="cls-1" x="340.15" y="117.14" width="27.25" height="57.86"/><rect class="cls-1" x="319.4" y="107.39" width="23.63" height="5.75"/><line class="cls-1" x1="331.21" y1="102.51" x2="331.21" y2="107.39"/><line class="cls-1" x1="325.6" y1="116.61" x2="330.22" y2="116.61"/><line class="cls-1" x1="332.27" y1="116.61" x2="336.89" y2="116.61"/><line class="cls-1" x1="325.6" y1="120.85" x2="330.22" y2="120.85"/><line class="cls-1" x1="332.27" y1="120.85" x2="336.89" y2="120.85"/><line class="cls-1" x1="344.67" y1="120.73" x2="349.29" y2="120.73"/><line class="cls-1" x1="351.34" y1="120.73" x2="355.96" y2="120.73"/><line class="cls-1" x1="344.67" y1="124.97" x2="349.29" y2="124.97"/><line class="cls-1" x1="351.34" y1="124.97" x2="355.96" y2="124.97"/><line class="cls-1" x1="358.26" y1="120.73" x2="362.88" y2="120.73"/><line class="cls-1" x1="358.26" y1="124.97" x2="362.88" y2="124.97"/><line class="cls-1" x1="344.67" y1="120.73" x2="349.29" y2="120.73"/><line class="cls-1" x1="351.34" y1="120.73" x2="355.96" y2="120.73"/><line class="cls-1" x1="344.67" y1="124.97" x2="349.29" y2="124.97"/><line class="cls-1" x1="351.34" y1="124.97" x2="355.96" y2="124.97"/><line class="cls-1" x1="358.26" y1="120.73" x2="362.88" y2="120.73"/><line class="cls-1" x1="358.26" y1="124.97" x2="362.88" y2="124.97"/><line class="cls-1" x1="344.67" y1="129.73" x2="349.29" y2="129.73"/><line class="cls-1" x1="351.34" y1="129.73" x2="355.96" y2="129.73"/><line class="cls-1" x1="344.67" y1="133.97" x2="349.29" y2="133.97"/><line class="cls-1" x1="351.34" y1="133.97" x2="355.96" y2="133.97"/><line class="cls-1" x1="358.26" y1="129.73" x2="362.88" y2="129.73"/><line class="cls-1" x1="358.26" y1="133.97" x2="362.88" y2="133.97"/><line class="cls-1" x1="344.67" y1="137.73" x2="349.29" y2="137.73"/><line class="cls-1" x1="351.34" y1="137.73" x2="355.96" y2="137.73"/><line class="cls-1" x1="344.67" y1="141.97" x2="349.29" y2="141.97"/><line class="cls-1" x1="351.34" y1="141.97" x2="355.96" y2="141.97"/><line class="cls-1" x1="358.26" y1="137.73" x2="362.88" y2="137.73"/><line class="cls-1" x1="358.26" y1="141.97" x2="362.88" y2="141.97"/><line class="cls-1" x1="344.67" y1="146.73" x2="349.29" y2="146.73"/><line class="cls-1" x1="351.34" y1="146.73" x2="355.96" y2="146.73"/><line class="cls-1" x1="344.67" y1="150.97" x2="349.29" y2="150.97"/><line class="cls-1" x1="351.34" y1="150.97" x2="355.96" y2="150.97"/><line class="cls-1" x1="358.26" y1="146.73" x2="362.88" y2="146.73"/><line class="cls-1" x1="358.26" y1="150.97" x2="362.88" y2="150.97"/><line class="cls-1" x1="344.67" y1="154.73" x2="349.29" y2="154.73"/><line class="cls-1" x1="351.34" y1="154.73" x2="355.96" y2="154.73"/><line class="cls-1" x1="344.67" y1="158.97" x2="349.29" y2="158.97"/><line class="cls-1" x1="351.34" y1="158.97" x2="355.96" y2="158.97"/><line class="cls-1" x1="358.26" y1="154.73" x2="362.88" y2="154.73"/><line class="cls-1" x1="358.26" y1="158.97" x2="362.88" y2="158.97"/><line class="cls-1" x1="344.67" y1="162.73" x2="349.29" y2="162.73"/><line class="cls-1" x1="351.34" y1="162.73" x2="355.96" y2="162.73"/><line class="cls-1" x1="344.67" y1="166.97" x2="349.29" y2="166.97"/><line class="cls-1" x1="351.34" y1="166.97" x2="355.96" y2="166.97"/><line class="cls-1" x1="358.26" y1="162.73" x2="362.88" y2="162.73"/><line class="cls-1" x1="358.26" y1="166.97" x2="362.88" y2="166.97"/><line class="cls-1" x1="344.67" y1="170.73" x2="349.29" y2="170.73"/><line class="cls-1" x1="351.34" y1="170.73" x2="355.96" y2="170.73"/><line class="cls-1" x1="344.67" y1="174.97" x2="349.29" y2="174.97"/><line class="cls-1" x1="351.34" y1="174.97" x2="355.96" y2="174.97"/><line class="cls-1" x1="358.26" y1="170.73" x2="362.88" y2="170.73"/><line class="cls-1" x1="358.26" y1="174.97" x2="362.88" y2="174.97"/><line class="cls-1" x1="325.54" y1="125.1" x2="330.15" y2="125.1"/><line class="cls-1" x1="332.21" y1="125.1" x2="336.82" y2="125.1"/><line class="cls-1" x1="325.6" y1="129.61" x2="330.22" y2="129.61"/><line class="cls-1" x1="332.27" y1="129.61" x2="336.89" y2="129.61"/><line class="cls-1" x1="325.6" y1="133.85" x2="330.22" y2="133.85"/><line class="cls-1" x1="332.27" y1="133.85" x2="336.89" y2="133.85"/><line class="cls-1" x1="325.54" y1="138.1" x2="330.15" y2="138.1"/><line class="cls-1" x1="332.21" y1="138.1" x2="336.82" y2="138.1"/><line class="cls-1" x1="325.6" y1="142.61" x2="330.22" y2="142.61"/><line class="cls-1" x1="332.27" y1="142.61" x2="336.89" y2="142.61"/><line class="cls-1" x1="325.6" y1="146.85" x2="330.22" y2="146.85"/><line class="cls-1" x1="332.27" y1="146.85" x2="336.89" y2="146.85"/><line class="cls-1" x1="325.54" y1="151.1" x2="330.15" y2="151.1"/><line class="cls-1" x1="332.21" y1="151.1" x2="336.82" y2="151.1"/><line class="cls-1" x1="325.6" y1="155.61" x2="330.22" y2="155.61"/><line class="cls-1" x1="332.27" y1="155.61" x2="336.89" y2="155.61"/><line class="cls-1" x1="325.6" y1="159.85" x2="330.22" y2="159.85"/><line class="cls-1" x1="332.27" y1="159.85" x2="336.89" y2="159.85"/><line class="cls-1" x1="325.54" y1="164.1" x2="330.15" y2="164.1"/><line class="cls-1" x1="332.21" y1="164.1" x2="336.82" y2="164.1"/><path class="cls-2" d="M330.27,165c4-12,11-22,22-23s17,2,24,8,14-7,14-7l21,33-81,5Z"/><path class="cls-1" d="M400.27,185.34h23.8a12.26,12.26,0,0,0-10.63-18.4l-.28,0a22.62,22.62,0,0,0-42-16.8,22.94,22.94,0,0,0-29.34,35.18h5"/><path class="cls-1" d="M350,154.05a17.73,17.73,0,0,0-8,18.09"/><path class="cls-2" d="M391.27,130c-1,3-2,10,0,13s15,15,18,17,9-1,13,0-5-19-5-19Z"/><text class="cls-3" transform="translate(168.27 380.08)">Content</text><text class="cls-3" transform="translate(295.89 213.08)">Big corporations</text><text class="cls-3" transform="translate(492.89 380.08)">Customers</text><line class="cls-4" x1="204.53" y1="278" x2="205.47" y2="276.83"/><line class="cls-5" x1="207.91" y1="273.81" x2="275.11" y2="190.68"/><line class="cls-4" x1="276.33" y1="189.17" x2="277.27" y2="188"/><line class="cls-4" x1="469.27" y1="182" x2="470.06" y2="183.28"/><line class="cls-6" x1="472.11" y1="186.63" x2="521.46" y2="267.05"/><line class="cls-4" x1="522.49" y1="268.72" x2="523.27" y2="270"/><polygon class="cls-7" points="532.87 270.99 531.35 282.9 520.74 277.35 532.87 270.99"/><polygon class="cls-7" points="270.59 184.68 282.43 182.64 280.23 194.41 270.59 184.68"/><path class="cls-1" d="M367.07,187.43h0a6.31,6.31,0,1,1,12.62,0"/><path class="cls-1" d="M355.65,186.81v-2.43h5.84a13.09,13.09,0,0,1,1.53-3.74l-4.16-4.32,4.56-4.69,4.32,4.49a11.61,11.61,0,0,1,2.6-1.05v-6.53h6.43l0,6.53a12.19,12.19,0,0,1,3.11,1.36l4.63-4.76,4.53,4.71-4.69,4.82a12.41,12.41,0,0,1,1.15,2.93h6.78V187"/><path class="cls-1" d="M367.07,187.42h0"/><path class="cls-1" d="M421,128.06l-3.51-3.51-12.22,12.23,3.5,3.51A3.69,3.69,0,1,1,414,145.5l3.5,3.51L421,145.5a3.68,3.68,0,1,0,5.21-5.21l3.51-3.51-3.51-3.51a3.68,3.68,0,1,0-5.21-5.21Z"/><path class="cls-1" d="M406.48,144.21a3.69,3.69,0,0,0-5.22,0l-3.5-3.51-3.51,3.51a3.68,3.68,0,1,0-5.21,5.21l-3.51,3.51,3.51,3.51a3.68,3.68,0,1,0,5.21,5.21l3.5,3.51L410,152.93l-3.51-3.51A3.69,3.69,0,0,0,406.48,144.21Z"/><line class="cls-1" x1="420.74" y1="153.76" x2="420.74" y2="160.26"/><line class="cls-1" x1="417.49" y1="157.01" x2="423.99" y2="157.01"/><line class="cls-1" x1="404.27" y1="121.3" x2="404.27" y2="127.8"/><line class="cls-1" x1="401.02" y1="124.55" x2="407.52" y2="124.55"/><line class="cls-1" x1="429.72" y1="116.55" x2="429.72" y2="123.05"/><line class="cls-1" x1="426.47" y1="119.8" x2="432.97" y2="119.8"/><line class="cls-1" x1="435.15" y1="141.49" x2="435.15" y2="147.99"/><line class="cls-1" x1="431.9" y1="144.74" x2="438.4" y2="144.74"/></g></svg>