<?xml version="1.0" encoding="utf-8"?>
<!-- Generator: Adobe Illustrator 22.0.1, SVG Export Plug-In . SVG Version: 6.00 Build 0)  -->
<svg version="1.1" id="Layer_1" xmlns="http://www.w3.org/2000/svg" xmlns:xlink="http://www.w3.org/1999/xlink" x="0px" y="0px"
	 viewBox="0 0 750.6 484" style="enable-background:new 0 0 750.6 484;" xml:space="preserve">
<style type="text/css">
	.st0{fill:none;stroke:#3B88F6;stroke-width:2;stroke-miterlimit:10;stroke-dasharray:5;}
	.st1{fill:#FFFFFF;stroke:#231F20;stroke-width:2;stroke-linejoin:round;}
	.st2{fill:none;stroke:#231F20;stroke-width:2;stroke-linejoin:round;}
	.st3{enable-background:new    ;}
	.st4{fill:#3B87F4;}
	.st5{fill:#FFFFFF;}
	.st6{fill:none;stroke:#231F20;stroke-width:1.8;stroke-linecap:round;stroke-linejoin:round;}

	.st0,
	.st6 {
    animation: dash 30s linear;
    animation-direction: reverse;
    animation-iteration-count: infinite;
    stroke-dasharray: 5;
  }
  .st6 {
  	animation-duration: 100s;
  }

  @keyframes dash {
    to {
      stroke-dashoffset: 1000;
    }
  }
</style>
<title>explainer-part2</title>
<g id="Layer_2_1_">
	<line class="st0" x1="226.1" y1="119" x2="283" y2="171"/>
	<polyline class="st0" points="374.6,74 464.6,171 374.6,214 373,214 283,171 373,74 	"/>
	<path class="st0" d="M464.6,171l131.1,37.4c1.3,1.2,1.4,3.3,0.2,4.6c-0.1,0.1-0.2,0.2-0.4,0.4L508.6,272l-134-58H373l-134,58
		l-86.9-58.6c-1.4-1.1-1.7-3.2-0.6-4.6c0.1-0.1,0.2-0.3,0.4-0.4L283,171"/>
	<line class="st0" x1="521.6" y1="119" x2="464.6" y2="171"/>
	<path class="st0" d="M374.6,74.4l147,44.6l76.8,91.7c0.1,0.2,0.2,0.4,0.3,0.6l26.5,123.6L508.6,272l-44-101l-90-22.9H373L283,171
		l-44,101l-116.6,62.9l26.5-123.6c0.1-0.2,0.2-0.4,0.3-0.6L226,119l147-44.6"/>
	<g>
		<path class="st1" d="M587,169h21c1.6,0,2.9,1.3,3,2.9v20.7c-0.1,1.6-1.4,2.9-3,2.9h-4.3c-1.3,0-2.5,0.8-3,1.9l0,0
			c-0.7,1.7-2.7,2.4-4.4,1.6c-0.7-0.3-1.3-0.9-1.6-1.6l0,0c-0.5-1.2-1.7-1.9-3-1.9H587c-1.6,0-3-1.3-3-2.9l0,0v-20.7
			C584,170.3,585.4,169,587,169L587,169z"/>
		<path class="st1" d="M590.3,192.2v-3.1c0-1.2,0.4-2.3,1.2-3.1c0.8-1,0.9-2.4,0.3-3.5c-0.4-0.9-0.7-1.8-0.7-2.8
			c0-3.5,2.9-6.4,6.4-6.4s6.4,2.9,6.4,6.4c0,1-0.2,1.9-0.7,2.8c-0.6,1.1-0.5,2.5,0.3,3.5c0.8,0.9,1.2,2,1.2,3.1v3.1"/>
		<circle class="st1" cx="597.5" cy="209" r="2.7"/>
	</g>
	<path class="st1" d="M498,232h21c1.6,0,2.9,1.3,3,2.9v20.7c-0.1,1.6-1.4,2.9-3,2.9h-6.4l-3.9,8.5l-3.9-8.5H498c-1.6,0-3-1.3-3-2.9
		l0,0v-20.7C495.1,233.3,496.4,232,498,232L498,232z"/>
	<path class="st1" d="M501.3,255.2v-3.1c0-2.1,1.4-3.9,3.3-4.6c-1.6-1.1-2.5-3-2.5-4.9c0-3.5,2.9-6.4,6.4-6.4s6.4,2.9,6.4,6.4
		c0,1.9-0.9,3.8-2.5,4.9c2,0.7,3.3,2.5,3.3,4.6v3.1"/>
	<circle class="st1" cx="508.5" cy="272" r="2.7"/>
	<g>
		<path class="st1" d="M614,293h21c1.6,0,2.9,1.3,3,2.9v20.7c-0.1,1.6-1.4,2.9-3,2.9h-6.4l-3.9,8.5l-3.9-8.5H614c-1.6,0-3-1.3-3-2.9
			l0,0v-20.7C611.1,294.3,612.4,293,614,293L614,293z"/>
		<path class="st1" d="M617.3,316.2v-3.1c0-2.1,1.4-3.9,3.3-4.6c-1.6-1.1-2.5-3-2.5-4.9c0-3.5,2.9-6.4,6.4-6.4s6.4,2.9,6.4,6.4l0,0
			c0,1.9-0.9,3.8-2.5,4.9c2,0.7,3.3,2.5,3.3,4.6v3.1"/>
		<circle class="st1" cx="624.5" cy="333" r="2.7"/>
	</g>
	<path class="st1" d="M510,79h21c1.6,0,2.9,1.3,3,2.9v20.7c-0.1,1.6-1.4,2.9-3,2.9h-6.4l-3.9,8.5l-3.9-8.5H510c-1.6,0-3-1.3-3-2.9
		l0,0V81.9C507.1,80.3,508.4,79,510,79L510,79z"/>
	<path class="st1" d="M513.3,102.2v-3.1c0-2.1,1.4-3.9,3.3-4.6c-1.6-1.1-2.5-3-2.5-4.9c0-3.5,2.9-6.4,6.4-6.4s6.4,2.9,6.4,6.4l0,0
		c0,1.9-0.9,3.8-2.5,4.9c2,0.7,3.3,2.5,3.3,4.6v3.1"/>
	<circle class="st1" cx="520.5" cy="119" r="2.7"/>
	<path class="st1" d="M363,34h21c1.6,0,2.9,1.3,3,2.9v20.8c-0.1,1.6-1.4,2.9-3,2.9h-6.4l-3.9,8.5l-3.9-8.5H363c-1.6,0-3-1.3-3-2.9
		l0,0V36.9C360.1,35.3,361.4,34,363,34L363,34z"/>
	<path class="st1" d="M366.3,57.2v-3.1c0-2.1,1.4-3.9,3.3-4.6c-1.6-1.1-2.5-3-2.5-4.9c0-3.5,2.9-6.4,6.4-6.4s6.4,2.9,6.4,6.4
		c0,1.9-0.9,3.8-2.5,4.9c2,0.7,3.3,2.5,3.3,4.6v3.1"/>
	<circle class="st1" cx="373.5" cy="74" r="2.7"/>
	<path class="st1" d="M363,107h21c1.6,0,2.9,1.3,3,2.9v20.7c-0.1,1.6-1.4,2.9-3,2.9h-6.4l-3.9,8.5l-3.9-8.5H363c-1.6,0-3-1.3-3-2.9
		l0,0v-20.7C360.1,108.3,361.4,107,363,107L363,107z"/>
	<path class="st1" d="M366.3,130.2v-3.1c0-2.1,1.4-3.9,3.3-4.6c-1.6-1.1-2.5-3-2.5-4.9c0-3.5,2.9-6.4,6.4-6.4s6.4,2.9,6.4,6.4
		c0,1.9-0.9,3.8-2.5,4.9c2,0.7,3.3,2.5,3.3,4.6v3.1"/>
	<circle class="st1" cx="373.5" cy="147" r="2.7"/>
	<rect x="342" y="356.3" class="st2" width="63" height="8"/>
	<polygon class="st2" points="405,368.8 405,364.3 342,364.3 342,418.9 405,418.9 405,416 	"/>
	<line class="st2" x1="345.7" y1="360.3" x2="350.1" y2="360.3"/>
	<line class="st2" x1="352.4" y1="360.3" x2="356.4" y2="360.3"/>
	<line class="st2" x1="373.4" y1="374" x2="400" y2="374"/>
	<line class="st2" x1="369.6" y1="378.6" x2="400" y2="378.6"/>
	<line class="st2" x1="369.6" y1="383" x2="400" y2="383"/>
	<line class="st2" x1="369.6" y1="387.4" x2="400" y2="387.4"/>
	<line class="st2" x1="369.6" y1="391.6" x2="400" y2="391.6"/>
	<line class="st2" x1="369.6" y1="395.9" x2="400" y2="395.9"/>
	<line class="st2" x1="346.4" y1="410.3" x2="353.7" y2="410.3"/>
	<line class="st2" x1="356.1" y1="410.3" x2="363.5" y2="410.3"/>
	<line class="st2" x1="392.6" y1="410.3" x2="400" y2="410.3"/>
	<polygon class="st2" points="346.6,375.3 346.6,399.5 356.4,387.4 	"/>
	<polygon class="st2" points="366.1,375.3 346.6,375.3 356.4,387.4 	"/>
	<polygon class="st2" points="346.6,399.5 366.1,399.5 356.4,387.4 	"/>
	<polygon class="st2" points="356.4,387.4 366.1,399.5 366.1,375.3 	"/>
	<g class="st3">
		<path d="M348.3,437.7c-0.1,0.5-0.2,1-0.4,1.4s-0.5,0.8-0.8,1.1c-0.3,0.3-0.7,0.6-1.2,0.7s-0.9,0.3-1.5,0.3c-0.5,0-0.9-0.1-1.3-0.2
			s-0.7-0.3-1-0.6c-0.3-0.2-0.6-0.5-0.8-0.8c-0.2-0.3-0.4-0.7-0.5-1c-0.1-0.4-0.2-0.8-0.3-1.2s-0.1-0.8-0.1-1.2v-1.6
			c0-0.4,0-0.8,0.1-1.2s0.2-0.8,0.3-1.2c0.1-0.4,0.3-0.7,0.5-1c0.2-0.3,0.5-0.6,0.8-0.8c0.3-0.2,0.6-0.4,1-0.6
			c0.4-0.1,0.8-0.2,1.3-0.2c0.6,0,1.1,0.1,1.5,0.3c0.4,0.2,0.8,0.4,1.2,0.7c0.3,0.3,0.6,0.7,0.8,1.2s0.3,0.9,0.4,1.5h-1.4
			c0-0.3-0.1-0.7-0.2-1c-0.1-0.3-0.3-0.6-0.5-0.8c-0.2-0.2-0.4-0.4-0.7-0.5c-0.3-0.1-0.6-0.2-1-0.2c-0.3,0-0.6,0.1-0.9,0.2
			c-0.3,0.1-0.5,0.3-0.7,0.5c-0.2,0.2-0.3,0.4-0.5,0.7c-0.1,0.3-0.2,0.5-0.3,0.8s-0.1,0.6-0.2,0.9c0,0.3-0.1,0.6-0.1,0.9v1.6
			c0,0.3,0,0.6,0.1,0.9c0,0.3,0.1,0.6,0.2,0.9s0.2,0.6,0.3,0.8s0.3,0.5,0.5,0.7c0.2,0.2,0.4,0.3,0.7,0.5c0.3,0.1,0.6,0.2,0.9,0.2
			c0.4,0,0.7-0.1,1-0.2c0.3-0.1,0.5-0.3,0.7-0.5c0.2-0.2,0.3-0.5,0.5-0.8c0.1-0.3,0.2-0.6,0.2-1H348.3z"/>
		<path d="M350.2,436.8c0-0.6,0.1-1.2,0.3-1.7c0.2-0.5,0.4-1,0.8-1.4c0.3-0.4,0.7-0.7,1.2-0.9c0.5-0.2,1-0.3,1.6-0.3
			c0.6,0,1.1,0.1,1.6,0.3s0.9,0.5,1.2,0.9c0.3,0.4,0.6,0.8,0.8,1.4c0.2,0.5,0.3,1.1,0.3,1.7v0.2c0,0.6-0.1,1.2-0.3,1.7
			c-0.2,0.5-0.4,1-0.8,1.4c-0.3,0.4-0.7,0.7-1.2,0.9c-0.5,0.2-1,0.3-1.6,0.3c-0.6,0-1.1-0.1-1.6-0.3s-0.9-0.5-1.2-0.9
			c-0.3-0.4-0.6-0.8-0.8-1.4c-0.2-0.5-0.3-1.1-0.3-1.7V436.8z M351.6,436.9c0,0.4,0,0.8,0.1,1.2c0.1,0.4,0.2,0.7,0.4,1
			c0.2,0.3,0.5,0.5,0.8,0.7c0.3,0.2,0.7,0.2,1.1,0.2c0.4,0,0.7-0.1,1-0.2c0.3-0.2,0.5-0.4,0.8-0.7c0.2-0.3,0.4-0.6,0.4-1
			c0.1-0.4,0.1-0.8,0.1-1.2v-0.2c0-0.4-0.1-0.8-0.2-1.2s-0.3-0.7-0.5-1c-0.2-0.3-0.5-0.5-0.8-0.7c-0.3-0.2-0.6-0.3-1.1-0.3
			c-0.4,0-0.8,0.1-1,0.3s-0.5,0.4-0.7,0.7c-0.2,0.3-0.4,0.6-0.4,1c-0.1,0.4-0.1,0.8-0.1,1.2V436.9z"/>
		<path d="M361.5,432.6l0.1,1.2c0.3-0.4,0.7-0.8,1.1-1c0.4-0.2,0.9-0.4,1.5-0.4c0.4,0,0.8,0.1,1.2,0.2c0.4,0.1,0.7,0.3,0.9,0.6
			c0.3,0.3,0.5,0.6,0.6,1c0.1,0.4,0.2,0.9,0.2,1.5v5.4h-1.4v-5.3c0-0.4,0-0.7-0.1-1c-0.1-0.3-0.2-0.5-0.4-0.6s-0.4-0.3-0.6-0.4
			c-0.2-0.1-0.5-0.1-0.8-0.1c-0.5,0-0.9,0.1-1.3,0.4s-0.7,0.6-0.9,1v6.1h-1.4v-8.5H361.5z"/>
		<path d="M373.2,430.6v2h3.2v1.1h-3.2v4.6c0,0.3,0,0.6,0.1,0.8c0.1,0.2,0.2,0.4,0.3,0.5c0.1,0.1,0.3,0.2,0.5,0.3
			c0.2,0.1,0.4,0.1,0.6,0.1c0.2,0,0.3,0,0.5,0c0.2,0,0.3,0,0.5-0.1c0.2,0,0.3-0.1,0.4-0.1c0.1,0,0.3-0.1,0.3-0.1l0.2,1
			c-0.1,0.1-0.3,0.1-0.4,0.2s-0.4,0.1-0.6,0.1s-0.4,0.1-0.6,0.1s-0.5,0-0.7,0c-0.4,0-0.7-0.1-1.1-0.2c-0.3-0.1-0.6-0.3-0.8-0.5
			c-0.2-0.2-0.4-0.5-0.6-0.9c-0.1-0.4-0.2-0.8-0.2-1.3v-4.6h-2.2v-1.1h2.2v-2H373.2z"/>
		<path d="M383.1,441.2c-0.6,0-1.1-0.1-1.6-0.3c-0.5-0.2-0.9-0.5-1.3-0.9c-0.4-0.4-0.6-0.8-0.8-1.3c-0.2-0.5-0.3-1-0.3-1.6v-0.3
			c0-0.7,0.1-1.3,0.3-1.8s0.5-1,0.9-1.4c0.4-0.4,0.8-0.7,1.2-0.9s0.9-0.3,1.4-0.3c0.6,0,1.1,0.1,1.6,0.3c0.5,0.2,0.8,0.5,1.1,0.9
			c0.3,0.4,0.5,0.8,0.7,1.3s0.2,1.1,0.2,1.6v0.6h-6c0,0.4,0.1,0.7,0.2,1.1s0.3,0.6,0.5,0.9c0.2,0.3,0.5,0.5,0.8,0.6
			c0.3,0.1,0.7,0.2,1.1,0.2c0.5,0,1-0.1,1.4-0.3c0.4-0.2,0.7-0.5,1-0.8l0.9,0.7c-0.1,0.2-0.3,0.4-0.5,0.6s-0.5,0.4-0.7,0.5
			c-0.3,0.2-0.6,0.3-0.9,0.4C383.9,441.2,383.5,441.2,383.1,441.2z M382.9,433.7c-0.3,0-0.6,0.1-0.8,0.2c-0.3,0.1-0.5,0.3-0.7,0.5
			c-0.2,0.2-0.4,0.5-0.5,0.8c-0.1,0.3-0.2,0.6-0.3,1h4.5V436c0-0.3-0.1-0.6-0.2-0.8c-0.1-0.3-0.2-0.5-0.4-0.7
			c-0.2-0.2-0.4-0.4-0.7-0.5C383.6,433.7,383.3,433.7,382.9,433.7z"/>
		<path d="M390.3,432.6l0.1,1.2c0.3-0.4,0.7-0.8,1.1-1c0.4-0.2,0.9-0.4,1.5-0.4c0.4,0,0.8,0.1,1.2,0.2c0.4,0.1,0.7,0.3,0.9,0.6
			c0.3,0.3,0.5,0.6,0.6,1c0.1,0.4,0.2,0.9,0.2,1.5v5.4h-1.4v-5.3c0-0.4,0-0.7-0.1-1c-0.1-0.3-0.2-0.5-0.4-0.6s-0.4-0.3-0.6-0.4
			c-0.2-0.1-0.5-0.1-0.8-0.1c-0.5,0-0.9,0.1-1.3,0.4s-0.7,0.6-0.9,1v6.1H389v-8.5H390.3z"/>
		<path d="M402,430.6v2h3.2v1.1H402v4.6c0,0.3,0,0.6,0.1,0.8s0.2,0.4,0.3,0.5s0.3,0.2,0.5,0.3s0.4,0.1,0.6,0.1c0.2,0,0.3,0,0.5,0
			s0.3,0,0.5-0.1s0.3-0.1,0.4-0.1s0.3-0.1,0.3-0.1l0.2,1c-0.1,0.1-0.3,0.1-0.4,0.2s-0.4,0.1-0.6,0.1s-0.4,0.1-0.6,0.1s-0.5,0-0.7,0
			c-0.4,0-0.7-0.1-1.1-0.2s-0.6-0.3-0.8-0.5s-0.4-0.5-0.6-0.9s-0.2-0.8-0.2-1.3v-4.6h-2.2v-1.1h2.2v-2H402z"/>
	</g>
	<g class="st3">
		<path d="M314.9,272.2c0-0.3-0.1-0.6-0.2-0.9c-0.2-0.2-0.4-0.4-0.6-0.6s-0.5-0.3-0.8-0.4c-0.3-0.1-0.6-0.2-0.9-0.3
			c-0.4-0.1-0.8-0.3-1.2-0.5s-0.8-0.4-1.1-0.7c-0.3-0.3-0.6-0.6-0.8-0.9c-0.2-0.4-0.3-0.8-0.3-1.3s0.1-0.9,0.3-1.3
			c0.2-0.4,0.5-0.7,0.8-1c0.3-0.3,0.7-0.5,1.2-0.6c0.4-0.1,0.9-0.2,1.3-0.2c0.5,0,1,0.1,1.4,0.2c0.5,0.2,0.9,0.4,1.2,0.7
			c0.4,0.3,0.6,0.7,0.9,1.1c0.2,0.4,0.3,0.9,0.3,1.4h-1.5c0-0.3-0.1-0.6-0.2-0.9c-0.1-0.3-0.3-0.5-0.5-0.7c-0.2-0.2-0.4-0.3-0.7-0.4
			s-0.6-0.2-0.9-0.2c-0.3,0-0.5,0-0.8,0.1c-0.3,0.1-0.5,0.2-0.7,0.4c-0.2,0.2-0.4,0.3-0.5,0.6c-0.1,0.2-0.2,0.5-0.2,0.8
			c0,0.3,0.1,0.6,0.2,0.8c0.2,0.2,0.4,0.4,0.6,0.6c0.2,0.2,0.5,0.3,0.8,0.4s0.6,0.2,0.8,0.3c0.3,0.1,0.6,0.2,0.9,0.3
			c0.3,0.1,0.6,0.2,0.8,0.4s0.5,0.3,0.7,0.5c0.2,0.2,0.4,0.4,0.6,0.6s0.3,0.5,0.4,0.8c0.1,0.3,0.1,0.6,0.1,0.9c0,0.5-0.1,1-0.3,1.3
			s-0.5,0.7-0.9,0.9s-0.8,0.4-1.2,0.6s-0.9,0.2-1.4,0.2c-0.5,0-1-0.1-1.5-0.2s-0.9-0.4-1.3-0.7s-0.7-0.7-0.9-1.1
			c-0.2-0.4-0.4-0.9-0.4-1.4h1.5c0,0.4,0.1,0.7,0.3,0.9c0.1,0.3,0.3,0.5,0.6,0.7c0.2,0.2,0.5,0.3,0.8,0.4c0.3,0.1,0.6,0.1,1,0.1
			c0.3,0,0.6,0,0.8-0.1s0.5-0.2,0.7-0.3c0.2-0.1,0.4-0.3,0.5-0.6C314.9,272.8,314.9,272.5,314.9,272.2z"/>
		<path d="M320,267.9c0.3-0.4,0.7-0.8,1.1-1c0.4-0.2,0.9-0.4,1.5-0.4c0.4,0,0.8,0.1,1.2,0.2c0.4,0.1,0.7,0.3,0.9,0.6
			c0.3,0.3,0.5,0.6,0.6,1c0.1,0.4,0.2,0.9,0.2,1.5v5.3h-1.4v-5.3c0-0.7-0.2-1.2-0.5-1.5c-0.3-0.3-0.8-0.5-1.4-0.5
			c-0.5,0-0.9,0.1-1.3,0.3c-0.4,0.2-0.7,0.5-0.9,0.9v6.1h-1.4v-12h1.4V267.9z"/>
		<path d="M333.7,275.1c-0.1-0.1-0.1-0.2-0.1-0.4c0-0.2-0.1-0.3-0.1-0.5c-0.1,0.1-0.3,0.3-0.5,0.4s-0.4,0.2-0.6,0.3
			c-0.2,0.1-0.4,0.2-0.7,0.2c-0.2,0.1-0.5,0.1-0.8,0.1c-0.4,0-0.9-0.1-1.2-0.2c-0.4-0.1-0.7-0.3-0.9-0.5c-0.3-0.2-0.4-0.5-0.6-0.8
			c-0.1-0.3-0.2-0.6-0.2-1c0-0.5,0.1-0.9,0.3-1.2c0.2-0.3,0.4-0.6,0.8-0.9c0.3-0.2,0.7-0.4,1.2-0.5s1-0.2,1.6-0.2h1.6v-0.7
			c0-0.3,0-0.5-0.1-0.7s-0.2-0.4-0.4-0.5s-0.4-0.3-0.6-0.3c-0.2-0.1-0.5-0.1-0.8-0.1c-0.3,0-0.5,0-0.8,0.1s-0.4,0.2-0.6,0.3
			s-0.3,0.3-0.4,0.4s-0.1,0.3-0.1,0.5h-1.5c0-0.3,0.1-0.6,0.2-0.9c0.2-0.3,0.4-0.6,0.7-0.8s0.6-0.4,1.1-0.6s0.9-0.2,1.4-0.2
			c0.5,0,0.9,0.1,1.3,0.2c0.4,0.1,0.8,0.3,1.1,0.5c0.3,0.2,0.5,0.5,0.7,0.9s0.3,0.8,0.3,1.2v3.9c0,0.3,0,0.6,0.1,0.9
			c0.1,0.3,0.1,0.6,0.2,0.8v0.1H333.7z M331.2,274c0.3,0,0.5,0,0.8-0.1c0.2-0.1,0.5-0.2,0.7-0.3c0.2-0.1,0.4-0.3,0.5-0.4
			c0.1-0.2,0.3-0.3,0.3-0.5V271h-1.3c-0.8,0-1.5,0.1-2,0.4s-0.7,0.6-0.7,1.2c0,0.2,0,0.4,0.1,0.6s0.2,0.3,0.3,0.5s0.3,0.2,0.5,0.3
			C330.6,273.9,330.9,274,331.2,274z"/>
		<path d="M343.3,266.5c0.1,0,0.3,0,0.4,0c0.1,0,0.3,0,0.4,0s0.3,0,0.4,0.1c0.1,0,0.2,0.1,0.3,0.1l-0.2,1.4
			c-0.3-0.1-0.5-0.1-0.8-0.1c-0.3,0-0.5,0-0.8,0c-0.7,0-1.2,0.2-1.6,0.5c-0.4,0.3-0.7,0.7-0.9,1.3v5.4H339v-8.5h1.4l0.1,1.3
			c0.3-0.5,0.8-0.8,1.2-1.1C342.1,266.6,342.7,266.5,343.3,266.5z"/>
		<path d="M351.1,275.2c-0.6,0-1.1-0.1-1.6-0.3c-0.5-0.2-0.9-0.5-1.3-0.9c-0.4-0.4-0.6-0.8-0.8-1.3c-0.2-0.5-0.3-1-0.3-1.6v-0.3
			c0-0.7,0.1-1.3,0.3-1.8s0.5-1,0.9-1.4c0.4-0.4,0.8-0.7,1.2-0.9s0.9-0.3,1.4-0.3c0.6,0,1.1,0.1,1.6,0.3c0.5,0.2,0.8,0.5,1.1,0.9
			c0.3,0.4,0.5,0.8,0.7,1.3s0.2,1.1,0.2,1.6v0.6h-6c0,0.4,0.1,0.7,0.2,1.1s0.3,0.6,0.5,0.9c0.2,0.3,0.5,0.5,0.8,0.6
			c0.3,0.1,0.7,0.2,1.1,0.2c0.5,0,1-0.1,1.4-0.3c0.4-0.2,0.7-0.5,1-0.8l0.9,0.7c-0.1,0.2-0.3,0.4-0.5,0.6s-0.5,0.4-0.7,0.5
			c-0.3,0.2-0.6,0.3-0.9,0.4C351.9,275.2,351.5,275.2,351.1,275.2z M350.9,267.7c-0.3,0-0.6,0.1-0.8,0.2c-0.3,0.1-0.5,0.3-0.7,0.5
			c-0.2,0.2-0.4,0.5-0.5,0.8c-0.1,0.3-0.2,0.6-0.3,1h4.5V270c0-0.3-0.1-0.6-0.2-0.8c-0.1-0.3-0.2-0.5-0.4-0.7
			c-0.2-0.2-0.4-0.4-0.7-0.5C351.6,267.7,351.3,267.7,350.9,267.7z"/>
		<path d="M356.7,270.8c0-0.6,0.1-1.2,0.2-1.7c0.2-0.5,0.4-1,0.7-1.4c0.3-0.4,0.6-0.7,1.1-0.9c0.4-0.2,0.9-0.3,1.4-0.3
			c0.5,0,0.9,0.1,1.3,0.3c0.4,0.2,0.7,0.4,1,0.7v-4.4h1.4v12h-1.3l-0.1-0.9c-0.3,0.3-0.6,0.6-1,0.8s-0.8,0.3-1.4,0.3
			c-0.5,0-1-0.1-1.4-0.3s-0.8-0.5-1.1-0.9c-0.3-0.4-0.5-0.8-0.7-1.4c-0.2-0.5-0.2-1.1-0.2-1.7V270.8z M358.1,270.9
			c0,0.4,0,0.8,0.1,1.2c0.1,0.4,0.2,0.7,0.4,1c0.2,0.3,0.4,0.5,0.7,0.7c0.3,0.2,0.6,0.2,1,0.2c0.2,0,0.5,0,0.7-0.1
			c0.2-0.1,0.4-0.1,0.5-0.2c0.2-0.1,0.3-0.2,0.4-0.4s0.2-0.3,0.3-0.5v-3.9c-0.2-0.3-0.4-0.6-0.8-0.8c-0.3-0.2-0.7-0.3-1.2-0.3
			c-0.4,0-0.8,0.1-1,0.2s-0.5,0.4-0.7,0.7c-0.2,0.3-0.3,0.6-0.4,1c-0.1,0.4-0.1,0.8-0.1,1.2V270.9z"/>
		<path d="M377.5,266.6l0.1,1.2c0.3-0.4,0.7-0.8,1.1-1s0.9-0.4,1.5-0.4c0.4,0,0.8,0.1,1.2,0.2s0.7,0.3,0.9,0.6s0.5,0.6,0.6,1
			s0.2,0.9,0.2,1.5v5.4h-1.4v-5.3c0-0.4,0-0.7-0.1-1s-0.2-0.5-0.4-0.6s-0.4-0.3-0.6-0.4s-0.5-0.1-0.8-0.1c-0.5,0-0.9,0.1-1.3,0.4
			s-0.7,0.6-0.9,1v6.1h-1.4v-8.5H377.5z"/>
		<path d="M389.5,275.2c-0.6,0-1.1-0.1-1.6-0.3s-0.9-0.5-1.3-0.9s-0.6-0.8-0.8-1.3s-0.3-1-0.3-1.6v-0.3c0-0.7,0.1-1.3,0.3-1.8
			s0.5-1,0.9-1.4s0.8-0.7,1.2-0.9s0.9-0.3,1.4-0.3c0.6,0,1.1,0.1,1.6,0.3s0.8,0.5,1.1,0.9s0.5,0.8,0.7,1.3s0.2,1.1,0.2,1.6v0.6h-6
			c0,0.4,0.1,0.7,0.2,1.1s0.3,0.6,0.5,0.9s0.5,0.5,0.8,0.6s0.7,0.2,1.1,0.2c0.5,0,1-0.1,1.4-0.3s0.7-0.5,1-0.8l0.9,0.7
			c-0.1,0.2-0.3,0.4-0.5,0.6s-0.5,0.4-0.7,0.5s-0.6,0.3-0.9,0.4S389.9,275.2,389.5,275.2z M389.3,267.7c-0.3,0-0.6,0.1-0.8,0.2
			s-0.5,0.3-0.7,0.5s-0.4,0.5-0.5,0.8s-0.2,0.6-0.3,1h4.5V270c0-0.3-0.1-0.6-0.2-0.8s-0.2-0.5-0.4-0.7s-0.4-0.4-0.7-0.5
			S389.7,267.7,389.3,267.7z"/>
		<path d="M398.8,264.6v2h3.2v1.1h-3.2v4.6c0,0.3,0,0.6,0.1,0.8s0.2,0.4,0.3,0.5s0.3,0.2,0.5,0.3s0.4,0.1,0.6,0.1c0.2,0,0.3,0,0.5,0
			s0.3,0,0.5-0.1s0.3-0.1,0.4-0.1s0.3-0.1,0.3-0.1l0.2,1c-0.1,0.1-0.3,0.1-0.4,0.2s-0.4,0.1-0.6,0.1s-0.4,0.1-0.6,0.1s-0.5,0-0.7,0
			c-0.4,0-0.7-0.1-1.1-0.2s-0.6-0.3-0.8-0.5s-0.4-0.5-0.6-0.9s-0.2-0.8-0.2-1.3v-4.6h-2.2v-1.1h2.2v-2H398.8z"/>
		<path d="M406.3,272l0.2,1.2l0.2-1.2l1.4-5.4h0.9l1.3,5.4l0.2,1.3l0.2-1.3l0.9-5.4h1.3l-1.8,8.5H410l-1.3-5.2l-0.2-1.3l-0.2,1.3
			l-1.3,5.2h-1.1l-1.8-8.5h1.3L406.3,272z"/>
		<path d="M414.2,270.8c0-0.6,0.1-1.2,0.3-1.7s0.4-1,0.8-1.4s0.7-0.7,1.2-0.9s1-0.3,1.6-0.3c0.6,0,1.1,0.1,1.6,0.3s0.9,0.5,1.2,0.9
			s0.6,0.8,0.8,1.4s0.3,1.1,0.3,1.7v0.2c0,0.6-0.1,1.2-0.3,1.7s-0.4,1-0.8,1.4s-0.7,0.7-1.2,0.9s-1,0.3-1.6,0.3
			c-0.6,0-1.1-0.1-1.6-0.3s-0.9-0.5-1.2-0.9s-0.6-0.8-0.8-1.4s-0.3-1.1-0.3-1.7V270.8z M415.6,270.9c0,0.4,0,0.8,0.1,1.2
			s0.2,0.7,0.4,1s0.5,0.5,0.8,0.7s0.7,0.2,1.1,0.2c0.4,0,0.7-0.1,1-0.2s0.5-0.4,0.8-0.7s0.4-0.6,0.4-1s0.1-0.8,0.1-1.2v-0.2
			c0-0.4-0.1-0.8-0.2-1.2s-0.3-0.7-0.5-1s-0.5-0.5-0.8-0.7s-0.6-0.3-1.1-0.3s-0.8,0.1-1,0.3s-0.5,0.4-0.7,0.7s-0.4,0.6-0.4,1
			s-0.1,0.8-0.1,1.2V270.9z"/>
		<path d="M429.7,266.5c0.1,0,0.3,0,0.4,0s0.3,0,0.4,0s0.3,0,0.4,0.1s0.2,0.1,0.3,0.1l-0.2,1.4c-0.3-0.1-0.5-0.1-0.8-0.1
			s-0.5,0-0.8,0c-0.7,0-1.2,0.2-1.6,0.5s-0.7,0.7-0.9,1.3v5.4h-1.5v-8.5h1.4l0.1,1.3c0.3-0.5,0.8-0.8,1.2-1.1
			S429.1,266.5,429.7,266.5z"/>
		<path d="M436.3,271.1l-1.1,1v2.9h-1.5v-12h1.5v7.3l0.9-1l2.8-2.8h1.8l-3.4,3.5l3.9,4.9h-1.8L436.3,271.1z"/>
	</g>
	<polygon class="st4" points="364.7,303 371.6,293.2 378.4,303 	"/>
	<line class="st0" x1="372" y1="339" x2="372" y2="308"/>
	<ellipse class="st5" cx="371" cy="211" rx="37.9" ry="29"/>
	<path class="st4" d="M377.6,219.7c1.7,0.1,3.2-1.2,3.3-2.9s-1.2-3.2-2.9-3.3c-0.1,0-0.2,0-0.4,0h-17.8c-1.7-0.1-3.2,1.2-3.3,2.9
		s1.2,3.2,2.9,3.3c0.1,0,0.2,0,0.4,0H377.6z"/>
	<path class="st4" d="M379.6,201.1H370c-1.7,0-3.1,1.4-3.1,3.1c0,1.1,0.6,2.2,1.6,2.8c0.5,0.2,1,0.4,1.5,0.4h9.4
		c5.1,0,9.2,4.1,9.2,9.2s-4.1,9.2-9.2,9.2H370c-1.7-0.1-3.2,1.2-3.3,2.9s1.2,3.2,2.9,3.3c0.1,0,0.2,0,0.4,0h9.6
		c8.6,0,15.5-6.9,15.5-15.5S388.2,201.1,379.6,201.1L379.6,201.1z"/>
	<path class="st4" d="M358.7,207.4c1.7-0.1,3.1-1.6,3-3.3c-0.1-1.6-1.4-2.9-3-3h-9c-1.7,0-3.1,1.4-3.1,3.1c0,1.7,1.4,3.1,3.1,3.1
		l0,0L358.7,207.4z"/>
	<path class="st1" d="M237.6,79h-21c-1.6,0-3,1.3-3,2.9l0,0v20.7c0,1.6,1.4,2.9,3,2.9l0,0h6.4l3.9,8.5l3.9-8.5h6.9
		c1.6,0,2.9-1.3,3-2.9V81.9C240.6,80.3,239.2,79,237.6,79z"/>
	<path class="st1" d="M234.3,102.2v-3.1c0-2.1-1.3-3.9-3.3-4.6c1.6-1.1,2.5-3,2.5-4.9c0-3.5-2.9-6.4-6.4-6.4s-6.4,2.9-6.4,6.4
		c0,1.9,0.9,3.8,2.5,4.9c-2,0.7-3.3,2.5-3.3,4.6v3.1"/>
	<circle class="st1" cx="227.1" cy="119" r="2.7"/>
	<path class="st1" d="M293.6,131h-21c-1.6,0-3,1.3-3,2.9l0,0v20.7c0,1.6,1.4,2.9,3,2.9l0,0h6.4l3.9,8.5l3.9-8.5h6.9
		c1.6,0,2.9-1.3,3-2.9v-20.7C296.6,132.3,295.2,131,293.6,131z"/>
	<path class="st1" d="M290.3,154.2v-3.1c0-2.1-1.4-3.9-3.3-4.6c1.6-1.1,2.5-3,2.5-4.9c0-3.5-2.9-6.4-6.4-6.4s-6.4,2.9-6.4,6.4
		c0,1.9,0.9,3.8,2.5,4.9c-2,0.7-3.3,2.5-3.3,4.6v3.1"/>
	<circle class="st1" cx="283.1" cy="171" r="2.7"/>
	<path class="st1" d="M475.6,131h-21c-1.6,0-3,1.3-3,2.9l0,0v20.7c0,1.6,1.4,2.9,3,2.9l0,0h6.4l3.9,8.5l3.9-8.5h6.9
		c1.6,0,2.9-1.3,3-2.9v-20.7C478.6,132.3,477.2,131,475.6,131z"/>
	<path class="st1" d="M472.3,154.2v-3.1c0-2.1-1.4-3.9-3.3-4.6c1.6-1.1,2.5-3,2.5-4.9c0-3.5-2.9-6.4-6.4-6.4s-6.4,2.9-6.4,6.4
		c0,1.9,0.9,3.8,2.5,4.9c-2,0.7-3.3,2.5-3.3,4.6v3.1"/>
	<circle class="st1" cx="465.1" cy="171" r="2.7"/>
	<path class="st1" d="M161.6,170h-21c-1.6,0-3,1.3-3,2.9l0,0v20.7c0,1.6,1.4,2.9,3,2.9l0,0h4.2c1.3,0,2.5,0.8,3,1.9l0,0
		c0.7,1.7,2.7,2.4,4.4,1.6c0.7-0.3,1.3-0.9,1.6-1.6l0,0c0.5-1.2,1.7-1.9,3-1.9h4.8c1.6,0,2.9-1.3,3-2.9v-20.7
		C164.5,171.3,163.2,170,161.6,170z"/>
	<path class="st1" d="M158.3,193.2v-3.1c0-1.1-0.4-2.2-1.2-3.1c-0.8-1-0.9-2.4-0.3-3.5c0.5-0.9,0.7-1.8,0.7-2.8
		c0-3.5-2.9-6.4-6.4-6.4s-6.4,2.9-6.4,6.4c0,1,0.2,1.9,0.7,2.8c0.7,1.1,0.5,2.5-0.3,3.5c-0.8,0.9-1.2,2-1.2,3.1v3.1"/>
	<circle class="st1" cx="151.1" cy="210" r="2.7"/>
	<path class="st1" d="M249.6,232h-21c-1.6,0-3,1.3-3,2.9l0,0v20.7c0,1.6,1.4,2.9,3,2.9l0,0h6.4l3.9,8.5l3.9-8.5h6.9
		c1.6,0,2.9-1.3,3-2.9v-20.7C252.6,233.3,251.2,232,249.6,232z"/>
	<path class="st1" d="M246.3,255.2v-3.1c0-2.1-1.4-3.9-3.3-4.6c1.6-1.1,2.5-3,2.5-4.9c0-3.5-2.9-6.4-6.4-6.4s-6.4,2.9-6.4,6.4
		c0,1.9,0.9,3.8,2.5,4.9c-2,0.7-3.3,2.5-3.3,4.6v3.1"/>
	<circle class="st1" cx="239.1" cy="272" r="2.7"/>
	<path class="st1" d="M133.6,293h-21c-1.6,0-3,1.3-3,2.9l0,0v20.7c0,1.6,1.4,2.9,3,2.9l0,0h6.4l3.9,8.5l3.9-8.5h6.9
		c1.6,0,2.9-1.3,3-2.9v-20.7C136.6,294.3,135.2,293,133.6,293z"/>
	<path class="st1" d="M130.3,316.2v-3.1c0-2.1-1.4-3.9-3.3-4.6c1.6-1.1,2.5-3,2.5-4.9c0-3.5-2.9-6.4-6.4-6.4s-6.4,2.9-6.4,6.4
		c0,1.9,0.9,3.8,2.5,4.9c-2,0.7-3.3,2.5-3.3,4.6v3.1"/>
	<circle class="st1" cx="123.1" cy="333" r="2.7"/>
	<line class="st6" x1="125.4" y1="158.2" x2="128.5" y2="161.5"/>
	<line class="st6" x1="150.5" y1="158.2" x2="147.4" y2="161.5"/>
	<line class="st6" x1="123.3" y1="183.2" x2="127.1" y2="179.6"/>
	<line class="st6" x1="137.7" y1="152.5" x2="137.9" y2="158.1"/>
	<line class="st6" x1="120" y1="170" x2="125" y2="170"/>
	<line class="st6" x1="545.6" y1="66.2" x2="542.5" y2="69.5"/>
	<line class="st6" x1="520.5" y1="66.2" x2="523.6" y2="69.5"/>
	<line class="st6" x1="547.7" y1="91.2" x2="543.9" y2="87.7"/>
	<line class="st6" x1="533.3" y1="60.5" x2="533.1" y2="66.1"/>
	<line class="st6" x1="551" y1="78" x2="546" y2="78"/>
	<line class="st6" x1="533.6" y1="219.2" x2="530.5" y2="222.5"/>
	<line class="st6" x1="508.5" y1="219.2" x2="511.6" y2="222.5"/>
	<line class="st6" x1="535.7" y1="244.2" x2="531.9" y2="240.6"/>
	<line class="st6" x1="521.3" y1="213.5" x2="521.1" y2="219.1"/>
	<line class="st6" x1="539" y1="231" x2="534" y2="231"/>
</g>
</svg>
