<svg height="77" viewBox="0 0 290 77" width="290" xmlns="http://www.w3.org/2000/svg" xmlns:xlink="http://www.w3.org/1999/xlink"><mask id="a" fill="#fff"><path d="m0 .27780429h103.059152v75.57636091h-103.059152z" fill="none"/></mask><mask id="b" fill="#fff"><path d="m0 75.9049318h288.495812v-75.57655794h-288.495812z" fill="none"/></mask><g fill="#070f1b" fill-rule="evenodd" transform="translate(.792969 .5)"><path d="m96.1882569 61.4260744-24.6309951-20.1549309 24.6309951-24.4559718zm-87.78911025 7.5578528 27.96694515-22.8827326 1.4221872 1.4120076c4.939728 4.8300512 7.8359854 7.729264 13.7411326 7.729264s8.8046884-2.8992128 13.741461-7.729264l1.4221872-1.4120076 27.9666168 22.8827326zm-1.52858033-52.1687555 24.63132338 24.4559718-24.63132338 20.1549309zm53.55974718 25.8197084c-4.9948948 4.8885017-6.0873946 5.7370198-8.9009019 5.7370198-2.8131789 0-3.9060071-.8485181-8.777105-5.6165066l-35.88174028-35.60689134h89.31769058zm-60.4303135 33.2192851h103.059152v-75.57655794h-103.059152z" mask="url(#a)" transform="translate(0 .05057)"/><path d="m168.886519 62.8289532h-9.750733v-20.2816832h-19.01416v20.2816832h-9.750734v-47.3235991h9.750734v19.1763768h19.01416v-19.1763768h9.750733z"/><path d="m190.234038 34.5843023c-1.86385 0-3.375026.6311346-4.534186 1.8937321-1.159488 1.2622691-1.901613 3.0689821-2.226375 5.4194822h13.065996v-.7513194c-.043673-2.0894429-.606834-3.7053706-1.69014-4.8477833-1.083634-1.142741-2.622065-1.7141116-4.615295-1.7141116m1.072798 28.8946013c-5.15744 0-9.356028-1.5811201-12.595108-4.7453307-3.239408-3.1635538-4.858948-7.3782323-4.858948-12.6433788v-.909924c0-3.5316609.682361-6.6899607 2.047739-9.474571 1.365051-2.7839536 3.298844-4.9295484 5.80171-6.4357993 2.502537-1.5055942 5.357091-2.2585555 8.564319-2.2585555 4.810348 0 8.596827 1.5167589 11.359437 4.5502766 2.762609 3.0338462 4.144406 7.334887 4.144406 12.903451v3.8354067h-22.394441c.303089 2.2969751 1.218924 4.1388241 2.746519 5.5252186 1.527596 1.3867228 3.461718 2.0802484 5.801381 2.0802484 3.61868 0 6.446308-1.3108685 8.483211-3.9329337l4.615623 5.1679478c-1.408724 1.9938861-3.315591 3.548408-5.720601 4.6642223-2.40501 1.1158144-5.070093 1.6737216-7.995247 1.6737216"/><path d="m209.924156 62.8290846h9.425644v-49.9236634h-9.425644z" mask="url(#b)"/><path d="m225.908739 62.8290846h9.425643v-49.9236634h-9.425643z" mask="url(#b)"/><path d="m249.336507 45.5867641c0 3.3425176.628179 5.897923 1.885194 7.6662162 1.256358 1.7686217 3.05519 2.6529325 5.395511 2.6529325 2.275302 0 4.051805-.8734745 5.330164-2.6207518 1.27836-1.7466206 1.917704-4.5404254 1.917704-8.3817429 0-3.2768427-.639344-5.8161578-1.917704-7.6172885-1.278359-1.8011306-3.076863-2.7018601-5.395182-2.7018601-2.296975 0-4.074135.8954755-5.330493 2.6854415-1.257015 1.7906226-1.885194 4.5630831-1.885194 8.3170531zm-9.393135-.6665989c0-3.4883155.671196-6.598016 2.015231-9.3281163 1.343049-2.7304287 3.277171-4.8431861 5.801709-6.3379439 2.523882-1.4954146 5.454947-2.2427935 8.791882-2.2427935 4.745331 0 8.618172 1.4520692 11.619509 4.3552225 3.001009 2.9038101 4.675059 6.8472518 5.021493 11.8309819l.065346 2.4050102c0 5.3955109-1.50625 9.7238068-4.517767 12.9848876-3.012174 3.2610808-7.053471 4.8914571-12.123563 4.8914571-5.070749 0-9.116972-1.6251223-12.139653-4.8750384-3.022682-3.2505728-4.534187-7.6708134-4.534187-13.26105z" mask="url(#b)"/><path d="m277.867532 58.2134287c0-1.4950862.503726-2.7080992 1.511505-3.6400242 1.007451-.9315967 2.269392-1.3978876 3.786479-1.3978876 1.538103 0 2.811209.4662909 3.818988 1.3978876 1.007451.931925 1.511177 2.144938 1.511177 3.6400242 0 1.4737419-.498472 2.670993-1.495086 3.5917533-.996943.9210887-2.274975 1.3814689-3.835079 1.3814689-1.539088 0-2.806611-.4603802-3.802897-1.3814689-.996944-.9207603-1.495087-2.1180114-1.495087-3.5917533" mask="url(#b)"/></g></svg>