<svg height="231" viewBox="0 0 879 231" width="879" xmlns="http://www.w3.org/2000/svg"><g fill="#070f1b" fill-rule="evenodd"><path d="m292.923 186.2154-75.009-61.378 75.009-74.476zm-267.345 23.016 85.168-69.685 4.331 4.3c15.043 14.709 23.863 23.538 41.846 23.538s26.813-8.829 41.847-23.538l4.331-4.3 85.167 69.685zm-4.655-158.87 75.01 74.476-75.01 61.378zm163.106 78.629c-15.211 14.887-18.538 17.471-27.106 17.471-8.567 0-11.895-2.584-26.729-17.104l-109.271-108.434h272zm-184.029 101.163h313.847v-230.154h-313.847z"/><path d="m514.3117 190.3336h-29.694v-61.764h-57.904v61.764h-29.694v-144.115h29.694v58.398h57.904v-58.398h29.694z"/><path d="m579.3215 104.3199c-5.676 0-10.278 1.922-13.808 5.767-3.531 3.844-5.791 9.346-6.78 16.504h39.79v-2.288c-.133-6.363-1.848-11.284-5.147-14.763-3.3-3.48-7.985-5.22-14.055-5.22m3.267 87.993c-15.706 0-28.492-4.815-38.356-14.451-9.865-9.634-14.797-22.469-14.797-38.503v-2.771c0-10.755 2.078-20.373 6.236-28.853 4.157-8.478 10.046-15.012 17.668-19.599 7.621-4.585 16.314-6.878 26.081-6.878 14.649 0 26.18 4.619 34.593 13.857 8.413 9.239 12.621 22.337 12.621 39.295v11.68h-68.198c.923 6.995 3.712 12.604 8.364 16.826 4.652 4.223 10.542 6.335 17.667 6.335 11.02 0 19.631-3.992 25.834-11.977l14.056 15.738c-4.29 6.072-10.097 10.806-17.421 14.204s-15.44 5.097-24.348 5.097"/><path d="m639.284 190.334h28.704v-152.033h-28.704z"/><path d="m687.962 190.334h28.704v-152.033h-28.704z"/><path d="m759.3068 137.8258c0 10.179 1.913 17.961 5.741 23.346 3.826 5.386 9.304 8.079 16.431 8.079 6.929 0 12.339-2.66 16.232-7.981 3.893-5.319 5.84-13.827 5.84-25.525 0-9.979-1.947-17.712-5.84-23.197s-9.37-8.228-16.43-8.228c-6.995 0-12.407 2.727-16.233 8.178-3.828 5.453-5.741 13.896-5.741 25.328zm-28.605-2.03c0-10.623 2.044-20.093 6.137-28.407 4.09-8.315 9.98-14.749 17.668-19.301 7.686-4.554 16.612-6.83 26.774-6.83 14.451 0 26.245 4.422 35.385 13.263 9.139 8.843 14.237 20.852 15.292 36.029l.199 7.324c0 16.431-4.587 29.612-13.758 39.543-9.173 9.931-21.48 14.896-36.92 14.896-15.442 0-27.764-4.949-36.969-14.846-9.205-9.899-13.808-23.36-13.808-40.384z"/><path d="m846.1926 176.2779c0-4.553 1.534-8.247 4.603-11.085 3.068-2.837 6.911-4.257 11.531-4.257 4.684 0 8.561 1.42 11.63 4.257 3.068 2.838 4.602 6.532 4.602 11.085 0 4.488-1.518 8.134-4.553 10.938-3.036 2.805-6.928 4.207-11.679 4.207-4.687 0-8.547-1.402-11.581-4.207-3.036-2.804-4.553-6.45-4.553-10.938"/></g></svg>