<svg viewBox="0 0 804.6 804.6" xmlns="http://www.w3.org/2000/svg"><path d="m623.1 250.7c-72.2-54.2-141-52.7-141-52.7l-7.1 8c85.3 26 124.9 63.6 124.9 63.6-52.1-28.5-103.2-42.6-150.9-48-36.1-4-70.7-3-101.3 1-3 0-5.5.5-8.6 1-17.6 1.5-60.2 8-113.9 31.6-18.5 8.6-29.6 14.6-29.6 14.6s41.7-39.8 131.9-65.8l-5-6s-68.7-1.5-140.9 52.6c0 0-72.2 130.9-72.2 292.3 0 0 42.1 72.7 153 76.2 0 0 18.5-22.6 33.6-41.7-63.6-19.1-87.7-59.1-87.7-59.1s5 3.5 14 8.6c.5.5 1 1 2 1.5 1.5 1 3 1.5 4.5 2.5 12.5 7.1 25.1 12.5 36.6 17 20.6 8 45.1 16.1 73.7 21.5 37.6 7.1 81.7 9.5 129.8.5 23.6-4 47.7-11 72.7-21.5 17.6-6.5 37.1-16.1 57.6-29.6 0 0-25.1 41.1-90.7 59.7 15 19.1 33.1 40.6 33.1 40.6 110.8-3.5 153.4-76.2 153.4-76.2.3-161.4-71.9-292.2-71.9-292.2zm-314.4 245.6c-28.1 0-51.1-25.1-51.1-55.7s22.6-55.7 51.1-55.7c28.6 0 51.6 25.1 51.1 55.7 0 30.7-22.6 55.7-51.1 55.7zm182.9 0c-28.1 0-51.1-25.1-51.1-55.7s22.6-55.7 51.1-55.7c28.6 0 51.1 25.1 51.1 55.7s-22.5 55.7-51.1 55.7z" fill="#04111d"/></svg>