<?xml version="1.0" encoding="utf-8"?>
<!-- Generator: Adobe Illustrator 22.0.1, SVG Export Plug-In . SVG Version: 6.00 Build 0)  -->
<svg version="1.1" id="Layer_1" xmlns="http://www.w3.org/2000/svg" xmlns:xlink="http://www.w3.org/1999/xlink" x="0px" y="0px"
	 viewBox="0 0 804.6 804.6" style="enable-background:new 0 0 804.6 804.6;" xml:space="preserve">
<style type="text/css">
	.st0{fill:#FFFFFF;}
</style>
<path class="st0" d="M623.1,250.7c-72.2-54.2-141-52.7-141-52.7l-7.1,8c85.3,26,124.9,63.6,124.9,63.6
	C547.8,241.1,496.7,227,449,221.6c-36.1-4-70.7-3-101.3,1c-3,0-5.5,0.5-8.6,1c-17.6,1.5-60.2,8-113.9,31.6
	c-18.5,8.6-29.6,14.6-29.6,14.6S237.3,230,327.5,204l-5-6c0,0-68.7-1.5-140.9,52.6c0,0-72.2,130.9-72.2,292.3
	c0,0,42.1,72.7,153,76.2c0,0,18.5-22.6,33.6-41.7c-63.6-19.1-87.7-59.1-87.7-59.1s5,3.5,14,8.6c0.5,0.5,1,1,2,1.5
	c1.5,1,3,1.5,4.5,2.5c12.5,7.1,25.1,12.5,36.6,17c20.6,8,45.1,16.1,73.7,21.5c37.6,7.1,81.7,9.5,129.8,0.5c23.6-4,47.7-11,72.7-21.5
	c17.6-6.5,37.1-16.1,57.6-29.6c0,0-25.1,41.1-90.7,59.7c15,19.1,33.1,40.6,33.1,40.6c110.8-3.5,153.4-76.2,153.4-76.2
	C695.3,381.5,623.1,250.7,623.1,250.7L623.1,250.7z M308.7,496.3c-28.1,0-51.1-25.1-51.1-55.7s22.6-55.7,51.1-55.7
	c28.6,0,51.6,25.1,51.1,55.7C359.8,471.3,337.2,496.3,308.7,496.3z M491.6,496.3c-28.1,0-51.1-25.1-51.1-55.7s22.6-55.7,51.1-55.7
	c28.6,0,51.1,25.1,51.1,55.7S520.2,496.3,491.6,496.3z"/>
</svg>
