<?xml version="1.0" encoding="utf-8"?>
<!-- Generator: Adobe Illustrator 22.0.1, SVG Export Plug-In . SVG Version: 6.00 Build 0)  -->
<svg version="1.1" id="Layer_1" xmlns="http://www.w3.org/2000/svg" xmlns:xlink="http://www.w3.org/1999/xlink" x="0px" y="0px"
	 viewBox="0 0 195 195" style="enable-background:new 0 0 195 195;" xml:space="preserve">
<style type="text/css">
	.st0{fill:#FFFFFF;}
</style>
<title>Monogram</title>
<g>
	<path class="st0" d="M42.9,62.4c0.2-1.7-0.5-3.5-1.9-4.7l-13.2-16v-2.4h41.5l32.1,70.3l28.1-70.3H169v2.4l-11.5,10.9
		c-1,0.8-1.4,2-1.3,3.2v80.5c-0.2,1.2,0.3,2.4,1.3,3.2l11.1,10.9v2.4h-56.1v-2.4l11.6-11.2c1.1-1.1,1.1-1.4,1.1-3.2v-65l-32.1,81.5
		h-4.4L51.5,70.9v54.7c-0.3,2.3,0.4,4.6,2.1,6.2l15,18.3v2.4H26v-2.4l15.1-18.2c1.6-1.6,2.3-4,2-6.2V62.4H42.9z"/>
</g>
</svg>
