<?xml version="1.0" encoding="utf-8"?>
<!-- Generator: Adobe Illustrator 22.0.1, SVG Export Plug-In . SVG Version: 6.00 Build 0)  -->
<svg version="1.1" id="Layer_1" xmlns="http://www.w3.org/2000/svg" xmlns:xlink="http://www.w3.org/1999/xlink" x="0px" y="0px"
	 viewBox="0 0 804.6 804.6" style="enable-background:new 0 0 804.6 804.6;" xml:space="preserve">
<style type="text/css">
	.st0{fill:#FFFFFF;}
</style>
<path class="st0" d="M690,402.6c-1.3-34.7-30.5-61.9-65.3-60.7c-15.4,0.5-30.1,6.9-41.3,17.5c-49.1-33.5-106.8-51.8-166.1-53.1
	l28-134.6l92.3,19.4c2.6,23.7,23.8,40.9,47.5,38.3c23.7-2.6,40.9-23.8,38.3-47.5c-2.6-23.7-23.8-40.9-47.5-38.3
	c-13.6,1.4-25.8,9.3-32.6,21.1l-105.7-21.1c-7.2-1.6-14.4,2.9-16,10.2v0.2l-31.8,149.7c-60.1,1-118.5,19.4-168.3,53.1
	c-25.3-23.8-65.2-22.6-89,2.8c-23.8,25.3-22.6,65.2,2.8,89c4.9,4.6,10.6,8.6,16.9,11.4c-0.4,6.3-0.4,12.7,0,19
	c0,96.6,112.6,175.2,251.5,175.2s251.5-78.5,251.5-175.2c0.4-6.3,0.4-12.7,0-19C676.8,449.1,690.4,426.8,690,402.6L690,402.6z
	 M258.6,445.8c0-23.8,19.4-43.2,43.2-43.2c23.8,0,43.2,19.4,43.2,43.2c0,23.8-19.4,43.2-43.2,43.2
	C277.9,488.8,258.6,469.6,258.6,445.8z M509.2,564.4c-30.7,23.1-68.2,34.9-106.6,33.2c-38.4,1.6-75.9-10.2-106.6-33.2
	c-4.1-4.9-3.3-12.3,1.6-16.4c4.3-3.5,10.4-3.5,14.8,0c26,19,57.6,28.6,89.8,27.1c32.2,1.7,63.9-7.5,90.2-26.3
	c4.7-4.6,12.4-4.5,17.1,0.2c4.6,4.7,4.5,12.4-0.2,17.1V564.4L509.2,564.4z M501.5,490.5c-23.8,0-43.2-19.4-43.2-43.2
	c0-23.8,19.4-43.2,43.2-43.2s43.2,19.4,43.2,43.2c1,23.8-17.6,43.9-41.4,44.8h-2.1L501.5,490.5L501.5,490.5z"/>
</svg>
