<svg id="Layer_1" xmlns="http://www.w3.org/2000/svg" viewBox="0 0 804.6 804.6"><style>.st0{fill:#fff}</style><path class="st0" d="M690 402.6c-1.3-34.7-30.5-61.9-65.3-60.7-15.4.5-30.1 6.9-41.3 17.5-49.1-33.5-106.8-51.8-166.1-53.1l28-134.6 92.3 19.4c2.6 23.7 23.8 40.9 47.5 38.3 23.7-2.6 40.9-23.8 38.3-47.5-2.6-23.7-23.8-40.9-47.5-38.3-13.6 1.4-25.8 9.3-32.6 21.1l-105.7-21.1c-7.2-1.6-14.4 2.9-16 10.2v.2l-31.8 149.7c-60.1 1-118.5 19.4-168.3 53.1-25.3-23.8-65.2-22.6-89 2.8-23.8 25.3-22.6 65.2 2.8 89 4.9 4.6 10.6 8.6 16.9 11.4-.4 6.3-.4 12.7 0 19 0 96.6 112.6 175.2 251.5 175.2S655.2 575.7 655.2 479c.4-6.3.4-12.7 0-19 21.6-10.9 35.2-33.2 34.8-57.4zm-431.4 43.2c0-23.8 19.4-43.2 43.2-43.2 23.8 0 43.2 19.4 43.2 43.2 0 23.8-19.4 43.2-43.2 43.2-23.9-.2-43.2-19.4-43.2-43.2zm250.6 118.6c-30.7 23.1-68.2 34.9-106.6 33.2-38.4 1.6-75.9-10.2-106.6-33.2-4.1-4.9-3.3-12.3 1.6-16.4 4.3-3.5 10.4-3.5 14.8 0 26 19 57.6 28.6 89.8 27.1 32.2 1.7 63.9-7.5 90.2-26.3 4.7-4.6 12.4-4.5 17.1.2 4.6 4.7 4.5 12.4-.2 17.1v-1.7h-.1zm-7.7-73.9c-23.8 0-43.2-19.4-43.2-43.2 0-23.8 19.4-43.2 43.2-43.2s43.2 19.4 43.2 43.2c1 23.8-17.6 43.9-41.4 44.8h-2.1l.3-1.6z"/></svg>