<svg height="512" viewBox="0 0 512 512" width="512" xmlns="http://www.w3.org/2000/svg"><path d="m175.292 123.158c55.974-.059 182.935-.039 238.896-.009 9.062-.385 17.491 7.286 17.521 16.426.158 46.409-.01 92.828.079 139.236 24.737.089 49.475-.02 74.212.06-32.91 36.401-66.107 72.547-99.176 108.8-1.519 2.8-3.354.049-4.753-1.341-32.438-35.948-65.467-71.363-97.796-107.4 24.658-.216 49.307 0 73.966-.108.246-34.045.216-68.1.009-102.135-26.64-.108-124.279.01-150.919-.059-17.184-17.975-34.942-35.407-52.039-53.47zm-70.095 1.196c1.716-3.026 3.697.483 5.236 1.864 32.339 35.711 65.181 70.979 97.303 106.877-24.708.247-49.416-.06-74.124.148-.098 33.995-.049 67.991-.019 101.986 26.709.237 127.365-.03 154.084.138 17.195 17.935 34.933 35.356 51.95 53.459-56.269 0-186.484.049-242.752-.03-9.129.09-17.017-8.242-16.643-17.322-.05-46.093.029-92.177-.029-138.261-24.737-.099-49.466.04-74.203-.068 32.852-36.451 66.049-72.606 99.197-108.791z" fill="#8f8f90"/></svg>