<?xml version="1.0" encoding="utf-8"?>
<!-- Generator: Adobe Illustrator 22.0.1, SVG Export Plug-In . SVG Version: 6.00 Build 0)  -->
<svg version="1.1" id="Layer_1" xmlns="http://www.w3.org/2000/svg" xmlns:xlink="http://www.w3.org/1999/xlink" x="0px" y="0px"
	 viewBox="0 0 240 240" style="enable-background:new 0 0 240 240;" xml:space="preserve">
<style type="text/css">
	.st0{fill:#D6D6D6;}
	.st1{fill:#C2C2C2;}
	.st2{fill:url(#SVGID_1_);}
</style>
<g>
	<path class="st0" d="M97.5,186.9c-5.4,0-4.4-2.1-6.4-7.2l-15.9-52.3l122.4-72.6"/>
	<path class="st1" d="M97.5,186.9c4.2,0,6-1.9,8.3-4.2l22.2-21.7l-27.8-16.7"/>
	
		<linearGradient id="SVGID_1_" gradientUnits="userSpaceOnUse" x1="-652.2604" y1="26.6009" x2="-651.9934" y2="27.1084" gradientTransform="matrix(130.4927 0 0 109.4496 85255.125 -2797.0601)">
		<stop  offset="0" style="stop-color:#EFF7FC"/>
		<stop  offset="1" style="stop-color:#FFFFFF"/>
	</linearGradient>
	<path class="st2" d="M100.3,144.3l67.3,49.6c7.6,4.2,13.2,2.1,15.2-7.1L210.1,58c2.8-11.3-4.3-16.3-11.7-12.9L37.7,106.9
		c-11,4.4-10.8,10.6-1.9,13.2L77.1,133l95.5-60.2c4.4-2.8,8.6-1.3,5.3,1.8"/>
</g>
</svg>
