<svg viewBox="0 0 240 240" xmlns="http://www.w3.org/2000/svg" xmlns:xlink="http://www.w3.org/1999/xlink"><linearGradient id="a" gradientTransform="matrix(130.4927 0 0 109.4496 85255.125 -2797.06)" gradientUnits="userSpaceOnUse" x1="-652.26" x2="-651.993" y1="26.601" y2="27.108"><stop offset="0" stop-color="#04111d"/><stop offset="1"/></linearGradient><path d="m97.5 186.9c-5.4 0-4.4-2.1-6.4-7.2l-15.9-52.3 122.4-72.6" fill="#666"/><path d="m97.5 186.9c4.2 0 6-1.9 8.3-4.2l22.2-21.7-27.8-16.7" fill="#222"/><path d="m100.3 144.3 67.3 49.6c7.6 4.2 13.2 2.1 15.2-7.1l27.3-128.8c2.8-11.3-4.3-16.3-11.7-12.9l-160.7 61.8c-11 4.4-10.8 10.6-1.9 13.2l41.3 12.9 95.5-60.2c4.4-2.8 8.6-1.3 5.3 1.8" fill="url(#a)"/></svg>