<?xml version="1.0" encoding="utf-8"?>
<!-- Generator: Adobe Illustrator 22.0.1, SVG Export Plug-In . SVG Version: 6.00 Build 0)  -->
<svg version="1.1" id="Layer_1" xmlns="http://www.w3.org/2000/svg" xmlns:xlink="http://www.w3.org/1999/xlink" x="0px" y="0px"
	 viewBox="0 0 468 468" style="enable-background:new 0 0 468 468;" xml:space="preserve">
<style type="text/css">
	.st0{fill:#FFFFFF;}
</style>
<path class="st0" d="M364.2,167.2c0.1,2.9,0.2,5.8,0.2,8.7c0,88.9-67.7,191.4-191.4,191.4c-37.9,0-73.3-11.1-102.9-30.3
	c5.2,0.5,10.7,0.9,16.1,0.9c31.5,0,60.5-10.8,83.5-28.8c-29.3-0.5-54.3-20-62.8-46.8c4.1,0.7,8.4,1.2,12.6,1.2
	c6.2,0,12.1-0.9,17.7-2.5c-30.8-6.2-54-33.3-54-65.8v-0.9c9,4.9,19.5,8,30.5,8.4c-18.1-12.1-29.9-32.7-29.9-56
	c0-12.3,3.3-23.9,9.1-33.7c33.1,40.7,82.8,67.4,138.6,70.3c-1.2-4.8-1.7-10-1.7-15.3c0-37,30-67.2,67.2-67.2
	c19.4,0,36.7,8.1,49,21.2c15.3-3,29.7-8.6,42.7-16.3c-5,15.7-15.7,28.8-29.5,37.1c13.6-1.6,26.5-5.1,38.6-10.6
	C388.7,145.9,377.3,157.8,364.2,167.2z"/>
</svg>
