<svg viewBox="0 0 468 468" xmlns="http://www.w3.org/2000/svg"><path d="m364.2 167.2c.1 2.9.2 5.8.2 8.7 0 88.9-67.7 191.4-191.4 191.4-37.9 0-73.3-11.1-102.9-30.3 5.2.5 10.7.9 16.1.9 31.5 0 60.5-10.8 83.5-28.8-29.3-.5-54.3-20-62.8-46.8 4.1.7 8.4 1.2 12.6 1.2 6.2 0 12.1-.9 17.7-2.5-30.8-6.2-54-33.3-54-65.8v-.9c9 4.9 19.5 8 30.5 8.4-18.1-12.1-29.9-32.7-29.9-56 0-12.3 3.3-23.9 9.1-33.7 33.1 40.7 82.8 67.4 138.6 70.3-1.2-4.8-1.7-10-1.7-15.3 0-37 30-67.2 67.2-67.2 19.4 0 36.7 8.1 49 21.2 15.3-3 29.7-8.6 42.7-16.3-5 15.7-15.7 28.8-29.5 37.1 13.6-1.6 26.5-5.1 38.6-10.6-9.1 13.7-20.5 25.6-33.6 35z" fill="#04111d"/></svg>