<?xml version="1.0" encoding="utf-8"?>
<!-- Generator: Adobe Illustrator 21.0.2, SVG Export Plug-In . SVG Version: 6.00 Build 0)  -->
<svg version="1.1" id="Layer_1" xmlns="http://www.w3.org/2000/svg" xmlns:xlink="http://www.w3.org/1999/xlink" x="0px" y="0px"
	 viewBox="0 0 181.6 116.4" style="enable-background:new 0 0 181.6 116.4;" xml:space="preserve">
<style type="text/css">
	.st0{fill:#9B0029;}
	.st1{filter:url(#Adobe_OpacityMaskFilter);}
	.st2{mask:url(#SVGID_15_);}
	.st3{fill:#501C16;}
	.st4{fill:#9A3121;}
	.st5{fill:#B33824;}
	.st6{fill:#E5462C;}
	.st7{fill:#371512;}
	.st8{fill:#812A1D;}
	.st9{fill:#CC3F28;}
	.st10{fill:#FFFFFF;}
	.st11{fill:#21262D;}
	.st12{clip-path:url(#SVGID_17_);fill:#1E3A1A;}
	.st13{clip-path:url(#SVGID_17_);fill:#45882F;}
	.st14{clip-path:url(#SVGID_17_);fill:#4D9D27;}
	.st15{clip-path:url(#SVGID_17_);fill:#54B11F;}
	.st16{clip-path:url(#SVGID_17_);fill:#3D7437;}
	.st17{clip-path:url(#SVGID_17_);fill:#365F3E;}
	.st18{clip-path:url(#SVGID_19_);fill:#565037;}
	.st19{clip-path:url(#SVGID_19_);fill:#EFB31D;}
	.st20{clip-path:url(#SVGID_19_);fill:#C18D0A;}
	.st21{clip-path:url(#SVGID_19_);fill:#86702B;}
	.st22{clip-path:url(#SVGID_19_);fill:#2D2A1F;}
	.st23{clip-path:url(#SVGID_19_);fill:#F9BE2B;}
	.st24{clip-path:url(#SVGID_19_);fill:#9F7F25;}
	.st25{clip-path:url(#SVGID_19_);fill:#FFBF0D;}
	.st26{clip-path:url(#SVGID_19_);fill:#6E6031;}
	.st27{clip-path:url(#SVGID_20_);fill:#565037;}
	.st28{clip-path:url(#SVGID_20_);fill:#EFB31D;}
	.st29{clip-path:url(#SVGID_20_);fill:#C18D0A;}
	.st30{clip-path:url(#SVGID_20_);fill:#86702B;}
	.st31{clip-path:url(#SVGID_20_);fill:#2D2A1F;}
	.st32{clip-path:url(#SVGID_20_);fill:#F9BE2B;}
	.st33{clip-path:url(#SVGID_20_);fill:#9F7F25;}
	.st34{clip-path:url(#SVGID_20_);fill:#FFBF0D;}
	.st35{clip-path:url(#SVGID_20_);fill:#6E6031;}
	.st36{fill:#FFBF0D;}
	.st37{clip-path:url(#SVGID_22_);fill:#170D5E;}
	.st38{clip-path:url(#SVGID_22_);fill:#5F2E48;}
	.st39{clip-path:url(#SVGID_22_);fill:#BF5B2B;}
	.st40{clip-path:url(#SVGID_22_);fill:#A75033;}
	.st41{clip-path:url(#SVGID_22_);fill:#EF711D;}
	.st42{clip-path:url(#SVGID_22_);fill:#D76624;}
	.st43{clip-path:url(#SVGID_22_);fill:#472350;}
	.st44{clip-path:url(#SVGID_24_);fill:#2B976C;}
	.st45{clip-path:url(#SVGID_24_);fill:#27414A;}
	.st46{clip-path:url(#SVGID_24_);fill:#263043;}
	.st47{clip-path:url(#SVGID_24_);fill:#2CA973;}
	.st48{clip-path:url(#SVGID_24_);fill:#2A755F;}
	.st49{clip-path:url(#SVGID_24_);fill:#2A8665;}
	.st50{clip-path:url(#SVGID_24_);fill:#2DBA7A;}
	.st51{clip-path:url(#SVGID_26_);fill:#265666;}
	.st52{clip-path:url(#SVGID_26_);fill:#27B6BD;}
	.st53{clip-path:url(#SVGID_26_);fill:#264354;}
	.st54{clip-path:url(#SVGID_26_);fill:#111F26;}
	.st55{clip-path:url(#SVGID_26_);fill:#27DCE0;}
	.st56{clip-path:url(#SVGID_26_);fill:#266977;}
	.st57{clip-path:url(#SVGID_26_);fill:#27A3AC;}
	.st58{fill:#266977;}
	.st59{clip-path:url(#SVGID_28_);fill:#832C5C;}
	.st60{clip-path:url(#SVGID_28_);fill:#E02975;}
	.st61{clip-path:url(#SVGID_28_);fill:#C92A6F;}
	.st62{clip-path:url(#SVGID_28_);fill:#542E4F;}
	.st63{clip-path:url(#SVGID_28_);fill:#6C2D56;}
	.st64{clip-path:url(#SVGID_28_);fill:#263043;}
	.st65{clip-path:url(#SVGID_28_);fill:#9A2C62;}
	.st66{clip-path:url(#SVGID_30_);fill:#1D5776;}
	.st67{clip-path:url(#SVGID_30_);fill:#118CBB;}
	.st68{clip-path:url(#SVGID_30_);fill:#177299;}
	.st69{clip-path:url(#SVGID_30_);fill:#204A65;}
	.st70{clip-path:url(#SVGID_30_);fill:#233D54;}
	.st71{clip-path:url(#SVGID_30_);fill:#263043;}
	.st72{fill:#0BA6DD;}
	.st73{clip-path:url(#SVGID_32_);}
	.st74{fill:#E42918;}
	.st75{fill:#C92A1E;}
	.st76{fill:#4A4870;}
	.st77{fill:#5C2E37;}
	.st78{fill:#263043;}
	.st79{fill:#932C2B;}
	.st80{fill:#585158;}
	.st81{fill:#3F4F70;}
	.st82{fill:#772D31;}
	.st83{fill:#365888;}
	.st84{clip-path:url(#SVGID_34_);fill:#832C5C;}
	.st85{clip-path:url(#SVGID_34_);fill:#E02975;}
	.st86{clip-path:url(#SVGID_34_);fill:#C92A6F;}
	.st87{clip-path:url(#SVGID_34_);fill:#542E4F;}
	.st88{clip-path:url(#SVGID_34_);fill:#6C2D56;}
	.st89{clip-path:url(#SVGID_34_);fill:#263043;}
	.st90{clip-path:url(#SVGID_34_);fill:#9A2C62;}
	.st91{fill:#E02975;}
	.st92{clip-path:url(#SVGID_36_);fill:#E42918;}
	.st93{clip-path:url(#SVGID_36_);fill:#C92A1E;}
	.st94{clip-path:url(#SVGID_36_);fill:#4A4870;}
	.st95{clip-path:url(#SVGID_36_);fill:#5C2E37;}
	.st96{clip-path:url(#SVGID_36_);fill:#263043;}
	.st97{clip-path:url(#SVGID_36_);fill:#932C2B;}
	.st98{clip-path:url(#SVGID_36_);fill:#585158;}
	.st99{clip-path:url(#SVGID_36_);fill:#3F4F70;}
	.st100{clip-path:url(#SVGID_36_);fill:#772D31;}
	.st101{clip-path:url(#SVGID_36_);fill:#365888;}
	.st102{clip-path:url(#SVGID_36_);fill:#FFFFFF;}
	.st103{fill:#71AFAC;}
	.st104{fill:#8773DD;}
	.st105{clip-path:url(#SVGID_38_);fill:#565037;}
	.st106{clip-path:url(#SVGID_38_);fill:#EFB31D;}
	.st107{clip-path:url(#SVGID_38_);fill:#C18D0A;}
	.st108{clip-path:url(#SVGID_38_);fill:#86702B;}
	.st109{clip-path:url(#SVGID_38_);fill:#2D2A1F;}
	.st110{clip-path:url(#SVGID_38_);fill:#F9BE2B;}
	.st111{clip-path:url(#SVGID_38_);fill:#9F7F25;}
	.st112{clip-path:url(#SVGID_38_);fill:#FFBF0D;}
	.st113{clip-path:url(#SVGID_38_);fill:#6E6031;}
	.st114{clip-path:url(#SVGID_39_);fill:#565037;}
	.st115{clip-path:url(#SVGID_39_);fill:#EFB31D;}
	.st116{clip-path:url(#SVGID_39_);fill:#C18D0A;}
	.st117{clip-path:url(#SVGID_39_);fill:#86702B;}
	.st118{clip-path:url(#SVGID_39_);fill:#2D2A1F;}
	.st119{clip-path:url(#SVGID_39_);fill:#F9BE2B;}
	.st120{clip-path:url(#SVGID_39_);fill:#9F7F25;}
	.st121{clip-path:url(#SVGID_39_);fill:#FFBF0D;}
	.st122{clip-path:url(#SVGID_39_);fill:#6E6031;}
	.st123{clip-path:url(#SVGID_41_);fill:#1D5776;}
	.st124{clip-path:url(#SVGID_41_);fill:#118CBB;}
	.st125{clip-path:url(#SVGID_41_);fill:#177299;}
	.st126{clip-path:url(#SVGID_41_);fill:#204A65;}
	.st127{clip-path:url(#SVGID_41_);fill:#233D54;}
	.st128{clip-path:url(#SVGID_41_);fill:#263043;}
	.st129{clip-path:url(#SVGID_42_);fill:#170D5E;}
	.st130{clip-path:url(#SVGID_42_);fill:#5F2E48;}
	.st131{clip-path:url(#SVGID_42_);fill:#BF5B2B;}
	.st132{clip-path:url(#SVGID_42_);fill:#A75033;}
	.st133{clip-path:url(#SVGID_42_);fill:#EF711D;}
	.st134{clip-path:url(#SVGID_42_);fill:#D76624;}
	.st135{clip-path:url(#SVGID_42_);fill:#472350;}
	.st136{fill:#EF711D;}
	.st137{clip-path:url(#SVGID_43_);fill:#2B976C;}
	.st138{clip-path:url(#SVGID_43_);fill:#27414A;}
	.st139{clip-path:url(#SVGID_43_);fill:#263043;}
	.st140{clip-path:url(#SVGID_43_);fill:#2CA973;}
	.st141{clip-path:url(#SVGID_43_);fill:#2A755F;}
	.st142{clip-path:url(#SVGID_43_);fill:#2A8665;}
	.st143{clip-path:url(#SVGID_43_);fill:#2DBA7A;}
	.st144{fill:#2DBA7A;}
	.st145{fill:#5CC617;}
	.st146{clip-path:url(#SVGID_44_);fill:#265666;}
	.st147{clip-path:url(#SVGID_44_);fill:#27B6BD;}
	.st148{clip-path:url(#SVGID_44_);fill:#264354;}
	.st149{clip-path:url(#SVGID_44_);fill:#111F26;}
	.st150{clip-path:url(#SVGID_44_);fill:#27DCE0;}
	.st151{clip-path:url(#SVGID_44_);fill:#266977;}
	.st152{clip-path:url(#SVGID_44_);fill:#27A3AC;}
	.st153{fill:#27DCE0;}
	.st154{clip-path:url(#SVGID_45_);fill:#501C16;}
	.st155{clip-path:url(#SVGID_45_);fill:#E5462C;}
	.st156{clip-path:url(#SVGID_45_);fill:#812A1D;}
	.st157{clip-path:url(#SVGID_45_);fill:#9A3121;}
	.st158{clip-path:url(#SVGID_45_);fill:#CC3F28;}
	.st159{clip-path:url(#SVGID_45_);fill:#66221D;}
	.st160{clip-path:url(#SVGID_45_);fill:#B33824;}
	.st161{clip-path:url(#SVGID_45_);fill:#371512;}
	.st162{clip-path:url(#SVGID_45_);fill:none;}
	.st163{clip-path:url(#SVGID_46_);fill:#501C16;}
	.st164{clip-path:url(#SVGID_46_);fill:#E5462C;}
	.st165{clip-path:url(#SVGID_46_);fill:#812A1D;}
	.st166{clip-path:url(#SVGID_46_);fill:#9A3121;}
	.st167{clip-path:url(#SVGID_46_);fill:#CC3F28;}
	.st168{clip-path:url(#SVGID_46_);fill:#66221D;}
	.st169{clip-path:url(#SVGID_46_);fill:#B33824;}
	.st170{clip-path:url(#SVGID_46_);fill:#371512;}
	.st171{clip-path:url(#SVGID_47_);fill:#1E3A1A;}
	.st172{clip-path:url(#SVGID_47_);fill:#45882F;}
	.st173{clip-path:url(#SVGID_47_);fill:#4D9D27;}
	.st174{clip-path:url(#SVGID_47_);fill:#54B11F;}
	.st175{clip-path:url(#SVGID_47_);fill:#3D7437;}
	.st176{clip-path:url(#SVGID_47_);fill:#365F3E;}
	.st177{fill:none;}
	.st178{clip-path:url(#SVGID_49_);fill:#1E3A1A;}
	.st179{clip-path:url(#SVGID_49_);fill:#45882F;}
	.st180{clip-path:url(#SVGID_49_);fill:#4D9D27;}
	.st181{clip-path:url(#SVGID_49_);fill:#54B11F;}
	.st182{clip-path:url(#SVGID_49_);fill:#3D7437;}
	.st183{clip-path:url(#SVGID_49_);fill:#365F3E;}
	.st184{clip-path:url(#SVGID_50_);}
	.st185{fill:#1E3A1A;}
	.st186{fill:#45882F;}
	.st187{fill:#4D9D27;}
	.st188{fill:#54B11F;}
	.st189{fill:#3D7437;}
	.st190{fill:#365F3E;}
	.st191{clip-path:url(#SVGID_51_);fill:#9A3121;}
	.st192{clip-path:url(#SVGID_51_);fill:#501C16;}
	.st193{clip-path:url(#SVGID_51_);fill:#E5462C;}
	.st194{clip-path:url(#SVGID_51_);fill:#812A1D;}
	.st195{clip-path:url(#SVGID_51_);fill:#CC3F28;}
	.st196{clip-path:url(#SVGID_51_);fill:#66221D;}
	.st197{clip-path:url(#SVGID_51_);fill:#B33824;}
	.st198{clip-path:url(#SVGID_51_);fill:#371512;}
	.st199{fill:none;stroke:#000000;stroke-miterlimit:10;}
	.st200{fill:#FF004F;}
	.st201{fill:#E5472B;}
	.st202{fill:#7B69CA;}
	.st203{fill:#DD4343;}
</style>
<g>
	<g>
		<defs>
			<polyline id="SVGID_8_" points="0,0 181.6,0 181.6,116.4 0,116.4 0,0 			"/>
		</defs>
		<clipPath id="SVGID_15_">
			<use xlink:href="#SVGID_8_"  style="overflow:visible;"/>
		</clipPath>
		<path style="clip-path:url(#SVGID_15_);fill:#501C16;" d="M28.2,0H11.7C8.3,0,5.2,1.5,3.1,3.8l6.7,19.5c0.6,0.1,1.3,0.2,1.9,0.2v0
			h1.8L28.2,0"/>
		<path style="clip-path:url(#SVGID_15_);fill:#501C16;" d="M59.4,61.3l-0.2-15h40.2l0,0.2L59.4,61.3z M59.4,46.6L59.6,61l39.3-14.5
			H59.4z"/>
		<polyline style="clip-path:url(#SVGID_15_);fill:#501C16;" points="99.5,46.5 59.3,46.5 59.5,61.2 99.5,46.5 		"/>
		<path style="clip-path:url(#SVGID_15_);fill:#E5462C;" d="M116.5,70H65.9l0,0l-6.5-8.9l0.1,0l40-14.7h17.1
			c6.5,0,11.8,5.3,11.8,11.8C128.4,64.7,123.1,70,116.5,70z M66,69.8h50.5c6.4,0,11.6-5.2,11.6-11.6c0-6.4-5.2-11.6-11.6-11.6h-17
			L59.7,61.2L66,69.8z"/>
		<path style="clip-path:url(#SVGID_15_);fill:#E5462C;" d="M116.5,46.5H99.5L59.5,61.2l6.4,8.7h50.6c6.5,0,11.7-5.3,11.7-11.7
			C128.3,51.7,123,46.5,116.5,46.5"/>
		<path style="clip-path:url(#SVGID_15_);fill:#812A1D;" d="M66.2,70h-6l0-0.1l-0.7-9.1L66.2,70z M60.3,69.8h5.4l-6.1-8.3L60.3,69.8
			z"/>
		<polyline style="clip-path:url(#SVGID_15_);fill:#812A1D;" points="59.5,61.2 60.3,69.9 66,69.9 59.5,61.2 		"/>
		<path style="clip-path:url(#SVGID_15_);fill:#9A3121;" d="M60.4,70H49.7c-1.3,0-2.6-0.2-3.9-0.7l-0.2-0.1l0.2-0.1L59.6,61L60.4,70
			z M46.1,69.3c1.2,0.4,2.4,0.6,3.6,0.6h10.4l-0.7-8.5L46.1,69.3z"/>
		<path style="clip-path:url(#SVGID_15_);fill:#9A3121;" d="M59.5,61.2L59.5,61.2l-13.7,8.1c1.2,0.4,2.5,0.7,3.9,0.7h10.5L59.5,61.2
			"/>
		<path style="clip-path:url(#SVGID_15_);fill:#501C16;" d="M45.9,69.4L45.9,69.4c-4.8-1.7-8-6.2-8-11.2c0-3.6,1.6-6.9,4.4-9.2
			l0.1,0l0.1,0l17.4,12.2L45.9,69.4z M42.3,49.2c-2.7,2.2-4.2,5.5-4.2,9c0,4.9,3.1,9.3,7.8,11l13.5-8L42.3,49.2z"/>
		<path style="clip-path:url(#SVGID_15_);fill:#501C16;" d="M42.3,49.1c-2.6,2.2-4.3,5.4-4.3,9.1c0,5.1,3.3,9.5,7.9,11.1l13.7-8.1
			L42.3,49.1"/>
		<path style="clip-path:url(#SVGID_15_);fill:#CC3F28;" d="M59.6,61.4L42.1,49.1l0.1-0.1c2.1-1.7,4.8-2.7,7.5-2.7h9.7l0,0.1
			L59.6,61.4z M42.5,49.1l17,11.9l-0.2-14.4h-9.5C47.1,46.6,44.5,47.5,42.5,49.1z"/>
		<path style="clip-path:url(#SVGID_15_);fill:#CC3F28;" d="M59.3,46.5h-9.6c-2.8,0-5.4,1-7.4,2.6l17.2,12.1L59.3,46.5"/>
		<path style="clip-path:url(#SVGID_15_);fill:#66221D;" d="M143.8,30.2L143.8,30.2c-6-4.4-13-6.6-20.4-6.6H88c-2,0-3.9-0.5-5.6-1.4
			c-3.8-2.1-6.2-6.1-6.2-10.4c0-6.5,5.3-11.8,11.8-11.8H124v0l0.1,0l0,0l34.2,24.9l-0.2,0.1L143.8,30.2z M88,0.1
			c-6.4,0-11.6,5.2-11.6,11.6c0,4.3,2.3,8.2,6.1,10.2c1.7,0.9,3.6,1.4,5.5,1.4h35.4c7.4,0,14.4,2.3,20.4,6.6l14-5.2L124,0.1l-0.6,0
			H88z"/>
		<path style="clip-path:url(#SVGID_15_);fill:#66221D;" d="M123.9,0h-0.5h0H88c-6.5,0-11.7,5.3-11.7,11.7c0,4.5,2.5,8.3,6.1,10.3
			c1.7,0.9,3.6,1.4,5.6,1.4h35.4v0c7.6,0,14.7,2.5,20.4,6.6l14.3-5.3L124,0C124,0,123.9,0,123.9,0L123.9,0"/>
		<path style="clip-path:url(#SVGID_15_);fill:#E5462C;" d="M100,116.5L83.3,93.8l0.1,0c1.5-0.6,3-0.9,4.6-0.9h35.3l0.1,0
			c6.9,0,13.5-2,19.2-5.8l0.2-0.1l-7,28.3l-0.1,0c-3.8,0.8-7.8,1.3-11.8,1.3l-0.1,0H100z M153.8,41.7c-2.4-4.5-5.9-8.5-10.1-11.5
			l-0.2-0.1l14.6-5.4l-4.3,17.2L153.8,41.7z"/>
		<path style="clip-path:url(#SVGID_15_);fill:#E5462C;" d="M142.6,87.1c-5.5,3.7-12.1,5.8-19.2,5.8v0H88c-1.6,0-3.2,0.3-4.6,0.9
			l16.6,22.6h23.4h0h0.5v0c4.1,0,8-0.5,11.9-1.3L142.6,87.1 M158,24.8l-14.3,5.3c4.2,3,7.6,7,10.1,11.5L158,24.8"/>
		<path style="clip-path:url(#SVGID_15_);fill:#B33824;" d="M135.6,115.2l0-0.2l6.9-28l0,0c9.6-6.4,15.4-17.2,15.4-28.8
			c0-5.8-1.4-11.5-4.2-16.5l0,0l0,0l4.2-16.9l22.5,21.6l0,0c0.8,3.9,1.2,7.9,1.2,11.9c0,13.4-4.7,26.5-13.1,36.9
			c-8.3,10.2-20,17.4-32.8,20.1L135.6,115.2z M142.7,87.1l-6.9,27.8c12.7-2.8,24.3-9.9,32.6-20c8.4-10.3,13.1-23.4,13.1-36.7
			c0-4-0.4-8-1.2-11.8L158.1,25L154,41.6c2.7,5.1,4.2,10.8,4.2,16.6C158.2,69.8,152.4,80.6,142.7,87.1z"/>
		<path style="clip-path:url(#SVGID_15_);fill:#B33824;" d="M158,24.8L158,24.8l-4.2,16.8c2.7,4.9,4.2,10.6,4.2,16.6
			c0,12-6.1,22.7-15.5,28.9l-6.9,28c26.2-5.6,45.9-29,45.9-56.9c0-4.1-0.4-8.1-1.2-11.9L158,24.8"/>
		<path style="clip-path:url(#SVGID_15_);fill:#E5462C;" d="M180.5,46.6l-0.2-0.2l-22.4-21.5l4.8-9.7l0.1,0.1
			c9.1,8.3,15.2,19.1,17.7,31L180.5,46.6z M158.2,24.8l22,21.2c-2.5-11.8-8.5-22.3-17.4-30.5L158.2,24.8z"/>
		<path style="clip-path:url(#SVGID_15_);fill:#E5462C;" d="M162.7,15.3l-4.7,9.5l22.3,21.5C177.9,34.2,171.5,23.4,162.7,15.3"/>
		<path style="clip-path:url(#SVGID_15_);fill:#371512;" d="M158.1,25L158.1,25L123.7-0.1l0.3,0c14.4,0.1,28.2,5.6,38.8,15.3l0.1,0
			L158.1,25z M124.3,0.1L158,24.7l4.6-9.3C152.1,5.7,138.5,0.3,124.3,0.1z"/>
		<path style="clip-path:url(#SVGID_15_);fill:#371512;" d="M124,0l34,24.8l4.7-9.5C152.5,5.9,138.9,0.2,124,0"/>
		<path style="clip-path:url(#SVGID_15_);fill:#812A1D;" d="M100.2,116.5H88c-6.5,0-11.8-5.3-11.8-11.8c0-4.8,2.8-9.1,7.2-10.9
			l0.1,0l0,0.1L100.2,116.5z M83.4,94c-4.3,1.8-7.1,6-7.1,10.7c0,6.4,5.2,11.6,11.6,11.6h11.8L83.4,94z"/>
		<path style="clip-path:url(#SVGID_15_);fill:#812A1D;" d="M83.5,93.8c-4.2,1.8-7.2,6-7.2,10.8c0,6.5,5.3,11.7,11.7,11.7h12
			L83.5,93.8"/>
		<path style="clip-path:url(#SVGID_15_);fill:#CC3F28;" d="M45.5,23.6H13.4l0.1-0.2L28.1-0.1h17.4c6.5,0,11.8,5.3,11.8,11.8
			C57.3,18.3,52,23.6,45.5,23.6z M13.7,23.4h31.7c6.4,0,11.6-5.2,11.6-11.6c0-6.4-5.2-11.6-11.6-11.6H28.2L13.7,23.4z"/>
		<path style="clip-path:url(#SVGID_15_);fill:#CC3F28;" d="M45.5,0H28.2L13.6,23.5l31.9,0c6.5,0,11.7-5.3,11.7-11.7
			C57.2,5.3,52,0,45.5,0"/>
		<path style="clip-path:url(#SVGID_15_);fill:#501C16;" d="M13.6,23.6h-1.9c-0.6,0-1.3-0.1-1.9-0.2l-0.1,0L3,3.8l0,0
			c2.2-2.4,5.4-3.8,8.7-3.8h16.6l-0.1,0.2L13.6,23.6z M9.9,23.2c0.6,0.1,1.2,0.1,1.8,0.1h1.8L28,0.1H11.7c-3.2,0-6.3,1.4-8.5,3.7
			L9.9,23.2z"/>
		<path style="clip-path:url(#SVGID_15_);fill:#9A3121;" d="M10,23.5l-0.2,0c-5.7-0.9-9.9-5.9-9.9-11.7c0-3,1.1-5.8,3.1-8l0.1-0.1
			l0.1,0.2L10,23.5z M3.1,4c-1.9,2.1-3,4.9-3,7.8c0,5.7,4,10.5,9.6,11.5L3.1,4z"/>
		<path style="clip-path:url(#SVGID_15_);fill:#9A3121;" d="M3.1,3.8C1.2,5.9,0,8.7,0,11.7c0,5.8,4.3,10.7,9.8,11.6L3.1,3.8"/>
		<path style="clip-path:url(#SVGID_15_);fill:none;" d="M181.7,116.5H-0.1V-0.1h181.8V116.5z M0.1,116.3h181.4V0.1H0.1V116.3z"/>
	</g>
</g>
</svg>
