<svg id="Layer_1" data-name="Layer 1" xmlns="http://www.w3.org/2000/svg" viewBox="0 0 497.94 116.75"><defs><style>.cls-1{fill:none}.cls-2{fill:#21262d}.cls-3{clip-path:url(#clip-path)}.cls-4{fill:#9a3121}.cls-5{fill:#501c16}.cls-6{fill:#e5462c}.cls-7{fill:#812a1d}.cls-8{fill:#cc3f28}.cls-9{fill:#66221d}.cls-10{fill:#b33824}.cls-11{fill:#371512}</style><clipPath id="clip-path"><path id="SVGID" class="cls-1" d="M0 .35h181.59v116.4H0V.35"/></clipPath></defs><title>Artboard 26</title><path class="cls-2" d="M300.72 11.57v96.57H280v-6.48c-4.55 5.24-11.31 8.42-20.56 8.42-18.07 0-33-15.86-33-36.42s14.9-36.42 33-36.42c9.24 0 16 3.17 20.56 8.42V11.57zM280 73.65c0-10.35-6.9-16.83-16.42-16.83S247.2 63.3 247.2 73.65s6.9 16.83 16.42 16.83S280 84 280 73.65zm102.09-34.49v69h-20.7v-6.48c-4.55 5.24-11.31 8.42-20.56 8.42-18.07 0-33-15.86-33-36.42s14.9-36.42 33-36.42c9.24 0 16 3.17 20.56 8.42v-6.52zm-20.7 34.49c0-10.35-6.9-16.83-16.42-16.83s-16.42 6.48-16.42 16.83 6.9 16.83 16.42 16.83 16.42-6.48 16.42-16.83zm102.06-62.08v96.57h-20.7v-6.48c-4.55 5.24-11.31 8.42-20.56 8.42-18.07 0-33-15.86-33-36.42s14.9-36.42 33-36.42c9.24 0 16 3.17 20.56 8.42V11.57zm-20.7 62.08c0-10.35-6.9-16.83-16.42-16.83s-16.42 6.48-16.42 16.83 6.9 16.83 16.42 16.83 16.42-6.48 16.42-16.83zm30.36-52.98a12.42 12.42 0 1 1 24.83 0 12.42 12.42 0 1 1-24.83 0zm2.07 18.49h20.69v69h-20.7z"/><g class="cls-3"><path class="cls-4" d="M59.54 61.54l-13.7 8.1a11.72 11.72 0 0 0 3.87.65h12.82l-3-8.75"/><path class="cls-5" d="M99.47 46.81H59.34l.2 14.73 39.93-14.73"/><path class="cls-6" d="M116.53 46.81H99.47L59.54 61.54 66 70.29h50.57a11.74 11.74 0 1 0 0-23.48"/><path class="cls-7" d="M59.54 61.54l.72 8.75h5.7l-6.42-8.75"/><path class="cls-5" d="M42.3 49.44a11.74 11.74 0 0 0 3.54 20.19l13.7-8.1L42.3 49.44"/><path class="cls-8" d="M59.34 46.81h-9.63a11.69 11.69 0 0 0-7.41 2.64l17.25 12.1-.2-14.73"/><path class="cls-9" d="M123.86.35H88a11.74 11.74 0 1 0 0 23.48h35.4a34.55 34.55 0 0 1 20.39 6.62L158 25.2 124 .37h-.15"/><path class="cls-6" d="M142.65 87.42a34.54 34.54 0 0 1-19.25 5.82H88a11.7 11.7 0 0 0-4.56.92L100 116.75h23.82a58.41 58.41 0 0 0 11.86-1.3l6.93-28M158 25.2l-14.26 5.26A34.87 34.87 0 0 1 153.9 42l4.1-16.8"/><path class="cls-10" d="M158 25.2L153.9 42a34.73 34.73 0 0 1-11.25 45.45l-6.93 28a58.26 58.26 0 0 0 44.66-68.77L158 25.2"/><path class="cls-6" d="M162.74 15.68L158 25.2l22.33 21.46a58.11 58.11 0 0 0-17.63-31"/><path class="cls-11" d="M124 .37l34 24.83 4.69-9.52A58 58 0 0 0 124 .37"/><path class="cls-7" d="M83.48 94.18A11.74 11.74 0 0 0 88 116.75h12L83.48 94.18"/><path class="cls-8" d="M45.49.35H28.16l-14.6 23.48h31.93a11.74 11.74 0 1 0 0-23.48"/><path class="cls-5" d="M28.16.35H11.74a11.71 11.71 0 0 0-8.64 3.8l6.74 19.53a11.83 11.83 0 0 0 1.9.15h1.82L28.16.35"/><path class="cls-4" d="M3.1 4.15a11.74 11.74 0 0 0 6.74 19.53L3.1 4.15"/></g></svg>