<svg id="Layer_1" data-name="Layer 1" xmlns="http://www.w3.org/2000/svg" viewBox="0 0 497.94 116.39"><defs><style>.cls-1{fill:#21262d}</style></defs><title>Artboard 25</title><path class="cls-1" d="M300.72 11.21v96.57H280v-6.48c-4.55 5.24-11.31 8.42-20.56 8.42-18.07 0-33-15.86-33-36.42s14.9-36.42 33-36.42c9.24 0 16 3.17 20.56 8.42V11.21zM280 73.29c0-10.35-6.9-16.83-16.42-16.83s-16.38 6.49-16.38 16.83 6.9 16.83 16.42 16.83S280 83.64 280 73.29zm102.09-34.48v69h-20.7v-6.51c-4.55 5.24-11.31 8.42-20.56 8.42-18.07 0-33-15.86-33-36.42s14.9-36.42 33-36.42c9.24 0 16 3.17 20.56 8.42v-6.49zm-20.7 34.48c0-10.35-6.9-16.83-16.42-16.83s-16.42 6.48-16.42 16.83 6.9 16.83 16.42 16.83 16.42-6.48 16.42-16.83zm102.06-62.08v96.57h-20.7v-6.48c-4.55 5.24-11.31 8.42-20.56 8.42-18.07 0-33-15.86-33-36.42s14.9-36.42 33-36.42c9.24 0 16 3.17 20.56 8.42V11.21zm-20.7 62.08c0-10.35-6.9-16.83-16.42-16.83s-16.42 6.48-16.42 16.83 6.9 16.83 16.42 16.83 16.42-6.48 16.42-16.83zm30.36-52.97a12.42 12.42 0 0 1 24.83 0 12.42 12.42 0 1 1-24.83 0zm2.07 18.49h20.69v69h-20.7zM116.53 69.94a11.74 11.74 0 1 0 0-23.48H49.71a11.74 11.74 0 0 0 0 23.48h66.82z"/><path class="cls-1" d="M123.85 0H88a11.74 11.74 0 1 0 0 23.48h35.4a34.7 34.7 0 1 1 0 69.41H88a11.74 11.74 0 1 0 0 23.48h35.82A58.19 58.19 0 0 0 123.85 0zM45.49 23.48a11.74 11.74 0 1 0 0-23.48H11.74a11.74 11.74 0 0 0 0 23.48h33.75z"/></svg>