<svg height="88" viewBox="0 0 339 88" width="339" xmlns="http://www.w3.org/2000/svg"><path d="m25.067087 43.2655841 25.7231477 25.6266156 16.2368663-16.1727484c2.8623492-2.8560922 7.5180996-2.8560922 10.3855149 0s2.8674153 7.4884115 0 10.3445036l-21.4296238 21.3450005c-2.8547501 2.8409539-7.5560955 2.8157233-10.3855149 0l-30.9108391-30.7938215v18.3072486c0 4.0192181-3.3081665 7.3168442-7.3458521 7.3168442-4.05288393 0-7.340786-3.2799648-7.340786-7.3168442v-57.3135967c0-4.0368795 3.28790207-7.31684408 7.3458521-7.31684408 4.0528839 0 7.340786 3.27996458 7.340786 7.31684408v18.3072484l30.9108391-30.79382127c2.8294194-2.81572345 7.5307648-2.843477 10.3855149 0l21.4296238 21.34500037c2.8674153 2.8510461 2.8674153 7.4858885 0 10.3445038-2.8674153 2.851046-7.5231657 2.8560921-10.3855149 0l-16.2368663-16.1727486zm25.7358128-7.3218901c4.0579502 0 7.3458521 3.2799645 7.3458521 7.3218901 0 4.0419258-3.2879019 7.3218903-7.3458521 7.3218903-4.0604829 0-7.3534512-3.2799645-7.3534512-7.3218903 0-4.0419256 3.2929683-7.3218901 7.3509182-7.3218901zm59.6483192-24.5442274c-2.487458 0-4.551895 2.0537625-4.551895 4.5313973v54.6694406c0 2.4852039 2.051772 4.5339203 4.534164 4.5339203 2.482391 0 4.534163-2.0436702 4.534163-4.5162589v-54.6770098c0-2.4902501-2.077103-4.5414895-4.559494-4.5414895zm35.361412 1.317032c-1.752872-1.7509965-4.673482-1.7509965-6.433953 0l-20.35561 20.2802734c-1.512232 1.5062607-1.309588 3.8451276-.638329 5.0006845l20.26442 34.8685465c1.220931 2.1092696 4.078214 2.9141224 6.216111 1.6652128 2.137896-1.2564787 2.91301-4.0494948 1.671814-6.1865179l-18.379828-31.6289508 17.660441-17.5856562c1.763005-1.7610887 1.763005-4.6550267 0-6.4135923zm12.427156 17.0987077c-2.487458 0-4.551896 2.0436702-4.551896 4.5162589v23.9185111c0 9.3100533 7.589025 16.8792023 16.941055 16.8792023h14.268684c2.477326 0 4.549363-2.0689008 4.549363-4.5414895v-36.2537009c0-2.4877269-2.051773-4.5263512-4.549363-4.5263512-2.487457 0-4.551895 2.0512395-4.551895 4.5263512v31.7248269h-9.726921c-4.33152 0-7.852463-3.4969469-7.852463-7.8088388v-23.9185111c0-2.4978191-2.051772-4.5414895-4.559494-4.5414895zm78.793129-13.9020038c0-2.4978192-2.064438-4.5414894-4.551895-4.5414894h-17.250088c-9.346963 0-16.92079 7.5439185-16.92079 16.8539719v29.9990606c0 9.3100534 7.599158 16.8792026 16.946121 16.8792026h17.275418c2.507722 0 4.559494-2.0689007 4.559494-4.5414894s-2.051772-4.5414895-4.559494-4.5414895h-17.277951c-4.33152 0-7.839797-3.507039-7.839797-7.821454v-29.9460769c0-4.3144148 3.51081-7.8088387 7.839797-7.8088387h17.250087c2.487458 0 4.546829-2.0512393 4.546829-4.5339202zm53.14344-4.5414894c-2.495058 0-4.549362 2.0436702-4.549362 4.5162589s2.056838 4.5162589 4.551895 4.5162589c2.482391 0 4.534165-2.0436702 4.534165-4.5414894s-2.051774-4.5414894-4.559495-4.5414894zm0 18.4182626c-2.495058 0-4.549362 2.0436704-4.549362 4.5162591v36.256224c0 2.4725887 2.056838 4.5162588 4.551895 4.5162588 2.482391 0 4.534165-2.0436701 4.534165-4.5414895v-36.1780092c0-2.4826811-2.051774-4.5313974-4.559495-4.5313974zm43.066959 45.3139725c2.487457 0 4.551895-2.0689007 4.551895-4.5414894v-23.8932805c0-9.335284-7.586493-16.8792026-16.941055-16.8792026h-14.286416c-2.48239 0-4.559495 2.0689008-4.559495 4.5162591v36.256224c0 2.4725887 2.051772 4.5162588 4.534165 4.5162588 2.482391 0 4.534162-2.0689008 4.534162-4.5414895v-31.6617504h9.701591c4.321389 0 7.832198 3.4969469 7.832198 7.8088388v23.913465c0 2.4801576 2.051774 4.5313971 4.544298 4.5313971zm-89.662458-28.4322468c0-9.2848231 7.538364-16.8716334 16.844798-16.8716334h1.132275c9.270972 0 16.76374 7.6069948 16.76374 16.8640641v11.580798c0 9.2595924-7.492768 16.853972-16.76374 16.8665871h-1.132275c-9.308968.0075693-16.844798-7.5868103-16.844798-16.871633v-11.5807983zm25.63449 0c0-4.3068461-3.495612-7.8088389-7.819533-7.8088389h-.891634c-4.321388 0-7.822066 3.507039-7.822066 7.8138848v11.573229c0 4.2891844 3.500678 7.7962236 7.822066 7.7962236h.891634c4.321388 0 7.822066-3.5070392 7.822066-7.8214543v-11.5807979z" fill="#0e75ef" transform="translate(.234375 .523062)"/></svg>